<svg width="46" height="107" viewBox="0 0 46 107" fill="none" xmlns="http://www.w3.org/2000/svg">
<mask id="path-1-inside-1_18_22" fill="white">
<path d="M13.0979 31.56C10.6079 31.56 8.58929 29.5414 8.58929 27.0514L8.58929 13.0686C8.58929 10.5786 10.6079 8.56 13.0979 8.56L33.0807 8.56C35.5707 8.56 37.5893 10.5786 37.5893 13.0686V27.0514C37.5893 29.5414 35.5707 31.56 33.0807 31.56L13.0979 31.56Z"/>
</mask>
<path d="M13.0979 31.56C10.6079 31.56 8.58929 29.5414 8.58929 27.0514L8.58929 13.0686C8.58929 10.5786 10.6079 8.56 13.0979 8.56L33.0807 8.56C35.5707 8.56 37.5893 10.5786 37.5893 13.0686V27.0514C37.5893 29.5414 35.5707 31.56 33.0807 31.56L13.0979 31.56Z" fill="white"/>
<path d="M13.0979 32.6871C9.98535 32.6871 7.46215 30.1639 7.46215 27.0514L7.46215 13.0686C7.46215 10.2673 9.73303 7.99643 12.5343 7.99643L13.0979 9.12357C11.2304 9.12357 9.71644 10.8898 9.71644 13.0686L9.71644 27.0514C9.71644 28.9189 11.2304 30.4329 13.0979 30.4329V32.6871ZM33.6443 7.99643C36.4456 7.99643 38.7164 10.2673 38.7164 13.0686V27.0514C38.7164 30.1639 36.1932 32.6871 33.0807 32.6871V30.4329C34.9482 30.4329 36.4622 28.9189 36.4622 27.0514V13.0686C36.4622 10.8898 34.9482 9.12357 33.0807 9.12357L33.6443 7.99643ZM38.7164 27.0514C38.7164 30.1639 36.1932 32.6871 33.0807 32.6871H13.0979C9.98535 32.6871 7.46215 30.1639 7.46215 27.0514H9.71644C9.71644 28.9189 11.2304 30.4329 13.0979 30.4329L33.0807 30.4329C34.9482 30.4329 36.4622 28.9189 36.4622 27.0514H38.7164ZM7.46215 13.0686C7.46215 10.2673 9.73303 7.99643 12.5343 7.99643L33.6443 7.99643C36.4456 7.99643 38.7164 10.2673 38.7164 13.0686H36.4622C36.4622 10.8898 34.9482 9.12357 33.0807 9.12357L13.0979 9.12357C11.2304 9.12357 9.71644 10.8898 9.71644 13.0686H7.46215Z" fill="white" mask="url(#path-1-inside-1_18_22)"/>
<mask id="path-3-inside-2_18_22" fill="white">
<path d="M33.7971 10.1443C35.6647 10.1443 37.2253 8.56412 36.4272 6.87575C36.3295 6.66908 36.2224 6.46446 36.1061 6.26224C35.398 5.03147 34.3602 3.91318 33.0519 2.97119C31.7436 2.02921 30.1904 1.28199 28.481 0.772188C26.7716 0.26239 24.9395 -5.82308e-08 23.0893 0C21.2391 5.82309e-08 19.4069 0.26239 17.6975 0.772188C15.9882 1.28199 14.435 2.02921 13.1267 2.97119C11.8183 3.91318 10.7805 5.03148 10.0725 6.26224C9.95614 6.46447 9.84908 6.66908 9.75138 6.87575C8.95326 8.56412 10.5139 10.1443 12.3814 10.1443L23.0893 10.1443H33.7971Z"/>
</mask>
<path d="M33.7971 10.1443C35.6647 10.1443 37.2253 8.56412 36.4272 6.87575C36.3295 6.66908 36.2224 6.46446 36.1061 6.26224C35.398 5.03147 34.3602 3.91318 33.0519 2.97119C31.7436 2.02921 30.1904 1.28199 28.481 0.772188C26.7716 0.26239 24.9395 -5.82308e-08 23.0893 0C21.2391 5.82309e-08 19.4069 0.26239 17.6975 0.772188C15.9882 1.28199 14.435 2.02921 13.1267 2.97119C11.8183 3.91318 10.7805 5.03148 10.0725 6.26224C9.95614 6.46447 9.84908 6.66908 9.75138 6.87575C8.95326 8.56412 10.5139 10.1443 12.3814 10.1443L23.0893 10.1443H33.7971Z" fill="white" stroke="white" stroke-width="2.25429" mask="url(#path-3-inside-2_18_22)"/>
<mask id="path-4-inside-3_18_22" fill="white">
<path d="M14.5893 29.56C12.3802 29.56 10.5893 27.7691 10.5893 25.56L10.5893 13.56C10.5893 11.3509 12.3802 9.56 14.5893 9.56L31.5893 9.56C33.7984 9.56 35.5893 11.3509 35.5893 13.56V25.56C35.5893 27.7691 33.7984 29.56 31.5893 29.56L14.5893 29.56Z"/>
</mask>
<path d="M14.5893 29.56C12.3802 29.56 10.5893 27.7691 10.5893 25.56L10.5893 13.56C10.5893 11.3509 12.3802 9.56 14.5893 9.56L31.5893 9.56C33.7984 9.56 35.5893 11.3509 35.5893 13.56V25.56C35.5893 27.7691 33.7984 29.56 31.5893 29.56L14.5893 29.56Z" fill="url(#paint0_radial_18_22)"/>
<path d="M14.5893 30.56C11.8279 30.56 9.58929 28.3214 9.58929 25.56L9.58929 13.56C9.58929 11.0747 11.604 9.06 14.0893 9.06L14.5893 10.06C12.9324 10.06 11.5893 11.627 11.5893 13.56L11.5893 25.56C11.5893 27.2169 12.9324 28.56 14.5893 28.56V30.56ZM32.0893 9.06C34.5746 9.06 36.5893 11.0747 36.5893 13.56V25.56C36.5893 28.3214 34.3507 30.56 31.5893 30.56V28.56C33.2461 28.56 34.5893 27.2169 34.5893 25.56V13.56C34.5893 11.627 33.2461 10.06 31.5893 10.06L32.0893 9.06ZM36.5893 25.56C36.5893 28.3214 34.3507 30.56 31.5893 30.56L14.5893 30.56C11.8279 30.56 9.58929 28.3214 9.58929 25.56H11.5893C11.5893 27.2169 12.9324 28.56 14.5893 28.56L31.5893 28.56C33.2461 28.56 34.5893 27.2169 34.5893 25.56H36.5893ZM9.58929 13.56C9.58929 11.0747 11.604 9.06 14.0893 9.06L32.0893 9.06C34.5746 9.06 36.5893 11.0747 36.5893 13.56H34.5893C34.5893 11.627 33.2461 10.06 31.5893 10.06L14.5893 10.06C12.9324 10.06 11.5893 11.627 11.5893 13.56H9.58929Z" fill="black" mask="url(#path-4-inside-3_18_22)"/>
<mask id="path-6-inside-4_18_22" fill="white">
<path d="M32.5893 10.56C34.2461 10.56 35.6308 9.15807 34.9227 7.66015C34.836 7.4768 34.741 7.29526 34.6378 7.11585C34.0096 6.02392 33.0889 5.03176 31.9281 4.19604C30.7674 3.36031 29.3894 2.69737 27.8728 2.24508C26.3563 1.79279 24.7308 1.56 23.0893 1.56C21.4478 1.56 19.8223 1.79279 18.3058 2.24508C16.7892 2.69737 15.4112 3.36031 14.2505 4.19604C13.0897 5.03176 12.169 6.02392 11.5408 7.11585C11.4376 7.29526 11.3426 7.4768 11.2559 7.66015C10.5478 9.15807 11.9324 10.56 13.5893 10.56L23.0893 10.56H32.5893Z"/>
</mask>
<path d="M32.5893 10.56C34.2461 10.56 35.6308 9.15807 34.9227 7.66015C34.836 7.4768 34.741 7.29526 34.6378 7.11585C34.0096 6.02392 33.0889 5.03176 31.9281 4.19604C30.7674 3.36031 29.3894 2.69737 27.8728 2.24508C26.3563 1.79279 24.7308 1.56 23.0893 1.56C21.4478 1.56 19.8223 1.79279 18.3058 2.24508C16.7892 2.69737 15.4112 3.36031 14.2505 4.19604C13.0897 5.03176 12.169 6.02392 11.5408 7.11585C11.4376 7.29526 11.3426 7.4768 11.2559 7.66015C10.5478 9.15807 11.9324 10.56 13.5893 10.56L23.0893 10.56H32.5893Z" fill="url(#paint1_linear_18_22)"/>
<path d="M32.5893 10.56C34.2461 10.56 35.6308 9.15807 34.9227 7.66015C34.836 7.4768 34.741 7.29526 34.6378 7.11585C34.0096 6.02392 33.0889 5.03176 31.9281 4.19604C30.7674 3.36031 29.3894 2.69737 27.8728 2.24508C26.3563 1.79279 24.7308 1.56 23.0893 1.56C21.4478 1.56 19.8223 1.79279 18.3058 2.24508C16.7892 2.69737 15.4112 3.36031 14.2505 4.19604C13.0897 5.03176 12.169 6.02392 11.5408 7.11585C11.4376 7.29526 11.3426 7.4768 11.2559 7.66015C10.5478 9.15807 11.9324 10.56 13.5893 10.56L23.0893 10.56H32.5893Z" stroke="black" stroke-width="2" mask="url(#path-6-inside-4_18_22)"/>
<path d="M32.5893 10.56C34.2461 10.56 35.6308 9.15807 34.9227 7.66015C34.836 7.4768 34.741 7.29526 34.6378 7.11585C34.0096 6.02392 33.0889 5.03176 31.9281 4.19604C30.7674 3.36031 29.3894 2.69737 27.8728 2.24508C26.3563 1.79279 24.7308 1.56 23.0893 1.56C21.4478 1.56 19.8223 1.79279 18.3058 2.24508C16.7892 2.69737 15.4112 3.36031 14.2505 4.19604C13.0897 5.03176 12.169 6.02392 11.5408 7.11585C11.4376 7.29526 11.3426 7.4768 11.2559 7.66015C10.5478 9.15807 11.9324 10.56 13.5893 10.56L23.0893 10.56H32.5893Z" stroke="black" stroke-opacity="0.2" stroke-width="2" mask="url(#path-6-inside-4_18_22)"/>
<mask id="path-7-inside-5_18_22" fill="white">
<path d="M33.0807 75C35.5707 75 37.5893 77.0186 37.5893 79.5086L37.5893 93.4914C37.5893 95.9814 35.5707 98 33.0807 98H13.0979C10.6079 98 8.58929 95.9814 8.58929 93.4914L8.58929 79.5086C8.58929 77.0186 10.6079 75 13.0979 75H33.0807Z"/>
</mask>
<path d="M33.0807 75C35.5707 75 37.5893 77.0186 37.5893 79.5086L37.5893 93.4914C37.5893 95.9814 35.5707 98 33.0807 98H13.0979C10.6079 98 8.58929 95.9814 8.58929 93.4914L8.58929 79.5086C8.58929 77.0186 10.6079 75 13.0979 75H33.0807Z" fill="white"/>
<path d="M33.0807 73.8729C36.1932 73.8729 38.7164 76.3961 38.7164 79.5086L38.7164 93.4914C38.7164 96.2927 36.4456 98.5636 33.6443 98.5636L33.0807 97.4364C34.9482 97.4364 36.4622 95.6702 36.4622 93.4914L36.4622 79.5086C36.4622 77.6411 34.9482 76.1271 33.0807 76.1271V73.8729ZM12.5343 98.5636C9.73303 98.5636 7.46215 96.2927 7.46215 93.4914L7.46215 79.5086C7.46215 76.3961 9.98535 73.8729 13.0979 73.8729V76.1271C11.2304 76.1271 9.71644 77.6411 9.71644 79.5086L9.71644 93.4914C9.71644 95.6702 11.2304 97.4364 13.0979 97.4364L12.5343 98.5636ZM7.46215 79.5086C7.46215 76.3961 9.98535 73.8729 13.0979 73.8729H33.0807C36.1932 73.8729 38.7164 76.3961 38.7164 79.5086H36.4622C36.4622 77.6411 34.9482 76.1271 33.0807 76.1271H13.0979C11.2304 76.1271 9.71644 77.6411 9.71644 79.5086H7.46215ZM38.7164 93.4914C38.7164 96.2927 36.4456 98.5636 33.6443 98.5636H12.5343C9.73303 98.5636 7.46215 96.2927 7.46215 93.4914H9.71644C9.71644 95.6702 11.2304 97.4364 13.0979 97.4364H33.0807C34.9482 97.4364 36.4622 95.6702 36.4622 93.4914H38.7164Z" fill="white" mask="url(#path-7-inside-5_18_22)"/>
<mask id="path-9-inside-6_18_22" fill="white">
<path d="M12.3814 96.4157C10.5139 96.4157 8.95327 97.9959 9.7514 99.6843C9.84909 99.8909 9.95616 100.096 10.0725 100.298C10.7806 101.529 11.8184 102.647 13.1267 103.589C14.435 104.531 15.9882 105.278 17.6976 105.788C19.407 106.298 21.2391 106.56 23.0893 106.56C24.9395 106.56 26.7716 106.298 28.481 105.788C30.1904 105.278 31.7436 104.531 33.0519 103.589C34.3602 102.647 35.3981 101.529 36.1061 100.298C36.2224 100.096 36.3295 99.8909 36.4272 99.6843C37.2253 97.9959 35.6647 96.4157 33.7972 96.4157L23.0893 96.4157H12.3814Z"/>
</mask>
<path d="M12.3814 96.4157C10.5139 96.4157 8.95327 97.9959 9.7514 99.6843C9.84909 99.8909 9.95616 100.096 10.0725 100.298C10.7806 101.529 11.8184 102.647 13.1267 103.589C14.435 104.531 15.9882 105.278 17.6976 105.788C19.407 106.298 21.2391 106.56 23.0893 106.56C24.9395 106.56 26.7716 106.298 28.481 105.788C30.1904 105.278 31.7436 104.531 33.0519 103.589C34.3602 102.647 35.3981 101.529 36.1061 100.298C36.2224 100.096 36.3295 99.8909 36.4272 99.6843C37.2253 97.9959 35.6647 96.4157 33.7972 96.4157L23.0893 96.4157H12.3814Z" fill="white" stroke="white" stroke-width="2.25429" mask="url(#path-9-inside-6_18_22)"/>
<mask id="path-10-inside-7_18_22" fill="white">
<path d="M31.5893 77C33.7984 77 35.5893 78.7909 35.5893 81V93C35.5893 95.2091 33.7984 97 31.5893 97H14.5893C12.3802 97 10.5893 95.2091 10.5893 93L10.5893 81C10.5893 78.7909 12.3802 77 14.5893 77H31.5893Z"/>
</mask>
<path d="M31.5893 77C33.7984 77 35.5893 78.7909 35.5893 81V93C35.5893 95.2091 33.7984 97 31.5893 97H14.5893C12.3802 97 10.5893 95.2091 10.5893 93L10.5893 81C10.5893 78.7909 12.3802 77 14.5893 77H31.5893Z" fill="url(#paint2_radial_18_22)"/>
<path d="M31.5893 76C34.3507 76 36.5893 78.2386 36.5893 81V93C36.5893 95.4853 34.5746 97.5 32.0893 97.5L31.5893 96.5C33.2461 96.5 34.5893 94.933 34.5893 93V81C34.5893 79.3431 33.2461 78 31.5893 78V76ZM14.0893 97.5C11.604 97.5 9.58929 95.4853 9.58929 93L9.58929 81C9.58929 78.2386 11.8279 76 14.5893 76V78C12.9324 78 11.5893 79.3431 11.5893 81L11.5893 93C11.5893 94.933 12.9324 96.5 14.5893 96.5L14.0893 97.5ZM9.58929 81C9.58929 78.2386 11.8279 76 14.5893 76H31.5893C34.3507 76 36.5893 78.2386 36.5893 81H34.5893C34.5893 79.3431 33.2461 78 31.5893 78H14.5893C12.9324 78 11.5893 79.3431 11.5893 81H9.58929ZM36.5893 93C36.5893 95.4853 34.5746 97.5 32.0893 97.5H14.0893C11.604 97.5 9.58929 95.4853 9.58929 93H11.5893C11.5893 94.933 12.9324 96.5 14.5893 96.5H31.5893C33.2461 96.5 34.5893 94.933 34.5893 93H36.5893Z" fill="black" mask="url(#path-10-inside-7_18_22)"/>
<mask id="path-12-inside-8_18_22" fill="white">
<path d="M13.5893 96C11.9324 96 10.5478 97.4019 11.2559 98.8998C11.3426 99.0832 11.4376 99.2647 11.5408 99.4442C12.169 100.536 13.0897 101.528 14.2505 102.364C15.4112 103.2 16.7892 103.863 18.3058 104.315C19.8223 104.767 21.4478 105 23.0893 105C24.7308 105 26.3563 104.767 27.8728 104.315C29.3894 103.863 30.7674 103.2 31.9281 102.364C33.0889 101.528 34.0096 100.536 34.6378 99.4442C34.741 99.2647 34.836 99.0832 34.9227 98.8998C35.6308 97.4019 34.2461 96 32.5893 96L23.0893 96H13.5893Z"/>
</mask>
<path d="M13.5893 96C11.9324 96 10.5478 97.4019 11.2559 98.8998C11.3426 99.0832 11.4376 99.2647 11.5408 99.4442C12.169 100.536 13.0897 101.528 14.2505 102.364C15.4112 103.2 16.7892 103.863 18.3058 104.315C19.8223 104.767 21.4478 105 23.0893 105C24.7308 105 26.3563 104.767 27.8728 104.315C29.3894 103.863 30.7674 103.2 31.9281 102.364C33.0889 101.528 34.0096 100.536 34.6378 99.4442C34.741 99.2647 34.836 99.0832 34.9227 98.8998C35.6308 97.4019 34.2461 96 32.5893 96L23.0893 96H13.5893Z" fill="url(#paint3_linear_18_22)"/>
<path d="M13.5893 96C11.9324 96 10.5478 97.4019 11.2559 98.8998C11.3426 99.0832 11.4376 99.2647 11.5408 99.4442C12.169 100.536 13.0897 101.528 14.2505 102.364C15.4112 103.2 16.7892 103.863 18.3058 104.315C19.8223 104.767 21.4478 105 23.0893 105C24.7308 105 26.3563 104.767 27.8728 104.315C29.3894 103.863 30.7674 103.2 31.9281 102.364C33.0889 101.528 34.0096 100.536 34.6378 99.4442C34.741 99.2647 34.836 99.0832 34.9227 98.8998C35.6308 97.4019 34.2461 96 32.5893 96L23.0893 96H13.5893Z" stroke="black" stroke-width="2" mask="url(#path-12-inside-8_18_22)"/>
<path d="M13.5893 96C11.9324 96 10.5478 97.4019 11.2559 98.8998C11.3426 99.0832 11.4376 99.2647 11.5408 99.4442C12.169 100.536 13.0897 101.528 14.2505 102.364C15.4112 103.2 16.7892 103.863 18.3058 104.315C19.8223 104.767 21.4478 105 23.0893 105C24.7308 105 26.3563 104.767 27.8728 104.315C29.3894 103.863 30.7674 103.2 31.9281 102.364C33.0889 101.528 34.0096 100.536 34.6378 99.4442C34.741 99.2647 34.836 99.0832 34.9227 98.8998C35.6308 97.4019 34.2461 96 32.5893 96L23.0893 96H13.5893Z" stroke="black" stroke-opacity="0.2" stroke-width="2" mask="url(#path-12-inside-8_18_22)"/>
<circle cx="23" cy="53" r="19.5" fill="url(#paint4_radial_18_22)" stroke="black"/>
<circle cx="23" cy="53" r="22.5" fill="white" stroke="white"/>
<circle cx="23" cy="53" r="20.5" fill="url(#paint5_radial_18_22)" stroke="black"/>
<defs>
<radialGradient id="paint0_radial_18_22" cx="0" cy="0" r="1" gradientUnits="userSpaceOnUse" gradientTransform="translate(23.0893 19.56) rotate(90) scale(10 12.5)">
<stop stop-color="#A97854"/>
<stop offset="1" stop-color="#785942"/>
</radialGradient>
<linearGradient id="paint1_linear_18_22" x1="23.0893" y1="9.56" x2="23.0893" y2="2.56" gradientUnits="userSpaceOnUse">
<stop stop-color="#B6845F"/>
<stop offset="1" stop-color="#534031"/>
</linearGradient>
<radialGradient id="paint2_radial_18_22" cx="0" cy="0" r="1" gradientUnits="userSpaceOnUse" gradientTransform="translate(23.0893 87) rotate(-90) scale(10 12.5)">
<stop stop-color="#A97854"/>
<stop offset="1" stop-color="#785942"/>
</radialGradient>
<linearGradient id="paint3_linear_18_22" x1="23.0893" y1="97" x2="23.0893" y2="104" gradientUnits="userSpaceOnUse">
<stop stop-color="#B6845F"/>
<stop offset="1" stop-color="#534031"/>
</linearGradient>
<radialGradient id="paint4_radial_18_22" cx="0" cy="0" r="1" gradientUnits="userSpaceOnUse" gradientTransform="translate(23 53) rotate(90) scale(20)">
<stop stop-color="#FAE5B9"/>
<stop offset="1" stop-color="#E6BF9E"/>
</radialGradient>
<radialGradient id="paint5_radial_18_22" cx="0" cy="0" r="1" gradientUnits="userSpaceOnUse" gradientTransform="translate(23 53) rotate(90) scale(20)">
<stop stop-color="#FAE5B9"/>
<stop offset="1" stop-color="#E6BF9E"/>
</radialGradient>
</defs>
</svg>
