<svg width="40" height="101" viewBox="0 0 40 101" fill="none" xmlns="http://www.w3.org/2000/svg">
<mask id="path-1-inside-1_2_397" fill="white">
<path d="M11.5 28.5C9.29086 28.5 7.5 26.7091 7.5 24.5L7.5 12.5C7.5 10.2909 9.29086 8.5 11.5 8.5L28.5 8.5C30.7091 8.5 32.5 10.2909 32.5 12.5V24.5C32.5 26.7091 30.7091 28.5 28.5 28.5L11.5 28.5Z"/>
</mask>
<path d="M11.5 28.5C9.29086 28.5 7.5 26.7091 7.5 24.5L7.5 12.5C7.5 10.2909 9.29086 8.5 11.5 8.5L28.5 8.5C30.7091 8.5 32.5 10.2909 32.5 12.5V24.5C32.5 26.7091 30.7091 28.5 28.5 28.5L11.5 28.5Z" fill="url(#paint0_radial_2_397)"/>
<path d="M11.5 29.5C8.73858 29.5 6.5 27.2614 6.5 24.5L6.5 12.5C6.5 10.0147 8.51472 8 11 8L11.5 9C9.84315 9 8.5 10.567 8.5 12.5L8.5 24.5C8.5 26.1569 9.84315 27.5 11.5 27.5V29.5ZM29 8C31.4853 8 33.5 10.0147 33.5 12.5V24.5C33.5 27.2614 31.2614 29.5 28.5 29.5V27.5C30.1569 27.5 31.5 26.1569 31.5 24.5V12.5C31.5 10.567 30.1569 9 28.5 9L29 8ZM33.5 24.5C33.5 27.2614 31.2614 29.5 28.5 29.5L11.5 29.5C8.73858 29.5 6.5 27.2614 6.5 24.5H8.5C8.5 26.1569 9.84315 27.5 11.5 27.5L28.5 27.5C30.1569 27.5 31.5 26.1569 31.5 24.5H33.5ZM6.5 12.5C6.5 10.0147 8.51472 8 11 8L29 8C31.4853 8 33.5 10.0147 33.5 12.5H31.5C31.5 10.567 30.1569 9 28.5 9L11.5 9C9.84315 9 8.5 10.567 8.5 12.5H6.5Z" fill="black" mask="url(#path-1-inside-1_2_397)"/>
<mask id="path-3-inside-2_2_397" fill="white">
<path d="M29.5 9.5C31.1569 9.5 32.5415 8.09807 31.8334 6.60015C31.7467 6.4168 31.6517 6.23527 31.5485 6.05585C30.9203 4.96392 29.9996 3.97177 28.8388 3.13604C27.6781 2.30031 26.3001 1.63738 24.7835 1.18508C23.267 0.732792 21.6415 0.5 20 0.5C18.3585 0.5 16.733 0.732792 15.2165 1.18508C13.6999 1.63738 12.3219 2.30031 11.1612 3.13604C10.0004 3.97177 9.07969 4.96392 8.45151 6.05585C8.34829 6.23527 8.2533 6.4168 8.16663 6.60015C7.45853 8.09808 8.84315 9.5 10.5 9.5L20 9.5H29.5Z"/>
</mask>
<path d="M29.5 9.5C31.1569 9.5 32.5415 8.09807 31.8334 6.60015C31.7467 6.4168 31.6517 6.23527 31.5485 6.05585C30.9203 4.96392 29.9996 3.97177 28.8388 3.13604C27.6781 2.30031 26.3001 1.63738 24.7835 1.18508C23.267 0.732792 21.6415 0.5 20 0.5C18.3585 0.5 16.733 0.732792 15.2165 1.18508C13.6999 1.63738 12.3219 2.30031 11.1612 3.13604C10.0004 3.97177 9.07969 4.96392 8.45151 6.05585C8.34829 6.23527 8.2533 6.4168 8.16663 6.60015C7.45853 8.09808 8.84315 9.5 10.5 9.5L20 9.5H29.5Z" fill="url(#paint1_linear_2_397)" stroke="black" stroke-width="2" mask="url(#path-3-inside-2_2_397)"/>
<mask id="path-4-inside-3_2_397" fill="white">
<path d="M28.5 72.5C30.7091 72.5 32.5 74.2909 32.5 76.5V88.5C32.5 90.7091 30.7091 92.5 28.5 92.5H11.5C9.29086 92.5 7.5 90.7091 7.5 88.5V76.5C7.5 74.2909 9.29086 72.5 11.5 72.5H28.5Z"/>
</mask>
<path d="M28.5 72.5C30.7091 72.5 32.5 74.2909 32.5 76.5V88.5C32.5 90.7091 30.7091 92.5 28.5 92.5H11.5C9.29086 92.5 7.5 90.7091 7.5 88.5V76.5C7.5 74.2909 9.29086 72.5 11.5 72.5H28.5Z" fill="url(#paint2_radial_2_397)"/>
<path d="M28.5 71.5C31.2614 71.5 33.5 73.7386 33.5 76.5V88.5C33.5 90.9853 31.4853 93 29 93L28.5 92C30.1569 92 31.5 90.433 31.5 88.5V76.5C31.5 74.8431 30.1569 73.5 28.5 73.5V71.5ZM11 93C8.51472 93 6.5 90.9853 6.5 88.5V76.5C6.5 73.7386 8.73858 71.5 11.5 71.5V73.5C9.84315 73.5 8.5 74.8431 8.5 76.5V88.5C8.5 90.433 9.84315 92 11.5 92L11 93ZM6.5 76.5C6.5 73.7386 8.73858 71.5 11.5 71.5H28.5C31.2614 71.5 33.5 73.7386 33.5 76.5H31.5C31.5 74.8431 30.1569 73.5 28.5 73.5H11.5C9.84315 73.5 8.5 74.8431 8.5 76.5H6.5ZM33.5 88.5C33.5 90.9853 31.4853 93 29 93H11C8.51472 93 6.5 90.9853 6.5 88.5H8.5C8.5 90.433 9.84315 92 11.5 92H28.5C30.1569 92 31.5 90.433 31.5 88.5H33.5Z" fill="black" mask="url(#path-4-inside-3_2_397)"/>
<mask id="path-6-inside-4_2_397" fill="white">
<path d="M10.5 91.5C8.84315 91.5 7.45853 92.9019 8.16663 94.3998C8.2533 94.5832 8.34829 94.7647 8.45151 94.9442C9.07969 96.0361 10.0004 97.0282 11.1612 97.864C12.3219 98.6997 13.6999 99.3626 15.2165 99.8149C16.733 100.267 18.3585 100.5 20 100.5C21.6415 100.5 23.267 100.267 24.7835 99.8149C26.3001 99.3626 27.6781 98.6997 28.8388 97.864C29.9996 97.0282 30.9203 96.0361 31.5485 94.9442C31.6517 94.7647 31.7467 94.5832 31.8334 94.3998C32.5415 92.9019 31.1569 91.5 29.5 91.5L20 91.5H10.5Z"/>
</mask>
<path d="M10.5 91.5C8.84315 91.5 7.45853 92.9019 8.16663 94.3998C8.2533 94.5832 8.34829 94.7647 8.45151 94.9442C9.07969 96.0361 10.0004 97.0282 11.1612 97.864C12.3219 98.6997 13.6999 99.3626 15.2165 99.8149C16.733 100.267 18.3585 100.5 20 100.5C21.6415 100.5 23.267 100.267 24.7835 99.8149C26.3001 99.3626 27.6781 98.6997 28.8388 97.864C29.9996 97.0282 30.9203 96.0361 31.5485 94.9442C31.6517 94.7647 31.7467 94.5832 31.8334 94.3998C32.5415 92.9019 31.1569 91.5 29.5 91.5L20 91.5H10.5Z" fill="url(#paint3_linear_2_397)" stroke="black" stroke-width="2" mask="url(#path-6-inside-4_2_397)"/>
<circle cx="20" cy="51" r="19.5" fill="url(#paint4_radial_2_397)" stroke="black"/>
<defs>
<radialGradient id="paint0_radial_2_397" cx="0" cy="0" r="1" gradientUnits="userSpaceOnUse" gradientTransform="translate(20 18.5) rotate(90) scale(10 12.5)">
<stop stop-color="#A97854"/>
<stop offset="1" stop-color="#785942"/>
</radialGradient>
<linearGradient id="paint1_linear_2_397" x1="20" y1="8.5" x2="20" y2="1.5" gradientUnits="userSpaceOnUse">
<stop stop-color="#B6845F"/>
<stop offset="1" stop-color="#534031"/>
</linearGradient>
<radialGradient id="paint2_radial_2_397" cx="0" cy="0" r="1" gradientUnits="userSpaceOnUse" gradientTransform="translate(20 82.5) rotate(-90) scale(10 12.5)">
<stop stop-color="#A97854"/>
<stop offset="1" stop-color="#785942"/>
</radialGradient>
<linearGradient id="paint3_linear_2_397" x1="20" y1="92.5" x2="20" y2="99.5" gradientUnits="userSpaceOnUse">
<stop stop-color="#B6845F"/>
<stop offset="1" stop-color="#534031"/>
</linearGradient>
<radialGradient id="paint4_radial_2_397" cx="0" cy="0" r="1" gradientUnits="userSpaceOnUse" gradientTransform="translate(20 51) rotate(90) scale(20)">
<stop stop-color="#FAE5B9"/>
<stop offset="1" stop-color="#E6BF9E"/>
</radialGradient>
</defs>
</svg>
