<svg width="47" height="118" viewBox="0 0 47 118" fill="none" xmlns="http://www.w3.org/2000/svg">
<mask id="path-1-inside-1_1_1067" fill="white">
<path d="M13.6345 32.9766C11.0549 32.9766 8.96362 30.8853 8.96362 28.3057L8.96362 14.293C8.96362 11.7133 11.0549 9.62212 13.6345 9.62212L33.4858 9.62212C36.0655 9.62212 38.1567 11.7133 38.1567 14.293V28.3057C38.1567 30.8853 36.0655 32.9766 33.4858 32.9766H13.6345Z"/>
</mask>
<path d="M13.6345 32.9766C11.0549 32.9766 8.96362 30.8853 8.96362 28.3057L8.96362 14.293C8.96362 11.7133 11.0549 9.62212 13.6345 9.62212L33.4858 9.62212C36.0655 9.62212 38.1567 11.7133 38.1567 14.293V28.3057C38.1567 30.8853 36.0655 32.9766 33.4858 32.9766H13.6345Z" fill="url(#paint0_radial_1_1067)"/>
<path d="M13.6345 34.1443C10.4099 34.1443 7.7959 31.5302 7.7959 28.3057L7.7959 14.293C7.7959 11.3909 10.1485 9.03826 13.0507 9.03826L13.6345 10.206C11.6998 10.206 10.1313 12.0358 10.1313 14.293L10.1313 28.3057C10.1313 30.2404 11.6998 31.8088 13.6345 31.8088V34.1443ZM34.0697 9.03826C36.9718 9.03826 39.3244 11.3909 39.3244 14.293V28.3057C39.3244 31.5302 36.7104 34.1443 33.4858 34.1443V31.8088C35.4205 31.8088 36.989 30.2404 36.989 28.3057V14.293C36.989 12.0358 35.4205 10.206 33.4858 10.206L34.0697 9.03826ZM39.3244 28.3057C39.3244 31.5302 36.7104 34.1443 33.4858 34.1443H13.6345C10.4099 34.1443 7.7959 31.5302 7.7959 28.3057H10.1313C10.1313 30.2404 11.6998 31.8088 13.6345 31.8088L33.4858 31.8088C35.4205 31.8088 36.989 30.2404 36.989 28.3057H39.3244ZM7.7959 14.293C7.7959 11.3909 10.1485 9.03826 13.0507 9.03826L34.0697 9.03826C36.9718 9.03826 39.3244 11.3909 39.3244 14.293H36.989C36.989 12.0358 35.4205 10.206 33.4858 10.206L13.6345 10.206C11.6998 10.206 10.1313 12.0358 10.1313 14.293H7.7959Z" fill="black" mask="url(#path-1-inside-1_1_1067)"/>
<mask id="path-3-inside-2_1_1067" fill="white">
<path d="M34.6535 10.7898C36.5883 10.7898 38.2051 9.15278 37.3782 7.40362C37.277 7.18951 37.1661 6.97753 37.0456 6.76802C36.312 5.49295 35.2369 4.33439 33.8815 3.3585C32.526 2.3826 30.9169 1.60847 29.146 1.08032C27.3751 0.552171 25.477 0.280334 23.5602 0.280334C21.6433 0.280335 19.7452 0.552171 17.9743 1.08032C16.2034 1.60847 14.5943 2.3826 13.2388 3.3585C11.8834 4.33439 10.8083 5.49295 10.0747 6.76802C9.95419 6.97753 9.84327 7.18952 9.74206 7.40362C8.9152 9.15278 10.532 10.7898 12.4668 10.7898L23.5602 10.7898H34.6535Z"/>
</mask>
<path d="M34.6535 10.7898C36.5883 10.7898 38.2051 9.15278 37.3782 7.40362C37.277 7.18951 37.1661 6.97753 37.0456 6.76802C36.312 5.49295 35.2369 4.33439 33.8815 3.3585C32.526 2.3826 30.9169 1.60847 29.146 1.08032C27.3751 0.552171 25.477 0.280334 23.5602 0.280334C21.6433 0.280335 19.7452 0.552171 17.9743 1.08032C16.2034 1.60847 14.5943 2.3826 13.2388 3.3585C11.8834 4.33439 10.8083 5.49295 10.0747 6.76802C9.95419 6.97753 9.84327 7.18952 9.74206 7.40362C8.9152 9.15278 10.532 10.7898 12.4668 10.7898L23.5602 10.7898H34.6535Z" fill="url(#paint1_linear_1_1067)" stroke="black" stroke-width="2.33544" mask="url(#path-3-inside-2_1_1067)"/>
<mask id="path-4-inside-3_1_1067" fill="white">
<path d="M33.4858 84.3564C36.0655 84.3564 38.1567 86.4476 38.1567 89.0272V103.04C38.1567 105.62 36.0655 107.711 33.4858 107.711H13.6346C11.0549 107.711 8.96368 105.62 8.96368 103.04V89.0272C8.96368 86.4476 11.0549 84.3564 13.6346 84.3564H33.4858Z"/>
</mask>
<path d="M33.4858 84.3564C36.0655 84.3564 38.1567 86.4476 38.1567 89.0272V103.04C38.1567 105.62 36.0655 107.711 33.4858 107.711H13.6346C11.0549 107.711 8.96368 105.62 8.96368 103.04V89.0272C8.96368 86.4476 11.0549 84.3564 13.6346 84.3564H33.4858Z" fill="url(#paint2_radial_1_1067)"/>
<path d="M33.4858 83.1886C36.7104 83.1886 39.3245 85.8027 39.3245 89.0272V103.04C39.3245 105.942 36.9718 108.295 34.0697 108.295L33.4858 107.127C35.4206 107.127 36.989 105.297 36.989 103.04V89.0272C36.989 87.0925 35.4206 85.5241 33.4858 85.5241V83.1886ZM13.0507 108.295C10.1486 108.295 7.79596 105.942 7.79596 103.04V89.0272C7.79596 85.8027 10.41 83.1886 13.6346 83.1886V85.5241C11.6998 85.5241 10.1314 87.0925 10.1314 89.0272V103.04C10.1314 105.297 11.6998 107.127 13.6346 107.127L13.0507 108.295ZM7.79596 89.0272C7.79596 85.8027 10.41 83.1886 13.6346 83.1886H33.4858C36.7104 83.1886 39.3245 85.8027 39.3245 89.0272H36.989C36.989 87.0925 35.4206 85.5241 33.4858 85.5241H13.6346C11.6998 85.5241 10.1314 87.0925 10.1314 89.0272H7.79596ZM39.3245 103.04C39.3245 105.942 36.9718 108.295 34.0697 108.295H13.0507C10.1486 108.295 7.79596 105.942 7.79596 103.04H10.1314C10.1314 105.297 11.6998 107.127 13.6346 107.127H33.4858C35.4206 107.127 36.989 105.297 36.989 103.04H39.3245Z" fill="black" mask="url(#path-4-inside-3_1_1067)"/>
<mask id="path-6-inside-4_1_1067" fill="white">
<path d="M12.4668 106.543C10.5321 106.543 8.91526 108.18 9.74211 109.929C9.84333 110.143 9.95424 110.355 10.0748 110.565C10.8083 111.84 11.8835 112.999 13.2389 113.974C14.5943 114.95 16.2034 115.724 17.9744 116.253C19.7453 116.781 21.6434 117.053 23.5602 117.053C25.4771 117.053 27.3751 116.781 29.1461 116.253C30.917 115.724 32.5261 114.95 33.8815 113.974C35.2369 112.999 36.3121 111.84 37.0456 110.565C37.1662 110.355 37.2771 110.143 37.3783 109.929C38.2052 108.18 36.5883 106.543 34.6536 106.543L23.5602 106.543H12.4668Z"/>
</mask>
<path d="M12.4668 106.543C10.5321 106.543 8.91526 108.18 9.74211 109.929C9.84333 110.143 9.95424 110.355 10.0748 110.565C10.8083 111.84 11.8835 112.999 13.2389 113.974C14.5943 114.95 16.2034 115.724 17.9744 116.253C19.7453 116.781 21.6434 117.053 23.5602 117.053C25.4771 117.053 27.3751 116.781 29.1461 116.253C30.917 115.724 32.5261 114.95 33.8815 113.974C35.2369 112.999 36.3121 111.84 37.0456 110.565C37.1662 110.355 37.2771 110.143 37.3783 109.929C38.2052 108.18 36.5883 106.543 34.6536 106.543L23.5602 106.543H12.4668Z" fill="url(#paint3_linear_1_1067)" stroke="black" stroke-width="2.33544" mask="url(#path-6-inside-4_1_1067)"/>
<circle cx="23.5603" cy="59.2503" r="22.7706" fill="url(#paint4_radial_1_1067)" stroke="black" stroke-width="1.16772"/>
<defs>
<radialGradient id="paint0_radial_1_1067" cx="0" cy="0" r="1" gradientUnits="userSpaceOnUse" gradientTransform="translate(23.5602 21.2993) rotate(90) scale(11.6772 14.5965)">
<stop stop-color="#A97854"/>
<stop offset="1" stop-color="#785942"/>
</radialGradient>
<linearGradient id="paint1_linear_1_1067" x1="23.5602" y1="9.62211" x2="23.5602" y2="1.44806" gradientUnits="userSpaceOnUse">
<stop stop-color="#B6845F"/>
<stop offset="1" stop-color="#534031"/>
</linearGradient>
<radialGradient id="paint2_radial_1_1067" cx="0" cy="0" r="1" gradientUnits="userSpaceOnUse" gradientTransform="translate(23.5602 96.0336) rotate(-90) scale(11.6772 14.5965)">
<stop stop-color="#A97854"/>
<stop offset="1" stop-color="#785942"/>
</radialGradient>
<linearGradient id="paint3_linear_1_1067" x1="23.5602" y1="107.711" x2="23.5602" y2="115.885" gradientUnits="userSpaceOnUse">
<stop stop-color="#B6845F"/>
<stop offset="1" stop-color="#534031"/>
</linearGradient>
<radialGradient id="paint4_radial_1_1067" cx="0" cy="0" r="1" gradientUnits="userSpaceOnUse" gradientTransform="translate(23.5603 59.2503) rotate(90) scale(23.3544)">
<stop stop-color="#FAE5B9"/>
<stop offset="1" stop-color="#E6BF9E"/>
</radialGradient>
</defs>
</svg>
