<svg width="116" height="116" viewBox="0 0 116 116" fill="none" xmlns="http://www.w3.org/2000/svg">
<mask id="path-1-inside-1_1_1063" fill="white">
<path d="M82.698 48.6125C82.698 46.0328 84.7892 43.9416 87.3689 43.9416H101.382C103.961 43.9416 106.052 46.0328 106.052 48.6125V68.4638C106.052 71.0434 103.961 73.1347 101.382 73.1347H87.3689C84.7892 73.1347 82.698 71.0434 82.698 68.4638V48.6125Z"/>
</mask>
<path d="M82.698 48.6125C82.698 46.0328 84.7892 43.9416 87.3689 43.9416H101.382C103.961 43.9416 106.052 46.0328 106.052 48.6125V68.4638C106.052 71.0434 103.961 73.1347 101.382 73.1347H87.3689C84.7892 73.1347 82.698 71.0434 82.698 68.4638V48.6125Z" fill="url(#paint0_radial_1_1063)"/>
<path d="M81.5303 48.6125C81.5303 45.3879 84.1443 42.7739 87.3689 42.7739H101.382C104.284 42.7739 106.636 45.1265 106.636 48.0286L105.469 48.6125C105.469 46.6777 103.639 45.1093 101.382 45.1093H87.3689C85.4341 45.1093 83.8657 46.6777 83.8657 48.6125H81.5303ZM106.636 69.0476C106.636 71.9497 104.284 74.3024 101.382 74.3024H87.3689C84.1443 74.3024 81.5303 71.6883 81.5303 68.4638H83.8657C83.8657 70.3985 85.4341 71.9669 87.3689 71.9669H101.382C103.639 71.9669 105.469 70.3985 105.469 68.4638L106.636 69.0476ZM87.3689 74.3024C84.1443 74.3024 81.5303 71.6883 81.5303 68.4638V48.6125C81.5303 45.3879 84.1443 42.7739 87.3689 42.7739V45.1093C85.4341 45.1093 83.8657 46.6777 83.8657 48.6125V68.4638C83.8657 70.3985 85.4341 71.9669 87.3689 71.9669V74.3024ZM101.382 42.7739C104.284 42.7739 106.636 45.1265 106.636 48.0286V69.0476C106.636 71.9497 104.284 74.3024 101.382 74.3024V71.9669C103.639 71.9669 105.469 70.3985 105.469 68.4638V48.6125C105.469 46.6777 103.639 45.1093 101.382 45.1093V42.7739Z" fill="black" mask="url(#path-1-inside-1_1_1063)"/>
<mask id="path-3-inside-2_1_1063" fill="white">
<path d="M104.885 69.6315C104.885 71.5662 106.522 73.1831 108.271 72.3562C108.485 72.255 108.697 72.1441 108.907 72.0236C110.182 71.29 111.34 70.2148 112.316 68.8594C113.292 67.504 114.066 65.8949 114.594 64.124C115.122 62.353 115.394 60.455 115.394 58.5381C115.394 56.6213 115.122 54.7232 114.594 52.9523C114.066 51.1813 113.292 49.5722 112.316 48.2168C111.34 46.8614 110.182 45.7862 108.907 45.0527C108.697 44.9322 108.485 44.8212 108.271 44.72C106.522 43.8932 104.885 45.51 104.885 47.4448L104.885 58.5381V69.6315Z"/>
</mask>
<path d="M104.885 69.6315C104.885 71.5662 106.522 73.1831 108.271 72.3562C108.485 72.255 108.697 72.1441 108.907 72.0236C110.182 71.29 111.34 70.2148 112.316 68.8594C113.292 67.504 114.066 65.8949 114.594 64.124C115.122 62.353 115.394 60.455 115.394 58.5381C115.394 56.6213 115.122 54.7232 114.594 52.9523C114.066 51.1813 113.292 49.5722 112.316 48.2168C111.34 46.8614 110.182 45.7862 108.907 45.0527C108.697 44.9322 108.485 44.8212 108.271 44.72C106.522 43.8932 104.885 45.51 104.885 47.4448L104.885 58.5381V69.6315Z" fill="url(#paint1_linear_1_1063)" stroke="black" stroke-width="2.33544" mask="url(#path-3-inside-2_1_1063)"/>
<mask id="path-4-inside-3_1_1063" fill="white">
<path d="M82.698 83.6442C82.698 81.0645 84.7892 78.9733 87.3689 78.9733H101.382C103.961 78.9733 106.052 81.0645 106.052 83.6442V103.495C106.052 106.075 103.961 108.166 101.382 108.166H87.3689C84.7892 108.166 82.698 106.075 82.698 103.495V83.6442Z"/>
</mask>
<path d="M82.698 83.6442C82.698 81.0645 84.7892 78.9733 87.3689 78.9733H101.382C103.961 78.9733 106.052 81.0645 106.052 83.6442V103.495C106.052 106.075 103.961 108.166 101.382 108.166H87.3689C84.7892 108.166 82.698 106.075 82.698 103.495V83.6442Z" fill="url(#paint2_radial_1_1063)"/>
<path d="M81.5303 83.6442C81.5303 80.4196 84.1443 77.8055 87.3689 77.8055H101.382C104.284 77.8055 106.636 80.1582 106.636 83.0603L105.469 83.6442C105.469 81.7094 103.639 80.141 101.382 80.141H87.3689C85.4341 80.141 83.8657 81.7094 83.8657 83.6442H81.5303ZM106.636 104.079C106.636 106.981 104.284 109.334 101.382 109.334H87.3689C84.1443 109.334 81.5303 106.72 81.5303 103.495H83.8657C83.8657 105.43 85.4341 106.999 87.3689 106.999H101.382C103.639 106.999 105.469 105.43 105.469 103.495L106.636 104.079ZM87.3689 109.334C84.1443 109.334 81.5303 106.72 81.5303 103.495V83.6442C81.5303 80.4196 84.1443 77.8055 87.3689 77.8055V80.141C85.4341 80.141 83.8657 81.7094 83.8657 83.6442V103.495C83.8657 105.43 85.4341 106.999 87.3689 106.999V109.334ZM101.382 77.8055C104.284 77.8055 106.636 80.1582 106.636 83.0603V104.079C106.636 106.981 104.284 109.334 101.382 109.334V106.999C103.639 106.999 105.469 105.43 105.469 103.495V83.6442C105.469 81.7094 103.639 80.141 101.382 80.141V77.8055Z" fill="black" mask="url(#path-4-inside-3_1_1063)"/>
<mask id="path-6-inside-4_1_1063" fill="white">
<path d="M104.885 104.663C104.885 106.598 106.522 108.215 108.271 107.388C108.485 107.287 108.697 107.176 108.907 107.055C110.182 106.322 111.34 105.247 112.316 103.891C113.292 102.536 114.066 100.927 114.594 99.1556C115.122 97.3847 115.394 95.4866 115.394 93.5698C115.394 91.653 115.122 89.7549 114.594 87.9839C114.066 86.213 113.292 84.6039 112.316 83.2485C111.34 81.8931 110.182 80.8179 108.907 80.0844C108.697 79.9638 108.485 79.8529 108.271 79.7517C106.522 78.9248 104.885 80.5417 104.885 82.4764L104.885 93.5698V104.663Z"/>
</mask>
<path d="M104.885 104.663C104.885 106.598 106.522 108.215 108.271 107.388C108.485 107.287 108.697 107.176 108.907 107.055C110.182 106.322 111.34 105.247 112.316 103.891C113.292 102.536 114.066 100.927 114.594 99.1556C115.122 97.3847 115.394 95.4866 115.394 93.5698C115.394 91.653 115.122 89.7549 114.594 87.9839C114.066 86.213 113.292 84.6039 112.316 83.2485C111.34 81.8931 110.182 80.8179 108.907 80.0844C108.697 79.9638 108.485 79.8529 108.271 79.7517C106.522 78.9248 104.885 80.5417 104.885 82.4764L104.885 93.5698V104.663Z" fill="url(#paint3_linear_1_1063)" stroke="black" stroke-width="2.33544" mask="url(#path-6-inside-4_1_1063)"/>
<mask id="path-7-inside-5_1_1063" fill="white">
<path d="M82.698 13.5808C82.698 11.0012 84.7892 8.90993 87.3689 8.90993H101.382C103.961 8.90993 106.052 11.0012 106.052 13.5808V33.4321C106.052 36.0118 103.961 38.103 101.382 38.103H87.3689C84.7892 38.103 82.698 36.0118 82.698 33.4321V13.5808Z"/>
</mask>
<path d="M82.698 13.5808C82.698 11.0012 84.7892 8.90993 87.3689 8.90993H101.382C103.961 8.90993 106.052 11.0012 106.052 13.5808V33.4321C106.052 36.0118 103.961 38.103 101.382 38.103H87.3689C84.7892 38.103 82.698 36.0118 82.698 33.4321V13.5808Z" fill="url(#paint4_radial_1_1063)"/>
<path d="M81.5303 13.5808C81.5303 10.3562 84.1443 7.74221 87.3689 7.74221L101.382 7.74221C104.284 7.74221 106.636 10.0948 106.636 12.997L105.469 13.5808C105.469 11.6461 103.639 10.0776 101.382 10.0776H87.3689C85.4341 10.0776 83.8657 11.6461 83.8657 13.5808H81.5303ZM106.636 34.016C106.636 36.9181 104.284 39.2707 101.382 39.2707H87.3689C84.1443 39.2707 81.5303 36.6567 81.5303 33.4321H83.8657C83.8657 35.3668 85.4341 36.9353 87.3689 36.9353H101.382C103.639 36.9353 105.469 35.3668 105.469 33.4321L106.636 34.016ZM87.3689 39.2707C84.1443 39.2707 81.5303 36.6567 81.5303 33.4321V13.5808C81.5303 10.3562 84.1443 7.74221 87.3689 7.74221V10.0776C85.4341 10.0776 83.8657 11.6461 83.8657 13.5808V33.4321C83.8657 35.3668 85.4341 36.9353 87.3689 36.9353V39.2707ZM101.382 7.74221C104.284 7.74221 106.636 10.0948 106.636 12.997V34.016C106.636 36.9181 104.284 39.2707 101.382 39.2707V36.9353C103.639 36.9353 105.469 35.3668 105.469 33.4321V13.5808C105.469 11.6461 103.639 10.0776 101.382 10.0776V7.74221Z" fill="black" mask="url(#path-7-inside-5_1_1063)"/>
<mask id="path-9-inside-6_1_1063" fill="white">
<path d="M104.885 34.5998C104.885 36.5346 106.522 38.1514 108.271 37.3246C108.485 37.2233 108.697 37.1124 108.907 36.9919C110.182 36.2583 111.34 35.1832 112.316 33.8278C113.292 32.4723 114.066 30.8632 114.594 29.0923C115.122 27.3214 115.394 25.4233 115.394 23.5065C115.394 21.5896 115.122 19.6915 114.594 17.9206C114.066 16.1497 113.292 14.5406 112.316 13.1852C111.34 11.8297 110.182 10.7546 108.907 10.021C108.697 9.90049 108.485 9.78957 108.271 9.68836C106.522 8.8615 104.885 10.4783 104.885 12.4131L104.885 23.5065V34.5998Z"/>
</mask>
<path d="M104.885 34.5998C104.885 36.5346 106.522 38.1514 108.271 37.3246C108.485 37.2233 108.697 37.1124 108.907 36.9919C110.182 36.2583 111.34 35.1832 112.316 33.8278C113.292 32.4723 114.066 30.8632 114.594 29.0923C115.122 27.3214 115.394 25.4233 115.394 23.5065C115.394 21.5896 115.122 19.6915 114.594 17.9206C114.066 16.1497 113.292 14.5406 112.316 13.1852C111.34 11.8297 110.182 10.7546 108.907 10.021C108.697 9.90049 108.485 9.78957 108.271 9.68836C106.522 8.8615 104.885 10.4783 104.885 12.4131L104.885 23.5065V34.5998Z" fill="url(#paint5_linear_1_1063)" stroke="black" stroke-width="2.33544" mask="url(#path-9-inside-6_1_1063)"/>
<rect width="115.605" height="40.8703" transform="matrix(0 1 -1 0 78.6108 0.152008)" fill="black"/>
<rect width="115.605" height="40.8703" transform="matrix(0 1 -1 0 78.6108 0.152008)" fill="url(#paint6_radial_1_1063)"/>
<rect x="38.3246" y="0.735869" width="39.7026" height="114.437" stroke="black" stroke-width="1.16772"/>
<mask id="path-11-inside-7_1_1063" fill="white">
<path d="M33.6536 48.6125C33.6536 46.0328 31.5623 43.9416 28.9827 43.9416H14.97C12.3903 43.9416 10.2991 46.0328 10.2991 48.6125L10.2991 68.4638C10.2991 71.0434 12.3903 73.1347 14.97 73.1347H28.9827C31.5623 73.1347 33.6536 71.0434 33.6536 68.4638L33.6536 48.6125Z"/>
</mask>
<path d="M33.6536 48.6125C33.6536 46.0328 31.5623 43.9416 28.9827 43.9416H14.97C12.3903 43.9416 10.2991 46.0328 10.2991 48.6125L10.2991 68.4638C10.2991 71.0434 12.3903 73.1347 14.97 73.1347H28.9827C31.5623 73.1347 33.6536 71.0434 33.6536 68.4638L33.6536 48.6125Z" fill="url(#paint7_radial_1_1063)"/>
<path d="M34.8213 48.6125C34.8213 45.3879 32.2073 42.7739 28.9827 42.7739H14.97C12.0679 42.7739 9.71526 45.1265 9.71526 48.0286L10.883 48.6125C10.883 46.6777 12.7128 45.1093 14.97 45.1093H28.9827C30.9174 45.1093 32.4858 46.6777 32.4858 48.6125H34.8213ZM9.71526 69.0476C9.71526 71.9497 12.0679 74.3024 14.97 74.3024H28.9827C32.2073 74.3024 34.8213 71.6883 34.8213 68.4638H32.4858C32.4858 70.3985 30.9174 71.9669 28.9827 71.9669H14.97C12.7128 71.9669 10.883 70.3985 10.883 68.4638L9.71526 69.0476ZM28.9827 74.3024C32.2073 74.3024 34.8213 71.6883 34.8213 68.4638L34.8213 48.6125C34.8213 45.3879 32.2073 42.7739 28.9827 42.7739V45.1093C30.9174 45.1093 32.4858 46.6777 32.4858 48.6125L32.4858 68.4638C32.4858 70.3985 30.9174 71.9669 28.9827 71.9669V74.3024ZM14.97 42.7739C12.0679 42.7739 9.71526 45.1265 9.71526 48.0286L9.71526 69.0476C9.71526 71.9497 12.0679 74.3024 14.97 74.3024V71.9669C12.7128 71.9669 10.883 70.3985 10.883 68.4638L10.883 48.6125C10.883 46.6777 12.7128 45.1093 14.97 45.1093V42.7739Z" fill="black" mask="url(#path-11-inside-7_1_1063)"/>
<mask id="path-13-inside-8_1_1063" fill="white">
<path d="M11.467 69.6315C11.467 71.5662 9.82996 73.1831 8.08081 72.3562C7.8667 72.255 7.65472 72.1441 7.44521 72.0236C6.17014 71.29 5.01158 70.2148 4.03568 68.8594C3.05978 67.504 2.28566 65.8949 1.75751 64.124C1.22936 62.353 0.957519 60.455 0.95752 58.5381C0.95752 56.6213 1.22936 54.7232 1.75751 52.9523C2.28566 51.1813 3.05978 49.5722 4.03568 48.2168C5.01158 46.8614 6.17014 45.7862 7.44521 45.0527C7.65472 44.9322 7.8667 44.8212 8.08081 44.72C9.82996 43.8932 11.467 45.51 11.467 47.4448L11.467 58.5381L11.467 69.6315Z"/>
</mask>
<path d="M11.467 69.6315C11.467 71.5662 9.82996 73.1831 8.08081 72.3562C7.8667 72.255 7.65472 72.1441 7.44521 72.0236C6.17014 71.29 5.01158 70.2148 4.03568 68.8594C3.05978 67.504 2.28566 65.8949 1.75751 64.124C1.22936 62.353 0.957519 60.455 0.95752 58.5381C0.95752 56.6213 1.22936 54.7232 1.75751 52.9523C2.28566 51.1813 3.05978 49.5722 4.03568 48.2168C5.01158 46.8614 6.17014 45.7862 7.44521 45.0527C7.65472 44.9322 7.8667 44.8212 8.08081 44.72C9.82996 43.8932 11.467 45.51 11.467 47.4448L11.467 58.5381L11.467 69.6315Z" fill="url(#paint8_linear_1_1063)" stroke="black" stroke-width="2.33544" mask="url(#path-13-inside-8_1_1063)"/>
<mask id="path-14-inside-9_1_1063" fill="white">
<path d="M33.6536 13.5808C33.6536 11.0012 31.5623 8.90993 28.9827 8.90993L14.97 8.90993C12.3903 8.90993 10.2991 11.0012 10.2991 13.5808L10.2991 33.4321C10.2991 36.0118 12.3903 38.103 14.97 38.103H28.9827C31.5623 38.103 33.6536 36.0118 33.6536 33.4321L33.6536 13.5808Z"/>
</mask>
<path d="M33.6536 13.5808C33.6536 11.0012 31.5623 8.90993 28.9827 8.90993L14.97 8.90993C12.3903 8.90993 10.2991 11.0012 10.2991 13.5808L10.2991 33.4321C10.2991 36.0118 12.3903 38.103 14.97 38.103H28.9827C31.5623 38.103 33.6536 36.0118 33.6536 33.4321L33.6536 13.5808Z" fill="url(#paint9_radial_1_1063)"/>
<path d="M34.8213 13.5808C34.8213 10.3562 32.2073 7.74221 28.9827 7.74221L14.97 7.74221C12.0679 7.74221 9.71526 10.0948 9.71526 12.997L10.883 13.5808C10.883 11.6461 12.7128 10.0776 14.97 10.0776L28.9827 10.0776C30.9174 10.0776 32.4858 11.6461 32.4858 13.5808H34.8213ZM9.71526 34.016C9.71526 36.9181 12.0679 39.2707 14.97 39.2707H28.9827C32.2073 39.2707 34.8213 36.6567 34.8213 33.4321H32.4858C32.4858 35.3668 30.9174 36.9353 28.9827 36.9353H14.97C12.7128 36.9353 10.883 35.3668 10.883 33.4321L9.71526 34.016ZM28.9827 39.2707C32.2073 39.2707 34.8213 36.6567 34.8213 33.4321L34.8213 13.5808C34.8213 10.3562 32.2073 7.74221 28.9827 7.74221V10.0776C30.9174 10.0776 32.4858 11.6461 32.4858 13.5808L32.4858 33.4321C32.4858 35.3668 30.9174 36.9353 28.9827 36.9353V39.2707ZM14.97 7.74221C12.0679 7.74221 9.71526 10.0948 9.71526 12.997L9.71526 34.016C9.71526 36.9181 12.0679 39.2707 14.97 39.2707V36.9353C12.7128 36.9353 10.883 35.3668 10.883 33.4321L10.883 13.5808C10.883 11.6461 12.7128 10.0776 14.97 10.0776V7.74221Z" fill="black" mask="url(#path-14-inside-9_1_1063)"/>
<mask id="path-16-inside-10_1_1063" fill="white">
<path d="M11.467 34.5998C11.467 36.5346 9.82996 38.1514 8.08081 37.3246C7.8667 37.2233 7.65472 37.1124 7.44521 36.9919C6.17014 36.2583 5.01158 35.1832 4.03568 33.8278C3.05978 32.4723 2.28566 30.8632 1.75751 29.0923C1.22936 27.3214 0.957519 25.4233 0.95752 23.5065C0.95752 21.5896 1.22936 19.6915 1.75751 17.9206C2.28566 16.1497 3.05978 14.5406 4.03568 13.1852C5.01158 11.8297 6.17014 10.7546 7.44521 10.021C7.65472 9.90049 7.8667 9.78957 8.08081 9.68836C9.82996 8.8615 11.467 10.4783 11.467 12.4131L11.467 23.5065L11.467 34.5998Z"/>
</mask>
<path d="M11.467 34.5998C11.467 36.5346 9.82996 38.1514 8.08081 37.3246C7.8667 37.2233 7.65472 37.1124 7.44521 36.9919C6.17014 36.2583 5.01158 35.1832 4.03568 33.8278C3.05978 32.4723 2.28566 30.8632 1.75751 29.0923C1.22936 27.3214 0.957519 25.4233 0.95752 23.5065C0.95752 21.5896 1.22936 19.6915 1.75751 17.9206C2.28566 16.1497 3.05978 14.5406 4.03568 13.1852C5.01158 11.8297 6.17014 10.7546 7.44521 10.021C7.65472 9.90049 7.8667 9.78957 8.08081 9.68836C9.82996 8.8615 11.467 10.4783 11.467 12.4131L11.467 23.5065L11.467 34.5998Z" fill="url(#paint10_linear_1_1063)" stroke="black" stroke-width="2.33544" mask="url(#path-16-inside-10_1_1063)"/>
<mask id="path-17-inside-11_1_1063" fill="white">
<path d="M33.6536 83.6442C33.6536 81.0645 31.5623 78.9733 28.9827 78.9733H14.97C12.3903 78.9733 10.2991 81.0645 10.2991 83.6442L10.2991 103.495C10.2991 106.075 12.3903 108.166 14.97 108.166H28.9827C31.5623 108.166 33.6536 106.075 33.6536 103.495L33.6536 83.6442Z"/>
</mask>
<path d="M33.6536 83.6442C33.6536 81.0645 31.5623 78.9733 28.9827 78.9733H14.97C12.3903 78.9733 10.2991 81.0645 10.2991 83.6442L10.2991 103.495C10.2991 106.075 12.3903 108.166 14.97 108.166H28.9827C31.5623 108.166 33.6536 106.075 33.6536 103.495L33.6536 83.6442Z" fill="url(#paint11_radial_1_1063)"/>
<path d="M34.8213 83.6442C34.8213 80.4196 32.2073 77.8055 28.9827 77.8055H14.97C12.0679 77.8055 9.71526 80.1582 9.71526 83.0603L10.883 83.6442C10.883 81.7094 12.7128 80.141 14.97 80.141H28.9827C30.9174 80.141 32.4858 81.7094 32.4858 83.6442H34.8213ZM9.71526 104.079C9.71526 106.981 12.0679 109.334 14.97 109.334H28.9827C32.2073 109.334 34.8213 106.72 34.8213 103.495H32.4858C32.4858 105.43 30.9174 106.999 28.9827 106.999H14.97C12.7128 106.999 10.883 105.43 10.883 103.495L9.71526 104.079ZM28.9827 109.334C32.2073 109.334 34.8213 106.72 34.8213 103.495L34.8213 83.6442C34.8213 80.4196 32.2073 77.8055 28.9827 77.8055V80.141C30.9174 80.141 32.4858 81.7094 32.4858 83.6442L32.4858 103.495C32.4858 105.43 30.9174 106.999 28.9827 106.999V109.334ZM14.97 77.8055C12.0679 77.8055 9.71526 80.1582 9.71526 83.0603L9.71526 104.079C9.71526 106.981 12.0679 109.334 14.97 109.334V106.999C12.7128 106.999 10.883 105.43 10.883 103.495L10.883 83.6442C10.883 81.7094 12.7128 80.141 14.97 80.141V77.8055Z" fill="black" mask="url(#path-17-inside-11_1_1063)"/>
<mask id="path-19-inside-12_1_1063" fill="white">
<path d="M11.467 104.663C11.467 106.598 9.82996 108.215 8.08081 107.388C7.8667 107.287 7.65472 107.176 7.44521 107.055C6.17014 106.322 5.01158 105.247 4.03568 103.891C3.05978 102.536 2.28566 100.927 1.75751 99.1556C1.22936 97.3847 0.957519 95.4866 0.95752 93.5698C0.95752 91.653 1.22936 89.7549 1.75751 87.9839C2.28566 86.213 3.05978 84.6039 4.03568 83.2485C5.01158 81.8931 6.17014 80.8179 7.44521 80.0844C7.65472 79.9638 7.8667 79.8529 8.08081 79.7517C9.82996 78.9248 11.467 80.5417 11.467 82.4764L11.467 93.5698L11.467 104.663Z"/>
</mask>
<path d="M11.467 104.663C11.467 106.598 9.82996 108.215 8.08081 107.388C7.8667 107.287 7.65472 107.176 7.44521 107.055C6.17014 106.322 5.01158 105.247 4.03568 103.891C3.05978 102.536 2.28566 100.927 1.75751 99.1556C1.22936 97.3847 0.957519 95.4866 0.95752 93.5698C0.95752 91.653 1.22936 89.7549 1.75751 87.9839C2.28566 86.213 3.05978 84.6039 4.03568 83.2485C5.01158 81.8931 6.17014 80.8179 7.44521 80.0844C7.65472 79.9638 7.8667 79.8529 8.08081 79.7517C9.82996 78.9248 11.467 80.5417 11.467 82.4764L11.467 93.5698L11.467 104.663Z" fill="url(#paint12_linear_1_1063)" stroke="black" stroke-width="2.33544" mask="url(#path-19-inside-12_1_1063)"/>
<defs>
<radialGradient id="paint0_radial_1_1063" cx="0" cy="0" r="1" gradientUnits="userSpaceOnUse" gradientTransform="translate(94.3752 58.5381) rotate(180) scale(11.6772 14.5965)">
<stop stop-color="#A97854"/>
<stop offset="1" stop-color="#785942"/>
</radialGradient>
<linearGradient id="paint1_linear_1_1063" x1="106.053" y1="58.5381" x2="114.227" y2="58.5381" gradientUnits="userSpaceOnUse">
<stop stop-color="#B6845F"/>
<stop offset="1" stop-color="#534031"/>
</linearGradient>
<radialGradient id="paint2_radial_1_1063" cx="0" cy="0" r="1" gradientUnits="userSpaceOnUse" gradientTransform="translate(94.3752 93.5698) rotate(180) scale(11.6772 14.5965)">
<stop stop-color="#A97854"/>
<stop offset="1" stop-color="#785942"/>
</radialGradient>
<linearGradient id="paint3_linear_1_1063" x1="106.053" y1="93.5698" x2="114.227" y2="93.5698" gradientUnits="userSpaceOnUse">
<stop stop-color="#B6845F"/>
<stop offset="1" stop-color="#534031"/>
</linearGradient>
<radialGradient id="paint4_radial_1_1063" cx="0" cy="0" r="1" gradientUnits="userSpaceOnUse" gradientTransform="translate(94.3752 23.5065) rotate(180) scale(11.6772 14.5965)">
<stop stop-color="#A97854"/>
<stop offset="1" stop-color="#785942"/>
</radialGradient>
<linearGradient id="paint5_linear_1_1063" x1="106.053" y1="23.5065" x2="114.227" y2="23.5065" gradientUnits="userSpaceOnUse">
<stop stop-color="#B6845F"/>
<stop offset="1" stop-color="#534031"/>
</linearGradient>
<radialGradient id="paint6_radial_1_1063" cx="0" cy="0" r="1" gradientUnits="userSpaceOnUse" gradientTransform="translate(57.8023 20.4351) rotate(90) scale(20.4351 57.8023)">
<stop stop-color="#FAE5B9"/>
<stop offset="1" stop-color="#E6BF9E"/>
</radialGradient>
<radialGradient id="paint7_radial_1_1063" cx="0" cy="0" r="1" gradientUnits="userSpaceOnUse" gradientTransform="translate(21.9763 58.5381) scale(11.6772 14.5965)">
<stop stop-color="#A97854"/>
<stop offset="1" stop-color="#785942"/>
</radialGradient>
<linearGradient id="paint8_linear_1_1063" x1="10.2993" y1="58.5381" x2="2.12524" y2="58.5381" gradientUnits="userSpaceOnUse">
<stop stop-color="#B6845F"/>
<stop offset="1" stop-color="#534031"/>
</linearGradient>
<radialGradient id="paint9_radial_1_1063" cx="0" cy="0" r="1" gradientUnits="userSpaceOnUse" gradientTransform="translate(21.9763 23.5065) scale(11.6772 14.5965)">
<stop stop-color="#A97854"/>
<stop offset="1" stop-color="#785942"/>
</radialGradient>
<linearGradient id="paint10_linear_1_1063" x1="10.2993" y1="23.5065" x2="2.12524" y2="23.5065" gradientUnits="userSpaceOnUse">
<stop stop-color="#B6845F"/>
<stop offset="1" stop-color="#534031"/>
</linearGradient>
<radialGradient id="paint11_radial_1_1063" cx="0" cy="0" r="1" gradientUnits="userSpaceOnUse" gradientTransform="translate(21.9763 93.5698) scale(11.6772 14.5965)">
<stop stop-color="#A97854"/>
<stop offset="1" stop-color="#785942"/>
</radialGradient>
<linearGradient id="paint12_linear_1_1063" x1="10.2993" y1="93.5698" x2="2.12524" y2="93.5698" gradientUnits="userSpaceOnUse">
<stop stop-color="#B6845F"/>
<stop offset="1" stop-color="#534031"/>
</linearGradient>
</defs>
</svg>
