<svg width="125" height="87" viewBox="0 0 125 87" fill="none" xmlns="http://www.w3.org/2000/svg">
<path d="M7.39356 0.768616L32.3618 0.768616C33.1197 0.768616 33.8573 1.01446 34.4637 1.46925C35.3458 2.13084 35.8649 3.16914 35.8649 4.27178V6.3153H37.6165C39.5513 6.3153 41.1197 7.88372 41.1197 9.81846L41.1197 76.6706C41.1197 78.6053 39.5513 80.1737 37.6165 80.1737H35.8649V82.5092C35.8649 83.6118 35.3458 84.6501 34.4637 85.3117C33.8573 85.7665 33.1197 86.0123 32.3618 86.0123H7.83959C7.08161 86.0123 6.34407 85.7665 5.73769 85.3117C4.85557 84.6501 4.33642 83.6118 4.33642 82.5092V80.1737C2.40167 80.1737 0.833252 78.6053 0.833252 76.6706L0.833252 10.1104C0.833252 8.17565 2.40167 6.60723 4.33642 6.60723L4.33642 3.82575C4.33642 2.66779 4.99065 1.60922 6.02636 1.09137C6.45086 0.879116 6.91895 0.768616 7.39356 0.768616Z" fill="url(#paint0_linear_1_1054)"/>
<path d="M4.33642 6.60723L4.33642 3.82575C4.33642 2.66779 4.99065 1.60922 6.02636 1.09137V1.09137C6.45086 0.879116 6.91895 0.768616 7.39356 0.768616L32.3618 0.768616C33.1197 0.768616 33.8573 1.01446 34.4637 1.46925V1.46925C35.3458 2.13084 35.8649 3.16914 35.8649 4.27178V6.3153M4.33642 6.60723V6.60723C2.40167 6.60723 0.833252 8.17565 0.833252 10.1104L0.833252 76.6706C0.833252 78.6053 2.40167 80.1737 4.33642 80.1737V80.1737M4.33642 6.60723H8.13152M9.00731 80.1737L8.13152 6.60723M9.00731 80.1737H4.33642M9.00731 80.1737H10.0518C11.2231 80.1737 12.3169 79.5884 12.9666 78.6138L13.2221 78.2305C13.8718 77.256 14.9656 76.6706 16.1369 76.6706H17.1814M8.13152 6.60723L9.76154 6.60723C11.0884 6.60723 12.3015 7.35691 12.8949 8.54373L13.2938 9.34161C13.8872 10.5284 15.1002 11.2781 16.4271 11.2781H17.1814M17.1814 11.2781L32.8078 11.2781C33.2824 11.2781 33.7505 11.1676 34.175 10.9554V10.9554C35.2107 10.4375 35.8649 9.37894 35.8649 8.22098V6.3153M17.1814 11.2781L17.1814 76.6706M17.1814 76.6706H32.3618C33.1197 76.6706 33.8573 76.9164 34.4637 77.3712V77.3712C35.3458 78.0328 35.8649 79.0711 35.8649 80.1737V80.1737M4.33642 80.1737V82.5092C4.33642 83.6118 4.85557 84.6501 5.73769 85.3117V85.3117C6.34407 85.7665 7.08161 86.0123 7.83959 86.0123H32.3618C33.1197 86.0123 33.8573 85.7665 34.4637 85.3117V85.3117C35.3458 84.6501 35.8649 83.6118 35.8649 82.5092V80.1737M35.8649 6.3153H37.6165C39.5513 6.3153 41.1197 7.88372 41.1197 9.81846L41.1197 76.6706C41.1197 78.6053 39.5513 80.1737 37.6165 80.1737H35.8649" stroke="#2C1107" stroke-width="1.16772"/>
<mask id="path-3-inside-1_1_1054" fill="white">
<path d="M91.6235 52.4403C91.6235 49.8607 93.7148 47.7694 96.2944 47.7694H110.307C112.887 47.7694 114.978 49.8607 114.978 52.4403V72.2916C114.978 74.8713 112.887 76.9625 110.307 76.9625H96.2944C93.7148 76.9625 91.6235 74.8713 91.6235 72.2916V52.4403Z"/>
</mask>
<path d="M91.6235 52.4403C91.6235 49.8607 93.7148 47.7694 96.2944 47.7694H110.307C112.887 47.7694 114.978 49.8607 114.978 52.4403V72.2916C114.978 74.8713 112.887 76.9625 110.307 76.9625H96.2944C93.7148 76.9625 91.6235 74.8713 91.6235 72.2916V52.4403Z" fill="url(#paint1_radial_1_1054)"/>
<path d="M90.4558 52.4403C90.4558 49.2158 93.0698 46.6017 96.2944 46.6017H110.307C113.209 46.6017 115.562 48.9543 115.562 51.8565L114.394 52.4403C114.394 50.5056 112.564 48.9372 110.307 48.9372H96.2944C94.3597 48.9372 92.7913 50.5056 92.7913 52.4403H90.4558ZM115.562 72.8755C115.562 75.7776 113.209 78.1302 110.307 78.1302H96.2944C93.0698 78.1302 90.4558 75.5162 90.4558 72.2916H92.7913C92.7913 74.2264 94.3597 75.7948 96.2944 75.7948H110.307C112.564 75.7948 114.394 74.2264 114.394 72.2916L115.562 72.8755ZM96.2944 78.1302C93.0698 78.1302 90.4558 75.5162 90.4558 72.2916V52.4403C90.4558 49.2158 93.0698 46.6017 96.2944 46.6017V48.9372C94.3597 48.9372 92.7913 50.5056 92.7913 52.4403V72.2916C92.7913 74.2264 94.3597 75.7948 96.2944 75.7948V78.1302ZM110.307 46.6017C113.209 46.6017 115.562 48.9543 115.562 51.8565V72.8755C115.562 75.7776 113.209 78.1302 110.307 78.1302V75.7948C112.564 75.7948 114.394 74.2264 114.394 72.2916V52.4403C114.394 50.5056 112.564 48.9372 110.307 48.9372V46.6017Z" fill="black" mask="url(#path-3-inside-1_1_1054)"/>
<mask id="path-5-inside-2_1_1054" fill="white">
<path d="M113.81 73.4593C113.81 75.3941 115.447 77.0109 117.197 76.1841C117.411 76.0829 117.623 75.9719 117.832 75.8514C119.107 75.1179 120.266 74.0427 121.242 72.6873C122.218 71.3319 122.992 69.7227 123.52 67.9518C124.048 66.1809 124.32 64.2828 124.32 62.366C124.32 60.4491 124.048 58.5511 123.52 56.7801C122.992 55.0092 122.218 53.4001 121.242 52.0447C120.266 50.6893 119.107 49.6141 117.832 48.8805C117.623 48.76 117.411 48.6491 117.197 48.5479C115.447 47.721 113.81 49.3379 113.81 51.2726L113.81 62.366V73.4593Z"/>
</mask>
<path d="M113.81 73.4593C113.81 75.3941 115.447 77.0109 117.197 76.1841C117.411 76.0829 117.623 75.9719 117.832 75.8514C119.107 75.1179 120.266 74.0427 121.242 72.6873C122.218 71.3319 122.992 69.7227 123.52 67.9518C124.048 66.1809 124.32 64.2828 124.32 62.366C124.32 60.4491 124.048 58.5511 123.52 56.7801C122.992 55.0092 122.218 53.4001 121.242 52.0447C120.266 50.6893 119.107 49.6141 117.832 48.8805C117.623 48.76 117.411 48.6491 117.197 48.5479C115.447 47.721 113.81 49.3379 113.81 51.2726L113.81 62.366V73.4593Z" fill="url(#paint2_linear_1_1054)" stroke="black" stroke-width="2.33544" mask="url(#path-5-inside-2_1_1054)"/>
<mask id="path-6-inside-3_1_1054" fill="white">
<path d="M91.6235 17.4087C91.6235 14.829 93.7148 12.7378 96.2944 12.7378H110.307C112.887 12.7378 114.978 14.829 114.978 17.4087V37.2599C114.978 39.8396 112.887 41.9308 110.307 41.9308H96.2944C93.7148 41.9308 91.6235 39.8396 91.6235 37.2599V17.4087Z"/>
</mask>
<path d="M91.6235 17.4087C91.6235 14.829 93.7148 12.7378 96.2944 12.7378H110.307C112.887 12.7378 114.978 14.829 114.978 17.4087V37.2599C114.978 39.8396 112.887 41.9308 110.307 41.9308H96.2944C93.7148 41.9308 91.6235 39.8396 91.6235 37.2599V17.4087Z" fill="url(#paint3_radial_1_1054)"/>
<path d="M90.4558 17.4087C90.4558 14.1841 93.0698 11.57 96.2944 11.57H110.307C113.209 11.57 115.562 13.9227 115.562 16.8248L114.394 17.4087C114.394 15.4739 112.564 13.9055 110.307 13.9055H96.2944C94.3597 13.9055 92.7913 15.4739 92.7913 17.4087H90.4558ZM115.562 37.8438C115.562 40.7459 113.209 43.0985 110.307 43.0985H96.2944C93.0698 43.0985 90.4558 40.4845 90.4558 37.2599H92.7913C92.7913 39.1947 94.3597 40.7631 96.2944 40.7631H110.307C112.564 40.7631 114.394 39.1947 114.394 37.2599L115.562 37.8438ZM96.2944 43.0985C93.0698 43.0985 90.4558 40.4845 90.4558 37.2599V17.4087C90.4558 14.1841 93.0698 11.57 96.2944 11.57V13.9055C94.3597 13.9055 92.7913 15.4739 92.7913 17.4087V37.2599C92.7913 39.1947 94.3597 40.7631 96.2944 40.7631V43.0985ZM110.307 11.57C113.209 11.57 115.562 13.9227 115.562 16.8248V37.8438C115.562 40.7459 113.209 43.0985 110.307 43.0985V40.7631C112.564 40.7631 114.394 39.1947 114.394 37.2599V17.4087C114.394 15.4739 112.564 13.9055 110.307 13.9055V11.57Z" fill="black" mask="url(#path-6-inside-3_1_1054)"/>
<mask id="path-8-inside-4_1_1054" fill="white">
<path d="M113.81 38.4277C113.81 40.3624 115.447 41.9792 117.197 41.1524C117.411 41.0512 117.623 40.9403 117.832 40.8197C119.107 40.0862 120.266 39.011 121.242 37.6556C122.218 36.3002 122.992 34.6911 123.52 32.9201C124.048 31.1492 124.32 29.2511 124.32 27.3343C124.32 25.4174 124.048 23.5194 123.52 21.7484C122.992 19.9775 122.218 18.3684 121.242 17.013C120.266 15.6576 119.107 14.5824 117.832 13.8489C117.623 13.7283 117.411 13.6174 117.197 13.5162C115.447 12.6893 113.81 14.3062 113.81 16.2409L113.81 27.3343V38.4277Z"/>
</mask>
<path d="M113.81 38.4277C113.81 40.3624 115.447 41.9792 117.197 41.1524C117.411 41.0512 117.623 40.9403 117.832 40.8197C119.107 40.0862 120.266 39.011 121.242 37.6556C122.218 36.3002 122.992 34.6911 123.52 32.9201C124.048 31.1492 124.32 29.2511 124.32 27.3343C124.32 25.4174 124.048 23.5194 123.52 21.7484C122.992 19.9775 122.218 18.3684 121.242 17.013C120.266 15.6576 119.107 14.5824 117.832 13.8489C117.623 13.7283 117.411 13.6174 117.197 13.5162C115.447 12.6893 113.81 14.3062 113.81 16.2409L113.81 27.3343V38.4277Z" fill="url(#paint4_linear_1_1054)" stroke="black" stroke-width="2.33544" mask="url(#path-8-inside-4_1_1054)"/>
<rect width="70.0633" height="40.8703" transform="matrix(0 -1 1 0 46.0825 80.4657)" fill="url(#paint5_radial_1_1054)"/>
<rect x="86.3688" y="79.8818" width="39.7026" height="68.8956" transform="rotate(-180 86.3688 79.8818)" stroke="black" stroke-width="1.16772"/>
<defs>
<linearGradient id="paint0_linear_1_1054" x1="0.833252" y1="45.1421" x2="39.952" y2="45.1421" gradientUnits="userSpaceOnUse">
<stop stop-color="#E9B58F"/>
<stop offset="1" stop-color="#534031"/>
</linearGradient>
<radialGradient id="paint1_radial_1_1054" cx="0" cy="0" r="1" gradientUnits="userSpaceOnUse" gradientTransform="translate(103.301 62.366) rotate(180) scale(11.6772 14.5965)">
<stop stop-color="#A97854"/>
<stop offset="1" stop-color="#785942"/>
</radialGradient>
<linearGradient id="paint2_linear_1_1054" x1="114.978" y1="62.366" x2="123.152" y2="62.366" gradientUnits="userSpaceOnUse">
<stop stop-color="#B6845F"/>
<stop offset="1" stop-color="#534031"/>
</linearGradient>
<radialGradient id="paint3_radial_1_1054" cx="0" cy="0" r="1" gradientUnits="userSpaceOnUse" gradientTransform="translate(103.301 27.3343) rotate(180) scale(11.6772 14.5965)">
<stop stop-color="#A97854"/>
<stop offset="1" stop-color="#785942"/>
</radialGradient>
<linearGradient id="paint4_linear_1_1054" x1="114.978" y1="27.3343" x2="123.152" y2="27.3343" gradientUnits="userSpaceOnUse">
<stop stop-color="#B6845F"/>
<stop offset="1" stop-color="#534031"/>
</linearGradient>
<radialGradient id="paint5_radial_1_1054" cx="0" cy="0" r="1" gradientUnits="userSpaceOnUse" gradientTransform="translate(35.0317 20.4351) rotate(90) scale(20.4351 35.0317)">
<stop stop-color="#FAE5B9"/>
<stop offset="1" stop-color="#E6BF9E"/>
</radialGradient>
</defs>
</svg>
