<svg width="134" height="102" viewBox="0 0 134 102" fill="none" xmlns="http://www.w3.org/2000/svg">
<mask id="path-1-inside-1_1_1061" fill="white">
<path d="M45.2622 79.6026C46.6672 81.766 46.0523 84.6589 43.8888 86.0638L32.1368 93.6957C29.9733 95.1007 27.0805 94.4858 25.6755 92.3223L14.8637 75.6736C13.4588 73.5101 14.0736 70.6173 16.2371 69.2123L27.9891 61.5805C30.1526 60.1755 33.0454 60.7904 34.4504 62.9539L45.2622 79.6026Z"/>
</mask>
<path d="M45.2622 79.6026C46.6672 81.766 46.0523 84.6589 43.8888 86.0638L32.1368 93.6957C29.9733 95.1007 27.0805 94.4858 25.6755 92.3223L14.8637 75.6736C13.4588 73.5101 14.0736 70.6173 16.2371 69.2123L27.9891 61.5805C30.1526 60.1755 33.0454 60.7904 34.4504 62.9539L45.2622 79.6026Z" fill="url(#paint0_radial_1_1061)"/>
<path d="M46.2415 78.9666C47.9978 81.6709 47.2292 85.287 44.5248 87.0432L32.7728 94.675C30.3389 96.2556 27.0845 95.5639 25.5038 93.13L26.1652 92.0043C27.2189 93.6269 29.6078 93.9457 31.5008 92.7164L43.2528 85.0845C44.8754 84.0308 45.3366 81.8612 44.2829 80.2385L46.2415 78.9666ZM14.0561 75.5019C12.4755 73.068 13.1672 69.8136 15.6011 68.233L27.3531 60.6012C30.0575 58.8449 33.6735 59.6135 35.4298 62.3179L33.4711 63.5899C32.4173 61.9672 30.2477 61.5061 28.6251 62.5598L16.8731 70.1917C14.9801 71.421 14.2997 73.733 15.3534 75.3556L14.0561 75.5019ZM27.3531 60.6012C30.0575 58.8449 33.6735 59.6135 35.4298 62.3179L46.2415 78.9666C47.9978 81.6709 47.2292 85.287 44.5248 87.0432L43.2528 85.0845C44.8754 84.0308 45.3366 81.8612 44.2829 80.2385L33.4711 63.5899C32.4173 61.9672 30.2477 61.5061 28.6251 62.5598L27.3531 60.6012ZM32.7728 94.675C30.3389 96.2556 27.0845 95.5639 25.5038 93.13L14.0561 75.5019C12.4755 73.068 13.1672 69.8136 15.6011 68.233L16.8731 70.1917C14.9801 71.421 14.2997 73.733 15.3534 75.3556L26.1652 92.0043C27.2189 93.6269 29.6078 93.9457 31.5008 92.7164L32.7728 94.675Z" fill="black" mask="url(#path-1-inside-1_1_1061)"/>
<mask id="path-3-inside-2_1_1061" fill="white">
<path d="M15.2073 74.0583C14.1536 72.4357 11.9 71.9713 10.8834 73.6174C10.7589 73.8189 10.6416 74.0274 10.5315 74.2426C9.86166 75.5522 9.47559 77.0849 9.39535 78.7532C9.3151 80.4214 9.54225 82.1926 10.0638 83.9655C10.5854 85.7383 11.3912 87.4783 12.4352 89.0859C13.4792 90.6935 14.7409 92.1373 16.1484 93.3348C17.5558 94.5324 19.0815 95.4603 20.6381 96.0655C22.1948 96.6708 23.752 96.9415 25.2209 96.8622C25.4623 96.8492 25.7004 96.8268 25.9351 96.7951C27.8524 96.5359 28.3448 94.2883 27.2911 92.6656L21.2492 83.362L15.2073 74.0583Z"/>
</mask>
<path d="M15.2073 74.0583C14.1536 72.4357 11.9 71.9713 10.8834 73.6174C10.7589 73.8189 10.6416 74.0274 10.5315 74.2426C9.86166 75.5522 9.47559 77.0849 9.39535 78.7532C9.3151 80.4214 9.54225 82.1926 10.0638 83.9655C10.5854 85.7383 11.3912 87.4783 12.4352 89.0859C13.4792 90.6935 14.7409 92.1373 16.1484 93.3348C17.5558 94.5324 19.0815 95.4603 20.6381 96.0655C22.1948 96.6708 23.752 96.9415 25.2209 96.8622C25.4623 96.8492 25.7004 96.8268 25.9351 96.7951C27.8524 96.5359 28.3448 94.2883 27.2911 92.6656L21.2492 83.362L15.2073 74.0583Z" fill="url(#paint1_linear_1_1061)" stroke="black" stroke-width="2.33544" mask="url(#path-3-inside-2_1_1061)"/>
<mask id="path-4-inside-3_1_1061" fill="white">
<path d="M100.749 62.9539C102.154 60.7904 105.047 60.1755 107.211 61.5805L118.963 69.2123C121.126 70.6173 121.741 73.5101 120.336 75.6736L109.524 92.3223C108.119 94.4858 105.226 95.1007 103.063 93.6957L91.3109 86.0638C89.1474 84.6589 88.5325 81.766 89.9375 79.6026L100.749 62.9539Z"/>
</mask>
<path d="M100.749 62.9539C102.154 60.7904 105.047 60.1755 107.211 61.5805L118.963 69.2123C121.126 70.6173 121.741 73.5101 120.336 75.6736L109.524 92.3223C108.119 94.4858 105.226 95.1007 103.063 93.6957L91.3109 86.0638C89.1474 84.6589 88.5325 81.766 89.9375 79.6026L100.749 62.9539Z" fill="url(#paint2_radial_1_1061)"/>
<path d="M99.7699 62.3179C101.526 59.6135 105.142 58.8449 107.847 60.6011L119.599 68.233C122.032 69.8136 122.724 73.068 121.144 75.5019L119.846 75.3556C120.9 73.733 120.22 71.421 118.327 70.1917L106.575 62.5598C104.952 61.5061 102.782 61.9672 101.729 63.5899L99.7699 62.3179ZM109.696 93.13C108.115 95.5639 104.861 96.2556 102.427 94.675L90.6749 87.0432C87.9705 85.2869 87.2019 81.6709 88.9581 78.9666L90.9168 80.2385C89.8631 81.8612 90.3242 84.0308 91.9469 85.0845L103.699 92.7163C105.592 93.9457 107.981 93.6269 109.035 92.0043L109.696 93.13ZM90.6749 87.0432C87.9705 85.2869 87.2019 81.6709 88.9581 78.9666L99.7699 62.3179C101.526 59.6135 105.142 58.8449 107.847 60.6011L106.575 62.5598C104.952 61.5061 102.782 61.9672 101.729 63.5899L90.9168 80.2385C89.8631 81.8612 90.3242 84.0308 91.9469 85.0845L90.6749 87.0432ZM119.599 68.233C122.032 69.8136 122.724 73.068 121.144 75.5019L109.696 93.13C108.115 95.5639 104.861 96.2556 102.427 94.675L103.699 92.7163C105.592 93.9457 107.981 93.6269 109.035 92.0043L119.846 75.3556C120.9 73.733 120.22 71.421 118.327 70.1917L119.599 68.233Z" fill="black" mask="url(#path-4-inside-3_1_1061)"/>
<mask id="path-6-inside-4_1_1061" fill="white">
<path d="M107.909 92.6656C106.855 94.2883 107.347 96.5359 109.265 96.7951C109.499 96.8268 109.738 96.8492 109.979 96.8622C111.448 96.9415 113.005 96.6708 114.562 96.0655C116.118 95.4603 117.644 94.5324 119.052 93.3348C120.459 92.1373 121.721 90.6935 122.765 89.0859C123.809 87.4783 124.615 85.7383 125.136 83.9655C125.658 82.1926 125.885 80.4215 125.805 78.7532C125.724 77.0849 125.338 75.5522 124.668 74.2426C124.558 74.0274 124.441 73.8189 124.317 73.6174C123.3 71.9713 121.046 72.4357 119.993 74.0583L113.951 83.362L107.909 92.6656Z"/>
</mask>
<path d="M107.909 92.6656C106.855 94.2883 107.347 96.5359 109.265 96.7951C109.499 96.8268 109.738 96.8492 109.979 96.8622C111.448 96.9415 113.005 96.6708 114.562 96.0655C116.118 95.4603 117.644 94.5324 119.052 93.3348C120.459 92.1373 121.721 90.6935 122.765 89.0859C123.809 87.4783 124.615 85.7383 125.136 83.9655C125.658 82.1926 125.885 80.4215 125.805 78.7532C125.724 77.0849 125.338 75.5522 124.668 74.2426C124.558 74.0274 124.441 73.8189 124.317 73.6174C123.3 71.9713 121.046 72.4357 119.993 74.0583L113.951 83.362L107.909 92.6656Z" fill="url(#paint3_linear_1_1061)" stroke="black" stroke-width="2.33544" mask="url(#path-6-inside-4_1_1061)"/>
<mask id="path-7-inside-5_1_1061" fill="white">
<path d="M89.9375 22.3754C88.5325 20.2119 89.1474 17.3191 91.3109 15.9141L103.063 8.28228C105.226 6.87729 108.119 7.49218 109.524 9.65566L120.336 26.3043C121.741 28.4678 121.126 31.3606 118.963 32.7656L107.211 40.3975C105.047 41.8025 102.154 41.1876 100.749 39.0241L89.9375 22.3754Z"/>
</mask>
<path d="M89.9375 22.3754C88.5325 20.2119 89.1474 17.3191 91.3109 15.9141L103.063 8.28228C105.226 6.87729 108.119 7.49218 109.524 9.65566L120.336 26.3043C121.741 28.4678 121.126 31.3606 118.963 32.7656L107.211 40.3975C105.047 41.8025 102.154 41.1876 100.749 39.0241L89.9375 22.3754Z" fill="url(#paint4_radial_1_1061)"/>
<path d="M88.9582 23.0114C87.2019 20.307 87.9705 16.691 90.6749 14.9348L102.427 7.30294C104.861 5.72233 108.115 6.41408 109.696 8.848L109.035 9.97366C107.981 8.35104 105.592 8.03225 103.699 9.26161L91.9469 16.8935C90.3243 17.9472 89.8631 20.1168 90.9168 21.7394L88.9582 23.0114ZM121.144 26.476C122.724 28.9099 122.032 32.1644 119.599 33.745L107.847 41.3768C105.142 43.133 101.526 42.3644 99.77 39.6601L101.729 38.3881C102.782 40.0107 104.952 40.4719 106.575 39.4181L118.327 31.7863C120.22 30.5569 120.9 28.245 119.846 26.6223L121.144 26.476ZM107.847 41.3768C105.142 43.133 101.526 42.3644 99.77 39.6601L88.9582 23.0114C87.2019 20.307 87.9705 16.691 90.6749 14.9348L91.9469 16.8935C90.3243 17.9472 89.8631 20.1168 90.9168 21.7394L101.729 38.3881C102.782 40.0107 104.952 40.4719 106.575 39.4181L107.847 41.3768ZM102.427 7.30294C104.861 5.72233 108.115 6.41408 109.696 8.848L121.144 26.476C122.724 28.9099 122.032 32.1644 119.599 33.745L118.327 31.7863C120.22 30.5569 120.9 28.245 119.846 26.6223L109.035 9.97366C107.981 8.35104 105.592 8.03225 103.699 9.26161L102.427 7.30294Z" fill="black" mask="url(#path-7-inside-5_1_1061)"/>
<mask id="path-9-inside-6_1_1061" fill="white">
<path d="M119.993 27.9197C121.046 29.5423 123.3 30.0067 124.317 28.3606C124.441 28.1591 124.558 27.9506 124.668 27.7354C125.338 26.4257 125.724 24.893 125.805 23.2248C125.885 21.5565 125.658 19.7854 125.136 18.0125C124.615 16.2396 123.809 14.4997 122.765 12.8921C121.721 11.2845 120.459 9.84071 119.052 8.64313C117.644 7.44556 116.118 6.51766 114.562 5.91243C113.005 5.30719 111.448 5.03648 109.979 5.11573C109.738 5.12875 109.5 5.15118 109.265 5.18291C107.348 5.4421 106.855 7.68971 107.909 9.31232L113.951 18.616L119.993 27.9197Z"/>
</mask>
<path d="M119.993 27.9197C121.046 29.5423 123.3 30.0067 124.317 28.3606C124.441 28.1591 124.558 27.9506 124.668 27.7354C125.338 26.4257 125.724 24.893 125.805 23.2248C125.885 21.5565 125.658 19.7854 125.136 18.0125C124.615 16.2396 123.809 14.4997 122.765 12.8921C121.721 11.2845 120.459 9.84071 119.052 8.64313C117.644 7.44556 116.118 6.51766 114.562 5.91243C113.005 5.30719 111.448 5.03648 109.979 5.11573C109.738 5.12875 109.5 5.15118 109.265 5.18291C107.348 5.4421 106.855 7.68971 107.909 9.31232L113.951 18.616L119.993 27.9197Z" fill="url(#paint5_linear_1_1061)" stroke="black" stroke-width="2.33544" mask="url(#path-9-inside-6_1_1061)"/>
<mask id="path-10-inside-7_1_1061" fill="white">
<path d="M34.4504 39.0241C33.0455 41.1876 30.1526 41.8025 27.9892 40.3975L16.2371 32.7656C14.0737 31.3607 13.4588 28.4678 14.8638 26.3044L25.6755 9.65567C27.0805 7.49219 29.9733 6.8773 32.1368 8.28228L43.8888 15.9141C46.0523 17.3191 46.6672 20.2119 45.2622 22.3754L34.4504 39.0241Z"/>
</mask>
<path d="M34.4504 39.0241C33.0455 41.1876 30.1526 41.8025 27.9892 40.3975L16.2371 32.7656C14.0737 31.3607 13.4588 28.4678 14.8638 26.3044L25.6755 9.65567C27.0805 7.49219 29.9733 6.8773 32.1368 8.28228L43.8888 15.9141C46.0523 17.3191 46.6672 20.2119 45.2622 22.3754L34.4504 39.0241Z" fill="url(#paint6_radial_1_1061)"/>
<path d="M35.4298 39.6601C33.6735 42.3644 30.0575 43.1331 27.3532 41.3768L15.6012 33.745C13.1672 32.1644 12.4755 28.91 14.0561 26.476L15.3534 26.6223C14.2997 28.245 14.9801 30.5569 16.8731 31.7863L28.6251 39.4182C30.2478 40.4719 32.4174 40.0107 33.4711 38.3881L35.4298 39.6601ZM25.5039 8.84801C27.0845 6.41409 30.3389 5.72234 32.7728 7.30295L44.5248 14.9348C47.2292 16.691 47.9978 20.307 46.2416 23.0114L44.2829 21.7394C45.3366 20.1168 44.8755 17.9472 43.2528 16.8935L31.5008 9.26162C29.6078 8.03226 27.2189 8.35105 26.1652 9.97367L25.5039 8.84801ZM44.5248 14.9348C47.2292 16.691 47.9978 20.307 46.2416 23.0114L35.4298 39.6601C33.6735 42.3644 30.0575 43.1331 27.3532 41.3768L28.6251 39.4182C30.2478 40.4719 32.4174 40.0107 33.4711 38.3881L44.2829 21.7394C45.3366 20.1168 44.8755 17.9472 43.2528 16.8935L44.5248 14.9348ZM15.6012 33.745C13.1672 32.1644 12.4755 28.91 14.0561 26.476L25.5039 8.84801C27.0845 6.41409 30.3389 5.72234 32.7728 7.30295L31.5008 9.26162C29.6078 8.03226 27.2189 8.35105 26.1652 9.97367L15.3534 26.6223C14.2997 28.245 14.9801 30.5569 16.8731 31.7863L15.6012 33.745Z" fill="black" mask="url(#path-10-inside-7_1_1061)"/>
<mask id="path-12-inside-8_1_1061" fill="white">
<path d="M27.2911 9.31232C28.3448 7.68971 27.8525 5.4421 25.9352 5.1829C25.7005 5.15117 25.4623 5.12874 25.2209 5.11572C23.752 5.03647 22.1948 5.30719 20.6381 5.91242C19.0815 6.51766 17.5559 7.44555 16.1484 8.64313C14.7409 9.8407 13.4792 11.2845 12.4352 12.8921C11.3912 14.4997 10.5854 16.2396 10.0638 18.0125C9.54227 19.7854 9.31512 21.5565 9.39537 23.2248C9.47562 24.893 9.86168 26.4257 10.5315 27.7354C10.6416 27.9506 10.759 28.1591 10.8834 28.3606C11.9 30.0067 14.1536 29.5423 15.2073 27.9197L21.2492 18.616L27.2911 9.31232Z"/>
</mask>
<path d="M27.2911 9.31232C28.3448 7.68971 27.8525 5.4421 25.9352 5.1829C25.7005 5.15117 25.4623 5.12874 25.2209 5.11572C23.752 5.03647 22.1948 5.30719 20.6381 5.91242C19.0815 6.51766 17.5559 7.44555 16.1484 8.64313C14.7409 9.8407 13.4792 11.2845 12.4352 12.8921C11.3912 14.4997 10.5854 16.2396 10.0638 18.0125C9.54227 19.7854 9.31512 21.5565 9.39537 23.2248C9.47562 24.893 9.86168 26.4257 10.5315 27.7354C10.6416 27.9506 10.759 28.1591 10.8834 28.3606C11.9 30.0067 14.1536 29.5423 15.2073 27.9197L21.2492 18.616L27.2911 9.31232Z" fill="url(#paint7_linear_1_1061)" stroke="black" stroke-width="2.33544" mask="url(#path-12-inside-8_1_1061)"/>
<circle cx="67.0161" cy="50.4051" r="29.7769" fill="url(#paint8_radial_1_1061)" stroke="black" stroke-width="1.16772"/>
<defs>
<radialGradient id="paint0_radial_1_1061" cx="0" cy="0" r="1" gradientUnits="userSpaceOnUse" gradientTransform="translate(30.063 77.6381) rotate(-33) scale(11.6772 14.5965)">
<stop stop-color="#A97854"/>
<stop offset="1" stop-color="#785942"/>
</radialGradient>
<linearGradient id="paint1_linear_1_1061" x1="20.2698" y1="83.998" x2="13.4145" y2="88.4499" gradientUnits="userSpaceOnUse">
<stop stop-color="#B6845F"/>
<stop offset="1" stop-color="#534031"/>
</linearGradient>
<radialGradient id="paint2_radial_1_1061" cx="0" cy="0" r="1" gradientUnits="userSpaceOnUse" gradientTransform="translate(105.137 77.6381) rotate(-147) scale(11.6772 14.5965)">
<stop stop-color="#A97854"/>
<stop offset="1" stop-color="#785942"/>
</radialGradient>
<linearGradient id="paint3_linear_1_1061" x1="114.93" y1="83.998" x2="121.785" y2="88.4499" gradientUnits="userSpaceOnUse">
<stop stop-color="#B6845F"/>
<stop offset="1" stop-color="#534031"/>
</linearGradient>
<radialGradient id="paint4_radial_1_1061" cx="0" cy="0" r="1" gradientUnits="userSpaceOnUse" gradientTransform="translate(105.137 24.3399) rotate(147) scale(11.6772 14.5965)">
<stop stop-color="#A97854"/>
<stop offset="1" stop-color="#785942"/>
</radialGradient>
<linearGradient id="paint5_linear_1_1061" x1="114.93" y1="17.98" x2="121.785" y2="13.5281" gradientUnits="userSpaceOnUse">
<stop stop-color="#B6845F"/>
<stop offset="1" stop-color="#534031"/>
</linearGradient>
<radialGradient id="paint6_radial_1_1061" cx="0" cy="0" r="1" gradientUnits="userSpaceOnUse" gradientTransform="translate(30.063 24.3399) rotate(33) scale(11.6772 14.5965)">
<stop stop-color="#A97854"/>
<stop offset="1" stop-color="#785942"/>
</radialGradient>
<linearGradient id="paint7_linear_1_1061" x1="20.2699" y1="17.98" x2="13.4145" y2="13.5281" gradientUnits="userSpaceOnUse">
<stop stop-color="#B6845F"/>
<stop offset="1" stop-color="#534031"/>
</linearGradient>
<radialGradient id="paint8_radial_1_1061" cx="0" cy="0" r="1" gradientUnits="userSpaceOnUse" gradientTransform="translate(67.0161 50.4051) rotate(90) scale(30.3608)">
<stop stop-color="#FAE5B9"/>
<stop offset="1" stop-color="#E6BF9E"/>
</radialGradient>
</defs>
</svg>
