<svg width="156" height="75" viewBox="23 3 140.4 67.5" fill="none" xmlns="http://www.w3.org/2000/svg">
<mask id="path-1-outside-1_90_941" maskUnits="userSpaceOnUse" x="46.2705" y="4.39941" width="77" height="53" fill="black">
<rect fill="white" x="46.2705" y="4.39941" width="77" height="53"/>
<path d="M82.7338 39.1049L82.805 39.603C81.6665 40.1011 80.9549 40.528 80.0299 41.2396C78.251 42.6627 76.7567 44.157 75.1913 45.7224C72.0604 48.5686 69.0007 51.5572 65.0872 53.6918C62.5967 55.0438 60.1063 56.2534 57.26 56.5381C48.6502 57.4631 46.0174 47.9994 47.7963 41.3819C49.2194 37.0414 50.9983 32.9855 53.4888 29.2142C53.9869 28.2892 54.2715 28.1469 53.4176 27.6488C51.781 26.7238 50.4291 25.6564 49.6463 24.1622C49.1483 23.2371 48.7925 21.4583 49.6463 23.5218C50.4291 25.443 52.208 26.5815 53.9869 27.5777C54.5561 27.8623 54.8407 27.3642 55.0542 27.0796C61.1736 18.9678 69.2142 10.856 78.9625 6.94246C82.7338 5.37704 86.6474 4.66548 90.4898 6.44437C95.2572 8.6502 90.9167 15.0542 88.5686 17.4024C85.3666 20.9602 81.8088 23.2371 77.7529 25.1584C72.7008 27.5065 64.4468 30.2104 57.3312 29.2142L56.1927 29.0008C56.1215 29.0719 55.8369 29.4277 55.6946 29.7835C52.5637 34.8355 46.4443 44.8685 49.2906 51.5572C50.1444 54.3322 53.3464 56.4669 56.1215 56.3246C60.5332 56.1823 64.091 54.1899 67.6488 51.6995C69.7834 50.134 71.847 48.3552 73.8393 46.5051C75.6182 44.7974 77.0413 43.3031 78.7491 41.7377C80.0299 40.8126 81.3818 39.8876 82.7338 39.1049ZM61.7428 29.0719C67.293 28.7161 72.5585 27.1507 77.4683 24.8737C81.3818 22.8814 84.8685 20.8178 87.857 17.4735C90.2763 15.0542 94.9726 9.21945 90.2052 6.58669C85.7223 4.9501 81.6665 7.15593 77.7529 8.86367C69.7123 13.7023 62.739 20.1774 57.1177 27.5777L56.4061 28.5738C56.6908 28.7161 57.1889 28.7873 57.4735 28.7873C58.8966 29.0008 60.3197 29.0008 61.7428 29.0719Z"/>
<path d="M83.3809 37.8952L85.5155 34.1951C86.7964 32.3451 88.006 30.4239 89.2868 28.5738C90.3541 27.1507 91.4926 25.7988 92.7023 24.518C94.41 22.7391 96.1178 20.9602 97.8967 19.2524C98.6082 18.5409 99.4621 17.9005 100.245 17.2601C101.241 16.335 102.379 15.6235 103.589 14.9831C105.368 14.1292 109.922 12.5638 109.495 15.9793C108.214 20.1063 104.372 23.0948 101.526 25.5141C99.3909 27.293 96.9716 28.7873 94.6235 30.3527C93.4138 31.0643 92.133 31.7758 90.8522 32.4874C89.9272 32.9855 89.0022 33.4124 88.0772 33.9105C87.7925 34.0528 87.5079 34.2663 87.2944 34.5509C86.654 35.5471 85.9425 36.6144 85.3732 37.7529C84.5905 39.3184 83.8078 40.8838 83.1674 42.4492C82.9539 42.805 82.1001 45.1531 83.0963 44.2281C85.2309 42.4492 87.0098 40.528 89.2868 38.9626C90.4253 38.1799 91.9196 38.8914 91.4926 40.2434C91.0657 41.5953 90.2118 42.6627 89.6426 43.73C93.4138 42.9473 96.4024 41.3107 99.0352 39.3184C99.1775 39.1761 99.3198 39.4607 99.1775 39.4607C96.3312 41.7377 93.0581 43.1608 89.7849 44.0146C89.2868 44.0858 89.0022 44.3704 88.7176 44.7262C86.8675 46.932 85.0175 48.5686 82.8828 49.4225C81.7443 49.7071 81.5308 48.284 81.8866 47.7147C82.8116 46.0782 84.7328 45.1531 86.2271 44.5839C86.5829 44.5127 86.9387 44.157 87.2233 43.8723C88.006 42.805 88.7887 41.7377 89.5714 40.6703C90.1407 39.8165 91.3503 37.8241 89.1445 39.4607C86.654 41.0261 84.804 43.5877 82.6693 45.1531C81.2462 45.9359 81.0327 44.655 81.3174 43.5877C81.8154 41.6665 82.4559 39.7453 83.3809 37.8952ZM88.2906 33.199C92.56 31.4912 96.7582 28.5027 100.387 25.8699C103.233 23.8064 108.357 19.3236 109.068 15.9081C109.353 13.3465 105.51 15.1254 104.514 15.6235C103.874 15.9793 103.233 16.5485 102.593 17.0466C101.099 18.1851 99.6756 19.4659 98.3948 20.889C97.2563 22.1698 96.0466 23.3795 94.9081 24.6603C93.8408 25.8699 92.7734 27.0084 91.7773 28.2181C90.7811 29.4277 89.8561 30.7797 88.931 32.0605C88.7176 32.3451 88.5041 32.7009 88.2906 33.199ZM86.7252 44.7262C85.4444 45.082 84.0924 45.8647 83.0963 46.7186C82.5982 47.1455 81.9578 47.9282 82.0289 48.4975C82.1712 49.209 83.3097 48.0705 83.5232 47.9282C84.1636 47.359 84.804 46.7897 85.3732 46.2205C85.8713 45.7935 86.5829 45.0108 86.7252 44.7262Z"/>
<path d="M110.309 39.5318C112.231 38.6068 110.879 39.7453 109.954 39.9588C108.531 40.528 107.107 40.7415 105.684 40.8838C105.044 40.9549 104.475 41.0261 103.763 40.8838C102.838 42.3069 101.628 43.73 100.276 44.6551C99.4226 45.2243 97.9995 45.082 97.5726 44.157C97.1456 42.6627 98.2841 40.5992 99.138 39.603L99.9207 38.5356C98.1418 35.974 99.138 32.2028 102.553 31.7758C106.325 31.3489 106.111 37.5395 103.905 40.5992C104.048 40.5992 104.19 40.6703 104.404 40.6703C106.396 40.6703 108.388 40.3145 110.309 39.5318ZM100.775 32.7009C99.3515 33.8394 98.6399 36.401 100.205 38.251C101.059 37.4683 101.842 36.6856 102.767 36.2587C103.621 35.9029 103.621 36.9702 103.194 37.3972C102.696 37.8952 102.269 38.3933 101.771 38.9626L101.415 39.3895C101.628 39.5318 102.055 39.9588 102.482 40.1722C102.909 40.3857 103.407 40.528 103.621 40.528C105.755 38.251 106.467 29.4277 100.775 32.7009ZM103.407 40.8126C103.194 40.8126 102.696 40.5992 102.269 40.3857C101.842 40.1722 101.415 39.8165 101.202 39.6741C101.13 39.7453 100.846 40.1011 100.49 40.6703C99.7784 41.8088 99.0668 42.7338 98.8534 43.73C98.7822 44.5127 99.2092 45.0108 100.276 44.2993C101.344 43.6589 102.198 42.5204 102.909 41.5242L103.407 40.8126Z"/>
<path d="M118.881 30.8453C118.738 30.9165 118.596 31.4146 118.24 31.4146C118.098 31.4146 117.458 31.3434 117.885 30.8453C118.454 30.1338 119.237 30.1338 118.881 30.8453ZM120.828 31.6302C120.685 31.7013 120.543 32.1994 120.187 32.1994C120.045 32.1994 119.404 32.1283 119.831 31.6302C120.401 30.9186 121.183 30.9186 120.828 31.6302ZM118.566 32.9143C120.772 33.1278 118.637 35.9029 116.076 36.0452C113.087 36.401 109.743 45.0108 112.233 45.0108C113.158 45.082 113.657 44.5127 114.439 43.9435C116.859 42.0223 119.705 40.8838 122.622 39.3184C122.978 39.1049 123.334 39.2472 122.836 39.5318C119.776 41.1684 116.432 42.5915 113.941 44.6551C113.372 45.1531 112.66 45.2955 111.949 45.2243C109.672 44.7974 109.814 41.3107 110.526 39.8876C111.949 36.9702 114.724 32.2739 118.566 32.9143ZM118.424 33.4836C117.499 33.6971 116.787 34.4798 116.147 35.1913L115.72 35.6183C115.222 36.1164 117.499 35.6183 118.353 34.8355C118.922 34.4798 119.989 33.199 118.424 33.4836Z"/>
</mask>
<path d="M82.7338 39.1049L82.805 39.603C81.6665 40.1011 80.9549 40.528 80.0299 41.2396C78.251 42.6627 76.7567 44.157 75.1913 45.7224C72.0604 48.5686 69.0007 51.5572 65.0872 53.6918C62.5967 55.0438 60.1063 56.2534 57.26 56.5381C48.6502 57.4631 46.0174 47.9994 47.7963 41.3819C49.2194 37.0414 50.9983 32.9855 53.4888 29.2142C53.9869 28.2892 54.2715 28.1469 53.4176 27.6488C51.781 26.7238 50.4291 25.6564 49.6463 24.1622C49.1483 23.2371 48.7925 21.4583 49.6463 23.5218C50.4291 25.443 52.208 26.5815 53.9869 27.5777C54.5561 27.8623 54.8407 27.3642 55.0542 27.0796C61.1736 18.9678 69.2142 10.856 78.9625 6.94246C82.7338 5.37704 86.6474 4.66548 90.4898 6.44437C95.2572 8.6502 90.9167 15.0542 88.5686 17.4024C85.3666 20.9602 81.8088 23.2371 77.7529 25.1584C72.7008 27.5065 64.4468 30.2104 57.3312 29.2142L56.1927 29.0008C56.1215 29.0719 55.8369 29.4277 55.6946 29.7835C52.5637 34.8355 46.4443 44.8685 49.2906 51.5572C50.1444 54.3322 53.3464 56.4669 56.1215 56.3246C60.5332 56.1823 64.091 54.1899 67.6488 51.6995C69.7834 50.134 71.847 48.3552 73.8393 46.5051C75.6182 44.7974 77.0413 43.3031 78.7491 41.7377C80.0299 40.8126 81.3818 39.8876 82.7338 39.1049ZM61.7428 29.0719C67.293 28.7161 72.5585 27.1507 77.4683 24.8737C81.3818 22.8814 84.8685 20.8178 87.857 17.4735C90.2763 15.0542 94.9726 9.21945 90.2052 6.58669C85.7223 4.9501 81.6665 7.15593 77.7529 8.86367C69.7123 13.7023 62.739 20.1774 57.1177 27.5777L56.4061 28.5738C56.6908 28.7161 57.1889 28.7873 57.4735 28.7873C58.8966 29.0008 60.3197 29.0008 61.7428 29.0719Z" fill="black"/>
<path d="M83.3809 37.8952L85.5155 34.1951C86.7964 32.3451 88.006 30.4239 89.2868 28.5738C90.3541 27.1507 91.4926 25.7988 92.7023 24.518C94.41 22.7391 96.1178 20.9602 97.8967 19.2524C98.6082 18.5409 99.4621 17.9005 100.245 17.2601C101.241 16.335 102.379 15.6235 103.589 14.9831C105.368 14.1292 109.922 12.5638 109.495 15.9793C108.214 20.1063 104.372 23.0948 101.526 25.5141C99.3909 27.293 96.9716 28.7873 94.6235 30.3527C93.4138 31.0643 92.133 31.7758 90.8522 32.4874C89.9272 32.9855 89.0022 33.4124 88.0772 33.9105C87.7925 34.0528 87.5079 34.2663 87.2944 34.5509C86.654 35.5471 85.9425 36.6144 85.3732 37.7529C84.5905 39.3184 83.8078 40.8838 83.1674 42.4492C82.9539 42.805 82.1001 45.1531 83.0963 44.2281C85.2309 42.4492 87.0098 40.528 89.2868 38.9626C90.4253 38.1799 91.9196 38.8914 91.4926 40.2434C91.0657 41.5953 90.2118 42.6627 89.6426 43.73C93.4138 42.9473 96.4024 41.3107 99.0352 39.3184C99.1775 39.1761 99.3198 39.4607 99.1775 39.4607C96.3312 41.7377 93.0581 43.1608 89.7849 44.0146C89.2868 44.0858 89.0022 44.3704 88.7176 44.7262C86.8675 46.932 85.0175 48.5686 82.8828 49.4225C81.7443 49.7071 81.5308 48.284 81.8866 47.7147C82.8116 46.0782 84.7328 45.1531 86.2271 44.5839C86.5829 44.5127 86.9387 44.157 87.2233 43.8723C88.006 42.805 88.7887 41.7377 89.5714 40.6703C90.1407 39.8165 91.3503 37.8241 89.1445 39.4607C86.654 41.0261 84.804 43.5877 82.6693 45.1531C81.2462 45.9359 81.0327 44.655 81.3174 43.5877C81.8154 41.6665 82.4559 39.7453 83.3809 37.8952ZM88.2906 33.199C92.56 31.4912 96.7582 28.5027 100.387 25.8699C103.233 23.8064 108.357 19.3236 109.068 15.9081C109.353 13.3465 105.51 15.1254 104.514 15.6235C103.874 15.9793 103.233 16.5485 102.593 17.0466C101.099 18.1851 99.6756 19.4659 98.3948 20.889C97.2563 22.1698 96.0466 23.3795 94.9081 24.6603C93.8408 25.8699 92.7734 27.0084 91.7773 28.2181C90.7811 29.4277 89.8561 30.7797 88.931 32.0605C88.7176 32.3451 88.5041 32.7009 88.2906 33.199ZM86.7252 44.7262C85.4444 45.082 84.0924 45.8647 83.0963 46.7186C82.5982 47.1455 81.9578 47.9282 82.0289 48.4975C82.1712 49.209 83.3097 48.0705 83.5232 47.9282C84.1636 47.359 84.804 46.7897 85.3732 46.2205C85.8713 45.7935 86.5829 45.0108 86.7252 44.7262Z" fill="black"/>
<path d="M110.309 39.5318C112.231 38.6068 110.879 39.7453 109.954 39.9588C108.531 40.528 107.107 40.7415 105.684 40.8838C105.044 40.9549 104.475 41.0261 103.763 40.8838C102.838 42.3069 101.628 43.73 100.276 44.6551C99.4226 45.2243 97.9995 45.082 97.5726 44.157C97.1456 42.6627 98.2841 40.5992 99.138 39.603L99.9207 38.5356C98.1418 35.974 99.138 32.2028 102.553 31.7758C106.325 31.3489 106.111 37.5395 103.905 40.5992C104.048 40.5992 104.19 40.6703 104.404 40.6703C106.396 40.6703 108.388 40.3145 110.309 39.5318ZM100.775 32.7009C99.3515 33.8394 98.6399 36.401 100.205 38.251C101.059 37.4683 101.842 36.6856 102.767 36.2587C103.621 35.9029 103.621 36.9702 103.194 37.3972C102.696 37.8952 102.269 38.3933 101.771 38.9626L101.415 39.3895C101.628 39.5318 102.055 39.9588 102.482 40.1722C102.909 40.3857 103.407 40.528 103.621 40.528C105.755 38.251 106.467 29.4277 100.775 32.7009ZM103.407 40.8126C103.194 40.8126 102.696 40.5992 102.269 40.3857C101.842 40.1722 101.415 39.8165 101.202 39.6741C101.13 39.7453 100.846 40.1011 100.49 40.6703C99.7784 41.8088 99.0668 42.7338 98.8534 43.73C98.7822 44.5127 99.2092 45.0108 100.276 44.2993C101.344 43.6589 102.198 42.5204 102.909 41.5242L103.407 40.8126Z" fill="black"/>
<path d="M118.881 30.8453C118.738 30.9165 118.596 31.4146 118.24 31.4146C118.098 31.4146 117.458 31.3434 117.885 30.8453C118.454 30.1338 119.237 30.1338 118.881 30.8453ZM120.828 31.6302C120.685 31.7013 120.543 32.1994 120.187 32.1994C120.045 32.1994 119.404 32.1283 119.831 31.6302C120.401 30.9186 121.183 30.9186 120.828 31.6302ZM118.566 32.9143C120.772 33.1278 118.637 35.9029 116.076 36.0452C113.087 36.401 109.743 45.0108 112.233 45.0108C113.158 45.082 113.657 44.5127 114.439 43.9435C116.859 42.0223 119.705 40.8838 122.622 39.3184C122.978 39.1049 123.334 39.2472 122.836 39.5318C119.776 41.1684 116.432 42.5915 113.941 44.6551C113.372 45.1531 112.66 45.2955 111.949 45.2243C109.672 44.7974 109.814 41.3107 110.526 39.8876C111.949 36.9702 114.724 32.2739 118.566 32.9143ZM118.424 33.4836C117.499 33.6971 116.787 34.4798 116.147 35.1913L115.72 35.6183C115.222 36.1164 117.499 35.6183 118.353 34.8355C118.922 34.4798 119.989 33.199 118.424 33.4836Z" fill="black"/>
<path d="M82.7338 39.1049L82.805 39.603C81.6665 40.1011 80.9549 40.528 80.0299 41.2396C78.251 42.6627 76.7567 44.157 75.1913 45.7224C72.0604 48.5686 69.0007 51.5572 65.0872 53.6918C62.5967 55.0438 60.1063 56.2534 57.26 56.5381C48.6502 57.4631 46.0174 47.9994 47.7963 41.3819C49.2194 37.0414 50.9983 32.9855 53.4888 29.2142C53.9869 28.2892 54.2715 28.1469 53.4176 27.6488C51.781 26.7238 50.4291 25.6564 49.6463 24.1622C49.1483 23.2371 48.7925 21.4583 49.6463 23.5218C50.4291 25.443 52.208 26.5815 53.9869 27.5777C54.5561 27.8623 54.8407 27.3642 55.0542 27.0796C61.1736 18.9678 69.2142 10.856 78.9625 6.94246C82.7338 5.37704 86.6474 4.66548 90.4898 6.44437C95.2572 8.6502 90.9167 15.0542 88.5686 17.4024C85.3666 20.9602 81.8088 23.2371 77.7529 25.1584C72.7008 27.5065 64.4468 30.2104 57.3312 29.2142L56.1927 29.0008C56.1215 29.0719 55.8369 29.4277 55.6946 29.7835C52.5637 34.8355 46.4443 44.8685 49.2906 51.5572C50.1444 54.3322 53.3464 56.4669 56.1215 56.3246C60.5332 56.1823 64.091 54.1899 67.6488 51.6995C69.7834 50.134 71.847 48.3552 73.8393 46.5051C75.6182 44.7974 77.0413 43.3031 78.7491 41.7377C80.0299 40.8126 81.3818 39.8876 82.7338 39.1049ZM61.7428 29.0719C67.293 28.7161 72.5585 27.1507 77.4683 24.8737C81.3818 22.8814 84.8685 20.8178 87.857 17.4735C90.2763 15.0542 94.9726 9.21945 90.2052 6.58669C85.7223 4.9501 81.6665 7.15593 77.7529 8.86367C69.7123 13.7023 62.739 20.1774 57.1177 27.5777L56.4061 28.5738C56.6908 28.7161 57.1889 28.7873 57.4735 28.7873C58.8966 29.0008 60.3197 29.0008 61.7428 29.0719Z" stroke="black" stroke-width="0.344949" mask="url(#path-1-outside-1_90_941)"/>
<path d="M83.3809 37.8952L85.5155 34.1951C86.7964 32.3451 88.006 30.4239 89.2868 28.5738C90.3541 27.1507 91.4926 25.7988 92.7023 24.518C94.41 22.7391 96.1178 20.9602 97.8967 19.2524C98.6082 18.5409 99.4621 17.9005 100.245 17.2601C101.241 16.335 102.379 15.6235 103.589 14.9831C105.368 14.1292 109.922 12.5638 109.495 15.9793C108.214 20.1063 104.372 23.0948 101.526 25.5141C99.3909 27.293 96.9716 28.7873 94.6235 30.3527C93.4138 31.0643 92.133 31.7758 90.8522 32.4874C89.9272 32.9855 89.0022 33.4124 88.0772 33.9105C87.7925 34.0528 87.5079 34.2663 87.2944 34.5509C86.654 35.5471 85.9425 36.6144 85.3732 37.7529C84.5905 39.3184 83.8078 40.8838 83.1674 42.4492C82.9539 42.805 82.1001 45.1531 83.0963 44.2281C85.2309 42.4492 87.0098 40.528 89.2868 38.9626C90.4253 38.1799 91.9196 38.8914 91.4926 40.2434C91.0657 41.5953 90.2118 42.6627 89.6426 43.73C93.4138 42.9473 96.4024 41.3107 99.0352 39.3184C99.1775 39.1761 99.3198 39.4607 99.1775 39.4607C96.3312 41.7377 93.0581 43.1608 89.7849 44.0146C89.2868 44.0858 89.0022 44.3704 88.7176 44.7262C86.8675 46.932 85.0175 48.5686 82.8828 49.4225C81.7443 49.7071 81.5308 48.284 81.8866 47.7147C82.8116 46.0782 84.7328 45.1531 86.2271 44.5839C86.5829 44.5127 86.9387 44.157 87.2233 43.8723C88.006 42.805 88.7887 41.7377 89.5714 40.6703C90.1407 39.8165 91.3503 37.8241 89.1445 39.4607C86.654 41.0261 84.804 43.5877 82.6693 45.1531C81.2462 45.9359 81.0327 44.655 81.3174 43.5877C81.8154 41.6665 82.4559 39.7453 83.3809 37.8952ZM88.2906 33.199C92.56 31.4912 96.7582 28.5027 100.387 25.8699C103.233 23.8064 108.357 19.3236 109.068 15.9081C109.353 13.3465 105.51 15.1254 104.514 15.6235C103.874 15.9793 103.233 16.5485 102.593 17.0466C101.099 18.1851 99.6756 19.4659 98.3948 20.889C97.2563 22.1698 96.0466 23.3795 94.9081 24.6603C93.8408 25.8699 92.7734 27.0084 91.7773 28.2181C90.7811 29.4277 89.8561 30.7797 88.931 32.0605C88.7176 32.3451 88.5041 32.7009 88.2906 33.199ZM86.7252 44.7262C85.4444 45.082 84.0924 45.8647 83.0963 46.7186C82.5982 47.1455 81.9578 47.9282 82.0289 48.4975C82.1712 49.209 83.3097 48.0705 83.5232 47.9282C84.1636 47.359 84.804 46.7897 85.3732 46.2205C85.8713 45.7935 86.5829 45.0108 86.7252 44.7262Z" stroke="black" stroke-width="0.344949" mask="url(#path-1-outside-1_90_941)"/>
<path d="M110.309 39.5318C112.231 38.6068 110.879 39.7453 109.954 39.9588C108.531 40.528 107.107 40.7415 105.684 40.8838C105.044 40.9549 104.475 41.0261 103.763 40.8838C102.838 42.3069 101.628 43.73 100.276 44.6551C99.4226 45.2243 97.9995 45.082 97.5726 44.157C97.1456 42.6627 98.2841 40.5992 99.138 39.603L99.9207 38.5356C98.1418 35.974 99.138 32.2028 102.553 31.7758C106.325 31.3489 106.111 37.5395 103.905 40.5992C104.048 40.5992 104.19 40.6703 104.404 40.6703C106.396 40.6703 108.388 40.3145 110.309 39.5318ZM100.775 32.7009C99.3515 33.8394 98.6399 36.401 100.205 38.251C101.059 37.4683 101.842 36.6856 102.767 36.2587C103.621 35.9029 103.621 36.9702 103.194 37.3972C102.696 37.8952 102.269 38.3933 101.771 38.9626L101.415 39.3895C101.628 39.5318 102.055 39.9588 102.482 40.1722C102.909 40.3857 103.407 40.528 103.621 40.528C105.755 38.251 106.467 29.4277 100.775 32.7009ZM103.407 40.8126C103.194 40.8126 102.696 40.5992 102.269 40.3857C101.842 40.1722 101.415 39.8165 101.202 39.6741C101.13 39.7453 100.846 40.1011 100.49 40.6703C99.7784 41.8088 99.0668 42.7338 98.8534 43.73C98.7822 44.5127 99.2092 45.0108 100.276 44.2993C101.344 43.6589 102.198 42.5204 102.909 41.5242L103.407 40.8126Z" stroke="black" stroke-width="0.344949" mask="url(#path-1-outside-1_90_941)"/>
<path d="M118.881 30.8453C118.738 30.9165 118.596 31.4146 118.24 31.4146C118.098 31.4146 117.458 31.3434 117.885 30.8453C118.454 30.1338 119.237 30.1338 118.881 30.8453ZM120.828 31.6302C120.685 31.7013 120.543 32.1994 120.187 32.1994C120.045 32.1994 119.404 32.1283 119.831 31.6302C120.401 30.9186 121.183 30.9186 120.828 31.6302ZM118.566 32.9143C120.772 33.1278 118.637 35.9029 116.076 36.0452C113.087 36.401 109.743 45.0108 112.233 45.0108C113.158 45.082 113.657 44.5127 114.439 43.9435C116.859 42.0223 119.705 40.8838 122.622 39.3184C122.978 39.1049 123.334 39.2472 122.836 39.5318C119.776 41.1684 116.432 42.5915 113.941 44.6551C113.372 45.1531 112.66 45.2955 111.949 45.2243C109.672 44.7974 109.814 41.3107 110.526 39.8876C111.949 36.9702 114.724 32.2739 118.566 32.9143ZM118.424 33.4836C117.499 33.6971 116.787 34.4798 116.147 35.1913L115.72 35.6183C115.222 36.1164 117.499 35.6183 118.353 34.8355C118.922 34.4798 119.989 33.199 118.424 33.4836Z" stroke="black" stroke-width="0.344949" mask="url(#path-1-outside-1_90_941)"/>
<path d="M93.1103 52.3431L93.5703 52.4121L93.3173 60.0941C93.3019 60.9067 93.4093 61.4817 93.6393 61.8191C93.8693 62.1564 94.2603 62.3251 94.8123 62.3251C94.8583 62.3251 94.8813 62.3711 94.8813 62.4631C94.8813 62.5551 94.8583 62.6011 94.8123 62.6011C94.4903 62.6011 94.2449 62.5934 94.0763 62.5781L93.0643 62.5551L92.0983 62.5781C91.8989 62.5934 91.6229 62.6011 91.2703 62.6011C91.2396 62.6011 91.2243 62.5551 91.2243 62.4631C91.2243 62.3711 91.2396 62.3251 91.2703 62.3251C91.8376 62.3251 92.2363 62.1564 92.4663 61.8191C92.6963 61.4817 92.8266 60.9067 92.8573 60.0941L93.1103 52.3431ZM105.645 62.3251C105.676 62.3251 105.691 62.3711 105.691 62.4631C105.691 62.5551 105.676 62.6011 105.645 62.6011C105.216 62.6011 104.879 62.5934 104.633 62.5781L103.276 62.5551L101.712 62.5781C101.452 62.5934 101.091 62.6011 100.631 62.6011C100.601 62.6011 100.585 62.5551 100.585 62.4631C100.585 62.3711 100.601 62.3251 100.631 62.3251C101.199 62.3251 101.62 62.2867 101.896 62.2101C102.172 62.1334 102.356 61.9877 102.448 61.7731C102.54 61.5431 102.579 61.1981 102.563 60.7381L102.241 52.2971L102.632 52.1131L98.3083 62.4401C98.2776 62.5014 98.2239 62.5321 98.1473 62.5321C98.0553 62.5321 97.9939 62.5014 97.9633 62.4401L93.5703 53.7461C93.0336 52.6574 92.3283 52.1131 91.4543 52.1131C91.4083 52.1131 91.3853 52.0671 91.3853 51.9751C91.3853 51.8831 91.4083 51.8371 91.4543 51.8371L92.7193 51.8601L93.8233 51.8371C94.0226 51.8371 94.1836 51.9061 94.3063 52.0441C94.4289 52.1821 94.6206 52.5117 94.8813 53.0331L98.7683 60.7611L98.1243 61.7961L102.057 52.4121C102.119 52.2434 102.211 52.1054 102.333 51.9981C102.471 51.8907 102.609 51.8371 102.747 51.8371L103.966 51.8601L105.507 51.8371C105.538 51.8371 105.553 51.8831 105.553 51.9751C105.553 52.0671 105.538 52.1131 105.507 52.1131C104.817 52.1131 104.334 52.2204 104.058 52.4351C103.782 52.6344 103.66 53.0407 103.69 53.6541L103.966 60.7381C103.997 61.2134 104.051 61.5584 104.127 61.7731C104.204 61.9877 104.35 62.1334 104.564 62.2101C104.794 62.2867 105.155 62.3251 105.645 62.3251ZM107.128 62.6011C107.098 62.6011 107.082 62.5551 107.082 62.4631C107.082 62.3711 107.098 62.3251 107.128 62.3251C107.634 62.3251 108.002 62.2867 108.232 62.2101C108.462 62.1334 108.616 61.9877 108.692 61.7731C108.784 61.5431 108.83 61.1981 108.83 60.7381V53.7001C108.83 53.2401 108.784 52.9027 108.692 52.6881C108.616 52.4734 108.462 52.3277 108.232 52.2511C108.002 52.1591 107.634 52.1131 107.128 52.1131C107.098 52.1131 107.082 52.0671 107.082 51.9751C107.082 51.8831 107.098 51.8371 107.128 51.8371H115.132C115.286 51.8371 115.362 51.8984 115.362 52.0211L115.385 53.4471C115.401 53.7384 115.408 54.1064 115.408 54.5511C115.408 54.5971 115.362 54.6201 115.27 54.6201C115.178 54.6201 115.132 54.5971 115.132 54.5511C115.071 53.8457 114.81 53.2707 114.35 52.8261C113.906 52.3661 113.354 52.1361 112.694 52.1361H112.05C111.514 52.1361 111.123 52.1821 110.877 52.2741C110.632 52.3507 110.463 52.4964 110.371 52.7111C110.279 52.9257 110.233 53.2631 110.233 53.7231V60.6461C110.233 61.0907 110.279 61.4281 110.371 61.6581C110.463 61.8727 110.632 62.0261 110.877 62.1181C111.138 62.1947 111.529 62.2331 112.05 62.2331H113.154C113.783 62.2331 114.335 61.9877 114.81 61.4971C115.301 60.9911 115.631 60.3394 115.799 59.5421C115.799 59.4961 115.838 59.4731 115.914 59.4731C116.006 59.4731 116.052 59.4961 116.052 59.5421C115.945 60.6461 115.891 61.5507 115.891 62.2561C115.891 62.3787 115.868 62.4707 115.822 62.5321C115.776 62.5781 115.684 62.6011 115.546 62.6011H107.128ZM114.212 57.6561C114.151 57.6561 113.814 57.6101 113.2 57.5181C112.602 57.4107 111.422 57.3571 109.658 57.3571V56.8741C111.406 56.8741 112.579 56.8357 113.177 56.7591C113.791 56.6824 114.136 56.6441 114.212 56.6441C114.289 56.6441 114.327 56.8051 114.327 57.1271C114.327 57.4797 114.289 57.6561 114.212 57.6561ZM124.145 51.5611C124.728 51.5611 125.349 51.6224 126.008 51.7451C126.683 51.8524 127.227 52.0134 127.641 52.2281C127.749 52.2741 127.818 52.3201 127.848 52.3661C127.879 52.4121 127.902 52.4964 127.917 52.6191L128.147 54.9881C128.147 55.0341 128.101 55.0647 128.009 55.0801C127.933 55.0954 127.887 55.0724 127.871 55.0111C127.595 53.9531 127.089 53.1711 126.353 52.6651C125.633 52.1591 124.736 51.9061 123.662 51.9061C122.865 51.9061 122.144 52.1207 121.5 52.5501C120.856 52.9794 120.35 53.5697 119.982 54.3211C119.63 55.0571 119.453 55.8927 119.453 56.8281C119.453 57.7787 119.637 58.6987 120.005 59.5881C120.373 60.4621 120.918 61.1751 121.638 61.7271C122.374 62.2791 123.256 62.5551 124.283 62.5551C125.219 62.5551 126.008 62.2944 126.652 61.7731C127.312 61.2517 127.787 60.4544 128.078 59.3811C128.078 59.3351 128.117 59.3121 128.193 59.3121C128.224 59.3121 128.255 59.3274 128.285 59.3581C128.331 59.3734 128.354 59.3887 128.354 59.4041L128.055 61.8421C128.04 61.9647 128.017 62.0491 127.986 62.0951C127.956 62.1411 127.871 62.1947 127.733 62.2561C126.553 62.6701 125.326 62.8771 124.053 62.8771C122.597 62.8771 121.401 62.5857 120.465 62.0031C119.53 61.4204 118.855 60.6921 118.441 59.8181C118.027 58.9441 117.82 58.0624 117.82 57.1731C117.82 56.1304 118.096 55.1797 118.648 54.3211C119.2 53.4624 119.959 52.7877 120.925 52.2971C121.891 51.8064 122.965 51.5611 124.145 51.5611ZM132.818 52.1361C132.235 52.1361 131.775 52.2204 131.438 52.3891C131.101 52.5424 130.832 52.8107 130.633 53.1941C130.449 53.5774 130.303 54.1217 130.196 54.8271C130.196 54.8577 130.15 54.8731 130.058 54.8731C129.981 54.8731 129.943 54.8577 129.943 54.8271C129.989 54.4744 130.043 53.9071 130.104 53.1251C130.165 52.3431 130.196 51.7451 130.196 51.3311C130.196 51.2544 130.242 51.2161 130.334 51.2161C130.426 51.2161 130.472 51.2544 130.472 51.3311C130.472 51.5304 130.587 51.6607 130.817 51.7221C131.047 51.7681 131.331 51.7911 131.668 51.7911C133.017 51.8217 134.175 51.8371 135.141 51.8371L137.142 51.8141C137.418 51.7987 137.778 51.7911 138.223 51.7911C138.775 51.7911 139.181 51.7604 139.442 51.6991C139.703 51.6224 139.871 51.4691 139.948 51.2391C139.979 51.1931 140.032 51.1701 140.109 51.1701C140.186 51.1701 140.224 51.1931 140.224 51.2391C140.132 52.8951 140.086 54.0911 140.086 54.8271C140.086 54.8577 140.04 54.8731 139.948 54.8731C139.871 54.8731 139.833 54.8577 139.833 54.8271C139.818 54.1371 139.733 53.6004 139.58 53.2171C139.442 52.8337 139.204 52.5577 138.867 52.3891C138.53 52.2204 138.062 52.1361 137.464 52.1361C136.805 52.1361 136.36 52.2434 136.13 52.4581C135.915 52.6574 135.808 53.0714 135.808 53.7001V60.7381C135.808 61.2134 135.854 61.5584 135.946 61.7731C136.038 61.9877 136.214 62.1334 136.475 62.2101C136.751 62.2867 137.188 62.3251 137.786 62.3251C137.832 62.3251 137.855 62.3711 137.855 62.4631C137.855 62.5551 137.832 62.6011 137.786 62.6011C137.311 62.6011 136.943 62.5934 136.682 62.5781L135.072 62.5551L133.531 62.5781C133.255 62.5934 132.872 62.6011 132.381 62.6011C132.35 62.6011 132.335 62.5551 132.335 62.4631C132.335 62.3711 132.35 62.3251 132.381 62.3251C132.964 62.3251 133.393 62.2867 133.669 62.2101C133.945 62.1334 134.129 61.9877 134.221 61.7731C134.328 61.5431 134.382 61.1981 134.382 60.7381V53.6541C134.382 53.2094 134.344 52.8874 134.267 52.6881C134.206 52.4734 134.068 52.3277 133.853 52.2511C133.638 52.1744 133.293 52.1361 132.818 52.1361ZM147.103 62.8771C146.03 62.8771 145.072 62.6241 144.228 62.1181C143.4 61.6121 142.756 60.9297 142.296 60.0711C141.836 59.2124 141.606 58.2847 141.606 57.2881C141.606 56.0921 141.913 55.0647 142.526 54.2061C143.155 53.3321 143.945 52.6727 144.895 52.2281C145.861 51.7834 146.843 51.5611 147.839 51.5611C148.913 51.5611 149.856 51.8294 150.668 52.3661C151.496 52.8874 152.125 53.5697 152.554 54.4131C152.999 55.2564 153.221 56.1381 153.221 57.0581C153.221 58.0854 152.945 59.0514 152.393 59.9561C151.841 60.8454 151.098 61.5584 150.162 62.0951C149.227 62.6164 148.207 62.8771 147.103 62.8771ZM147.701 62.3941C148.897 62.3941 149.848 61.9724 150.553 61.1291C151.274 60.2857 151.634 59.1204 151.634 57.6331C151.634 56.6057 151.45 55.6704 151.082 54.8271C150.73 53.9837 150.208 53.3091 149.518 52.8031C148.828 52.2971 148.008 52.0441 147.057 52.0441C145.831 52.0441 144.88 52.4581 144.205 53.2861C143.531 54.0987 143.193 55.2411 143.193 56.7131C143.193 57.7711 143.37 58.7294 143.722 59.5881C144.09 60.4467 144.612 61.1291 145.286 61.6351C145.976 62.1411 146.781 62.3941 147.701 62.3941Z" fill="black"/>
</svg>
