<svg width="115" height="92" viewBox="0 0 115 92" fill="none" xmlns="http://www.w3.org/2000/svg">
<mask id="path-1-inside-1_18_14" fill="white">
<path d="M40.6806 68.9926C42.2079 70.9592 41.8517 73.7916 39.8851 75.3188L28.8413 83.8953C26.8747 85.4225 24.0423 85.0663 22.515 83.0997L10.2585 67.3171C8.73122 65.3504 9.0874 62.5181 11.054 60.9908L22.0978 52.4144C24.0644 50.8871 26.8968 51.2433 28.4241 53.2099L40.6806 68.9926Z"/>
</mask>
<path d="M40.6806 68.9926C42.2079 70.9592 41.8517 73.7916 39.8851 75.3188L28.8413 83.8953C26.8747 85.4225 24.0423 85.0663 22.515 83.0997L10.2585 67.3171C8.73122 65.3504 9.0874 62.5181 11.054 60.9908L22.0978 52.4144C24.0644 50.8871 26.8968 51.2433 28.4241 53.2099L40.6806 68.9926Z" fill="white"/>
<path d="M41.5709 68.3012C43.4799 70.7595 43.0347 74.3 40.5764 76.209L29.5326 84.7855C27.3202 86.5037 24.1338 86.1029 22.4156 83.8905L22.9602 82.754C24.1056 84.229 26.4292 84.3414 28.15 83.005L39.1937 74.4286C40.6687 73.2831 40.9359 71.1589 39.7904 69.6839L41.5709 68.3012ZM9.4677 67.2176C7.74953 65.0052 8.15024 61.8188 10.3627 60.1006L21.4065 51.5242C23.8648 49.6151 27.4052 50.0603 29.3143 52.5186L27.5338 53.9013C26.3884 52.4263 24.2641 52.1592 22.7892 53.3046L11.7454 61.881C10.0246 63.2174 9.55815 65.4964 10.7036 66.9714L9.4677 67.2176ZM21.4065 51.5242C23.8648 49.6151 27.4052 50.0603 29.3143 52.5186L41.5709 68.3012C43.4799 70.7595 43.0347 74.3 40.5764 76.209L39.1937 74.4286C40.6687 73.2831 40.9359 71.1589 39.7904 69.6839L27.5338 53.9013C26.3884 52.4263 24.2641 52.1592 22.7892 53.3046L21.4065 51.5242ZM29.5326 84.7855C27.3202 86.5037 24.1338 86.1029 22.4156 83.8905L9.4677 67.2176C7.74953 65.0052 8.15024 61.8188 10.3627 60.1006L11.7454 61.881C10.0246 63.2174 9.55815 65.4964 10.7036 66.9714L22.9602 82.754C24.1056 84.229 26.4292 84.3414 28.15 83.005L29.5326 84.7855Z" fill="white" mask="url(#path-1-inside-1_18_14)"/>
<mask id="path-3-inside-2_18_14" fill="white">
<path d="M11.0704 65.7795C9.92493 64.3045 7.71966 64.0411 6.87571 65.707C6.7724 65.911 6.67646 66.121 6.5881 66.337C6.05032 67.6511 5.80363 69.1567 5.8621 70.7677C5.92057 72.3788 6.28306 74.0639 6.92888 75.7266C7.5747 77.3894 8.4912 78.9974 9.62604 80.4587C10.7609 81.92 12.0919 83.2061 13.543 84.2435C14.9941 85.2809 16.5369 86.0493 18.0833 86.5049C19.6298 86.9604 21.1496 87.0942 22.5559 86.8985C22.787 86.8664 23.0143 86.8254 23.2374 86.7758C25.0604 86.3706 25.3512 84.1688 24.2058 82.6938L17.6381 74.2367L11.0704 65.7795Z"/>
</mask>
<path d="M11.0704 65.7795C9.92493 64.3045 7.71966 64.0411 6.87571 65.707C6.7724 65.911 6.67646 66.121 6.5881 66.337C6.05032 67.6511 5.80363 69.1567 5.8621 70.7677C5.92057 72.3788 6.28306 74.0639 6.92888 75.7266C7.5747 77.3894 8.4912 78.9974 9.62604 80.4587C10.7609 81.92 12.0919 83.2061 13.543 84.2435C14.9941 85.2809 16.5369 86.0493 18.0833 86.5049C19.6298 86.9604 21.1496 87.0942 22.5559 86.8985C22.787 86.8664 23.0143 86.8254 23.2374 86.7758C25.0604 86.3706 25.3512 84.1688 24.2058 82.6938L17.6381 74.2367L11.0704 65.7795Z" fill="white" stroke="white" stroke-width="2.25429" mask="url(#path-3-inside-2_18_14)"/>
<mask id="path-4-inside-3_18_14" fill="white">
<path d="M38.1863 69.0413C39.5413 70.7861 39.2253 73.299 37.4805 74.654L28.0028 82.0142C26.258 83.3692 23.7451 83.0532 22.3901 81.3084L11.9631 67.8817C10.6081 66.1369 10.9241 63.624 12.6689 62.269L22.1466 54.9088C23.8914 53.5538 26.4043 53.8698 27.7593 55.6146L38.1863 69.0413Z"/>
</mask>
<path d="M38.1863 69.0413C39.5413 70.7861 39.2253 73.299 37.4805 74.654L28.0028 82.0142C26.258 83.3692 23.7451 83.0532 22.3901 81.3084L11.9631 67.8817C10.6081 66.1369 10.9241 63.624 12.6689 62.269L22.1466 54.9088C23.8914 53.5538 26.4043 53.8698 27.7593 55.6146L38.1863 69.0413Z" fill="url(#paint0_radial_18_14)"/>
<path d="M38.9761 68.428C40.6698 70.609 40.2748 73.7501 38.0938 75.4438L28.6161 82.804C26.6532 84.3284 23.8263 83.9729 22.3019 82.01L22.785 81.0017C23.8013 82.3103 25.8627 82.41 27.3894 81.2244L36.8671 73.8642C38.1757 72.8479 38.4127 70.9633 37.3965 69.6547L38.9761 68.428ZM11.2615 67.7934C9.73718 65.8305 10.0927 63.0036 12.0556 61.4792L21.5333 54.119C23.7143 52.4252 26.8554 52.8202 28.5491 55.0012L26.9695 56.2279C25.9532 54.9193 24.0686 54.6823 22.76 55.6986L13.2823 63.0588C11.7556 64.2444 11.3418 66.2664 12.358 67.575L11.2615 67.7934ZM21.5333 54.119C23.7143 52.4252 26.8554 52.8202 28.5491 55.0012L38.9761 68.428C40.6698 70.609 40.2748 73.7501 38.0938 75.4438L36.8671 73.8642C38.1757 72.8479 38.4127 70.9633 37.3965 69.6547L26.9695 56.2279C25.9532 54.9193 24.0686 54.6823 22.76 55.6986L21.5333 54.119ZM28.6161 82.804C26.6532 84.3284 23.8263 83.9729 22.3019 82.01L11.2615 67.7934C9.73718 65.8305 10.0927 63.0036 12.0556 61.4792L13.2823 63.0588C11.7556 64.2444 11.3418 66.2664 12.358 67.575L22.785 81.0017C23.8013 82.3103 25.8627 82.41 27.3894 81.2244L28.6161 82.804Z" fill="black" mask="url(#path-4-inside-3_18_14)"/>
<mask id="path-6-inside-4_18_14" fill="white">
<path d="M12.1396 66.4785C11.1233 65.1699 9.16682 64.9362 8.41807 66.4142C8.32641 66.5951 8.2413 66.7815 8.1629 66.9731C7.68579 68.139 7.46692 69.4747 7.51879 70.9041C7.57067 72.3334 7.89227 73.8284 8.46524 75.3036C9.03821 76.7788 9.85133 78.2054 10.8582 79.5019C11.865 80.7984 13.0458 81.9394 14.3333 82.8597C15.6207 83.7801 16.9895 84.4619 18.3615 84.866C19.7335 85.2702 21.0818 85.3889 22.3295 85.2153C22.5345 85.1867 22.7362 85.1504 22.9342 85.1064C24.5515 84.7469 24.8095 82.7935 23.7933 81.4849L17.9664 73.9817L12.1396 66.4785Z"/>
</mask>
<path d="M12.1396 66.4785C11.1233 65.1699 9.16682 64.9362 8.41807 66.4142C8.32641 66.5951 8.2413 66.7815 8.1629 66.9731C7.68579 68.139 7.46692 69.4747 7.51879 70.9041C7.57067 72.3334 7.89227 73.8284 8.46524 75.3036C9.03821 76.7788 9.85133 78.2054 10.8582 79.5019C11.865 80.7984 13.0458 81.9394 14.3333 82.8597C15.6207 83.7801 16.9895 84.4619 18.3615 84.866C19.7335 85.2702 21.0818 85.3889 22.3295 85.2153C22.5345 85.1867 22.7362 85.1504 22.9342 85.1064C24.5515 84.7469 24.8095 82.7935 23.7933 81.4849L17.9664 73.9817L12.1396 66.4785Z" fill="url(#paint1_linear_18_14)"/>
<path d="M12.1396 66.4785C11.1233 65.1699 9.16682 64.9362 8.41807 66.4142C8.32641 66.5951 8.2413 66.7815 8.1629 66.9731C7.68579 68.139 7.46692 69.4747 7.51879 70.9041C7.57067 72.3334 7.89227 73.8284 8.46524 75.3036C9.03821 76.7788 9.85133 78.2054 10.8582 79.5019C11.865 80.7984 13.0458 81.9394 14.3333 82.8597C15.6207 83.7801 16.9895 84.4619 18.3615 84.866C19.7335 85.2702 21.0818 85.3889 22.3295 85.2153C22.5345 85.1867 22.7362 85.1504 22.9342 85.1064C24.5515 84.7469 24.8095 82.7935 23.7933 81.4849L17.9664 73.9817L12.1396 66.4785Z" stroke="black" stroke-width="2" mask="url(#path-6-inside-4_18_14)"/>
<path d="M12.1396 66.4785C11.1233 65.1699 9.16682 64.9362 8.41807 66.4142C8.32641 66.5951 8.2413 66.7815 8.1629 66.9731C7.68579 68.139 7.46692 69.4747 7.51879 70.9041C7.57067 72.3334 7.89227 73.8284 8.46524 75.3036C9.03821 76.7788 9.85133 78.2054 10.8582 79.5019C11.865 80.7984 13.0458 81.9394 14.3333 82.8597C15.6207 83.7801 16.9895 84.4619 18.3615 84.866C19.7335 85.2702 21.0818 85.3889 22.3295 85.2153C22.5345 85.1867 22.7362 85.1504 22.9342 85.1064C24.5515 84.7469 24.8095 82.7935 23.7933 81.4849L17.9664 73.9817L12.1396 66.4785Z" stroke="black" stroke-opacity="0.2" stroke-width="2" mask="url(#path-6-inside-4_18_14)"/>
<mask id="path-7-inside-5_18_14" fill="white">
<path d="M85.752 53.6044C87.1634 51.553 89.9705 51.0341 92.0219 52.4454L103.542 60.371C105.593 61.7823 106.112 64.5894 104.701 66.6408L93.3743 83.1038C91.9629 85.1552 89.1558 85.6741 87.1044 84.2627L75.5846 76.3372C73.5332 74.9258 73.0143 72.1187 74.4257 70.0673L85.752 53.6044Z"/>
</mask>
<path d="M85.752 53.6044C87.1634 51.553 89.9705 51.0341 92.0219 52.4454L103.542 60.371C105.593 61.7823 106.112 64.5894 104.701 66.6408L93.3743 83.1038C91.9629 85.1552 89.1558 85.6741 87.1044 84.2627L75.5846 76.3372C73.5332 74.9258 73.0143 72.1187 74.4257 70.0673L85.752 53.6044Z" fill="white"/>
<path d="M84.8234 52.9655C86.5876 50.4012 90.0965 49.7527 92.6608 51.5168L104.181 59.4424C106.488 61.0301 107.072 64.1882 105.484 66.496L104.236 66.3214C105.295 64.7829 104.698 62.5345 102.903 61.2996L91.383 53.374C89.8445 52.3155 87.7391 52.7047 86.6806 54.2432L84.8234 52.9655ZM93.5192 83.8875C91.9314 86.1954 88.7734 86.7791 86.4655 85.1913L74.9457 77.2658C72.3815 75.5016 71.7329 71.9927 73.4971 69.4284L75.3543 70.7062C74.2958 72.2447 74.6849 74.3501 76.2235 75.4086L87.7433 83.3341C89.5383 84.569 91.8515 84.3229 92.91 82.7844L93.5192 83.8875ZM74.9457 77.2658C72.3815 75.5016 71.7329 71.9927 73.4971 69.4284L84.8234 52.9655C86.5876 50.4012 90.0965 49.7527 92.6608 51.5168L91.383 53.374C89.8445 52.3155 87.7391 52.7047 86.6806 54.2432L75.3543 70.7062C74.2958 72.2447 74.6849 74.3501 76.2235 75.4086L74.9457 77.2658ZM104.181 59.4424C106.488 61.0301 107.072 64.1882 105.484 66.496L93.5192 83.8875C91.9314 86.1954 88.7734 86.7791 86.4655 85.1913L87.7433 83.3341C89.5383 84.569 91.8515 84.3229 92.91 82.7844L104.236 66.3214C105.295 64.7829 104.698 62.5345 102.903 61.2996L104.181 59.4424Z" fill="white" mask="url(#path-7-inside-5_18_14)"/>
<mask id="path-9-inside-6_18_14" fill="white">
<path d="M91.6631 82.796C90.6045 84.3346 91.0218 86.516 92.8651 86.8154C93.0908 86.8521 93.32 86.8799 93.5526 86.8986C94.9679 87.0129 96.4774 86.7918 97.995 86.2478C99.5126 85.7039 101.009 84.8478 102.397 83.7285C103.786 82.6091 105.041 81.2485 106.09 79.7242C107.138 78.1998 107.961 76.5417 108.51 74.8445C109.058 73.1472 109.323 71.4441 109.289 69.8323C109.254 68.2206 108.921 66.7317 108.309 65.4508C108.208 65.2403 108.1 65.0361 107.985 64.8385C107.046 63.224 104.86 63.6141 103.802 65.1526L97.7323 73.9743L91.6631 82.796Z"/>
</mask>
<path d="M91.6631 82.796C90.6045 84.3346 91.0218 86.516 92.8651 86.8154C93.0908 86.8521 93.32 86.8799 93.5526 86.8986C94.9679 87.0129 96.4774 86.7918 97.995 86.2478C99.5126 85.7039 101.009 84.8478 102.397 83.7285C103.786 82.6091 105.041 81.2485 106.09 79.7242C107.138 78.1998 107.961 76.5417 108.51 74.8445C109.058 73.1472 109.323 71.4441 109.289 69.8323C109.254 68.2206 108.921 66.7317 108.309 65.4508C108.208 65.2403 108.1 65.0361 107.985 64.8385C107.046 63.224 104.86 63.6141 103.802 65.1526L97.7323 73.9743L91.6631 82.796Z" fill="white" stroke="white" stroke-width="2.25429" mask="url(#path-9-inside-6_18_14)"/>
<mask id="path-10-inside-7_18_14" fill="white">
<path d="M86.5544 55.9667C87.8066 54.1467 90.2971 53.6863 92.1171 54.9385L102.003 61.7401C103.823 62.9923 104.284 65.4828 103.032 67.3028L93.3958 81.3083C92.1437 83.1283 89.6532 83.5886 87.8332 82.3365L77.947 75.5348C76.127 74.2827 75.6666 71.7922 76.9188 69.9722L86.5544 55.9667Z"/>
</mask>
<path d="M86.5544 55.9667C87.8066 54.1467 90.2971 53.6863 92.1171 54.9385L102.003 61.7401C103.823 62.9923 104.284 65.4828 103.032 67.3028L93.3958 81.3083C92.1437 83.1283 89.6532 83.5886 87.8332 82.3365L77.947 75.5348C76.127 74.2827 75.6666 71.7922 76.9188 69.9722L86.5544 55.9667Z" fill="url(#paint2_radial_18_14)"/>
<path d="M85.7306 55.3999C87.2958 53.1249 90.4089 52.5495 92.6839 54.1146L102.57 60.9163C104.618 62.3249 105.135 65.1267 103.727 67.1742L102.62 67.0194C103.559 65.6544 103.029 63.6596 101.437 62.564L91.5503 55.7623C90.1853 54.8232 88.3174 55.1685 87.3783 56.5335L85.7306 55.3999ZM93.5244 82.0036C92.1157 84.0511 89.3139 84.569 87.2664 83.1603L77.3802 76.3587C75.1052 74.7935 74.5297 71.6804 76.0949 69.4054L77.7426 70.539C76.8035 71.904 77.1488 73.7719 78.5138 74.711L88.4 81.5126C89.9925 82.6082 92.0448 82.3899 92.9839 81.0249L93.5244 82.0036ZM77.3802 76.3587C75.1052 74.7935 74.5297 71.6804 76.0949 69.4054L85.7306 55.3999C87.2958 53.1249 90.4089 52.5495 92.6839 54.1146L91.5503 55.7623C90.1853 54.8232 88.3174 55.1685 87.3783 56.5335L77.7426 70.539C76.8035 71.904 77.1488 73.7719 78.5138 74.711L77.3802 76.3587ZM102.57 60.9163C104.618 62.3249 105.135 65.1267 103.727 67.1742L93.5244 82.0036C92.1157 84.0511 89.3139 84.569 87.2664 83.1603L88.4 81.5126C89.9925 82.6082 92.0448 82.3899 92.9839 81.0249L102.62 67.0194C103.559 65.6544 103.029 63.6596 101.437 62.564L102.57 60.9163Z" fill="black" mask="url(#path-10-inside-7_18_14)"/>
<mask id="path-12-inside-8_18_14" fill="white">
<path d="M92.0052 81.5653C91.0661 82.9303 91.4362 84.8657 93.0717 85.1313C93.2718 85.1638 93.4752 85.1885 93.6816 85.2051C94.9372 85.3065 96.2765 85.1103 97.6229 84.6277C98.9693 84.1451 100.297 83.3856 101.529 82.3926C102.761 81.3995 103.874 80.1923 104.804 78.8399C105.735 77.4876 106.464 76.0165 106.951 74.5107C107.438 73.0049 107.673 71.4939 107.643 70.0639C107.612 68.634 107.317 67.313 106.773 66.1766C106.684 65.9899 106.588 65.8087 106.486 65.6334C105.653 64.201 103.714 64.5471 102.774 65.9121L97.3898 73.7387L92.0052 81.5653Z"/>
</mask>
<path d="M92.0052 81.5653C91.0661 82.9303 91.4362 84.8657 93.0717 85.1313C93.2718 85.1638 93.4752 85.1885 93.6816 85.2051C94.9372 85.3065 96.2765 85.1103 97.6229 84.6277C98.9693 84.1451 100.297 83.3856 101.529 82.3926C102.761 81.3995 103.874 80.1923 104.804 78.8399C105.735 77.4876 106.464 76.0165 106.951 74.5107C107.438 73.0049 107.673 71.4939 107.643 70.0639C107.612 68.634 107.317 67.313 106.773 66.1766C106.684 65.9899 106.588 65.8087 106.486 65.6334C105.653 64.201 103.714 64.5471 102.774 65.9121L97.3898 73.7387L92.0052 81.5653Z" fill="url(#paint3_linear_18_14)"/>
<path d="M92.0052 81.5653C91.0661 82.9303 91.4362 84.8657 93.0717 85.1313C93.2718 85.1638 93.4752 85.1885 93.6816 85.2051C94.9372 85.3065 96.2765 85.1103 97.6229 84.6277C98.9693 84.1451 100.297 83.3856 101.529 82.3926C102.761 81.3995 103.874 80.1923 104.804 78.8399C105.735 77.4876 106.464 76.0165 106.951 74.5107C107.438 73.0049 107.673 71.4939 107.643 70.0639C107.612 68.634 107.317 67.313 106.773 66.1766C106.684 65.9899 106.588 65.8087 106.486 65.6334C105.653 64.201 103.714 64.5471 102.774 65.9121L97.3898 73.7387L92.0052 81.5653Z" stroke="black" stroke-width="2" mask="url(#path-12-inside-8_18_14)"/>
<path d="M92.0052 81.5653C91.0661 82.9303 91.4362 84.8657 93.0717 85.1313C93.2718 85.1638 93.4752 85.1885 93.6816 85.2051C94.9372 85.3065 96.2765 85.1103 97.6229 84.6277C98.9693 84.1451 100.297 83.3856 101.529 82.3926C102.761 81.3995 103.874 80.1923 104.804 78.8399C105.735 77.4876 106.464 76.0165 106.951 74.5107C107.438 73.0049 107.673 71.4939 107.643 70.0639C107.612 68.634 107.317 67.313 106.773 66.1766C106.684 65.9899 106.588 65.8087 106.486 65.6334C105.653 64.201 103.714 64.5471 102.774 65.9121L97.3898 73.7387L92.0052 81.5653Z" stroke="black" stroke-opacity="0.2" stroke-width="2" mask="url(#path-12-inside-8_18_14)"/>
<mask id="path-13-inside-9_18_14" fill="white">
<path d="M74.4322 21.6465C73.004 19.6068 73.4997 16.7955 75.5394 15.3673L86.9935 7.34709C89.0332 5.91888 91.8445 6.41458 93.2727 8.45429L104.734 24.8233C106.163 26.863 105.667 29.6743 103.627 31.1025L92.1731 39.1227C90.1334 40.551 87.3221 40.0552 85.8939 38.0155L74.4322 21.6465Z"/>
</mask>
<path d="M74.4322 21.6465C73.004 19.6068 73.4997 16.7955 75.5394 15.3673L86.9935 7.34709C89.0332 5.91888 91.8445 6.41458 93.2727 8.45429L104.734 24.8233C106.163 26.863 105.667 29.6743 103.627 31.1025L92.1731 39.1227C90.1334 40.551 87.3221 40.0552 85.8939 38.0155L74.4322 21.6465Z" fill="white"/>
<path d="M73.5089 22.293C71.7236 19.7434 72.3433 16.2293 74.8929 14.444L86.347 6.42379C88.6416 4.81705 91.8044 5.37472 93.4111 7.66938L92.811 8.77754C91.7399 7.24776 89.4247 7.0207 87.64 8.27039L76.1859 16.2906C74.6561 17.3618 74.2843 19.4703 75.3555 21L73.5089 22.293ZM105.519 24.9617C107.126 27.2563 106.568 30.4191 104.274 32.0258L92.8196 40.046C90.27 41.8313 86.7559 41.2117 84.9706 38.662L86.8172 37.369C87.8884 38.8988 89.9968 39.2706 91.5266 38.1994L102.981 30.1792C104.765 28.9295 105.344 26.6763 104.273 25.1465L105.519 24.9617ZM92.8196 40.046C90.27 41.8313 86.7559 41.2117 84.9706 38.662L73.5089 22.293C71.7236 19.7434 72.3433 16.2293 74.8929 14.444L76.1859 16.2906C74.6561 17.3618 74.2843 19.4703 75.3555 21L86.8172 37.369C87.8884 38.8988 89.9968 39.2706 91.5266 38.1994L92.8196 40.046ZM86.347 6.42379C88.6416 4.81705 91.8044 5.37472 93.4111 7.66938L105.519 24.9617C107.126 27.2563 106.568 30.4191 104.274 32.0258L102.981 30.1792C104.765 28.9295 105.344 26.6763 104.273 25.1465L92.811 8.77754C91.7399 7.24776 89.4247 7.0207 87.64 8.27039L86.347 6.42379Z" fill="white" mask="url(#path-13-inside-9_18_14)"/>
<mask id="path-15-inside-10_18_14" fill="white">
<path d="M103.848 26.3189C104.919 27.8486 107.108 28.2207 108.034 26.5985C108.147 26.3999 108.253 26.1949 108.352 25.9836C108.954 24.6976 109.275 23.2061 109.296 21.5941C109.317 19.9821 109.038 18.2812 108.476 16.5885C107.913 14.8959 107.077 13.2446 106.015 11.729C104.954 10.2133 103.688 8.86307 102.29 7.75522C100.892 6.64738 99.3893 5.80367 97.8673 5.27226C96.3453 4.74086 94.8339 4.53216 93.4196 4.6581C93.1872 4.67879 92.9582 4.70845 92.7329 4.74696C90.8921 5.06159 90.4928 7.24635 91.564 8.77613L97.7058 17.5475L103.848 26.3189Z"/>
</mask>
<path d="M103.848 26.3189C104.919 27.8486 107.108 28.2207 108.034 26.5985C108.147 26.3999 108.253 26.1949 108.352 25.9836C108.954 24.6976 109.275 23.2061 109.296 21.5941C109.317 19.9821 109.038 18.2812 108.476 16.5885C107.913 14.8959 107.077 13.2446 106.015 11.729C104.954 10.2133 103.688 8.86307 102.29 7.75522C100.892 6.64738 99.3893 5.80367 97.8673 5.27226C96.3453 4.74086 94.8339 4.53216 93.4196 4.6581C93.1872 4.67879 92.9582 4.70845 92.7329 4.74696C90.8921 5.06159 90.4928 7.24635 91.564 8.77613L97.7058 17.5475L103.848 26.3189Z" fill="white" stroke="white" stroke-width="2.25429" mask="url(#path-15-inside-10_18_14)"/>
<mask id="path-16-inside-11_18_14" fill="white">
<path d="M76.926 21.7211C75.6588 19.9115 76.0986 17.4173 77.9083 16.1502L87.7381 9.26727C89.5477 8.00016 92.0419 8.43995 93.309 10.2496L103.06 24.1752C104.327 25.9848 103.887 28.479 102.077 29.7461L92.2477 36.629C90.4381 37.8961 87.9439 37.4563 86.6768 35.6467L76.926 21.7211Z"/>
</mask>
<path d="M76.926 21.7211C75.6588 19.9115 76.0986 17.4173 77.9083 16.1502L87.7381 9.26727C89.5477 8.00016 92.0419 8.43995 93.309 10.2496L103.06 24.1752C104.327 25.9848 103.887 28.479 102.077 29.7461L92.2477 36.629C90.4381 37.8961 87.9439 37.4563 86.6768 35.6467L76.926 21.7211Z" fill="url(#paint4_radial_18_14)"/>
<path d="M76.1068 22.2947C74.5229 20.0326 75.0727 16.9149 77.3347 15.331L87.1645 8.44811C89.2003 7.02261 92.0063 7.51738 93.4318 9.5532L92.8994 10.5364C91.9491 9.17914 89.8951 8.9777 88.3117 10.0864L78.4818 16.9693C77.1246 17.9197 76.7948 19.7903 77.7451 21.1475L76.1068 22.2947ZM103.756 24.2979C105.182 26.3338 104.687 29.1397 102.651 30.5652L92.8212 37.4481C90.5592 39.032 87.4415 38.4823 85.8576 36.2203L87.4959 35.0731C88.4462 36.4303 90.3169 36.7602 91.6741 35.8098L101.504 28.9269C103.087 27.8182 103.601 25.8192 102.65 24.4619L103.756 24.2979ZM92.8212 37.4481C90.5592 39.032 87.4415 38.4823 85.8576 36.2203L76.1068 22.2947C74.5229 20.0326 75.0727 16.9149 77.3347 15.331L78.4818 16.9693C77.1246 17.9197 76.7948 19.7903 77.7451 21.1475L87.4959 35.0731C88.4462 36.4303 90.3169 36.7602 91.6741 35.8098L92.8212 37.4481ZM87.1645 8.44811C89.2003 7.02261 92.0063 7.51738 93.4318 9.5532L103.756 24.2979C105.182 26.3338 104.687 29.1397 102.651 30.5652L101.504 28.9269C103.087 27.8182 103.601 25.8192 102.65 24.4619L92.8994 10.5364C91.9491 9.17914 89.8951 8.9777 88.3117 10.0864L87.1645 8.44811Z" fill="black" mask="url(#path-16-inside-11_18_14)"/>
<mask id="path-18-inside-12_18_14" fill="white">
<path d="M102.814 25.5679C103.765 26.9251 105.707 27.2552 106.528 25.816C106.628 25.6398 106.723 25.4579 106.81 25.2704C107.345 24.1295 107.629 22.8062 107.648 21.3761C107.667 19.9459 107.419 18.4369 106.92 16.9352C106.421 15.4334 105.679 13.9684 104.738 12.6238C103.796 11.2791 102.673 10.0811 101.433 9.09825C100.192 8.11538 98.8589 7.36684 97.5085 6.89537C96.1582 6.42391 94.8173 6.23876 93.5625 6.35049C93.3564 6.36884 93.1532 6.39516 92.9533 6.42933C91.3201 6.70846 90.9659 8.64678 91.9162 10.004L97.3652 17.7859L102.814 25.5679Z"/>
</mask>
<path d="M102.814 25.5679C103.765 26.9251 105.707 27.2552 106.528 25.816C106.628 25.6398 106.723 25.4579 106.81 25.2704C107.345 24.1295 107.629 22.8062 107.648 21.3761C107.667 19.9459 107.419 18.4369 106.92 16.9352C106.421 15.4334 105.679 13.9684 104.738 12.6238C103.796 11.2791 102.673 10.0811 101.433 9.09825C100.192 8.11538 98.8589 7.36684 97.5085 6.89537C96.1582 6.42391 94.8173 6.23876 93.5625 6.35049C93.3564 6.36884 93.1532 6.39516 92.9533 6.42933C91.3201 6.70846 90.9659 8.64678 91.9162 10.004L97.3652 17.7859L102.814 25.5679Z" fill="url(#paint5_linear_18_14)"/>
<path d="M102.814 25.5679C103.765 26.9251 105.707 27.2552 106.528 25.816C106.628 25.6398 106.723 25.4579 106.81 25.2704C107.345 24.1295 107.629 22.8062 107.648 21.3761C107.667 19.9459 107.419 18.4369 106.92 16.9352C106.421 15.4334 105.679 13.9684 104.738 12.6238C103.796 11.2791 102.673 10.0811 101.433 9.09825C100.192 8.11538 98.8589 7.36684 97.5085 6.89537C96.1582 6.42391 94.8173 6.23876 93.5625 6.35049C93.3564 6.36884 93.1532 6.39516 92.9533 6.42933C91.3201 6.70846 90.9659 8.64678 91.9162 10.004L97.3652 17.7859L102.814 25.5679Z" stroke="black" stroke-width="2" mask="url(#path-18-inside-12_18_14)"/>
<path d="M102.814 25.5679C103.765 26.9251 105.707 27.2552 106.528 25.816C106.628 25.6398 106.723 25.4579 106.81 25.2704C107.345 24.1295 107.629 22.8062 107.648 21.3761C107.667 19.9459 107.419 18.4369 106.92 16.9352C106.421 15.4334 105.679 13.9684 104.738 12.6238C103.796 11.2791 102.673 10.0811 101.433 9.09825C100.192 8.11538 98.8589 7.36684 97.5085 6.89537C96.1582 6.42391 94.8173 6.23876 93.5625 6.35049C93.3564 6.36884 93.1532 6.39516 92.9533 6.42933C91.3201 6.70846 90.9659 8.64678 91.9162 10.004L97.3652 17.7859L102.814 25.5679Z" stroke="black" stroke-opacity="0.2" stroke-width="2" mask="url(#path-18-inside-12_18_14)"/>
<mask id="path-19-inside-13_18_14" fill="white">
<path d="M29.4527 37.9444C28.0445 39.9979 25.2382 40.5211 23.1846 39.1129L11.6527 31.205C9.59914 29.7968 9.07597 26.9905 10.4842 24.9369L21.7853 8.45667C23.1935 6.4031 25.9998 5.87994 28.0534 7.28814L39.5853 15.196C41.6389 16.6042 42.1621 19.4106 40.7539 21.4641L29.4527 37.9444Z"/>
</mask>
<path d="M29.4527 37.9444C28.0445 39.9979 25.2382 40.5211 23.1846 39.1129L11.6527 31.205C9.59914 29.7968 9.07597 26.9905 10.4842 24.9369L21.7853 8.45667C23.1935 6.4031 25.9998 5.87994 28.0534 7.28814L39.5853 15.196C41.6389 16.6042 42.1621 19.4106 40.7539 21.4641L29.4527 37.9444Z" fill="white"/>
<path d="M30.3823 38.5818C28.6221 41.1488 25.1142 41.8027 22.5472 40.0425L11.0153 32.1346C8.705 30.5504 8.11644 27.3933 9.70067 25.083L10.949 25.2557C9.89282 26.7958 10.4933 29.0433 12.2902 30.2754L23.8221 38.1833C25.3623 39.2395 27.467 38.8471 28.5232 37.3069L30.3823 38.5818ZM21.6392 7.67316C23.2235 5.3629 26.3806 4.77433 28.6909 6.35857L40.2228 14.2665C42.7898 16.0267 43.4437 19.5346 41.6834 22.1016L39.8243 20.8267C40.8805 19.2865 40.4881 17.1818 38.9479 16.1256L27.416 8.21772C25.6191 6.98554 23.3063 7.23522 22.2501 8.77539L21.6392 7.67316ZM40.2228 14.2665C42.7898 16.0267 43.4437 19.5346 41.6834 22.1016L30.3823 38.5818C28.6221 41.1488 25.1142 41.8027 22.5472 40.0425L23.8221 38.1833C25.3623 39.2395 27.467 38.8471 28.5232 37.3069L39.8243 20.8267C40.8805 19.2865 40.4881 17.1818 38.9479 16.1256L40.2228 14.2665ZM11.0153 32.1346C8.705 30.5504 8.11644 27.3933 9.70067 25.083L21.6392 7.67316C23.2235 5.3629 26.3806 4.77433 28.6909 6.35857L27.416 8.21772C25.6191 6.98554 23.3063 7.23522 22.2501 8.77539L10.949 25.2557C9.89282 26.7958 10.4933 29.0433 12.2902 30.2754L11.0153 32.1346Z" fill="white" mask="url(#path-19-inside-13_18_14)"/>
<mask id="path-21-inside-14_18_14" fill="white">
<path d="M23.4971 8.7618C24.5533 7.22162 24.1327 5.04086 22.2889 4.74425C22.0632 4.70794 21.8339 4.68052 21.6013 4.6621C20.1859 4.55 18.6767 4.77346 17.1599 5.31972C15.6431 5.86598 14.1485 6.72434 12.7613 7.8458C11.3741 8.96725 10.1216 10.3298 9.07519 11.8558C8.02881 13.3817 7.20907 15.0411 6.66278 16.7391C6.11649 18.4372 5.85434 20.1408 5.89131 21.7525C5.92828 23.3642 6.26364 24.8525 6.87824 26.1325C6.97923 26.3429 7.08743 26.5469 7.20262 26.7443C8.14368 28.3574 10.3295 27.9639 11.3856 26.4238L17.4414 17.5928L23.4971 8.7618Z"/>
</mask>
<path d="M23.4971 8.7618C24.5533 7.22162 24.1327 5.04086 22.2889 4.74425C22.0632 4.70794 21.8339 4.68052 21.6013 4.6621C20.1859 4.55 18.6767 4.77346 17.1599 5.31972C15.6431 5.86598 14.1485 6.72434 12.7613 7.8458C11.3741 8.96725 10.1216 10.3298 9.07519 11.8558C8.02881 13.3817 7.20907 15.0411 6.66278 16.7391C6.11649 18.4372 5.85434 20.1408 5.89131 21.7525C5.92828 23.3642 6.26364 24.8525 6.87824 26.1325C6.97923 26.3429 7.08743 26.5469 7.20262 26.7443C8.14368 28.3574 10.3295 27.9639 11.3856 26.4238L17.4414 17.5928L23.4971 8.7618Z" fill="white" stroke="white" stroke-width="2.25429" mask="url(#path-21-inside-14_18_14)"/>
<mask id="path-22-inside-15_18_14" fill="white">
<path d="M28.6468 35.5833C27.3975 37.4052 24.9077 37.8694 23.0858 36.62L13.1891 29.8335C11.3672 28.5841 10.9031 26.0944 12.1524 24.2724L21.7666 10.2522C23.016 8.43029 25.5057 7.96614 27.3277 9.2155L37.2243 16.002C39.0462 17.2514 39.5104 19.7411 38.261 21.563L28.6468 35.5833Z"/>
</mask>
<path d="M28.6468 35.5833C27.3975 37.4052 24.9077 37.8694 23.0858 36.62L13.1891 29.8335C11.3672 28.5841 10.9031 26.0944 12.1524 24.2724L21.7666 10.2522C23.016 8.43029 25.5057 7.96614 27.3277 9.2155L37.2243 16.002C39.0462 17.2514 39.5104 19.7411 38.261 21.563L28.6468 35.5833Z" fill="url(#paint6_radial_18_14)"/>
<path d="M29.4715 36.1488C27.9098 38.4262 24.7976 39.0064 22.5202 37.4447L12.6236 30.6582C10.5739 29.2527 10.0518 26.4517 11.4573 24.402L12.5648 24.5552C11.6278 25.9217 12.1605 27.9156 13.7547 29.0088L23.6513 35.7953C25.0177 36.7323 26.8851 36.3842 27.8221 35.0177L29.4715 36.1488ZM21.637 9.55708C23.0426 7.50742 25.8435 6.98525 27.8932 8.39078L37.7898 15.1773C40.0672 16.739 40.6474 19.8512 39.0857 22.1286L37.4363 20.9975C38.3733 19.6311 38.0252 17.7637 36.6588 16.8267L26.7621 10.0402C25.1679 8.94703 23.116 9.16854 22.179 10.535L21.637 9.55708ZM37.7898 15.1773C40.0672 16.739 40.6474 19.8512 39.0857 22.1286L29.4715 36.1488C27.9098 38.4262 24.7976 39.0064 22.5202 37.4447L23.6513 35.7953C25.0177 36.7323 26.8851 36.3842 27.8221 35.0177L37.4363 20.9975C38.3733 19.6311 38.0252 17.7637 36.6588 16.8267L37.7898 15.1773ZM12.6236 30.6582C10.5739 29.2527 10.0518 26.4517 11.4573 24.402L21.637 9.55708C23.0426 7.50742 25.8435 6.98525 27.8932 8.39078L26.7621 10.0402C25.1679 8.94703 23.116 9.16854 22.179 10.535L12.5648 24.5552C11.6278 25.9217 12.1605 27.9156 13.7547 29.0088L12.6236 30.6582Z" fill="black" mask="url(#path-22-inside-15_18_14)"/>
<mask id="path-24-inside-16_18_14" fill="white">
<path d="M23.1569 9.99303C24.0939 8.62659 23.7208 6.69183 22.0849 6.42867C21.8847 6.39646 21.6813 6.37213 21.4749 6.35579C20.2191 6.25633 18.8802 6.45459 17.5345 6.93923C16.1888 7.42387 14.8627 8.18541 13.632 9.18036C12.4013 10.1753 11.2901 11.3842 10.3617 12.738C9.4334 14.0918 8.70613 15.564 8.22146 17.0705C7.73679 18.5771 7.50422 20.0884 7.53701 21.5184C7.56981 22.9483 7.86734 24.2687 8.41262 25.4043C8.50221 25.5909 8.59821 25.7719 8.7004 25.9471C9.53531 27.3782 11.4746 27.0292 12.4116 25.6627L17.7842 17.8279L23.1569 9.99303Z"/>
</mask>
<path d="M23.1569 9.99303C24.0939 8.62659 23.7208 6.69183 22.0849 6.42867C21.8847 6.39646 21.6813 6.37213 21.4749 6.35579C20.2191 6.25633 18.8802 6.45459 17.5345 6.93923C16.1888 7.42387 14.8627 8.18541 13.632 9.18036C12.4013 10.1753 11.2901 11.3842 10.3617 12.738C9.4334 14.0918 8.70613 15.564 8.22146 17.0705C7.73679 18.5771 7.50422 20.0884 7.53701 21.5184C7.56981 22.9483 7.86734 24.2687 8.41262 25.4043C8.50221 25.5909 8.59821 25.7719 8.7004 25.9471C9.53531 27.3782 11.4746 27.0292 12.4116 25.6627L17.7842 17.8279L23.1569 9.99303Z" fill="url(#paint7_linear_18_14)"/>
<path d="M23.1569 9.99303C24.0939 8.62659 23.7208 6.69183 22.0849 6.42867C21.8847 6.39646 21.6813 6.37213 21.4749 6.35579C20.2191 6.25633 18.8802 6.45459 17.5345 6.93923C16.1888 7.42387 14.8627 8.18541 13.632 9.18036C12.4013 10.1753 11.2901 11.3842 10.3617 12.738C9.4334 14.0918 8.70613 15.564 8.22146 17.0705C7.73679 18.5771 7.50422 20.0884 7.53701 21.5184C7.56981 22.9483 7.86734 24.2687 8.41262 25.4043C8.50221 25.5909 8.59821 25.7719 8.7004 25.9471C9.53531 27.3782 11.4746 27.0292 12.4116 25.6627L17.7842 17.8279L23.1569 9.99303Z" stroke="black" stroke-width="2" mask="url(#path-24-inside-16_18_14)"/>
<path d="M23.1569 9.99303C24.0939 8.62659 23.7208 6.69183 22.0849 6.42867C21.8847 6.39646 21.6813 6.37213 21.4749 6.35579C20.2191 6.25633 18.8802 6.45459 17.5345 6.93923C16.1888 7.42387 14.8627 8.18541 13.632 9.18036C12.4013 10.1753 11.2901 11.3842 10.3617 12.738C9.4334 14.0918 8.70613 15.564 8.22146 17.0705C7.73679 18.5771 7.50422 20.0884 7.53701 21.5184C7.56981 22.9483 7.86734 24.2687 8.41262 25.4043C8.50221 25.5909 8.59821 25.7719 8.7004 25.9471C9.53531 27.3782 11.4746 27.0292 12.4116 25.6627L17.7842 17.8279L23.1569 9.99303Z" stroke="black" stroke-opacity="0.2" stroke-width="2" mask="url(#path-24-inside-16_18_14)"/>
<circle cx="58" cy="45" r="28.5" fill="white" stroke="white"/>
<circle cx="58" cy="45" r="25.5" fill="url(#paint8_radial_18_14)" stroke="black"/>
<defs>
<radialGradient id="paint0_radial_18_14" cx="0" cy="0" r="1" gradientUnits="userSpaceOnUse" gradientTransform="translate(25.0747 68.4615) rotate(-37.8324) scale(10 12.5)">
<stop stop-color="#A97854"/>
<stop offset="1" stop-color="#785942"/>
</radialGradient>
<linearGradient id="paint1_linear_18_14" x1="17.1766" y1="74.595" x2="11.648" y2="78.8885" gradientUnits="userSpaceOnUse">
<stop stop-color="#B6845F"/>
<stop offset="1" stop-color="#534031"/>
</linearGradient>
<radialGradient id="paint2_radial_18_14" cx="0" cy="0" r="1" gradientUnits="userSpaceOnUse" gradientTransform="translate(89.9751 68.6375) rotate(-145.472) scale(10 12.5)">
<stop stop-color="#A97854"/>
<stop offset="1" stop-color="#785942"/>
</radialGradient>
<linearGradient id="paint3_linear_18_14" x1="98.2137" y1="74.3055" x2="103.981" y2="78.2731" gradientUnits="userSpaceOnUse">
<stop stop-color="#B6845F"/>
<stop offset="1" stop-color="#534031"/>
</linearGradient>
<radialGradient id="paint4_radial_18_14" cx="0" cy="0" r="1" gradientUnits="userSpaceOnUse" gradientTransform="translate(89.9929 22.9481) rotate(145) scale(10 12.5)">
<stop stop-color="#A97854"/>
<stop offset="1" stop-color="#785942"/>
</radialGradient>
<linearGradient id="paint5_linear_18_14" x1="98.1844" y1="17.2124" x2="103.918" y2="13.1973" gradientUnits="userSpaceOnUse">
<stop stop-color="#B6845F"/>
<stop offset="1" stop-color="#534031"/>
</linearGradient>
<radialGradient id="paint6_radial_18_14" cx="0" cy="0" r="1" gradientUnits="userSpaceOnUse" gradientTransform="translate(25.2067 22.9177) rotate(34.4399) scale(10 12.5)">
<stop stop-color="#A97854"/>
<stop offset="1" stop-color="#785942"/>
</radialGradient>
<linearGradient id="paint7_linear_18_14" x1="16.9595" y1="17.2623" x2="11.1865" y2="13.3035" gradientUnits="userSpaceOnUse">
<stop stop-color="#B6845F"/>
<stop offset="1" stop-color="#534031"/>
</linearGradient>
<radialGradient id="paint8_radial_18_14" cx="0" cy="0" r="1" gradientUnits="userSpaceOnUse" gradientTransform="translate(58 45) rotate(90) scale(26)">
<stop stop-color="#FAE5B9"/>
<stop offset="1" stop-color="#E6BF9E"/>
</radialGradient>
</defs>
</svg>
