<svg width="111" height="79" viewBox="0 0 111 79" fill="none" xmlns="http://www.w3.org/2000/svg">
<path d="M7.43881 1L32.5378 1C33.1411 1 33.7303 1.18188 34.2287 1.5219L34.4735 1.68894C35.2926 2.24784 35.7826 3.17541 35.7826 4.16704V6.01027L38 6.01027C39.6569 6.01027 41 7.35342 41 9.01027L41 69.726C41 71.3829 39.6569 72.726 38 72.726H35.7826V74.833C35.7826 75.8246 35.2926 76.7522 34.4735 77.3111L34.2287 77.4781C33.7303 77.8181 33.1411 78 32.5378 78H7.72307C7.1198 78 6.53054 77.8181 6.03222 77.4781L5.7874 77.3111C4.96828 76.7522 4.47826 75.8246 4.47826 74.833V72.726H4C2.34315 72.726 1 71.3829 1 69.726L1 9.27397C1 7.61712 2.34314 6.27397 4 6.27397H4.47826L4.47826 3.96055C4.47826 2.79989 5.15648 1.74628 6.21298 1.2657C6.59792 1.0906 7.01592 1 7.43881 1Z" fill="white"/>
<path d="M4.47826 6.27397L4.47826 3.96055C4.47826 2.79989 5.15648 1.74628 6.21298 1.2657V1.2657C6.59792 1.0906 7.01592 1 7.43881 1L32.5378 1C33.1411 1 33.7303 1.18188 34.2287 1.5219L34.4735 1.68894C35.2926 2.24784 35.7826 3.17541 35.7826 4.16704V6.01027M4.47826 6.27397H4C2.34314 6.27397 1 7.61712 1 9.27397L1 69.726C1 71.3829 2.34315 72.726 4 72.726H4.47826M4.47826 6.27397H8.24638M9.11594 72.726L8.24638 6.27397M9.11594 72.726H4.47826M9.11594 72.726H10.4936C11.4496 72.726 12.3484 72.2704 12.9135 71.4993L13.4344 70.7884C13.9994 70.0173 14.8982 69.5616 15.8542 69.5616H17.2319M8.24638 6.27397L10.24 6.27397C11.3345 6.27397 12.342 6.86993 12.8691 7.82903L13.4787 8.93809C14.0058 9.89719 15.0134 10.4932 16.1078 10.4932H17.2319M17.2319 10.4932L32.8221 10.4932C33.245 10.4932 33.6629 10.4025 34.0479 10.2274V10.2274C35.1044 9.74687 35.7826 8.69326 35.7826 7.5326V6.01027M17.2319 10.4932L17.2319 69.5616M17.2319 69.5616H32.5378C33.1411 69.5616 33.7303 69.7435 34.2287 70.0835L34.4757 70.2521C35.2934 70.81 35.7826 71.7361 35.7826 72.726V72.726M4.47826 72.726V74.833C4.47826 75.8246 4.96828 76.7522 5.7874 77.3111L6.03222 77.4781C6.53054 77.8181 7.1198 78 7.72307 78H32.5378C33.1411 78 33.7303 77.8181 34.2287 77.4781L34.4735 77.3111C35.2926 76.7522 35.7826 75.8246 35.7826 74.833V72.726M35.7826 6.01027L38 6.01027C39.6569 6.01027 41 7.35342 41 9.01027L41 69.726C41 71.3829 39.6569 72.726 38 72.726H35.7826" stroke="white"/>
<path d="M9.61803 3L31 3C31.6491 3 32.2807 3.21053 32.8 3.6C33.5554 4.16656 34 5.05573 34 6V7.75L35.5 7.75C37.1569 7.75 38.5 9.09315 38.5 10.75L38.5 68C38.5 69.6569 37.1569 71 35.5 71H34V73C34 73.9443 33.5554 74.8334 32.8 75.4C32.2807 75.7895 31.6491 76 31 76H10C9.35089 76 8.71929 75.7895 8.2 75.4C7.44458 74.8334 7 73.9443 7 73V71C5.34315 71 4 69.6569 4 68L4 11C4 9.34315 5.34315 8 7 8L7 5.61803C7 4.6264 7.56027 3.71987 8.44721 3.27639C8.81074 3.09463 9.2116 3 9.61803 3Z" fill="url(#paint0_linear_18_30)"/>
<path d="M7 8L7 5.61803C7 4.6264 7.56027 3.71987 8.44721 3.27639V3.27639C8.81074 3.09463 9.2116 3 9.61803 3L31 3C31.6491 3 32.2807 3.21053 32.8 3.6V3.6C33.5554 4.16656 34 5.05573 34 6V7.75M7 8V8C5.34315 8 4 9.34315 4 11L4 68C4 69.6569 5.34315 71 7 71V71M7 8H10.25M11 71L10.25 8M11 71H7M11 71H11.8944C12.8975 71 13.8342 70.4987 14.3906 69.6641L14.6094 69.3359C15.1658 68.5013 16.1025 68 17.1056 68H18M10.25 8H11.6459C12.7822 8 13.821 8.64201 14.3292 9.65836L14.6708 10.3416C15.179 11.358 16.2178 12 17.3541 12H18M18 12L31.382 12C31.7884 12 32.1893 11.9054 32.5528 11.7236V11.7236C33.4397 11.2801 34 10.3736 34 9.38197V7.75M18 12L18 68M18 68H31C31.6491 68 32.2807 68.2105 32.8 68.6V68.6C33.5554 69.1666 34 70.0557 34 71V71M7 71V73C7 73.9443 7.44458 74.8334 8.2 75.4V75.4C8.71929 75.7895 9.35089 76 10 76H31C31.6491 76 32.2807 75.7895 32.8 75.4V75.4C33.5554 74.8334 34 73.9443 34 73V71M34 7.75L35.5 7.75C37.1569 7.75 38.5 9.09315 38.5 10.75L38.5 68C38.5 69.6569 37.1569 71 35.5 71H34" stroke="#2C1107"/>
<mask id="path-5-inside-1_18_30" fill="white">
<path d="M79.3093 45.7886C79.3093 43.2986 81.3278 41.28 83.8178 41.28H97.8007C100.291 41.28 102.309 43.2986 102.309 45.7886V65.7714C102.309 68.2614 100.291 70.28 97.8007 70.28H83.8178C81.3278 70.28 79.3093 68.2614 79.3093 65.7714V45.7886Z"/>
</mask>
<path d="M79.3093 45.7886C79.3093 43.2986 81.3278 41.28 83.8178 41.28H97.8007C100.291 41.28 102.309 43.2986 102.309 45.7886V65.7714C102.309 68.2614 100.291 70.28 97.8007 70.28H83.8178C81.3278 70.28 79.3093 68.2614 79.3093 65.7714V45.7886Z" fill="white"/>
<path d="M78.1821 45.7886C78.1821 42.6761 80.7053 40.1529 83.8178 40.1529H97.8007C100.602 40.1529 102.873 42.4237 102.873 45.225L101.746 45.7886C101.746 43.9211 99.9795 42.4071 97.8007 42.4071H83.8178C81.9503 42.4071 80.4364 43.9211 80.4364 45.7886H78.1821ZM102.873 66.335C102.873 69.1363 100.602 71.4071 97.8007 71.4071H83.8178C80.7053 71.4071 78.1821 68.8839 78.1821 65.7714H80.4364C80.4364 67.6389 81.9503 69.1529 83.8178 69.1529H97.8007C99.9795 69.1529 101.746 67.6389 101.746 65.7714L102.873 66.335ZM83.8178 71.4071C80.7053 71.4071 78.1821 68.8839 78.1821 65.7714V45.7886C78.1821 42.6761 80.7053 40.1529 83.8178 40.1529V42.4071C81.9503 42.4071 80.4364 43.9211 80.4364 45.7886V65.7714C80.4364 67.6389 81.9503 69.1529 83.8178 69.1529V71.4071ZM97.8007 40.1529C100.602 40.1529 102.873 42.4237 102.873 45.225V66.335C102.873 69.1363 100.602 71.4071 97.8007 71.4071V69.1529C99.9795 69.1529 101.746 67.6389 101.746 65.7714V45.7886C101.746 43.9211 99.9795 42.4071 97.8007 42.4071V40.1529Z" fill="white" mask="url(#path-5-inside-1_18_30)"/>
<mask id="path-7-inside-2_18_30" fill="white">
<path d="M100.725 66.4879C100.725 68.3554 102.305 69.916 103.994 69.1179C104.2 69.0202 104.405 68.9132 104.607 68.7968C105.838 68.0888 106.956 67.0509 107.898 65.7426C108.84 64.4343 109.587 62.8811 110.097 61.1717C110.607 59.4624 110.869 57.6302 110.869 55.78C110.869 53.9298 110.607 52.0977 110.097 50.3883C109.587 48.6789 108.84 47.1257 107.898 45.8174C106.956 44.5091 105.838 43.4713 104.607 42.7632C104.405 42.6469 104.2 42.5398 103.994 42.4421C102.305 41.644 100.725 43.2046 100.725 45.0721L100.725 55.78V66.4879Z"/>
</mask>
<path d="M100.725 66.4879C100.725 68.3554 102.305 69.916 103.994 69.1179C104.2 69.0202 104.405 68.9132 104.607 68.7968C105.838 68.0888 106.956 67.0509 107.898 65.7426C108.84 64.4343 109.587 62.8811 110.097 61.1717C110.607 59.4624 110.869 57.6302 110.869 55.78C110.869 53.9298 110.607 52.0977 110.097 50.3883C109.587 48.6789 108.84 47.1257 107.898 45.8174C106.956 44.5091 105.838 43.4713 104.607 42.7632C104.405 42.6469 104.2 42.5398 103.994 42.4421C102.305 41.644 100.725 43.2046 100.725 45.0721L100.725 55.78V66.4879Z" fill="white" stroke="white" stroke-width="2.25429" mask="url(#path-7-inside-2_18_30)"/>
<mask id="path-8-inside-3_18_30" fill="white">
<path d="M81.3093 47.28C81.3093 45.0709 83.1001 43.28 85.3093 43.28H97.3093C99.5184 43.28 101.309 45.0709 101.309 47.28V64.28C101.309 66.4891 99.5184 68.28 97.3093 68.28H85.3093C83.1001 68.28 81.3093 66.4891 81.3093 64.28V47.28Z"/>
</mask>
<path d="M81.3093 47.28C81.3093 45.0709 83.1001 43.28 85.3093 43.28H97.3093C99.5184 43.28 101.309 45.0709 101.309 47.28V64.28C101.309 66.4891 99.5184 68.28 97.3093 68.28H85.3093C83.1001 68.28 81.3093 66.4891 81.3093 64.28V47.28Z" fill="url(#paint1_radial_18_30)"/>
<path d="M80.3093 47.28C80.3093 44.5186 82.5478 42.28 85.3093 42.28H97.3093C99.7945 42.28 101.809 44.2947 101.809 46.78L100.809 47.28C100.809 45.6231 99.2423 44.28 97.3093 44.28H85.3093C83.6524 44.28 82.3093 45.6231 82.3093 47.28H80.3093ZM101.809 64.78C101.809 67.2653 99.7945 69.28 97.3093 69.28H85.3093C82.5478 69.28 80.3093 67.0414 80.3093 64.28H82.3093C82.3093 65.9369 83.6524 67.28 85.3093 67.28H97.3093C99.2423 67.28 100.809 65.9369 100.809 64.28L101.809 64.78ZM85.3093 69.28C82.5478 69.28 80.3093 67.0414 80.3093 64.28V47.28C80.3093 44.5186 82.5478 42.28 85.3093 42.28V44.28C83.6524 44.28 82.3093 45.6231 82.3093 47.28V64.28C82.3093 65.9369 83.6524 67.28 85.3093 67.28V69.28ZM97.3093 42.28C99.7945 42.28 101.809 44.2947 101.809 46.78V64.78C101.809 67.2653 99.7945 69.28 97.3093 69.28V67.28C99.2423 67.28 100.809 65.9369 100.809 64.28V47.28C100.809 45.6231 99.2423 44.28 97.3093 44.28V42.28Z" fill="black" mask="url(#path-8-inside-3_18_30)"/>
<mask id="path-10-inside-4_18_30" fill="white">
<path d="M100.309 65.28C100.309 66.9369 101.711 68.3215 103.209 67.6134C103.392 67.5267 103.574 67.4317 103.753 67.3285C104.845 66.7003 105.837 65.7796 106.673 64.6188C107.509 63.4581 108.172 62.0801 108.624 60.5635C109.076 59.047 109.309 57.4215 109.309 55.78C109.309 54.1385 109.076 52.513 108.624 50.9965C108.172 49.4799 107.509 48.1019 106.673 46.9412C105.837 45.7804 104.845 44.8597 103.753 44.2315C103.574 44.1283 103.392 44.0333 103.209 43.9466C101.711 43.2385 100.309 44.6231 100.309 46.28L100.309 55.78V65.28Z"/>
</mask>
<path d="M100.309 65.28C100.309 66.9369 101.711 68.3215 103.209 67.6134C103.392 67.5267 103.574 67.4317 103.753 67.3285C104.845 66.7003 105.837 65.7796 106.673 64.6188C107.509 63.4581 108.172 62.0801 108.624 60.5635C109.076 59.047 109.309 57.4215 109.309 55.78C109.309 54.1385 109.076 52.513 108.624 50.9965C108.172 49.4799 107.509 48.1019 106.673 46.9412C105.837 45.7804 104.845 44.8597 103.753 44.2315C103.574 44.1283 103.392 44.0333 103.209 43.9466C101.711 43.2385 100.309 44.6231 100.309 46.28L100.309 55.78V65.28Z" fill="url(#paint2_linear_18_30)"/>
<path d="M100.309 65.28C100.309 66.9369 101.711 68.3215 103.209 67.6134C103.392 67.5267 103.574 67.4317 103.753 67.3285C104.845 66.7003 105.837 65.7796 106.673 64.6188C107.509 63.4581 108.172 62.0801 108.624 60.5635C109.076 59.047 109.309 57.4215 109.309 55.78C109.309 54.1385 109.076 52.513 108.624 50.9965C108.172 49.4799 107.509 48.1019 106.673 46.9412C105.837 45.7804 104.845 44.8597 103.753 44.2315C103.574 44.1283 103.392 44.0333 103.209 43.9466C101.711 43.2385 100.309 44.6231 100.309 46.28L100.309 55.78V65.28Z" stroke="black" stroke-width="2" mask="url(#path-10-inside-4_18_30)"/>
<path d="M100.309 65.28C100.309 66.9369 101.711 68.3215 103.209 67.6134C103.392 67.5267 103.574 67.4317 103.753 67.3285C104.845 66.7003 105.837 65.7796 106.673 64.6188C107.509 63.4581 108.172 62.0801 108.624 60.5635C109.076 59.047 109.309 57.4215 109.309 55.78C109.309 54.1385 109.076 52.513 108.624 50.9965C108.172 49.4799 107.509 48.1019 106.673 46.9412C105.837 45.7804 104.845 44.8597 103.753 44.2315C103.574 44.1283 103.392 44.0333 103.209 43.9466C101.711 43.2385 100.309 44.6231 100.309 46.28L100.309 55.78V65.28Z" stroke="black" stroke-opacity="0.2" stroke-width="2" mask="url(#path-10-inside-4_18_30)"/>
<mask id="path-11-inside-5_18_30" fill="white">
<path d="M79.3093 15.7886C79.3093 13.2986 81.3279 11.28 83.8179 11.28H97.8008C100.291 11.28 102.309 13.2986 102.309 15.7886V35.7714C102.309 38.2615 100.291 40.28 97.8008 40.28H83.8179C81.3279 40.28 79.3093 38.2615 79.3093 35.7714V15.7886Z"/>
</mask>
<path d="M79.3093 15.7886C79.3093 13.2986 81.3279 11.28 83.8179 11.28H97.8008C100.291 11.28 102.309 13.2986 102.309 15.7886V35.7714C102.309 38.2615 100.291 40.28 97.8008 40.28H83.8179C81.3279 40.28 79.3093 38.2615 79.3093 35.7714V15.7886Z" fill="white"/>
<path d="M78.1822 15.7886C78.1822 12.6761 80.7054 10.1529 83.8179 10.1529H97.8008C100.602 10.1529 102.873 12.4237 102.873 15.225L101.746 15.7886C101.746 13.9211 99.9795 12.4072 97.8008 12.4072H83.8179C81.9504 12.4072 80.4365 13.9211 80.4365 15.7886H78.1822ZM102.873 36.335C102.873 39.1363 100.602 41.4072 97.8008 41.4072H83.8179C80.7054 41.4072 78.1822 38.884 78.1822 35.7714H80.4365C80.4365 37.639 81.9504 39.1529 83.8179 39.1529H97.8008C99.9795 39.1529 101.746 37.639 101.746 35.7714L102.873 36.335ZM83.8179 41.4072C80.7054 41.4072 78.1822 38.884 78.1822 35.7714V15.7886C78.1822 12.6761 80.7054 10.1529 83.8179 10.1529V12.4072C81.9504 12.4072 80.4365 13.9211 80.4365 15.7886V35.7714C80.4365 37.639 81.9504 39.1529 83.8179 39.1529V41.4072ZM97.8008 10.1529C100.602 10.1529 102.873 12.4237 102.873 15.225V36.335C102.873 39.1363 100.602 41.4072 97.8008 41.4072V39.1529C99.9795 39.1529 101.746 37.639 101.746 35.7714V15.7886C101.746 13.9211 99.9795 12.4072 97.8008 12.4072V10.1529Z" fill="white" mask="url(#path-11-inside-5_18_30)"/>
<mask id="path-13-inside-6_18_30" fill="white">
<path d="M100.725 36.4879C100.725 38.3554 102.305 39.916 103.994 39.1179C104.2 39.0202 104.405 38.9132 104.607 38.7968C105.838 38.0888 106.956 37.051 107.898 35.7427C108.84 34.4343 109.587 32.8811 110.097 31.1718C110.607 29.4624 110.869 27.6303 110.869 25.78C110.869 23.9298 110.607 22.0977 110.097 20.3883C109.587 18.6789 108.84 17.1257 107.898 15.8174C106.956 14.5091 105.838 13.4713 104.607 12.7632C104.405 12.6469 104.2 12.5398 103.994 12.4421C102.305 11.644 100.725 13.2047 100.725 15.0722L100.725 25.78V36.4879Z"/>
</mask>
<path d="M100.725 36.4879C100.725 38.3554 102.305 39.916 103.994 39.1179C104.2 39.0202 104.405 38.9132 104.607 38.7968C105.838 38.0888 106.956 37.051 107.898 35.7427C108.84 34.4343 109.587 32.8811 110.097 31.1718C110.607 29.4624 110.869 27.6303 110.869 25.78C110.869 23.9298 110.607 22.0977 110.097 20.3883C109.587 18.6789 108.84 17.1257 107.898 15.8174C106.956 14.5091 105.838 13.4713 104.607 12.7632C104.405 12.6469 104.2 12.5398 103.994 12.4421C102.305 11.644 100.725 13.2047 100.725 15.0722L100.725 25.78V36.4879Z" fill="white" stroke="white" stroke-width="2.25429" mask="url(#path-13-inside-6_18_30)"/>
<mask id="path-14-inside-7_18_30" fill="white">
<path d="M81.3093 17.28C81.3093 15.0709 83.1002 13.28 85.3093 13.28H97.3093C99.5185 13.28 101.309 15.0709 101.309 17.28V34.28C101.309 36.4892 99.5185 38.28 97.3093 38.28H85.3093C83.1002 38.28 81.3093 36.4892 81.3093 34.28V17.28Z"/>
</mask>
<path d="M81.3093 17.28C81.3093 15.0709 83.1002 13.28 85.3093 13.28H97.3093C99.5185 13.28 101.309 15.0709 101.309 17.28V34.28C101.309 36.4892 99.5185 38.28 97.3093 38.28H85.3093C83.1002 38.28 81.3093 36.4892 81.3093 34.28V17.28Z" fill="url(#paint3_radial_18_30)"/>
<path d="M80.3093 17.28C80.3093 14.5186 82.5479 12.28 85.3093 12.28H97.3093C99.7946 12.28 101.809 14.2947 101.809 16.78L100.809 17.28C100.809 15.6232 99.2423 14.28 97.3093 14.28H85.3093C83.6525 14.28 82.3093 15.6232 82.3093 17.28H80.3093ZM101.809 34.78C101.809 37.2653 99.7946 39.28 97.3093 39.28H85.3093C82.5479 39.28 80.3093 37.0414 80.3093 34.28H82.3093C82.3093 35.9369 83.6525 37.28 85.3093 37.28H97.3093C99.2423 37.28 100.809 35.9369 100.809 34.28L101.809 34.78ZM85.3093 39.28C82.5479 39.28 80.3093 37.0414 80.3093 34.28V17.28C80.3093 14.5186 82.5479 12.28 85.3093 12.28V14.28C83.6525 14.28 82.3093 15.6232 82.3093 17.28V34.28C82.3093 35.9369 83.6525 37.28 85.3093 37.28V39.28ZM97.3093 12.28C99.7946 12.28 101.809 14.2947 101.809 16.78V34.78C101.809 37.2653 99.7946 39.28 97.3093 39.28V37.28C99.2423 37.28 100.809 35.9369 100.809 34.28V17.28C100.809 15.6232 99.2423 14.28 97.3093 14.28V12.28Z" fill="black" mask="url(#path-14-inside-7_18_30)"/>
<mask id="path-16-inside-8_18_30" fill="white">
<path d="M100.309 35.28C100.309 36.9369 101.711 38.3215 103.209 37.6134C103.393 37.5267 103.574 37.4317 103.753 37.3285C104.845 36.7003 105.838 35.7796 106.673 34.6188C107.509 33.4581 108.172 32.0801 108.624 30.5636C109.077 29.047 109.309 27.4215 109.309 25.78C109.309 24.1385 109.077 22.513 108.624 20.9965C108.172 19.4799 107.509 18.1019 106.673 16.9412C105.838 15.7804 104.845 14.8597 103.753 14.2315C103.574 14.1283 103.393 14.0333 103.209 13.9466C101.711 13.2385 100.309 14.6232 100.309 16.28L100.309 25.78V35.28Z"/>
</mask>
<path d="M100.309 35.28C100.309 36.9369 101.711 38.3215 103.209 37.6134C103.393 37.5267 103.574 37.4317 103.753 37.3285C104.845 36.7003 105.838 35.7796 106.673 34.6188C107.509 33.4581 108.172 32.0801 108.624 30.5636C109.077 29.047 109.309 27.4215 109.309 25.78C109.309 24.1385 109.077 22.513 108.624 20.9965C108.172 19.4799 107.509 18.1019 106.673 16.9412C105.838 15.7804 104.845 14.8597 103.753 14.2315C103.574 14.1283 103.393 14.0333 103.209 13.9466C101.711 13.2385 100.309 14.6232 100.309 16.28L100.309 25.78V35.28Z" fill="url(#paint4_linear_18_30)"/>
<path d="M100.309 35.28C100.309 36.9369 101.711 38.3215 103.209 37.6134C103.393 37.5267 103.574 37.4317 103.753 37.3285C104.845 36.7003 105.838 35.7796 106.673 34.6188C107.509 33.4581 108.172 32.0801 108.624 30.5636C109.077 29.047 109.309 27.4215 109.309 25.78C109.309 24.1385 109.077 22.513 108.624 20.9965C108.172 19.4799 107.509 18.1019 106.673 16.9412C105.838 15.7804 104.845 14.8597 103.753 14.2315C103.574 14.1283 103.393 14.0333 103.209 13.9466C101.711 13.2385 100.309 14.6232 100.309 16.28L100.309 25.78V35.28Z" stroke="black" stroke-width="2" mask="url(#path-16-inside-8_18_30)"/>
<path d="M100.309 35.28C100.309 36.9369 101.711 38.3215 103.209 37.6134C103.393 37.5267 103.574 37.4317 103.753 37.3285C104.845 36.7003 105.838 35.7796 106.673 34.6188C107.509 33.4581 108.172 32.0801 108.624 30.5636C109.077 29.047 109.309 27.4215 109.309 25.78C109.309 24.1385 109.077 22.513 108.624 20.9965C108.172 19.4799 107.509 18.1019 106.673 16.9412C105.838 15.7804 104.845 14.8597 103.753 14.2315C103.574 14.1283 103.393 14.0333 103.209 13.9466C101.711 13.2385 100.309 14.6232 100.309 16.28L100.309 25.78V35.28Z" stroke="black" stroke-opacity="0.2" stroke-width="2" mask="url(#path-16-inside-8_18_30)"/>
<rect x="40.5" y="72.5" width="63" height="38" rx="2.5" transform="rotate(-90 40.5 72.5)" fill="url(#paint5_radial_18_30)"/>
<rect x="40.5" y="72.5" width="63" height="38" rx="2.5" transform="rotate(-90 40.5 72.5)" stroke="white" stroke-width="3"/>
<rect x="76.5" y="70.5" width="34" height="59" transform="rotate(-180 76.5 70.5)" stroke="black"/>
<defs>
<linearGradient id="paint0_linear_18_30" x1="4" y1="41" x2="37.5" y2="41" gradientUnits="userSpaceOnUse">
<stop stop-color="#E9B58F"/>
<stop offset="1" stop-color="#534031"/>
</linearGradient>
<radialGradient id="paint1_radial_18_30" cx="0" cy="0" r="1" gradientUnits="userSpaceOnUse" gradientTransform="translate(91.3093 55.78) rotate(180) scale(10 12.5)">
<stop stop-color="#A97854"/>
<stop offset="1" stop-color="#785942"/>
</radialGradient>
<linearGradient id="paint2_linear_18_30" x1="101.309" y1="55.78" x2="108.309" y2="55.78" gradientUnits="userSpaceOnUse">
<stop stop-color="#B6845F"/>
<stop offset="1" stop-color="#534031"/>
</linearGradient>
<radialGradient id="paint3_radial_18_30" cx="0" cy="0" r="1" gradientUnits="userSpaceOnUse" gradientTransform="translate(91.3093 25.78) rotate(180) scale(10 12.5)">
<stop stop-color="#A97854"/>
<stop offset="1" stop-color="#785942"/>
</radialGradient>
<linearGradient id="paint4_linear_18_30" x1="101.309" y1="25.78" x2="108.309" y2="25.78" gradientUnits="userSpaceOnUse">
<stop stop-color="#B6845F"/>
<stop offset="1" stop-color="#534031"/>
</linearGradient>
<radialGradient id="paint5_radial_18_30" cx="0" cy="0" r="1" gradientUnits="userSpaceOnUse" gradientTransform="translate(72 88.5) rotate(90) scale(17.5 30)">
<stop stop-color="#FAE5B9"/>
<stop offset="1" stop-color="#E6BF9E"/>
</radialGradient>
</defs>
</svg>
