<svg width="99" height="99" viewBox="0 0 99 99" fill="none" xmlns="http://www.w3.org/2000/svg">
<mask id="path-1-inside-1_2_398" fill="white">
<path d="M41.5 28.5C39.2909 28.5 37.5 26.7091 37.5 24.5V12.5C37.5 10.2909 39.2909 8.5 41.5 8.5L58.5 8.5C60.7091 8.5 62.5 10.2909 62.5 12.5V24.5C62.5 26.7091 60.7091 28.5 58.5 28.5L41.5 28.5Z"/>
</mask>
<path d="M41.5 28.5C39.2909 28.5 37.5 26.7091 37.5 24.5V12.5C37.5 10.2909 39.2909 8.5 41.5 8.5L58.5 8.5C60.7091 8.5 62.5 10.2909 62.5 12.5V24.5C62.5 26.7091 60.7091 28.5 58.5 28.5L41.5 28.5Z" fill="url(#paint0_radial_2_398)"/>
<path d="M41.5 29.5C38.7386 29.5 36.5 27.2614 36.5 24.5V12.5C36.5 10.0147 38.5147 8 41 8L41.5 9C39.8431 9 38.5 10.567 38.5 12.5V24.5C38.5 26.1569 39.8431 27.5 41.5 27.5V29.5ZM59 8C61.4853 8 63.5 10.0147 63.5 12.5V24.5C63.5 27.2614 61.2614 29.5 58.5 29.5V27.5C60.1569 27.5 61.5 26.1569 61.5 24.5V12.5C61.5 10.567 60.1569 9 58.5 9L59 8ZM63.5 24.5C63.5 27.2614 61.2614 29.5 58.5 29.5L41.5 29.5C38.7386 29.5 36.5 27.2614 36.5 24.5H38.5C38.5 26.1569 39.8431 27.5 41.5 27.5L58.5 27.5C60.1569 27.5 61.5 26.1569 61.5 24.5H63.5ZM36.5 12.5C36.5 10.0147 38.5147 8 41 8L59 8C61.4853 8 63.5 10.0147 63.5 12.5H61.5C61.5 10.567 60.1569 9 58.5 9L41.5 9C39.8431 9 38.5 10.567 38.5 12.5H36.5Z" fill="black" mask="url(#path-1-inside-1_2_398)"/>
<mask id="path-3-inside-2_2_398" fill="white">
<path d="M59.5 9.5C61.1569 9.5 62.5415 8.09807 61.8334 6.60015C61.7467 6.4168 61.6517 6.23527 61.5485 6.05585C60.9203 4.96392 59.9996 3.97177 58.8388 3.13604C57.6781 2.30031 56.3001 1.63738 54.7835 1.18508C53.267 0.732792 51.6415 0.5 50 0.5C48.3585 0.5 46.733 0.732792 45.2165 1.18508C43.6999 1.63738 42.3219 2.30031 41.1612 3.13604C40.0004 3.97177 39.0797 4.96392 38.4515 6.05585C38.3483 6.23527 38.2533 6.4168 38.1666 6.60015C37.4585 8.09808 38.8431 9.5 40.5 9.5L50 9.5H59.5Z"/>
</mask>
<path d="M59.5 9.5C61.1569 9.5 62.5415 8.09807 61.8334 6.60015C61.7467 6.4168 61.6517 6.23527 61.5485 6.05585C60.9203 4.96392 59.9996 3.97177 58.8388 3.13604C57.6781 2.30031 56.3001 1.63738 54.7835 1.18508C53.267 0.732792 51.6415 0.5 50 0.5C48.3585 0.5 46.733 0.732792 45.2165 1.18508C43.6999 1.63738 42.3219 2.30031 41.1612 3.13604C40.0004 3.97177 39.0797 4.96392 38.4515 6.05585C38.3483 6.23527 38.2533 6.4168 38.1666 6.60015C37.4585 8.09808 38.8431 9.5 40.5 9.5L50 9.5H59.5Z" fill="url(#paint1_linear_2_398)" stroke="black" stroke-width="2" mask="url(#path-3-inside-2_2_398)"/>
<mask id="path-4-inside-3_2_398" fill="white">
<path d="M71.5 28.5C69.2909 28.5 67.5 26.7091 67.5 24.5V12.5C67.5 10.2909 69.2909 8.5 71.5 8.5L88.5 8.5C90.7091 8.5 92.5 10.2909 92.5 12.5V24.5C92.5 26.7091 90.7091 28.5 88.5 28.5L71.5 28.5Z"/>
</mask>
<path d="M71.5 28.5C69.2909 28.5 67.5 26.7091 67.5 24.5V12.5C67.5 10.2909 69.2909 8.5 71.5 8.5L88.5 8.5C90.7091 8.5 92.5 10.2909 92.5 12.5V24.5C92.5 26.7091 90.7091 28.5 88.5 28.5L71.5 28.5Z" fill="url(#paint2_radial_2_398)"/>
<path d="M71.5 29.5C68.7386 29.5 66.5 27.2614 66.5 24.5V12.5C66.5 10.0147 68.5147 8 71 8L71.5 9C69.8431 9 68.5 10.567 68.5 12.5V24.5C68.5 26.1569 69.8431 27.5 71.5 27.5V29.5ZM89 8C91.4853 8 93.5 10.0147 93.5 12.5V24.5C93.5 27.2614 91.2614 29.5 88.5 29.5V27.5C90.1569 27.5 91.5 26.1569 91.5 24.5V12.5C91.5 10.567 90.1569 9 88.5 9L89 8ZM93.5 24.5C93.5 27.2614 91.2614 29.5 88.5 29.5L71.5 29.5C68.7386 29.5 66.5 27.2614 66.5 24.5H68.5C68.5 26.1569 69.8431 27.5 71.5 27.5L88.5 27.5C90.1569 27.5 91.5 26.1569 91.5 24.5H93.5ZM66.5 12.5C66.5 10.0147 68.5147 8 71 8L89 8C91.4853 8 93.5 10.0147 93.5 12.5H91.5C91.5 10.567 90.1569 9 88.5 9L71.5 9C69.8431 9 68.5 10.567 68.5 12.5H66.5Z" fill="black" mask="url(#path-4-inside-3_2_398)"/>
<mask id="path-6-inside-4_2_398" fill="white">
<path d="M89.5 9.5C91.1569 9.5 92.5415 8.09807 91.8334 6.60015C91.7467 6.4168 91.6517 6.23527 91.5485 6.05585C90.9203 4.96392 89.9996 3.97177 88.8388 3.13604C87.6781 2.30031 86.3001 1.63738 84.7835 1.18508C83.267 0.732792 81.6415 0.5 80 0.5C78.3585 0.5 76.733 0.732792 75.2165 1.18508C73.6999 1.63738 72.3219 2.30031 71.1612 3.13604C70.0004 3.97177 69.0797 4.96392 68.4515 6.05585C68.3483 6.23527 68.2533 6.4168 68.1666 6.60015C67.4585 8.09808 68.8431 9.5 70.5 9.5L80 9.5H89.5Z"/>
</mask>
<path d="M89.5 9.5C91.1569 9.5 92.5415 8.09807 91.8334 6.60015C91.7467 6.4168 91.6517 6.23527 91.5485 6.05585C90.9203 4.96392 89.9996 3.97177 88.8388 3.13604C87.6781 2.30031 86.3001 1.63738 84.7835 1.18508C83.267 0.732792 81.6415 0.5 80 0.5C78.3585 0.5 76.733 0.732792 75.2165 1.18508C73.6999 1.63738 72.3219 2.30031 71.1612 3.13604C70.0004 3.97177 69.0797 4.96392 68.4515 6.05585C68.3483 6.23527 68.2533 6.4168 68.1666 6.60015C67.4585 8.09808 68.8431 9.5 70.5 9.5L80 9.5H89.5Z" fill="url(#paint3_linear_2_398)" stroke="black" stroke-width="2" mask="url(#path-6-inside-4_2_398)"/>
<mask id="path-7-inside-5_2_398" fill="white">
<path d="M11.5 28.5C9.29086 28.5 7.5 26.7091 7.5 24.5L7.5 12.5C7.5 10.2909 9.29086 8.5 11.5 8.5L28.5 8.5C30.7091 8.5 32.5 10.2909 32.5 12.5V24.5C32.5 26.7091 30.7091 28.5 28.5 28.5L11.5 28.5Z"/>
</mask>
<path d="M11.5 28.5C9.29086 28.5 7.5 26.7091 7.5 24.5L7.5 12.5C7.5 10.2909 9.29086 8.5 11.5 8.5L28.5 8.5C30.7091 8.5 32.5 10.2909 32.5 12.5V24.5C32.5 26.7091 30.7091 28.5 28.5 28.5L11.5 28.5Z" fill="url(#paint4_radial_2_398)"/>
<path d="M11.5 29.5C8.73858 29.5 6.5 27.2614 6.5 24.5L6.5 12.5C6.5 10.0147 8.51472 8 11 8L11.5 9C9.84315 9 8.5 10.567 8.5 12.5L8.5 24.5C8.5 26.1569 9.84315 27.5 11.5 27.5V29.5ZM29 8C31.4853 8 33.5 10.0147 33.5 12.5V24.5C33.5 27.2614 31.2614 29.5 28.5 29.5V27.5C30.1569 27.5 31.5 26.1569 31.5 24.5V12.5C31.5 10.567 30.1569 9 28.5 9L29 8ZM33.5 24.5C33.5 27.2614 31.2614 29.5 28.5 29.5L11.5 29.5C8.73858 29.5 6.5 27.2614 6.5 24.5H8.5C8.5 26.1569 9.84315 27.5 11.5 27.5L28.5 27.5C30.1569 27.5 31.5 26.1569 31.5 24.5H33.5ZM6.5 12.5C6.5 10.0147 8.51472 8 11 8L29 8C31.4853 8 33.5 10.0147 33.5 12.5H31.5C31.5 10.567 30.1569 9 28.5 9L11.5 9C9.84315 9 8.5 10.567 8.5 12.5H6.5Z" fill="black" mask="url(#path-7-inside-5_2_398)"/>
<mask id="path-9-inside-6_2_398" fill="white">
<path d="M29.5 9.5C31.1569 9.5 32.5415 8.09807 31.8334 6.60015C31.7467 6.4168 31.6517 6.23527 31.5485 6.05585C30.9203 4.96392 29.9996 3.97177 28.8388 3.13604C27.6781 2.30031 26.3001 1.63738 24.7835 1.18508C23.267 0.732792 21.6415 0.5 20 0.5C18.3585 0.5 16.733 0.732792 15.2165 1.18508C13.6999 1.63738 12.3219 2.30031 11.1612 3.13604C10.0004 3.97177 9.07969 4.96392 8.45151 6.05585C8.34829 6.23527 8.2533 6.4168 8.16663 6.60015C7.45853 8.09808 8.84315 9.5 10.5 9.5L20 9.5H29.5Z"/>
</mask>
<path d="M29.5 9.5C31.1569 9.5 32.5415 8.09807 31.8334 6.60015C31.7467 6.4168 31.6517 6.23527 31.5485 6.05585C30.9203 4.96392 29.9996 3.97177 28.8388 3.13604C27.6781 2.30031 26.3001 1.63738 24.7835 1.18508C23.267 0.732792 21.6415 0.5 20 0.5C18.3585 0.5 16.733 0.732792 15.2165 1.18508C13.6999 1.63738 12.3219 2.30031 11.1612 3.13604C10.0004 3.97177 9.07969 4.96392 8.45151 6.05585C8.34829 6.23527 8.2533 6.4168 8.16663 6.60015C7.45853 8.09808 8.84315 9.5 10.5 9.5L20 9.5H29.5Z" fill="url(#paint5_linear_2_398)" stroke="black" stroke-width="2" mask="url(#path-9-inside-6_2_398)"/>
<rect width="99" height="35" transform="translate(0 32)" fill="black"/>
<rect width="99" height="35" transform="translate(0 32)" fill="url(#paint6_radial_2_398)"/>
<rect x="0.5" y="66.5" width="34" height="98" transform="rotate(-90 0.5 66.5)" stroke="black"/>
<mask id="path-11-inside-7_2_398" fill="white">
<path d="M41.5 70.5C39.2909 70.5 37.5 72.2909 37.5 74.5V86.5C37.5 88.7091 39.2909 90.5 41.5 90.5H58.5C60.7091 90.5 62.5 88.7091 62.5 86.5V74.5C62.5 72.2909 60.7091 70.5 58.5 70.5H41.5Z"/>
</mask>
<path d="M41.5 70.5C39.2909 70.5 37.5 72.2909 37.5 74.5V86.5C37.5 88.7091 39.2909 90.5 41.5 90.5H58.5C60.7091 90.5 62.5 88.7091 62.5 86.5V74.5C62.5 72.2909 60.7091 70.5 58.5 70.5H41.5Z" fill="url(#paint7_radial_2_398)"/>
<path d="M41.5 69.5C38.7386 69.5 36.5 71.7386 36.5 74.5V86.5C36.5 88.9853 38.5147 91 41 91L41.5 90C39.8431 90 38.5 88.433 38.5 86.5V74.5C38.5 72.8431 39.8431 71.5 41.5 71.5V69.5ZM59 91C61.4853 91 63.5 88.9853 63.5 86.5V74.5C63.5 71.7386 61.2614 69.5 58.5 69.5V71.5C60.1569 71.5 61.5 72.8431 61.5 74.5V86.5C61.5 88.433 60.1569 90 58.5 90L59 91ZM63.5 74.5C63.5 71.7386 61.2614 69.5 58.5 69.5H41.5C38.7386 69.5 36.5 71.7386 36.5 74.5H38.5C38.5 72.8431 39.8431 71.5 41.5 71.5H58.5C60.1569 71.5 61.5 72.8431 61.5 74.5H63.5ZM36.5 86.5C36.5 88.9853 38.5147 91 41 91H59C61.4853 91 63.5 88.9853 63.5 86.5H61.5C61.5 88.433 60.1569 90 58.5 90H41.5C39.8431 90 38.5 88.433 38.5 86.5H36.5Z" fill="black" mask="url(#path-11-inside-7_2_398)"/>
<mask id="path-13-inside-8_2_398" fill="white">
<path d="M59.5 89.5C61.1569 89.5 62.5415 90.9019 61.8334 92.3998C61.7467 92.5832 61.6517 92.7647 61.5485 92.9442C60.9203 94.0361 59.9996 95.0282 58.8388 95.864C57.6781 96.6997 56.3001 97.3626 54.7835 97.8149C53.267 98.2672 51.6415 98.5 50 98.5C48.3585 98.5 46.733 98.2672 45.2165 97.8149C43.6999 97.3626 42.3219 96.6997 41.1612 95.864C40.0004 95.0282 39.0797 94.0361 38.4515 92.9442C38.3483 92.7647 38.2533 92.5832 38.1666 92.3998C37.4585 90.9019 38.8431 89.5 40.5 89.5L50 89.5H59.5Z"/>
</mask>
<path d="M59.5 89.5C61.1569 89.5 62.5415 90.9019 61.8334 92.3998C61.7467 92.5832 61.6517 92.7647 61.5485 92.9442C60.9203 94.0361 59.9996 95.0282 58.8388 95.864C57.6781 96.6997 56.3001 97.3626 54.7835 97.8149C53.267 98.2672 51.6415 98.5 50 98.5C48.3585 98.5 46.733 98.2672 45.2165 97.8149C43.6999 97.3626 42.3219 96.6997 41.1612 95.864C40.0004 95.0282 39.0797 94.0361 38.4515 92.9442C38.3483 92.7647 38.2533 92.5832 38.1666 92.3998C37.4585 90.9019 38.8431 89.5 40.5 89.5L50 89.5H59.5Z" fill="url(#paint8_linear_2_398)" stroke="black" stroke-width="2" mask="url(#path-13-inside-8_2_398)"/>
<mask id="path-14-inside-9_2_398" fill="white">
<path d="M11.5 70.5C9.29086 70.5 7.5 72.2909 7.5 74.5L7.5 86.5C7.5 88.7091 9.29086 90.5 11.5 90.5H28.5C30.7091 90.5 32.5 88.7091 32.5 86.5V74.5C32.5 72.2909 30.7091 70.5 28.5 70.5H11.5Z"/>
</mask>
<path d="M11.5 70.5C9.29086 70.5 7.5 72.2909 7.5 74.5L7.5 86.5C7.5 88.7091 9.29086 90.5 11.5 90.5H28.5C30.7091 90.5 32.5 88.7091 32.5 86.5V74.5C32.5 72.2909 30.7091 70.5 28.5 70.5H11.5Z" fill="url(#paint9_radial_2_398)"/>
<path d="M11.5 69.5C8.73858 69.5 6.5 71.7386 6.5 74.5L6.5 86.5C6.5 88.9853 8.51472 91 11 91L11.5 90C9.84315 90 8.5 88.433 8.5 86.5L8.5 74.5C8.5 72.8431 9.84315 71.5 11.5 71.5V69.5ZM29 91C31.4853 91 33.5 88.9853 33.5 86.5V74.5C33.5 71.7386 31.2614 69.5 28.5 69.5V71.5C30.1569 71.5 31.5 72.8431 31.5 74.5V86.5C31.5 88.433 30.1569 90 28.5 90L29 91ZM33.5 74.5C33.5 71.7386 31.2614 69.5 28.5 69.5H11.5C8.73858 69.5 6.5 71.7386 6.5 74.5H8.5C8.5 72.8431 9.84315 71.5 11.5 71.5H28.5C30.1569 71.5 31.5 72.8431 31.5 74.5H33.5ZM6.5 86.5C6.5 88.9853 8.51472 91 11 91H29C31.4853 91 33.5 88.9853 33.5 86.5H31.5C31.5 88.433 30.1569 90 28.5 90H11.5C9.84315 90 8.5 88.433 8.5 86.5H6.5Z" fill="black" mask="url(#path-14-inside-9_2_398)"/>
<mask id="path-16-inside-10_2_398" fill="white">
<path d="M29.5 89.5C31.1569 89.5 32.5415 90.9019 31.8334 92.3998C31.7467 92.5832 31.6517 92.7647 31.5485 92.9442C30.9203 94.0361 29.9996 95.0282 28.8388 95.864C27.6781 96.6997 26.3001 97.3626 24.7835 97.8149C23.267 98.2672 21.6415 98.5 20 98.5C18.3585 98.5 16.733 98.2672 15.2165 97.8149C13.6999 97.3626 12.3219 96.6997 11.1612 95.864C10.0004 95.0282 9.07969 94.0361 8.45151 92.9442C8.34829 92.7647 8.2533 92.5832 8.16663 92.3998C7.45853 90.9019 8.84315 89.5 10.5 89.5L20 89.5H29.5Z"/>
</mask>
<path d="M29.5 89.5C31.1569 89.5 32.5415 90.9019 31.8334 92.3998C31.7467 92.5832 31.6517 92.7647 31.5485 92.9442C30.9203 94.0361 29.9996 95.0282 28.8388 95.864C27.6781 96.6997 26.3001 97.3626 24.7835 97.8149C23.267 98.2672 21.6415 98.5 20 98.5C18.3585 98.5 16.733 98.2672 15.2165 97.8149C13.6999 97.3626 12.3219 96.6997 11.1612 95.864C10.0004 95.0282 9.07969 94.0361 8.45151 92.9442C8.34829 92.7647 8.2533 92.5832 8.16663 92.3998C7.45853 90.9019 8.84315 89.5 10.5 89.5L20 89.5H29.5Z" fill="url(#paint10_linear_2_398)" stroke="black" stroke-width="2" mask="url(#path-16-inside-10_2_398)"/>
<mask id="path-17-inside-11_2_398" fill="white">
<path d="M71.5 70.5C69.2909 70.5 67.5 72.2909 67.5 74.5V86.5C67.5 88.7091 69.2909 90.5 71.5 90.5H88.5C90.7091 90.5 92.5 88.7091 92.5 86.5V74.5C92.5 72.2909 90.7091 70.5 88.5 70.5H71.5Z"/>
</mask>
<path d="M71.5 70.5C69.2909 70.5 67.5 72.2909 67.5 74.5V86.5C67.5 88.7091 69.2909 90.5 71.5 90.5H88.5C90.7091 90.5 92.5 88.7091 92.5 86.5V74.5C92.5 72.2909 90.7091 70.5 88.5 70.5H71.5Z" fill="url(#paint11_radial_2_398)"/>
<path d="M71.5 69.5C68.7386 69.5 66.5 71.7386 66.5 74.5V86.5C66.5 88.9853 68.5147 91 71 91L71.5 90C69.8431 90 68.5 88.433 68.5 86.5V74.5C68.5 72.8431 69.8431 71.5 71.5 71.5V69.5ZM89 91C91.4853 91 93.5 88.9853 93.5 86.5V74.5C93.5 71.7386 91.2614 69.5 88.5 69.5V71.5C90.1569 71.5 91.5 72.8431 91.5 74.5V86.5C91.5 88.433 90.1569 90 88.5 90L89 91ZM93.5 74.5C93.5 71.7386 91.2614 69.5 88.5 69.5H71.5C68.7386 69.5 66.5 71.7386 66.5 74.5H68.5C68.5 72.8431 69.8431 71.5 71.5 71.5H88.5C90.1569 71.5 91.5 72.8431 91.5 74.5H93.5ZM66.5 86.5C66.5 88.9853 68.5147 91 71 91H89C91.4853 91 93.5 88.9853 93.5 86.5H91.5C91.5 88.433 90.1569 90 88.5 90H71.5C69.8431 90 68.5 88.433 68.5 86.5H66.5Z" fill="black" mask="url(#path-17-inside-11_2_398)"/>
<mask id="path-19-inside-12_2_398" fill="white">
<path d="M89.5 89.5C91.1569 89.5 92.5415 90.9019 91.8334 92.3998C91.7467 92.5832 91.6517 92.7647 91.5485 92.9442C90.9203 94.0361 89.9996 95.0282 88.8388 95.864C87.6781 96.6997 86.3001 97.3626 84.7835 97.8149C83.267 98.2672 81.6415 98.5 80 98.5C78.3585 98.5 76.733 98.2672 75.2165 97.8149C73.6999 97.3626 72.3219 96.6997 71.1612 95.864C70.0004 95.0282 69.0797 94.0361 68.4515 92.9442C68.3483 92.7647 68.2533 92.5832 68.1666 92.3998C67.4585 90.9019 68.8431 89.5 70.5 89.5L80 89.5H89.5Z"/>
</mask>
<path d="M89.5 89.5C91.1569 89.5 92.5415 90.9019 91.8334 92.3998C91.7467 92.5832 91.6517 92.7647 91.5485 92.9442C90.9203 94.0361 89.9996 95.0282 88.8388 95.864C87.6781 96.6997 86.3001 97.3626 84.7835 97.8149C83.267 98.2672 81.6415 98.5 80 98.5C78.3585 98.5 76.733 98.2672 75.2165 97.8149C73.6999 97.3626 72.3219 96.6997 71.1612 95.864C70.0004 95.0282 69.0797 94.0361 68.4515 92.9442C68.3483 92.7647 68.2533 92.5832 68.1666 92.3998C67.4585 90.9019 68.8431 89.5 70.5 89.5L80 89.5H89.5Z" fill="url(#paint12_linear_2_398)" stroke="black" stroke-width="2" mask="url(#path-19-inside-12_2_398)"/>
<defs>
<radialGradient id="paint0_radial_2_398" cx="0" cy="0" r="1" gradientUnits="userSpaceOnUse" gradientTransform="translate(50 18.5) rotate(90) scale(10 12.5)">
<stop stop-color="#A97854"/>
<stop offset="1" stop-color="#785942"/>
</radialGradient>
<linearGradient id="paint1_linear_2_398" x1="50" y1="8.5" x2="50" y2="1.5" gradientUnits="userSpaceOnUse">
<stop stop-color="#B6845F"/>
<stop offset="1" stop-color="#534031"/>
</linearGradient>
<radialGradient id="paint2_radial_2_398" cx="0" cy="0" r="1" gradientUnits="userSpaceOnUse" gradientTransform="translate(80 18.5) rotate(90) scale(10 12.5)">
<stop stop-color="#A97854"/>
<stop offset="1" stop-color="#785942"/>
</radialGradient>
<linearGradient id="paint3_linear_2_398" x1="80" y1="8.5" x2="80" y2="1.5" gradientUnits="userSpaceOnUse">
<stop stop-color="#B6845F"/>
<stop offset="1" stop-color="#534031"/>
</linearGradient>
<radialGradient id="paint4_radial_2_398" cx="0" cy="0" r="1" gradientUnits="userSpaceOnUse" gradientTransform="translate(20 18.5) rotate(90) scale(10 12.5)">
<stop stop-color="#A97854"/>
<stop offset="1" stop-color="#785942"/>
</radialGradient>
<linearGradient id="paint5_linear_2_398" x1="20" y1="8.5" x2="20" y2="1.5" gradientUnits="userSpaceOnUse">
<stop stop-color="#B6845F"/>
<stop offset="1" stop-color="#534031"/>
</linearGradient>
<radialGradient id="paint6_radial_2_398" cx="0" cy="0" r="1" gradientUnits="userSpaceOnUse" gradientTransform="translate(49.5 17.5) rotate(90) scale(17.5 49.5)">
<stop stop-color="#FAE5B9"/>
<stop offset="1" stop-color="#E6BF9E"/>
</radialGradient>
<radialGradient id="paint7_radial_2_398" cx="0" cy="0" r="1" gradientUnits="userSpaceOnUse" gradientTransform="translate(50 80.5) rotate(-90) scale(10 12.5)">
<stop stop-color="#A97854"/>
<stop offset="1" stop-color="#785942"/>
</radialGradient>
<linearGradient id="paint8_linear_2_398" x1="50" y1="90.5" x2="50" y2="97.5" gradientUnits="userSpaceOnUse">
<stop stop-color="#B6845F"/>
<stop offset="1" stop-color="#534031"/>
</linearGradient>
<radialGradient id="paint9_radial_2_398" cx="0" cy="0" r="1" gradientUnits="userSpaceOnUse" gradientTransform="translate(20 80.5) rotate(-90) scale(10 12.5)">
<stop stop-color="#A97854"/>
<stop offset="1" stop-color="#785942"/>
</radialGradient>
<linearGradient id="paint10_linear_2_398" x1="20" y1="90.5" x2="20" y2="97.5" gradientUnits="userSpaceOnUse">
<stop stop-color="#B6845F"/>
<stop offset="1" stop-color="#534031"/>
</linearGradient>
<radialGradient id="paint11_radial_2_398" cx="0" cy="0" r="1" gradientUnits="userSpaceOnUse" gradientTransform="translate(80 80.5) rotate(-90) scale(10 12.5)">
<stop stop-color="#A97854"/>
<stop offset="1" stop-color="#785942"/>
</radialGradient>
<linearGradient id="paint12_linear_2_398" x1="80" y1="90.5" x2="80" y2="97.5" gradientUnits="userSpaceOnUse">
<stop stop-color="#B6845F"/>
<stop offset="1" stop-color="#534031"/>
</linearGradient>
</defs>
</svg>
