<svg width="36" height="32" viewBox="0 0 36 32" fill="none" xmlns="http://www.w3.org/2000/svg">
<path d="M12.4986 0.581543C13.0351 0.581543 13.47 1.06452 13.47 1.66031L13.4697 3.67915H23.9008L23.901 1.6734C23.901 1.07762 24.3359 0.594636 24.8724 0.594636C25.4089 0.594636 25.8438 1.07762 25.8438 1.6734L25.8436 3.67915L29.6042 3.67918C31.137 3.67918 32.3795 5.05912 32.3795 6.76136V28.3367C32.3795 30.0389 31.137 31.4188 29.6042 31.4188H7.40133C5.86855 31.4188 4.62598 30.0389 4.62598 28.3367V6.76136C4.62598 5.05912 5.86855 3.67918 7.40133 3.67918L11.5269 3.67915L11.5273 1.66031C11.5273 1.06452 11.9622 0.581543 12.4986 0.581543ZM6.56873 12.5187V28.3367C6.56873 28.8473 6.9415 29.2613 7.40133 29.2613H29.6042C30.064 29.2613 30.4368 28.8473 30.4368 28.3367V12.5402L6.56873 12.5187ZM13.8772 23.1215V25.6905H11.5644V23.1215H13.8772ZM19.6592 23.1215V25.6905H17.3464V23.1215H19.6592ZM25.4412 23.1215V25.6905H23.1284V23.1215H25.4412ZM13.8772 16.9897V19.5586H11.5644V16.9897H13.8772ZM19.6592 16.9897V19.5586H17.3464V16.9897H19.6592ZM25.4412 16.9897V19.5586H23.1284V16.9897H25.4412ZM11.5269 5.83622L7.40133 5.83671C6.9415 5.83671 6.56873 6.25069 6.56873 6.76136V10.3616L30.4368 10.3832V6.76136C30.4368 6.25069 30.064 5.83671 29.6042 5.83671L25.8436 5.83622L25.8438 7.26857C25.8438 7.86436 25.4089 8.34734 24.8724 8.34734C24.3359 8.34734 23.901 7.86436 23.901 7.26857L23.9008 5.83622H13.4697L13.47 7.25548C13.47 7.85126 13.0351 8.33424 12.4986 8.33424C11.9622 8.33424 11.5273 7.85126 11.5273 7.25548L11.5269 5.83622Z" fill="white"/>
</svg>
