<svg width="30" height="30" viewBox="0 0 30 30" fill="none" xmlns="http://www.w3.org/2000/svg">
<g clip-path="url(#clip0_83_2681)">
<path d="M14.9998 26.0869C14.6398 26.0869 14.3477 26.3791 14.3477 26.7391C14.3477 27.0991 14.6398 27.3912 14.9998 27.3912C15.3598 27.3912 15.652 27.099 15.652 26.739C15.652 26.379 15.3598 26.0869 14.9998 26.0869Z" fill="white"/>
<path d="M14.9998 3.91321C15.3598 3.91321 15.652 3.62108 15.652 3.26108C15.652 2.90108 15.3598 2.60889 14.9998 2.60889C14.6398 2.60889 14.3477 2.90108 14.3477 3.26108C14.3477 3.62108 14.6398 3.91321 14.9998 3.91321Z" fill="white"/>
<path d="M3.26059 14.3477C2.90059 14.3477 2.6084 14.6398 2.6084 14.9998C2.6084 15.3598 2.90059 15.652 3.26059 15.652C3.62059 15.652 3.91279 15.3598 3.91279 14.9998C3.91279 14.6398 3.62065 14.3477 3.26059 14.3477Z" fill="white"/>
<path d="M15 0C6.72915 0 0 6.72908 0 15C0 23.271 6.72908 30 15 30C23.2709 30 29.9999 23.2709 29.9999 15C29.9999 6.72915 23.2709 0 15 0ZM15 28.6956C7.4478 28.6956 1.30433 22.5521 1.30433 15C1.30433 7.4478 7.4478 1.30433 15 1.30433C22.5521 1.30433 28.6956 7.4478 28.6956 15C28.6956 22.5521 22.5522 28.6956 15 28.6956Z" fill="white"/>
<path d="M15.0004 13.0437C14.7982 13.0437 14.6064 13.0828 14.4225 13.1402L12.2625 10.2614C12.0447 9.97188 11.6364 9.91575 11.3495 10.131C11.0612 10.3476 11.0026 10.7558 11.2177 11.0441L13.3725 13.9176C13.2838 14.0493 13.2173 14.1967 13.1638 14.348H5.86997C5.50997 14.348 5.21777 14.6402 5.21777 15.0002C5.21777 15.3602 5.50997 15.6523 5.86997 15.6523H13.1639C13.4339 16.4101 14.1512 16.9567 15.0004 16.9567C16.0791 16.9567 16.9569 16.0789 16.9569 15.0001C16.9569 13.9214 16.0791 13.0437 15.0004 13.0437ZM15.0004 15.6523C14.6417 15.6523 14.3482 15.3602 14.3482 15.0002C14.3482 14.6402 14.6417 14.348 15.0004 14.348C15.3591 14.348 15.6526 14.6402 15.6526 15.0002C15.6526 15.3602 15.3591 15.6523 15.0004 15.6523Z" fill="white"/>
<path d="M26.7391 14.3477C26.3791 14.3477 26.0869 14.6398 26.0869 14.9998C26.0869 15.3598 26.3791 15.652 26.7391 15.652C27.0991 15.652 27.3913 15.3598 27.3913 14.9998C27.3913 14.6398 27.0991 14.3477 26.7391 14.3477Z" fill="white"/>
</g>
<defs>
<clipPath id="clip0_83_2681">
<rect width="30" height="30" fill="white"/>
</clipPath>
</defs>
</svg>
