<svg width="1363" height="588" viewBox="0 0 1363 588" fill="none" xmlns="http://www.w3.org/2000/svg">
<mask id="path-1-inside-1_83_2559" fill="white">
<path fill-rule="evenodd" clip-rule="evenodd" d="M22.9327 0V0.000169754H0.000493098V23H0L1.00239e-06 0H22.9327ZM1363 0.000169754V588H0.000493098V23C3.01189 22.9999 5.99379 22.405 8.77596 21.2492C11.5583 20.0934 14.0864 18.3992 16.2159 16.2635C18.3454 14.1277 20.0346 11.5922 21.1871 8.80172C22.3395 6.01128 22.9327 3.02052 22.9327 0.000169754H1340.07C1340.07 3.02051 1340.66 6.01128 1341.81 8.80172C1342.97 11.5922 1344.65 14.1277 1346.78 16.2635C1348.91 18.3992 1351.44 20.0934 1354.22 21.2492C1357.01 22.4051 1359.99 23 1363 23L1363 0.000169754ZM1363 0.000169754H1340.07C1340.07 0.000113169 1340.07 5.65847e-05 1340.07 0H1363L1363 0.000169754ZM8.77696 566.751C5.99463 565.595 3.01256 565 0.000990916 565V588H22.9337C22.9337 584.98 22.3405 581.989 21.188 579.198C20.0356 576.408 18.3464 573.872 16.2169 571.737C14.0874 569.601 11.5593 567.907 8.77696 566.751ZM1340.07 588C1340.07 584.98 1340.66 581.989 1341.81 579.198C1342.97 576.408 1344.65 573.872 1346.78 571.737C1348.91 569.601 1351.44 567.907 1354.22 566.751C1357.01 565.595 1359.99 565 1363 565V588H1340.07Z"/>
</mask>
<path d="M22.9327 0H23.9327V-1H22.9327V0ZM0.000493098 0.000169754V-0.99983H-0.999507V0.000169754H0.000493098ZM0 23H-1V24H0V23ZM1.00239e-06 0V-1H-0.999999L-0.999999 -4.35824e-08L1.00239e-06 0ZM1363 588V589H1364V588H1363ZM1363 0.000169754H1364V-0.710883L1363.33 -0.944377L1363 0.000169754ZM0.000493098 588H-0.999507V589H0.000493098V588ZM8.77596 21.2492L8.39232 20.3257L8.77596 21.2492ZM16.2159 16.2635L15.5077 15.5574L16.2159 16.2635ZM21.1871 8.80172L22.1113 9.18345L21.1871 8.80172ZM1341.81 8.80172L1342.74 8.41999V8.41999L1341.81 8.80172ZM1346.78 16.2635L1346.08 16.9695L1346.78 16.2635ZM1354.22 21.2492L1354.61 20.3258V20.3257L1354.22 21.2492ZM1363 23V24H1364V23L1363 23ZM1340.07 0V-1H1339.07V0H1340.07ZM1363 0L1363.33 -0.944547L1363.17 -1H1363V0ZM0.000990916 565V564H-0.999009V565H0.000990916ZM8.77696 566.751L8.39331 567.674H8.39332L8.77696 566.751ZM0.000990916 588H-0.999009V589H0.000990916V588ZM22.9337 588V589H23.9337V588H22.9337ZM21.188 579.198L20.2638 579.58H20.2638L21.188 579.198ZM16.2169 571.737L15.5087 572.443H15.5087L16.2169 571.737ZM1341.81 579.198L1342.74 579.58L1341.81 579.198ZM1340.07 588H1339.07V589H1340.07V588ZM1346.78 571.737L1347.49 572.443L1346.78 571.737ZM1354.22 566.751L1354.61 567.674L1354.22 566.751ZM1363 565H1364V564H1363V565ZM1363 588V589H1364V588H1363ZM23.9327 0.000169754V0H21.9327V0.000169754H23.9327ZM22.9327 -0.99983H0.000493098V1.00017H22.9327V-0.99983ZM-0.999507 0.000169754V23H1.00049V0.000169754H-0.999507ZM0 24H0.000493098V22H0V24ZM-0.999999 -4.35824e-08L-1 23H1L1 4.35824e-08L-0.999999 -4.35824e-08ZM22.9327 -1H1.00239e-06V1H22.9327V-1ZM1364 588V0.000169754H1362V588H1364ZM0.000493098 589H1363V587H0.000493098V589ZM-0.999507 23V588H1.00049V23H-0.999507ZM0.000514633 24C3.14363 23.9999 6.2559 23.379 9.15961 22.1727L8.39232 20.3257C5.73169 21.4311 2.88015 21.9999 0.000471564 22L0.000514633 24ZM9.15961 22.1727C12.0635 20.9664 14.7018 19.1983 16.924 16.9695L15.5077 15.5574C13.471 17.6001 11.0531 19.2204 8.39232 20.3257L9.15961 22.1727ZM16.924 16.9695C19.1462 14.7408 20.9088 12.095 22.1113 9.18345L20.2628 8.41999C19.1603 11.0894 17.5445 13.5146 15.5077 15.5574L16.924 16.9695ZM22.1113 9.18345C23.3138 6.2719 23.9327 3.15144 23.9327 0.000177332L21.9327 0.000162176C21.9327 2.88959 21.3652 5.75066 20.2628 8.41999L22.1113 9.18345ZM1340.07 -0.99983H22.9327V1.00017H1340.07V-0.99983ZM1342.74 8.41999C1341.63 5.75067 1341.07 2.8896 1341.07 0.000169754H1339.07C1339.07 3.15143 1339.69 6.2719 1340.89 9.18345L1342.74 8.41999ZM1347.49 15.5574C1345.46 13.5146 1343.84 11.0894 1342.74 8.41999L1340.89 9.18344C1342.09 12.095 1343.85 14.7408 1346.08 16.9695L1347.49 15.5574ZM1354.61 20.3257C1351.95 19.2204 1349.53 17.6001 1347.49 15.5574L1346.08 16.9695C1348.3 19.1983 1350.94 20.9664 1353.84 22.1727L1354.61 20.3257ZM1363 22C1360.12 22 1357.27 21.4311 1354.61 20.3258L1353.84 22.1727C1356.74 23.3791 1359.86 24 1363 24V22ZM1362 0.000148524L1362 23L1364 23L1364 0.000190984L1362 0.000148524ZM1363 -0.99983H1340.07V1.00017H1363V-0.99983ZM1341.07 0.000169754C1341.07 0.000169644 1341.07 0.000169533 1341.07 0.000169422C1341.07 0.000169312 1341.07 0.000169201 1341.07 0.000169091C1341.07 0.00016898 1341.07 0.00016887 1341.07 0.000168759C1341.07 0.000168649 1341.07 0.000168538 1341.07 0.000168428C1341.07 0.000168317 1341.07 0.000168207 1341.07 0.000168096C1341.07 0.000167986 1341.07 0.000167875 1341.07 0.000167765C1341.07 0.000167654 1341.07 0.000167544 1341.07 0.000167433C1341.07 0.000167323 1341.07 0.000167212 1341.07 0.000167102C1341.07 0.000166991 1341.07 0.000166881 1341.07 0.00016677C1341.07 0.00016666 1341.07 0.000166549 1341.07 0.000166439C1341.07 0.000166328 1341.07 0.000166217 1341.07 0.000166107C1341.07 0.000165996 1341.07 0.000165886 1341.07 0.000165775C1341.07 0.000165665 1341.07 0.000165554 1341.07 0.000165444C1341.07 0.000165333 1341.07 0.000165223 1341.07 0.000165112C1341.07 0.000165002 1341.07 0.000164891 1341.07 0.000164781C1341.07 0.00016467 1341.07 0.00016456 1341.07 0.000164449C1341.07 0.000164339 1341.07 0.000164228 1341.07 0.000164118C1341.07 0.000164007 1341.07 0.000163897 1341.07 0.000163786C1341.07 0.000163676 1341.07 0.000163565 1341.07 0.000163455C1341.07 0.000163344 1341.07 0.000163234 1341.07 0.000163123C1341.07 0.000163012 1341.07 0.000162902 1341.07 0.000162791C1341.07 0.000162681 1341.07 0.00016257 1341.07 0.00016246C1341.07 0.000162349 1341.07 0.000162239 1341.07 0.000162128C1341.07 0.000162018 1341.07 0.000161907 1341.07 0.000161797C1341.07 0.000161686 1341.07 0.000161576 1341.07 0.000161465C1341.07 0.000161355 1341.07 0.000161244 1341.07 0.000161134C1341.07 0.000161023 1341.07 0.000160913 1341.07 0.000160802C1341.07 0.000160692 1341.07 0.000160581 1341.07 0.000160471C1341.07 0.00016036 1341.07 0.00016025 1341.07 0.000160139C1341.07 0.000160029 1341.07 0.000159918 1341.07 0.000159808C1341.07 0.000159697 1341.07 0.000159586 1341.07 0.000159476C1341.07 0.000159365 1341.07 0.000159255 1341.07 0.000159144C1341.07 0.000159034 1341.07 0.000158923 1341.07 0.000158813C1341.07 0.000158702 1341.07 0.000158592 1341.07 0.000158481C1341.07 0.000158371 1341.07 0.00015826 1341.07 0.00015815C1341.07 0.000158039 1341.07 0.000157929 1341.07 0.000157818C1341.07 0.000157708 1341.07 0.000157597 1341.07 0.000157487C1341.07 0.000157376 1341.07 0.000157266 1341.07 0.000157155C1341.07 0.000157045 1341.07 0.000156934 1341.07 0.000156824C1341.07 0.000156713 1341.07 0.000156603 1341.07 0.000156492C1341.07 0.000156381 1341.07 0.000156271 1341.07 0.00015616C1341.07 0.00015605 1341.07 0.000155939 1341.07 0.000155829C1341.07 0.000155718 1341.07 0.000155608 1341.07 0.000155497C1341.07 0.000155387 1341.07 0.000155276 1341.07 0.000155166C1341.07 0.000155055 1341.07 0.000154945 1341.07 0.000154834C1341.07 0.000154724 1341.07 0.000154613 1341.07 0.000154503C1341.07 0.000154392 1341.07 0.000154282 1341.07 0.000154171C1341.07 0.000154061 1341.07 0.00015395 1341.07 0.00015384C1341.07 0.000153729 1341.07 0.000153619 1341.07 0.000153508C1341.07 0.000153398 1341.07 0.000153287 1341.07 0.000153176C1341.07 0.000153066 1341.07 0.000152955 1341.07 0.000152845C1341.07 0.000152734 1341.07 0.000152624 1341.07 0.000152513C1341.07 0.000152403 1341.07 0.000152292 1341.07 0.000152182C1341.07 0.000152071 1341.07 0.000151961 1341.07 0.00015185C1341.07 0.00015174 1341.07 0.000151629 1341.07 0.000151519C1341.07 0.000151408 1341.07 0.000151298 1341.07 0.000151187C1341.07 0.000151077 1341.07 0.000150966 1341.07 0.000150856C1341.07 0.000150745 1341.07 0.000150635 1341.07 0.000150524C1341.07 0.000150414 1341.07 0.000150303 1341.07 0.000150193C1341.07 0.000150082 1341.07 0.000149971 1341.07 0.000149861C1341.07 0.00014975 1341.07 0.00014964 1341.07 0.000149529C1341.07 0.000149419 1341.07 0.000149308 1341.07 0.000149198C1341.07 0.000149087 1341.07 0.000148977 1341.07 0.000148866C1341.07 0.000148756 1341.07 0.000148645 1341.07 0.000148535C1341.07 0.000148424 1341.07 0.000148314 1341.07 0.000148203C1341.07 0.000148093 1341.07 0.000147982 1341.07 0.000147872C1341.07 0.000147761 1341.07 0.000147651 1341.07 0.00014754C1341.07 0.00014743 1341.07 0.000147319 1341.07 0.000147209C1341.07 0.000147098 1341.07 0.000146988 1341.07 0.000146877C1341.07 0.000146767 1341.07 0.000146656 1341.07 0.000146545C1341.07 0.000146435 1341.07 0.000146324 1341.07 0.000146214C1341.07 0.000146103 1341.07 0.000145993 1341.07 0.000145882C1341.07 0.000145772 1341.07 0.000145661 1341.07 0.000145551C1341.07 0.00014544 1341.07 0.00014533 1341.07 0.000145219C1341.07 0.000145109 1341.07 0.000144998 1341.07 0.000144888C1341.07 0.000144777 1341.07 0.000144667 1341.07 0.000144556C1341.07 0.000144446 1341.07 0.000144335 1341.07 0.000144225C1341.07 0.000144114 1341.07 0.000144004 1341.07 0.000143893C1341.07 0.000143783 1341.07 0.000143672 1341.07 0.000143562C1341.07 0.000143451 1341.07 0.00014334 1341.07 0.00014323C1341.07 0.000143119 1341.07 0.000143009 1341.07 0.000142898C1341.07 0.000142788 1341.07 0.000142677 1341.07 0.000142567C1341.07 0.000142456 1341.07 0.000142346 1341.07 0.000142235C1341.07 0.000142125 1341.07 0.000142014 1341.07 0.000141904C1341.07 0.000141793 1341.07 0.000141683 1341.07 0.000141572C1341.07 0.000141462 1341.07 0.000141351 1341.07 0.000141241C1341.07 0.00014113 1341.07 0.00014102 1341.07 0.000140909C1341.07 0.000140799 1341.07 0.000140688 1341.07 0.000140578C1341.07 0.000140467 1341.07 0.000140357 1341.07 0.000140246C1341.07 0.000140135 1341.07 0.000140025 1341.07 0.000139914C1341.07 0.000139804 1341.07 0.000139693 1341.07 0.000139583C1341.07 0.000139472 1341.07 0.000139362 1341.07 0.000139251C1341.07 0.000139141 1341.07 0.00013903 1341.07 0.00013892C1341.07 0.000138809 1341.07 0.000138699 1341.07 0.000138588C1341.07 0.000138478 1341.07 0.000138367 1341.07 0.000138257C1341.07 0.000138146 1341.07 0.000138036 1341.07 0.000137925C1341.07 0.000137815 1341.07 0.000137704 1341.07 0.000137594C1341.07 0.000137483 1341.07 0.000137373 1341.07 0.000137262C1341.07 0.000137152 1341.07 0.000137041 1341.07 0.00013693C1341.07 0.00013682 1341.07 0.000136709 1341.07 0.000136599C1341.07 0.000136488 1341.07 0.000136378 1341.07 0.000136267C1341.07 0.000136157 1341.07 0.000136046 1341.07 0.000135936C1341.07 0.000135825 1341.07 0.000135715 1341.07 0.000135604C1341.07 0.000135494 1341.07 0.000135383 1341.07 0.000135273C1341.07 0.000135162 1341.07 0.000135052 1341.07 0.000134941C1341.07 0.000134831 1341.07 0.00013472 1341.07 0.00013461C1341.07 0.000134499 1341.07 0.000134389 1341.07 0.000134278C1341.07 0.000134168 1341.07 0.000134057 1341.07 0.000133947C1341.07 0.000133836 1341.07 0.000133726 1341.07 0.000133615C1341.07 0.000133504 1341.07 0.000133394 1341.07 0.000133283C1341.07 0.000133173 1341.07 0.000133062 1341.07 0.000132952C1341.07 0.000132841 1341.07 0.000132731 1341.07 0.00013262C1341.07 0.00013251 1341.07 0.000132399 1341.07 0.000132289C1341.07 0.000132178 1341.07 0.000132068 1341.07 0.000131957C1341.07 0.000131847 1341.07 0.000131736 1341.07 0.000131626C1341.07 0.000131515 1341.07 0.000131405 1341.07 0.000131294C1341.07 0.000131184 1341.07 0.000131073 1341.07 0.000130963C1341.07 0.000130852 1341.07 0.000130742 1341.07 0.000130631C1341.07 0.000130521 1341.07 0.00013041 1341.07 0.000130299C1341.07 0.000130189 1341.07 0.000130078 1341.07 0.000129968C1341.07 0.000129857 1341.07 0.000129747 1341.07 0.000129636C1341.07 0.000129526 1341.07 0.000129415 1341.07 0.000129305C1341.07 0.000129194 1341.07 0.000129084 1341.07 0.000128973C1341.07 0.000128863 1341.07 0.000128752 1341.07 0.000128642C1341.07 0.000128531 1341.07 0.000128421 1341.07 0.00012831C1341.07 0.0001282 1341.07 0.000128089 1341.07 0.000127979C1341.07 0.000127868 1341.07 0.000127758 1341.07 0.000127647C1341.07 0.000127537 1341.07 0.000127426 1341.07 0.000127316C1341.07 0.000127205 1341.07 0.000127094 1341.07 0.000126984C1341.07 0.000126873 1341.07 0.000126763 1341.07 0.000126652C1341.07 0.000126542 1341.07 0.000126431 1341.07 0.000126321C1341.07 0.00012621 1341.07 0.0001261 1341.07 0.000125989C1341.07 0.000125879 1341.07 0.000125768 1341.07 0.000125658C1341.07 0.000125547 1341.07 0.000125437 1341.07 0.000125326C1341.07 0.000125216 1341.07 0.000125105 1341.07 0.000124995C1341.07 0.000124884 1341.07 0.000124774 1341.07 0.000124663C1341.07 0.000124553 1341.07 0.000124442 1341.07 0.000124332C1341.07 0.000124221 1341.07 0.000124111 1341.07 0.000124C1341.07 0.00012389 1341.07 0.000123779 1341.07 0.000123668C1341.07 0.000123558 1341.07 0.000123447 1341.07 0.000123337C1341.07 0.000123226 1341.07 0.000123116 1341.07 0.000123005C1341.07 0.000122895 1341.07 0.000122784 1341.07 0.000122674C1341.07 0.000122563 1341.07 0.000122453 1341.07 0.000122342C1341.07 0.000122232 1341.07 0.000122121 1341.07 0.000122011C1341.07 0.0001219 1341.07 0.00012179 1341.07 0.000121679C1341.07 0.000121569 1341.07 0.000121458 1341.07 0.000121348C1341.07 0.000121237 1341.07 0.000121127 1341.07 0.000121016C1341.07 0.000120906 1341.07 0.000120795 1341.07 0.000120685C1341.07 0.000120574 1341.07 0.000120463 1341.07 0.000120353C1341.07 0.000120242 1341.07 0.000120132 1341.07 0.000120021C1341.07 0.000119911 1341.07 0.0001198 1341.07 0.00011969C1341.07 0.000119579 1341.07 0.000119469 1341.07 0.000119358C1341.07 0.000119248 1341.07 0.000119137 1341.07 0.000119027C1341.07 0.000118916 1341.07 0.000118806 1341.07 0.000118695C1341.07 0.000118585 1341.07 0.000118474 1341.07 0.000118364C1341.07 0.000118253 1341.07 0.000118143 1341.07 0.000118032C1341.07 0.000117922 1341.07 0.000117811 1341.07 0.000117701C1341.07 0.00011759 1341.07 0.00011748 1341.07 0.000117369C1341.07 0.000117258 1341.07 0.000117148 1341.07 0.000117037C1341.07 0.000116927 1341.07 0.000116816 1341.07 0.000116706C1341.07 0.000116595 1341.07 0.000116485 1341.07 0.000116374C1341.07 0.000116264 1341.07 0.000116153 1341.07 0.000116043C1341.07 0.000115932 1341.07 0.000115822 1341.07 0.000115711C1341.07 0.000115601 1341.07 0.00011549 1341.07 0.00011538C1341.07 0.000115269 1341.07 0.000115159 1341.07 0.000115048C1341.07 0.000114938 1341.07 0.000114827 1341.07 0.000114717C1341.07 0.000114606 1341.07 0.000114496 1341.07 0.000114385C1341.07 0.000114275 1341.07 0.000114164 1341.07 0.000114053C1341.07 0.000113943 1341.07 0.000113832 1341.07 0.000113722C1341.07 0.000113611 1341.07 0.000113501 1341.07 0.00011339C1341.07 0.00011328 1341.07 0.000113169 1341.07 0.000113059C1341.07 0.000112948 1341.07 0.000112838 1341.07 0.000112727C1341.07 0.000112617 1341.07 0.000112506 1341.07 0.000112396C1341.07 0.000112285 1341.07 0.000112175 1341.07 0.000112064C1341.07 0.000111954 1341.07 0.000111843 1341.07 0.000111733C1341.07 0.000111622 1341.07 0.000111512 1341.07 0.000111401C1341.07 0.000111291 1341.07 0.00011118 1341.07 0.00011107C1341.07 0.000110959 1341.07 0.000110849 1341.07 0.000110738C1341.07 0.000110627 1341.07 0.000110517 1341.07 0.000110406C1341.07 0.000110296 1341.07 0.000110185 1341.07 0.000110075C1341.07 0.000109964 1341.07 0.000109854 1341.07 0.000109743C1341.07 0.000109633 1341.07 0.000109522 1341.07 0.000109412C1341.07 0.000109301 1341.07 0.000109191 1341.07 0.00010908C1341.07 0.00010897 1341.07 0.000108859 1341.07 0.000108749C1341.07 0.000108638 1341.07 0.000108528 1341.07 0.000108417C1341.07 0.000108307 1341.07 0.000108196 1341.07 0.000108086C1341.07 0.000107975 1341.07 0.000107865 1341.07 0.000107754C1341.07 0.000107644 1341.07 0.000107533 1341.07 0.000107422C1341.07 0.000107312 1341.07 0.000107201 1341.07 0.000107091C1341.07 0.00010698 1341.07 0.00010687 1341.07 0.000106759C1341.07 0.000106649 1341.07 0.000106538 1341.07 0.000106428C1341.07 0.000106317 1341.07 0.000106207 1341.07 0.000106096C1341.07 0.000105986 1341.07 0.000105875 1341.07 0.000105765C1341.07 0.000105654 1341.07 0.000105544 1341.07 0.000105433C1341.07 0.000105323 1341.07 0.000105212 1341.07 0.000105102C1341.07 0.000104991 1341.07 0.000104881 1341.07 0.00010477C1341.07 0.00010466 1341.07 0.000104549 1341.07 0.000104439C1341.07 0.000104328 1341.07 0.000104217 1341.07 0.000104107C1341.07 0.000103996 1341.07 0.000103886 1341.07 0.000103775C1341.07 0.000103665 1341.07 0.000103554 1341.07 0.000103444C1341.07 0.000103333 1341.07 0.000103223 1341.07 0.000103112C1341.07 0.000103002 1341.07 0.000102891 1341.07 0.000102781C1341.07 0.00010267 1341.07 0.00010256 1341.07 0.000102449C1341.07 0.000102339 1341.07 0.000102228 1341.07 0.000102118C1341.07 0.000102007 1341.07 0.000101897 1341.07 0.000101786C1341.07 0.000101676 1341.07 0.000101565 1341.07 0.000101455C1341.07 0.000101344 1341.07 0.000101234 1341.07 0.000101123C1341.07 0.000101012 1341.07 0.000100902 1341.07 0.000100791C1341.07 0.000100681 1341.07 0.00010057 1341.07 0.00010046C1341.07 0.000100349 1341.07 0.000100239 1341.07 0.000100128C1341.07 0.000100018 1341.07 9.99073e-05 1341.07 9.97968e-05C1341.07 9.96863e-05 1341.07 9.95758e-05 1341.07 9.94653e-05C1341.07 9.93547e-05 1341.07 9.92442e-05 1341.07 9.91337e-05C1341.07 9.90232e-05 1341.07 9.89127e-05 1341.07 9.88022e-05C1341.07 9.86916e-05 1341.07 9.85811e-05 1341.07 9.84706e-05C1341.07 9.83601e-05 1341.07 9.82496e-05 1341.07 9.81391e-05C1341.07 9.80285e-05 1341.07 9.7918e-05 1341.07 9.78075e-05C1341.07 9.7697e-05 1341.07 9.75865e-05 1341.07 9.7476e-05C1341.07 9.73654e-05 1341.07 9.72549e-05 1341.07 9.71444e-05C1341.07 9.70339e-05 1341.07 9.69234e-05 1341.07 9.68129e-05C1341.07 9.67023e-05 1341.07 9.65918e-05 1341.07 9.64813e-05C1341.07 9.63708e-05 1341.07 9.62603e-05 1341.07 9.61497e-05C1341.07 9.60392e-05 1341.07 9.59287e-05 1341.07 9.58182e-05C1341.07 9.57077e-05 1341.07 9.55972e-05 1341.07 9.54866e-05C1341.07 9.53761e-05 1341.07 9.52656e-05 1341.07 9.51551e-05C1341.07 9.50446e-05 1341.07 9.49341e-05 1341.07 9.48235e-05C1341.07 9.4713e-05 1341.07 9.46025e-05 1341.07 9.4492e-05C1341.07 9.43815e-05 1341.07 9.4271e-05 1341.07 9.41604e-05C1341.07 9.40499e-05 1341.07 9.39394e-05 1341.07 9.38289e-05C1341.07 9.37184e-05 1341.07 9.36079e-05 1341.07 9.34973e-05C1341.07 9.33868e-05 1341.07 9.32763e-05 1341.07 9.31658e-05C1341.07 9.30553e-05 1341.07 9.29448e-05 1341.07 9.28342e-05C1341.07 9.27237e-05 1341.07 9.26132e-05 1341.07 9.25027e-05C1341.07 9.23922e-05 1341.07 9.22817e-05 1341.07 9.21711e-05C1341.07 9.20606e-05 1341.07 9.19501e-05 1341.07 9.18396e-05C1341.07 9.17291e-05 1341.07 9.16186e-05 1341.07 9.1508e-05C1341.07 9.13975e-05 1341.07 9.1287e-05 1341.07 9.11765e-05C1341.07 9.1066e-05 1341.07 9.09555e-05 1341.07 9.08449e-05C1341.07 9.07344e-05 1341.07 9.06239e-05 1341.07 9.05134e-05C1341.07 9.04029e-05 1341.07 9.02923e-05 1341.07 9.01818e-05C1341.07 9.00713e-05 1341.07 8.99608e-05 1341.07 8.98503e-05C1341.07 8.97398e-05 1341.07 8.96292e-05 1341.07 8.95187e-05C1341.07 8.94082e-05 1341.07 8.92977e-05 1341.07 8.91872e-05C1341.07 8.90767e-05 1341.07 8.89661e-05 1341.07 8.88556e-05C1341.07 8.87451e-05 1341.07 8.86346e-05 1341.07 8.85241e-05C1341.07 8.84136e-05 1341.07 8.8303e-05 1341.07 8.81925e-05C1341.07 8.8082e-05 1341.07 8.79715e-05 1341.07 8.7861e-05C1341.07 8.77505e-05 1341.07 8.76399e-05 1341.07 8.75294e-05C1341.07 8.74189e-05 1341.07 8.73084e-05 1341.07 8.71979e-05C1341.07 8.70874e-05 1341.07 8.69768e-05 1341.07 8.68663e-05C1341.07 8.67558e-05 1341.07 8.66453e-05 1341.07 8.65348e-05C1341.07 8.64243e-05 1341.07 8.63137e-05 1341.07 8.62032e-05C1341.07 8.60927e-05 1341.07 8.59822e-05 1341.07 8.58717e-05C1341.07 8.57612e-05 1341.07 8.56506e-05 1341.07 8.55401e-05C1341.07 8.54296e-05 1341.07 8.53191e-05 1341.07 8.52086e-05C1341.07 8.50981e-05 1341.07 8.49875e-05 1341.07 8.4877e-05C1341.07 8.47665e-05 1341.07 8.4656e-05 1341.07 8.45455e-05C1341.07 8.4435e-05 1341.07 8.43244e-05 1341.07 8.42139e-05C1341.07 8.41034e-05 1341.07 8.39929e-05 1341.07 8.38824e-05C1341.07 8.37719e-05 1341.07 8.36613e-05 1341.07 8.35508e-05C1341.07 8.34403e-05 1341.07 8.33298e-05 1341.07 8.32193e-05C1341.07 8.31088e-05 1341.07 8.29982e-05 1341.07 8.28877e-05C1341.07 8.27772e-05 1341.07 8.26667e-05 1341.07 8.25562e-05C1341.07 8.24457e-05 1341.07 8.23351e-05 1341.07 8.22246e-05C1341.07 8.21141e-05 1341.07 8.20036e-05 1341.07 8.18931e-05C1341.07 8.17825e-05 1341.07 8.1672e-05 1341.07 8.15615e-05C1341.07 8.1451e-05 1341.07 8.13405e-05 1341.07 8.123e-05C1341.07 8.11194e-05 1341.07 8.10089e-05 1341.07 8.08984e-05C1341.07 8.07879e-05 1341.07 8.06774e-05 1341.07 8.05669e-05C1341.07 8.04563e-05 1341.07 8.03458e-05 1341.07 8.02353e-05C1341.07 8.01248e-05 1341.07 8.00143e-05 1341.07 7.99038e-05C1341.07 7.97932e-05 1341.07 7.96827e-05 1341.07 7.95722e-05C1341.07 7.94617e-05 1341.07 7.93512e-05 1341.07 7.92407e-05C1341.07 7.91301e-05 1341.07 7.90196e-05 1341.07 7.89091e-05C1341.07 7.87986e-05 1341.07 7.86881e-05 1341.07 7.85776e-05C1341.07 7.8467e-05 1341.07 7.83565e-05 1341.07 7.8246e-05C1341.07 7.81355e-05 1341.07 7.8025e-05 1341.07 7.79145e-05C1341.07 7.78039e-05 1341.07 7.76934e-05 1341.07 7.75829e-05C1341.07 7.74724e-05 1341.07 7.73619e-05 1341.07 7.72514e-05C1341.07 7.71408e-05 1341.07 7.70303e-05 1341.07 7.69198e-05C1341.07 7.68093e-05 1341.07 7.66988e-05 1341.07 7.65883e-05C1341.07 7.64777e-05 1341.07 7.63672e-05 1341.07 7.62567e-05C1341.07 7.61462e-05 1341.07 7.60357e-05 1341.07 7.59251e-05C1341.07 7.58146e-05 1341.07 7.57041e-05 1341.07 7.55936e-05C1341.07 7.54831e-05 1341.07 7.53726e-05 1341.07 7.5262e-05C1341.07 7.51515e-05 1341.07 7.5041e-05 1341.07 7.49305e-05C1341.07 7.482e-05 1341.07 7.47095e-05 1341.07 7.45989e-05C1341.07 7.44884e-05 1341.07 7.43779e-05 1341.07 7.42674e-05C1341.07 7.41569e-05 1341.07 7.40464e-05 1341.07 7.39358e-05C1341.07 7.38253e-05 1341.07 7.37148e-05 1341.07 7.36043e-05C1341.07 7.34938e-05 1341.07 7.33833e-05 1341.07 7.32727e-05C1341.07 7.31622e-05 1341.07 7.30517e-05 1341.07 7.29412e-05C1341.07 7.28307e-05 1341.07 7.27202e-05 1341.07 7.26096e-05C1341.07 7.24991e-05 1341.07 7.23886e-05 1341.07 7.22781e-05C1341.07 7.21676e-05 1341.07 7.20571e-05 1341.07 7.19465e-05C1341.07 7.1836e-05 1341.07 7.17255e-05 1341.07 7.1615e-05C1341.07 7.15045e-05 1341.07 7.1394e-05 1341.07 7.12834e-05C1341.07 7.11729e-05 1341.07 7.10624e-05 1341.07 7.09519e-05C1341.07 7.08414e-05 1341.07 7.07308e-05 1341.07 7.06203e-05C1341.07 7.05098e-05 1341.07 7.03993e-05 1341.07 7.02888e-05C1341.07 7.01783e-05 1341.07 7.00677e-05 1341.07 6.99572e-05C1341.07 6.98467e-05 1341.07 6.97362e-05 1341.07 6.96257e-05C1341.07 6.95152e-05 1341.07 6.94046e-05 1341.07 6.92941e-05C1341.07 6.91836e-05 1341.07 6.90731e-05 1341.07 6.89626e-05C1341.07 6.88521e-05 1341.07 6.87415e-05 1341.07 6.8631e-05C1341.07 6.85205e-05 1341.07 6.841e-05 1341.07 6.82995e-05C1341.07 6.8189e-05 1341.07 6.80784e-05 1341.07 6.79679e-05C1341.07 6.78574e-05 1341.07 6.77469e-05 1341.07 6.76364e-05C1341.07 6.75259e-05 1341.07 6.74153e-05 1341.07 6.73048e-05C1341.07 6.71943e-05 1341.07 6.70838e-05 1341.07 6.69733e-05C1341.07 6.68628e-05 1341.07 6.67522e-05 1341.07 6.66417e-05C1341.07 6.65312e-05 1341.07 6.64207e-05 1341.07 6.63102e-05C1341.07 6.61997e-05 1341.07 6.60891e-05 1341.07 6.59786e-05C1341.07 6.58681e-05 1341.07 6.57576e-05 1341.07 6.56471e-05C1341.07 6.55366e-05 1341.07 6.5426e-05 1341.07 6.53155e-05C1341.07 6.5205e-05 1341.07 6.50945e-05 1341.07 6.4984e-05C1341.07 6.48735e-05 1341.07 6.47629e-05 1341.07 6.46524e-05C1341.07 6.45419e-05 1341.07 6.44314e-05 1341.07 6.43209e-05C1341.07 6.42104e-05 1341.07 6.40998e-05 1341.07 6.39893e-05C1341.07 6.38788e-05 1341.07 6.37683e-05 1341.07 6.36578e-05C1341.07 6.35473e-05 1341.07 6.34367e-05 1341.07 6.33262e-05C1341.07 6.32157e-05 1341.07 6.31052e-05 1341.07 6.29947e-05C1341.07 6.28842e-05 1341.07 6.27736e-05 1341.07 6.26631e-05C1341.07 6.25526e-05 1341.07 6.24421e-05 1341.07 6.23316e-05C1341.07 6.22211e-05 1341.07 6.21105e-05 1341.07 6.2e-05C1341.07 6.18895e-05 1341.07 6.1779e-05 1341.07 6.16685e-05C1341.07 6.15579e-05 1341.07 6.14474e-05 1341.07 6.13369e-05C1341.07 6.12264e-05 1341.07 6.11159e-05 1341.07 6.10054e-05C1341.07 6.08948e-05 1341.07 6.07843e-05 1341.07 6.06738e-05C1341.07 6.05633e-05 1341.07 6.04528e-05 1341.07 6.03423e-05C1341.07 6.02317e-05 1341.07 6.01212e-05 1341.07 6.00107e-05C1341.07 5.99002e-05 1341.07 5.97897e-05 1341.07 5.96792e-05C1341.07 5.95686e-05 1341.07 5.94581e-05 1341.07 5.93476e-05C1341.07 5.92371e-05 1341.07 5.91266e-05 1341.07 5.90161e-05C1341.07 5.89055e-05 1341.07 5.8795e-05 1341.07 5.86845e-05C1341.07 5.8574e-05 1341.07 5.84635e-05 1341.07 5.8353e-05C1341.07 5.82424e-05 1341.07 5.81319e-05 1341.07 5.80214e-05C1341.07 5.79109e-05 1341.07 5.78004e-05 1341.07 5.76899e-05C1341.07 5.75793e-05 1341.07 5.74688e-05 1341.07 5.73583e-05C1341.07 5.72478e-05 1341.07 5.71373e-05 1341.07 5.70268e-05C1341.07 5.69162e-05 1341.07 5.68057e-05 1341.07 5.66952e-05C1341.07 5.65847e-05 1341.07 5.64742e-05 1341.07 5.63636e-05C1341.07 5.62531e-05 1341.07 5.61426e-05 1341.07 5.60321e-05C1341.07 5.59216e-05 1341.07 5.58111e-05 1341.07 5.57005e-05C1341.07 5.559e-05 1341.07 5.54795e-05 1341.07 5.5369e-05C1341.07 5.52585e-05 1341.07 5.5148e-05 1341.07 5.50374e-05C1341.07 5.49269e-05 1341.07 5.48164e-05 1341.07 5.47059e-05C1341.07 5.45954e-05 1341.07 5.44849e-05 1341.07 5.43743e-05C1341.07 5.42638e-05 1341.07 5.41533e-05 1341.07 5.40428e-05C1341.07 5.39323e-05 1341.07 5.38218e-05 1341.07 5.37112e-05C1341.07 5.36007e-05 1341.07 5.34902e-05 1341.07 5.33797e-05C1341.07 5.32692e-05 1341.07 5.31587e-05 1341.07 5.30481e-05C1341.07 5.29376e-05 1341.07 5.28271e-05 1341.07 5.27166e-05C1341.07 5.26061e-05 1341.07 5.24956e-05 1341.07 5.2385e-05C1341.07 5.22745e-05 1341.07 5.2164e-05 1341.07 5.20535e-05C1341.07 5.1943e-05 1341.07 5.18325e-05 1341.07 5.17219e-05C1341.07 5.16114e-05 1341.07 5.15009e-05 1341.07 5.13904e-05C1341.07 5.12799e-05 1341.07 5.11694e-05 1341.07 5.10588e-05C1341.07 5.09483e-05 1341.07 5.08378e-05 1341.07 5.07273e-05C1341.07 5.06168e-05 1341.07 5.05062e-05 1341.07 5.03957e-05C1341.07 5.02852e-05 1341.07 5.01747e-05 1341.07 5.00642e-05C1341.07 4.99537e-05 1341.07 4.98431e-05 1341.07 4.97326e-05C1341.07 4.96221e-05 1341.07 4.95116e-05 1341.07 4.94011e-05C1341.07 4.92906e-05 1341.07 4.918e-05 1341.07 4.90695e-05C1341.07 4.8959e-05 1341.07 4.88485e-05 1341.07 4.8738e-05C1341.07 4.86275e-05 1341.07 4.85169e-05 1341.07 4.84064e-05C1341.07 4.82959e-05 1341.07 4.81854e-05 1341.07 4.80749e-05C1341.07 4.79644e-05 1341.07 4.78538e-05 1341.07 4.77433e-05C1341.07 4.76328e-05 1341.07 4.75223e-05 1341.07 4.74118e-05C1341.07 4.73013e-05 1341.07 4.71907e-05 1341.07 4.70802e-05C1341.07 4.69697e-05 1341.07 4.68592e-05 1341.07 4.67487e-05C1341.07 4.66382e-05 1341.07 4.65276e-05 1341.07 4.64171e-05C1341.07 4.63066e-05 1341.07 4.61961e-05 1341.07 4.60856e-05C1341.07 4.59751e-05 1341.07 4.58645e-05 1341.07 4.5754e-05C1341.07 4.56435e-05 1341.07 4.5533e-05 1341.07 4.54225e-05C1341.07 4.5312e-05 1341.07 4.52014e-05 1341.07 4.50909e-05C1341.07 4.49804e-05 1341.07 4.48699e-05 1341.07 4.47594e-05C1341.07 4.46489e-05 1341.07 4.45383e-05 1341.07 4.44278e-05C1341.07 4.43173e-05 1341.07 4.42068e-05 1341.07 4.40963e-05C1341.07 4.39858e-05 1341.07 4.38752e-05 1341.07 4.37647e-05C1341.07 4.36542e-05 1341.07 4.35437e-05 1341.07 4.34332e-05C1341.07 4.33226e-05 1341.07 4.32121e-05 1341.07 4.31016e-05C1341.07 4.29911e-05 1341.07 4.28806e-05 1341.07 4.27701e-05C1341.07 4.26595e-05 1341.07 4.2549e-05 1341.07 4.24385e-05C1341.07 4.2328e-05 1341.07 4.22175e-05 1341.07 4.2107e-05C1341.07 4.19964e-05 1341.07 4.18859e-05 1341.07 4.17754e-05C1341.07 4.16649e-05 1341.07 4.15544e-05 1341.07 4.14439e-05C1341.07 4.13333e-05 1341.07 4.12228e-05 1341.07 4.11123e-05C1341.07 4.10018e-05 1341.07 4.08913e-05 1341.07 4.07808e-05C1341.07 4.06702e-05 1341.07 4.05597e-05 1341.07 4.04492e-05C1341.07 4.03387e-05 1341.07 4.02282e-05 1341.07 4.01177e-05C1341.07 4.00071e-05 1341.07 3.98966e-05 1341.07 3.97861e-05C1341.07 3.96756e-05 1341.07 3.95651e-05 1341.07 3.94546e-05C1341.07 3.9344e-05 1341.07 3.92335e-05 1341.07 3.9123e-05C1341.07 3.90125e-05 1341.07 3.8902e-05 1341.07 3.87915e-05C1341.07 3.86809e-05 1341.07 3.85704e-05 1341.07 3.84599e-05C1341.07 3.83494e-05 1341.07 3.82389e-05 1341.07 3.81283e-05C1341.07 3.80178e-05 1341.07 3.79073e-05 1341.07 3.77968e-05C1341.07 3.76863e-05 1341.07 3.75758e-05 1341.07 3.74652e-05C1341.07 3.73547e-05 1341.07 3.72442e-05 1341.07 3.71337e-05C1341.07 3.70232e-05 1341.07 3.69127e-05 1341.07 3.68021e-05C1341.07 3.66916e-05 1341.07 3.65811e-05 1341.07 3.64706e-05C1341.07 3.63601e-05 1341.07 3.62496e-05 1341.07 3.6139e-05C1341.07 3.60285e-05 1341.07 3.5918e-05 1341.07 3.58075e-05C1341.07 3.5697e-05 1341.07 3.55865e-05 1341.07 3.54759e-05C1341.07 3.53654e-05 1341.07 3.52549e-05 1341.07 3.51444e-05C1341.07 3.50339e-05 1341.07 3.49234e-05 1341.07 3.48128e-05C1341.07 3.47023e-05 1341.07 3.45918e-05 1341.07 3.44813e-05C1341.07 3.43708e-05 1341.07 3.42603e-05 1341.07 3.41497e-05C1341.07 3.40392e-05 1341.07 3.39287e-05 1341.07 3.38182e-05C1341.07 3.37077e-05 1341.07 3.35972e-05 1341.07 3.34866e-05C1341.07 3.33761e-05 1341.07 3.32656e-05 1341.07 3.31551e-05C1341.07 3.30446e-05 1341.07 3.29341e-05 1341.07 3.28235e-05C1341.07 3.2713e-05 1341.07 3.26025e-05 1341.07 3.2492e-05C1341.07 3.23815e-05 1341.07 3.2271e-05 1341.07 3.21604e-05C1341.07 3.20499e-05 1341.07 3.19394e-05 1341.07 3.18289e-05C1341.07 3.17184e-05 1341.07 3.16079e-05 1341.07 3.14973e-05C1341.07 3.13868e-05 1341.07 3.12763e-05 1341.07 3.11658e-05C1341.07 3.10553e-05 1341.07 3.09447e-05 1341.07 3.08342e-05C1341.07 3.07237e-05 1341.07 3.06132e-05 1341.07 3.05027e-05C1341.07 3.03922e-05 1341.07 3.02816e-05 1341.07 3.01711e-05C1341.07 3.00606e-05 1341.07 2.99501e-05 1341.07 2.98396e-05C1341.07 2.97291e-05 1341.07 2.96185e-05 1341.07 2.9508e-05C1341.07 2.93975e-05 1341.07 2.9287e-05 1341.07 2.91765e-05C1341.07 2.9066e-05 1341.07 2.89554e-05 1341.07 2.88449e-05C1341.07 2.87344e-05 1341.07 2.86239e-05 1341.07 2.85134e-05C1341.07 2.84029e-05 1341.07 2.82923e-05 1341.07 2.81818e-05C1341.07 2.80713e-05 1341.07 2.79608e-05 1341.07 2.78503e-05C1341.07 2.77398e-05 1341.07 2.76292e-05 1341.07 2.75187e-05C1341.07 2.74082e-05 1341.07 2.72977e-05 1341.07 2.71872e-05C1341.07 2.70767e-05 1341.07 2.69661e-05 1341.07 2.68556e-05C1341.07 2.67451e-05 1341.07 2.66346e-05 1341.07 2.65241e-05C1341.07 2.64136e-05 1341.07 2.6303e-05 1341.07 2.61925e-05C1341.07 2.6082e-05 1341.07 2.59715e-05 1341.07 2.5861e-05C1341.07 2.57505e-05 1341.07 2.56399e-05 1341.07 2.55294e-05C1341.07 2.54189e-05 1341.07 2.53084e-05 1341.07 2.51979e-05C1341.07 2.50874e-05 1341.07 2.49768e-05 1341.07 2.48663e-05C1341.07 2.47558e-05 1341.07 2.46453e-05 1341.07 2.45348e-05C1341.07 2.44242e-05 1341.07 2.43137e-05 1341.07 2.42032e-05C1341.07 2.40927e-05 1341.07 2.39822e-05 1341.07 2.38717e-05C1341.07 2.37611e-05 1341.07 2.36506e-05 1341.07 2.35401e-05C1341.07 2.34296e-05 1341.07 2.33191e-05 1341.07 2.32086e-05C1341.07 2.3098e-05 1341.07 2.29875e-05 1341.07 2.2877e-05C1341.07 2.27665e-05 1341.07 2.2656e-05 1341.07 2.25455e-05C1341.07 2.24349e-05 1341.07 2.23244e-05 1341.07 2.22139e-05C1341.07 2.21034e-05 1341.07 2.19929e-05 1341.07 2.18824e-05C1341.07 2.17718e-05 1341.07 2.16613e-05 1341.07 2.15508e-05C1341.07 2.14403e-05 1341.07 2.13298e-05 1341.07 2.12193e-05C1341.07 2.11087e-05 1341.07 2.09982e-05 1341.07 2.08877e-05C1341.07 2.07772e-05 1341.07 2.06667e-05 1341.07 2.05562e-05C1341.07 2.04456e-05 1341.07 2.03351e-05 1341.07 2.02246e-05C1341.07 2.01141e-05 1341.07 2.00036e-05 1341.07 1.98931e-05C1341.07 1.97825e-05 1341.07 1.9672e-05 1341.07 1.95615e-05C1341.07 1.9451e-05 1341.07 1.93405e-05 1341.07 1.923e-05C1341.07 1.91194e-05 1341.07 1.90089e-05 1341.07 1.88984e-05C1341.07 1.87879e-05 1341.07 1.86774e-05 1341.07 1.85669e-05C1341.07 1.84563e-05 1341.07 1.83458e-05 1341.07 1.82353e-05C1341.07 1.81248e-05 1341.07 1.80143e-05 1341.07 1.79037e-05C1341.07 1.77932e-05 1341.07 1.76827e-05 1341.07 1.75722e-05C1341.07 1.74617e-05 1341.07 1.73512e-05 1341.07 1.72406e-05C1341.07 1.71301e-05 1341.07 1.70196e-05 1341.07 1.69091e-05C1341.07 1.67986e-05 1341.07 1.66881e-05 1341.07 1.65775e-05C1341.07 1.6467e-05 1341.07 1.63565e-05 1341.07 1.6246e-05C1341.07 1.61355e-05 1341.07 1.6025e-05 1341.07 1.59144e-05C1341.07 1.58039e-05 1341.07 1.56934e-05 1341.07 1.55829e-05C1341.07 1.54724e-05 1341.07 1.53619e-05 1341.07 1.52513e-05C1341.07 1.51408e-05 1341.07 1.50303e-05 1341.07 1.49198e-05C1341.07 1.48093e-05 1341.07 1.46988e-05 1341.07 1.45882e-05C1341.07 1.44777e-05 1341.07 1.43672e-05 1341.07 1.42567e-05C1341.07 1.41462e-05 1341.07 1.40357e-05 1341.07 1.39251e-05C1341.07 1.38146e-05 1341.07 1.37041e-05 1341.07 1.35936e-05C1341.07 1.34831e-05 1341.07 1.33726e-05 1341.07 1.3262e-05C1341.07 1.31515e-05 1341.07 1.3041e-05 1341.07 1.29305e-05C1341.07 1.282e-05 1341.07 1.27095e-05 1341.07 1.25989e-05C1341.07 1.24884e-05 1341.07 1.23779e-05 1341.07 1.22674e-05C1341.07 1.21569e-05 1341.07 1.20463e-05 1341.07 1.19358e-05C1341.07 1.18253e-05 1341.07 1.17148e-05 1341.07 1.16043e-05C1341.07 1.14938e-05 1341.07 1.13832e-05 1341.07 1.12727e-05C1341.07 1.11622e-05 1341.07 1.10517e-05 1341.07 1.09412e-05C1341.07 1.08307e-05 1341.07 1.07201e-05 1341.07 1.06096e-05C1341.07 1.04991e-05 1341.07 1.03886e-05 1341.07 1.02781e-05C1341.07 1.01676e-05 1341.07 1.0057e-05 1341.07 9.94653e-06C1341.07 9.83601e-06 1341.07 9.72549e-06 1341.07 9.61498e-06C1341.07 9.50446e-06 1341.07 9.39394e-06 1341.07 9.28343e-06C1341.07 9.17291e-06 1341.07 9.06239e-06 1341.07 8.95187e-06C1341.07 8.84136e-06 1341.07 8.73084e-06 1341.07 8.62032e-06C1341.07 8.50981e-06 1341.07 8.39929e-06 1341.07 8.28877e-06C1341.07 8.17826e-06 1341.07 8.06774e-06 1341.07 7.95722e-06C1341.07 7.8467e-06 1341.07 7.73619e-06 1341.07 7.62567e-06C1341.07 7.51515e-06 1341.07 7.40464e-06 1341.07 7.29412e-06C1341.07 7.1836e-06 1341.07 7.07309e-06 1341.07 6.96257e-06C1341.07 6.85205e-06 1341.07 6.74153e-06 1341.07 6.63102e-06C1341.07 6.5205e-06 1341.07 6.40998e-06 1341.07 6.29947e-06C1341.07 6.18895e-06 1341.07 6.07843e-06 1341.07 5.96792e-06C1341.07 5.8574e-06 1341.07 5.74688e-06 1341.07 5.63637e-06C1341.07 5.52585e-06 1341.07 5.41533e-06 1341.07 5.30481e-06C1341.07 5.1943e-06 1341.07 5.08378e-06 1341.07 4.97326e-06C1341.07 4.86275e-06 1341.07 4.75223e-06 1341.07 4.64171e-06C1341.07 4.5312e-06 1341.07 4.42068e-06 1341.07 4.31016e-06C1341.07 4.19964e-06 1341.07 4.08913e-06 1341.07 3.97861e-06C1341.07 3.86809e-06 1341.07 3.75758e-06 1341.07 3.64706e-06C1341.07 3.53654e-06 1341.07 3.42603e-06 1341.07 3.31551e-06C1341.07 3.20499e-06 1341.07 3.09448e-06 1341.07 2.98396e-06C1341.07 2.87344e-06 1341.07 2.76292e-06 1341.07 2.65241e-06C1341.07 2.54189e-06 1341.07 2.43137e-06 1341.07 2.32086e-06C1341.07 2.21034e-06 1341.07 2.09982e-06 1341.07 1.98931e-06C1341.07 1.87879e-06 1341.07 1.76827e-06 1341.07 1.65775e-06C1341.07 1.54724e-06 1341.07 1.43672e-06 1341.07 1.3262e-06C1341.07 1.21569e-06 1341.07 1.10517e-06 1341.07 9.94653e-07C1341.07 8.84136e-07 1341.07 7.73619e-07 1341.07 6.63102e-07C1341.07 5.52585e-07 1341.07 4.42068e-07 1341.07 3.31551e-07C1341.07 2.21034e-07 1341.07 1.10517e-07 1341.07 0H1339.07C1339.07 1.10517e-07 1339.07 2.21034e-07 1339.07 3.31551e-07C1339.07 4.42068e-07 1339.07 5.52585e-07 1339.07 6.63102e-07C1339.07 7.73619e-07 1339.07 8.84136e-07 1339.07 9.94653e-07C1339.07 1.10517e-06 1339.07 1.21569e-06 1339.07 1.3262e-06C1339.07 1.43672e-06 1339.07 1.54724e-06 1339.07 1.65775e-06C1339.07 1.76827e-06 1339.07 1.87879e-06 1339.07 1.98931e-06C1339.07 2.09982e-06 1339.07 2.21034e-06 1339.07 2.32086e-06C1339.07 2.43137e-06 1339.07 2.54189e-06 1339.07 2.65241e-06C1339.07 2.76292e-06 1339.07 2.87344e-06 1339.07 2.98396e-06C1339.07 3.09448e-06 1339.07 3.20499e-06 1339.07 3.31551e-06C1339.07 3.42603e-06 1339.07 3.53654e-06 1339.07 3.64706e-06C1339.07 3.75758e-06 1339.07 3.86809e-06 1339.07 3.97861e-06C1339.07 4.08913e-06 1339.07 4.19964e-06 1339.07 4.31016e-06C1339.07 4.42068e-06 1339.07 4.5312e-06 1339.07 4.64171e-06C1339.07 4.75223e-06 1339.07 4.86275e-06 1339.07 4.97326e-06C1339.07 5.08378e-06 1339.07 5.1943e-06 1339.07 5.30481e-06C1339.07 5.41533e-06 1339.07 5.52585e-06 1339.07 5.63637e-06C1339.07 5.74688e-06 1339.07 5.8574e-06 1339.07 5.96792e-06C1339.07 6.07843e-06 1339.07 6.18895e-06 1339.07 6.29947e-06C1339.07 6.40998e-06 1339.07 6.5205e-06 1339.07 6.63102e-06C1339.07 6.74153e-06 1339.07 6.85205e-06 1339.07 6.96257e-06C1339.07 7.07309e-06 1339.07 7.1836e-06 1339.07 7.29412e-06C1339.07 7.40464e-06 1339.07 7.51515e-06 1339.07 7.62567e-06C1339.07 7.73619e-06 1339.07 7.8467e-06 1339.07 7.95722e-06C1339.07 8.06774e-06 1339.07 8.17826e-06 1339.07 8.28877e-06C1339.07 8.39929e-06 1339.07 8.50981e-06 1339.07 8.62032e-06C1339.07 8.73084e-06 1339.07 8.84136e-06 1339.07 8.95187e-06C1339.07 9.06239e-06 1339.07 9.17291e-06 1339.07 9.28343e-06C1339.07 9.39394e-06 1339.07 9.50446e-06 1339.07 9.61498e-06C1339.07 9.72549e-06 1339.07 9.83601e-06 1339.07 9.94653e-06C1339.07 1.0057e-05 1339.07 1.01676e-05 1339.07 1.02781e-05C1339.07 1.03886e-05 1339.07 1.04991e-05 1339.07 1.06096e-05C1339.07 1.07201e-05 1339.07 1.08307e-05 1339.07 1.09412e-05C1339.07 1.10517e-05 1339.07 1.11622e-05 1339.07 1.12727e-05C1339.07 1.13832e-05 1339.07 1.14938e-05 1339.07 1.16043e-05C1339.07 1.17148e-05 1339.07 1.18253e-05 1339.07 1.19358e-05C1339.07 1.20463e-05 1339.07 1.21569e-05 1339.07 1.22674e-05C1339.07 1.23779e-05 1339.07 1.24884e-05 1339.07 1.25989e-05C1339.07 1.27095e-05 1339.07 1.282e-05 1339.07 1.29305e-05C1339.07 1.3041e-05 1339.07 1.31515e-05 1339.07 1.3262e-05C1339.07 1.33726e-05 1339.07 1.34831e-05 1339.07 1.35936e-05C1339.07 1.37041e-05 1339.07 1.38146e-05 1339.07 1.39251e-05C1339.07 1.40357e-05 1339.07 1.41462e-05 1339.07 1.42567e-05C1339.07 1.43672e-05 1339.07 1.44777e-05 1339.07 1.45882e-05C1339.07 1.46988e-05 1339.07 1.48093e-05 1339.07 1.49198e-05C1339.07 1.50303e-05 1339.07 1.51408e-05 1339.07 1.52513e-05C1339.07 1.53619e-05 1339.07 1.54724e-05 1339.07 1.55829e-05C1339.07 1.56934e-05 1339.07 1.58039e-05 1339.07 1.59144e-05C1339.07 1.6025e-05 1339.07 1.61355e-05 1339.07 1.6246e-05C1339.07 1.63565e-05 1339.07 1.6467e-05 1339.07 1.65775e-05C1339.07 1.66881e-05 1339.07 1.67986e-05 1339.07 1.69091e-05C1339.07 1.70196e-05 1339.07 1.71301e-05 1339.07 1.72406e-05C1339.07 1.73512e-05 1339.07 1.74617e-05 1339.07 1.75722e-05C1339.07 1.76827e-05 1339.07 1.77932e-05 1339.07 1.79037e-05C1339.07 1.80143e-05 1339.07 1.81248e-05 1339.07 1.82353e-05C1339.07 1.83458e-05 1339.07 1.84563e-05 1339.07 1.85669e-05C1339.07 1.86774e-05 1339.07 1.87879e-05 1339.07 1.88984e-05C1339.07 1.90089e-05 1339.07 1.91194e-05 1339.07 1.923e-05C1339.07 1.93405e-05 1339.07 1.9451e-05 1339.07 1.95615e-05C1339.07 1.9672e-05 1339.07 1.97825e-05 1339.07 1.98931e-05C1339.07 2.00036e-05 1339.07 2.01141e-05 1339.07 2.02246e-05C1339.07 2.03351e-05 1339.07 2.04456e-05 1339.07 2.05562e-05C1339.07 2.06667e-05 1339.07 2.07772e-05 1339.07 2.08877e-05C1339.07 2.09982e-05 1339.07 2.11087e-05 1339.07 2.12193e-05C1339.07 2.13298e-05 1339.07 2.14403e-05 1339.07 2.15508e-05C1339.07 2.16613e-05 1339.07 2.17718e-05 1339.07 2.18824e-05C1339.07 2.19929e-05 1339.07 2.21034e-05 1339.07 2.22139e-05C1339.07 2.23244e-05 1339.07 2.24349e-05 1339.07 2.25455e-05C1339.07 2.2656e-05 1339.07 2.27665e-05 1339.07 2.2877e-05C1339.07 2.29875e-05 1339.07 2.3098e-05 1339.07 2.32086e-05C1339.07 2.33191e-05 1339.07 2.34296e-05 1339.07 2.35401e-05C1339.07 2.36506e-05 1339.07 2.37611e-05 1339.07 2.38717e-05C1339.07 2.39822e-05 1339.07 2.40927e-05 1339.07 2.42032e-05C1339.07 2.43137e-05 1339.07 2.44242e-05 1339.07 2.45348e-05C1339.07 2.46453e-05 1339.07 2.47558e-05 1339.07 2.48663e-05C1339.07 2.49768e-05 1339.07 2.50874e-05 1339.07 2.51979e-05C1339.07 2.53084e-05 1339.07 2.54189e-05 1339.07 2.55294e-05C1339.07 2.56399e-05 1339.07 2.57505e-05 1339.07 2.5861e-05C1339.07 2.59715e-05 1339.07 2.6082e-05 1339.07 2.61925e-05C1339.07 2.6303e-05 1339.07 2.64136e-05 1339.07 2.65241e-05C1339.07 2.66346e-05 1339.07 2.67451e-05 1339.07 2.68556e-05C1339.07 2.69661e-05 1339.07 2.70767e-05 1339.07 2.71872e-05C1339.07 2.72977e-05 1339.07 2.74082e-05 1339.07 2.75187e-05C1339.07 2.76292e-05 1339.07 2.77398e-05 1339.07 2.78503e-05C1339.07 2.79608e-05 1339.07 2.80713e-05 1339.07 2.81818e-05C1339.07 2.82923e-05 1339.07 2.84029e-05 1339.07 2.85134e-05C1339.07 2.86239e-05 1339.07 2.87344e-05 1339.07 2.88449e-05C1339.07 2.89554e-05 1339.07 2.9066e-05 1339.07 2.91765e-05C1339.07 2.9287e-05 1339.07 2.93975e-05 1339.07 2.9508e-05C1339.07 2.96185e-05 1339.07 2.97291e-05 1339.07 2.98396e-05C1339.07 2.99501e-05 1339.07 3.00606e-05 1339.07 3.01711e-05C1339.07 3.02816e-05 1339.07 3.03922e-05 1339.07 3.05027e-05C1339.07 3.06132e-05 1339.07 3.07237e-05 1339.07 3.08342e-05C1339.07 3.09447e-05 1339.07 3.10553e-05 1339.07 3.11658e-05C1339.07 3.12763e-05 1339.07 3.13868e-05 1339.07 3.14973e-05C1339.07 3.16079e-05 1339.07 3.17184e-05 1339.07 3.18289e-05C1339.07 3.19394e-05 1339.07 3.20499e-05 1339.07 3.21604e-05C1339.07 3.2271e-05 1339.07 3.23815e-05 1339.07 3.2492e-05C1339.07 3.26025e-05 1339.07 3.2713e-05 1339.07 3.28235e-05C1339.07 3.29341e-05 1339.07 3.30446e-05 1339.07 3.31551e-05C1339.07 3.32656e-05 1339.07 3.33761e-05 1339.07 3.34866e-05C1339.07 3.35972e-05 1339.07 3.37077e-05 1339.07 3.38182e-05C1339.07 3.39287e-05 1339.07 3.40392e-05 1339.07 3.41497e-05C1339.07 3.42603e-05 1339.07 3.43708e-05 1339.07 3.44813e-05C1339.07 3.45918e-05 1339.07 3.47023e-05 1339.07 3.48128e-05C1339.07 3.49234e-05 1339.07 3.50339e-05 1339.07 3.51444e-05C1339.07 3.52549e-05 1339.07 3.53654e-05 1339.07 3.54759e-05C1339.07 3.55865e-05 1339.07 3.5697e-05 1339.07 3.58075e-05C1339.07 3.5918e-05 1339.07 3.60285e-05 1339.07 3.6139e-05C1339.07 3.62496e-05 1339.07 3.63601e-05 1339.07 3.64706e-05C1339.07 3.65811e-05 1339.07 3.66916e-05 1339.07 3.68021e-05C1339.07 3.69127e-05 1339.07 3.70232e-05 1339.07 3.71337e-05C1339.07 3.72442e-05 1339.07 3.73547e-05 1339.07 3.74652e-05C1339.07 3.75758e-05 1339.07 3.76863e-05 1339.07 3.77968e-05C1339.07 3.79073e-05 1339.07 3.80178e-05 1339.07 3.81283e-05C1339.07 3.82389e-05 1339.07 3.83494e-05 1339.07 3.84599e-05C1339.07 3.85704e-05 1339.07 3.86809e-05 1339.07 3.87915e-05C1339.07 3.8902e-05 1339.07 3.90125e-05 1339.07 3.9123e-05C1339.07 3.92335e-05 1339.07 3.9344e-05 1339.07 3.94546e-05C1339.07 3.95651e-05 1339.07 3.96756e-05 1339.07 3.97861e-05C1339.07 3.98966e-05 1339.07 4.00071e-05 1339.07 4.01177e-05C1339.07 4.02282e-05 1339.07 4.03387e-05 1339.07 4.04492e-05C1339.07 4.05597e-05 1339.07 4.06702e-05 1339.07 4.07808e-05C1339.07 4.08913e-05 1339.07 4.10018e-05 1339.07 4.11123e-05C1339.07 4.12228e-05 1339.07 4.13333e-05 1339.07 4.14439e-05C1339.07 4.15544e-05 1339.07 4.16649e-05 1339.07 4.17754e-05C1339.07 4.18859e-05 1339.07 4.19964e-05 1339.07 4.2107e-05C1339.07 4.22175e-05 1339.07 4.2328e-05 1339.07 4.24385e-05C1339.07 4.2549e-05 1339.07 4.26595e-05 1339.07 4.27701e-05C1339.07 4.28806e-05 1339.07 4.29911e-05 1339.07 4.31016e-05C1339.07 4.32121e-05 1339.07 4.33226e-05 1339.07 4.34332e-05C1339.07 4.35437e-05 1339.07 4.36542e-05 1339.07 4.37647e-05C1339.07 4.38752e-05 1339.07 4.39858e-05 1339.07 4.40963e-05C1339.07 4.42068e-05 1339.07 4.43173e-05 1339.07 4.44278e-05C1339.07 4.45383e-05 1339.07 4.46489e-05 1339.07 4.47594e-05C1339.07 4.48699e-05 1339.07 4.49804e-05 1339.07 4.50909e-05C1339.07 4.52014e-05 1339.07 4.5312e-05 1339.07 4.54225e-05C1339.07 4.5533e-05 1339.07 4.56435e-05 1339.07 4.5754e-05C1339.07 4.58645e-05 1339.07 4.59751e-05 1339.07 4.60856e-05C1339.07 4.61961e-05 1339.07 4.63066e-05 1339.07 4.64171e-05C1339.07 4.65276e-05 1339.07 4.66382e-05 1339.07 4.67487e-05C1339.07 4.68592e-05 1339.07 4.69697e-05 1339.07 4.70802e-05C1339.07 4.71907e-05 1339.07 4.73013e-05 1339.07 4.74118e-05C1339.07 4.75223e-05 1339.07 4.76328e-05 1339.07 4.77433e-05C1339.07 4.78538e-05 1339.07 4.79644e-05 1339.07 4.80749e-05C1339.07 4.81854e-05 1339.07 4.82959e-05 1339.07 4.84064e-05C1339.07 4.85169e-05 1339.07 4.86275e-05 1339.07 4.8738e-05C1339.07 4.88485e-05 1339.07 4.8959e-05 1339.07 4.90695e-05C1339.07 4.918e-05 1339.07 4.92906e-05 1339.07 4.94011e-05C1339.07 4.95116e-05 1339.07 4.96221e-05 1339.07 4.97326e-05C1339.07 4.98431e-05 1339.07 4.99537e-05 1339.07 5.00642e-05C1339.07 5.01747e-05 1339.07 5.02852e-05 1339.07 5.03957e-05C1339.07 5.05062e-05 1339.07 5.06168e-05 1339.07 5.07273e-05C1339.07 5.08378e-05 1339.07 5.09483e-05 1339.07 5.10588e-05C1339.07 5.11694e-05 1339.07 5.12799e-05 1339.07 5.13904e-05C1339.07 5.15009e-05 1339.07 5.16114e-05 1339.07 5.17219e-05C1339.07 5.18325e-05 1339.07 5.1943e-05 1339.07 5.20535e-05C1339.07 5.2164e-05 1339.07 5.22745e-05 1339.07 5.2385e-05C1339.07 5.24956e-05 1339.07 5.26061e-05 1339.07 5.27166e-05C1339.07 5.28271e-05 1339.07 5.29376e-05 1339.07 5.30481e-05C1339.07 5.31587e-05 1339.07 5.32692e-05 1339.07 5.33797e-05C1339.07 5.34902e-05 1339.07 5.36007e-05 1339.07 5.37112e-05C1339.07 5.38218e-05 1339.07 5.39323e-05 1339.07 5.40428e-05C1339.07 5.41533e-05 1339.07 5.42638e-05 1339.07 5.43743e-05C1339.07 5.44849e-05 1339.07 5.45954e-05 1339.07 5.47059e-05C1339.07 5.48164e-05 1339.07 5.49269e-05 1339.07 5.50374e-05C1339.07 5.5148e-05 1339.07 5.52585e-05 1339.07 5.5369e-05C1339.07 5.54795e-05 1339.07 5.559e-05 1339.07 5.57005e-05C1339.07 5.58111e-05 1339.07 5.59216e-05 1339.07 5.60321e-05C1339.07 5.61426e-05 1339.07 5.62531e-05 1339.07 5.63636e-05C1339.07 5.64742e-05 1339.07 5.65847e-05 1339.07 5.66952e-05C1339.07 5.68057e-05 1339.07 5.69162e-05 1339.07 5.70268e-05C1339.07 5.71373e-05 1339.07 5.72478e-05 1339.07 5.73583e-05C1339.07 5.74688e-05 1339.07 5.75793e-05 1339.07 5.76899e-05C1339.07 5.78004e-05 1339.07 5.79109e-05 1339.07 5.80214e-05C1339.07 5.81319e-05 1339.07 5.82424e-05 1339.07 5.8353e-05C1339.07 5.84635e-05 1339.07 5.8574e-05 1339.07 5.86845e-05C1339.07 5.8795e-05 1339.07 5.89055e-05 1339.07 5.90161e-05C1339.07 5.91266e-05 1339.07 5.92371e-05 1339.07 5.93476e-05C1339.07 5.94581e-05 1339.07 5.95686e-05 1339.07 5.96792e-05C1339.07 5.97897e-05 1339.07 5.99002e-05 1339.07 6.00107e-05C1339.07 6.01212e-05 1339.07 6.02317e-05 1339.07 6.03423e-05C1339.07 6.04528e-05 1339.07 6.05633e-05 1339.07 6.06738e-05C1339.07 6.07843e-05 1339.07 6.08948e-05 1339.07 6.10054e-05C1339.07 6.11159e-05 1339.07 6.12264e-05 1339.07 6.13369e-05C1339.07 6.14474e-05 1339.07 6.15579e-05 1339.07 6.16685e-05C1339.07 6.1779e-05 1339.07 6.18895e-05 1339.07 6.2e-05C1339.07 6.21105e-05 1339.07 6.22211e-05 1339.07 6.23316e-05C1339.07 6.24421e-05 1339.07 6.25526e-05 1339.07 6.26631e-05C1339.07 6.27736e-05 1339.07 6.28842e-05 1339.07 6.29947e-05C1339.07 6.31052e-05 1339.07 6.32157e-05 1339.07 6.33262e-05C1339.07 6.34367e-05 1339.07 6.35473e-05 1339.07 6.36578e-05C1339.07 6.37683e-05 1339.07 6.38788e-05 1339.07 6.39893e-05C1339.07 6.40998e-05 1339.07 6.42104e-05 1339.07 6.43209e-05C1339.07 6.44314e-05 1339.07 6.45419e-05 1339.07 6.46524e-05C1339.07 6.47629e-05 1339.07 6.48735e-05 1339.07 6.4984e-05C1339.07 6.50945e-05 1339.07 6.5205e-05 1339.07 6.53155e-05C1339.07 6.5426e-05 1339.07 6.55366e-05 1339.07 6.56471e-05C1339.07 6.57576e-05 1339.07 6.58681e-05 1339.07 6.59786e-05C1339.07 6.60891e-05 1339.07 6.61997e-05 1339.07 6.63102e-05C1339.07 6.64207e-05 1339.07 6.65312e-05 1339.07 6.66417e-05C1339.07 6.67522e-05 1339.07 6.68628e-05 1339.07 6.69733e-05C1339.07 6.70838e-05 1339.07 6.71943e-05 1339.07 6.73048e-05C1339.07 6.74153e-05 1339.07 6.75259e-05 1339.07 6.76364e-05C1339.07 6.77469e-05 1339.07 6.78574e-05 1339.07 6.79679e-05C1339.07 6.80784e-05 1339.07 6.8189e-05 1339.07 6.82995e-05C1339.07 6.841e-05 1339.07 6.85205e-05 1339.07 6.8631e-05C1339.07 6.87415e-05 1339.07 6.88521e-05 1339.07 6.89626e-05C1339.07 6.90731e-05 1339.07 6.91836e-05 1339.07 6.92941e-05C1339.07 6.94046e-05 1339.07 6.95152e-05 1339.07 6.96257e-05C1339.07 6.97362e-05 1339.07 6.98467e-05 1339.07 6.99572e-05C1339.07 7.00677e-05 1339.07 7.01783e-05 1339.07 7.02888e-05C1339.07 7.03993e-05 1339.07 7.05098e-05 1339.07 7.06203e-05C1339.07 7.07308e-05 1339.07 7.08414e-05 1339.07 7.09519e-05C1339.07 7.10624e-05 1339.07 7.11729e-05 1339.07 7.12834e-05C1339.07 7.1394e-05 1339.07 7.15045e-05 1339.07 7.1615e-05C1339.07 7.17255e-05 1339.07 7.1836e-05 1339.07 7.19465e-05C1339.07 7.20571e-05 1339.07 7.21676e-05 1339.07 7.22781e-05C1339.07 7.23886e-05 1339.07 7.24991e-05 1339.07 7.26096e-05C1339.07 7.27202e-05 1339.07 7.28307e-05 1339.07 7.29412e-05C1339.07 7.30517e-05 1339.07 7.31622e-05 1339.07 7.32727e-05C1339.07 7.33833e-05 1339.07 7.34938e-05 1339.07 7.36043e-05C1339.07 7.37148e-05 1339.07 7.38253e-05 1339.07 7.39358e-05C1339.07 7.40464e-05 1339.07 7.41569e-05 1339.07 7.42674e-05C1339.07 7.43779e-05 1339.07 7.44884e-05 1339.07 7.45989e-05C1339.07 7.47095e-05 1339.07 7.482e-05 1339.07 7.49305e-05C1339.07 7.5041e-05 1339.07 7.51515e-05 1339.07 7.5262e-05C1339.07 7.53726e-05 1339.07 7.54831e-05 1339.07 7.55936e-05C1339.07 7.57041e-05 1339.07 7.58146e-05 1339.07 7.59251e-05C1339.07 7.60357e-05 1339.07 7.61462e-05 1339.07 7.62567e-05C1339.07 7.63672e-05 1339.07 7.64777e-05 1339.07 7.65883e-05C1339.07 7.66988e-05 1339.07 7.68093e-05 1339.07 7.69198e-05C1339.07 7.70303e-05 1339.07 7.71408e-05 1339.07 7.72514e-05C1339.07 7.73619e-05 1339.07 7.74724e-05 1339.07 7.75829e-05C1339.07 7.76934e-05 1339.07 7.78039e-05 1339.07 7.79145e-05C1339.07 7.8025e-05 1339.07 7.81355e-05 1339.07 7.8246e-05C1339.07 7.83565e-05 1339.07 7.8467e-05 1339.07 7.85776e-05C1339.07 7.86881e-05 1339.07 7.87986e-05 1339.07 7.89091e-05C1339.07 7.90196e-05 1339.07 7.91301e-05 1339.07 7.92407e-05C1339.07 7.93512e-05 1339.07 7.94617e-05 1339.07 7.95722e-05C1339.07 7.96827e-05 1339.07 7.97932e-05 1339.07 7.99038e-05C1339.07 8.00143e-05 1339.07 8.01248e-05 1339.07 8.02353e-05C1339.07 8.03458e-05 1339.07 8.04563e-05 1339.07 8.05669e-05C1339.07 8.06774e-05 1339.07 8.07879e-05 1339.07 8.08984e-05C1339.07 8.10089e-05 1339.07 8.11194e-05 1339.07 8.123e-05C1339.07 8.13405e-05 1339.07 8.1451e-05 1339.07 8.15615e-05C1339.07 8.1672e-05 1339.07 8.17825e-05 1339.07 8.18931e-05C1339.07 8.20036e-05 1339.07 8.21141e-05 1339.07 8.22246e-05C1339.07 8.23351e-05 1339.07 8.24457e-05 1339.07 8.25562e-05C1339.07 8.26667e-05 1339.07 8.27772e-05 1339.07 8.28877e-05C1339.07 8.29982e-05 1339.07 8.31088e-05 1339.07 8.32193e-05C1339.07 8.33298e-05 1339.07 8.34403e-05 1339.07 8.35508e-05C1339.07 8.36613e-05 1339.07 8.37719e-05 1339.07 8.38824e-05C1339.07 8.39929e-05 1339.07 8.41034e-05 1339.07 8.42139e-05C1339.07 8.43244e-05 1339.07 8.4435e-05 1339.07 8.45455e-05C1339.07 8.4656e-05 1339.07 8.47665e-05 1339.07 8.4877e-05C1339.07 8.49875e-05 1339.07 8.50981e-05 1339.07 8.52086e-05C1339.07 8.53191e-05 1339.07 8.54296e-05 1339.07 8.55401e-05C1339.07 8.56506e-05 1339.07 8.57612e-05 1339.07 8.58717e-05C1339.07 8.59822e-05 1339.07 8.60927e-05 1339.07 8.62032e-05C1339.07 8.63137e-05 1339.07 8.64243e-05 1339.07 8.65348e-05C1339.07 8.66453e-05 1339.07 8.67558e-05 1339.07 8.68663e-05C1339.07 8.69768e-05 1339.07 8.70874e-05 1339.07 8.71979e-05C1339.07 8.73084e-05 1339.07 8.74189e-05 1339.07 8.75294e-05C1339.07 8.76399e-05 1339.07 8.77505e-05 1339.07 8.7861e-05C1339.07 8.79715e-05 1339.07 8.8082e-05 1339.07 8.81925e-05C1339.07 8.8303e-05 1339.07 8.84136e-05 1339.07 8.85241e-05C1339.07 8.86346e-05 1339.07 8.87451e-05 1339.07 8.88556e-05C1339.07 8.89661e-05 1339.07 8.90767e-05 1339.07 8.91872e-05C1339.07 8.92977e-05 1339.07 8.94082e-05 1339.07 8.95187e-05C1339.07 8.96292e-05 1339.07 8.97398e-05 1339.07 8.98503e-05C1339.07 8.99608e-05 1339.07 9.00713e-05 1339.07 9.01818e-05C1339.07 9.02923e-05 1339.07 9.04029e-05 1339.07 9.05134e-05C1339.07 9.06239e-05 1339.07 9.07344e-05 1339.07 9.08449e-05C1339.07 9.09555e-05 1339.07 9.1066e-05 1339.07 9.11765e-05C1339.07 9.1287e-05 1339.07 9.13975e-05 1339.07 9.1508e-05C1339.07 9.16186e-05 1339.07 9.17291e-05 1339.07 9.18396e-05C1339.07 9.19501e-05 1339.07 9.20606e-05 1339.07 9.21711e-05C1339.07 9.22817e-05 1339.07 9.23922e-05 1339.07 9.25027e-05C1339.07 9.26132e-05 1339.07 9.27237e-05 1339.07 9.28342e-05C1339.07 9.29448e-05 1339.07 9.30553e-05 1339.07 9.31658e-05C1339.07 9.32763e-05 1339.07 9.33868e-05 1339.07 9.34973e-05C1339.07 9.36079e-05 1339.07 9.37184e-05 1339.07 9.38289e-05C1339.07 9.39394e-05 1339.07 9.40499e-05 1339.07 9.41604e-05C1339.07 9.4271e-05 1339.07 9.43815e-05 1339.07 9.4492e-05C1339.07 9.46025e-05 1339.07 9.4713e-05 1339.07 9.48235e-05C1339.07 9.49341e-05 1339.07 9.50446e-05 1339.07 9.51551e-05C1339.07 9.52656e-05 1339.07 9.53761e-05 1339.07 9.54866e-05C1339.07 9.55972e-05 1339.07 9.57077e-05 1339.07 9.58182e-05C1339.07 9.59287e-05 1339.07 9.60392e-05 1339.07 9.61497e-05C1339.07 9.62603e-05 1339.07 9.63708e-05 1339.07 9.64813e-05C1339.07 9.65918e-05 1339.07 9.67023e-05 1339.07 9.68129e-05C1339.07 9.69234e-05 1339.07 9.70339e-05 1339.07 9.71444e-05C1339.07 9.72549e-05 1339.07 9.73654e-05 1339.07 9.7476e-05C1339.07 9.75865e-05 1339.07 9.7697e-05 1339.07 9.78075e-05C1339.07 9.7918e-05 1339.07 9.80285e-05 1339.07 9.81391e-05C1339.07 9.82496e-05 1339.07 9.83601e-05 1339.07 9.84706e-05C1339.07 9.85811e-05 1339.07 9.86916e-05 1339.07 9.88022e-05C1339.07 9.89127e-05 1339.07 9.90232e-05 1339.07 9.91337e-05C1339.07 9.92442e-05 1339.07 9.93547e-05 1339.07 9.94653e-05C1339.07 9.95758e-05 1339.07 9.96863e-05 1339.07 9.97968e-05C1339.07 9.99073e-05 1339.07 0.000100018 1339.07 0.000100128C1339.07 0.000100239 1339.07 0.000100349 1339.07 0.00010046C1339.07 0.00010057 1339.07 0.000100681 1339.07 0.000100791C1339.07 0.000100902 1339.07 0.000101012 1339.07 0.000101123C1339.07 0.000101234 1339.07 0.000101344 1339.07 0.000101455C1339.07 0.000101565 1339.07 0.000101676 1339.07 0.000101786C1339.07 0.000101897 1339.07 0.000102007 1339.07 0.000102118C1339.07 0.000102228 1339.07 0.000102339 1339.07 0.000102449C1339.07 0.00010256 1339.07 0.00010267 1339.07 0.000102781C1339.07 0.000102891 1339.07 0.000103002 1339.07 0.000103112C1339.07 0.000103223 1339.07 0.000103333 1339.07 0.000103444C1339.07 0.000103554 1339.07 0.000103665 1339.07 0.000103775C1339.07 0.000103886 1339.07 0.000103996 1339.07 0.000104107C1339.07 0.000104217 1339.07 0.000104328 1339.07 0.000104439C1339.07 0.000104549 1339.07 0.00010466 1339.07 0.00010477C1339.07 0.000104881 1339.07 0.000104991 1339.07 0.000105102C1339.07 0.000105212 1339.07 0.000105323 1339.07 0.000105433C1339.07 0.000105544 1339.07 0.000105654 1339.07 0.000105765C1339.07 0.000105875 1339.07 0.000105986 1339.07 0.000106096C1339.07 0.000106207 1339.07 0.000106317 1339.07 0.000106428C1339.07 0.000106538 1339.07 0.000106649 1339.07 0.000106759C1339.07 0.00010687 1339.07 0.00010698 1339.07 0.000107091C1339.07 0.000107201 1339.07 0.000107312 1339.07 0.000107422C1339.07 0.000107533 1339.07 0.000107644 1339.07 0.000107754C1339.07 0.000107865 1339.07 0.000107975 1339.07 0.000108086C1339.07 0.000108196 1339.07 0.000108307 1339.07 0.000108417C1339.07 0.000108528 1339.07 0.000108638 1339.07 0.000108749C1339.07 0.000108859 1339.07 0.00010897 1339.07 0.00010908C1339.07 0.000109191 1339.07 0.000109301 1339.07 0.000109412C1339.07 0.000109522 1339.07 0.000109633 1339.07 0.000109743C1339.07 0.000109854 1339.07 0.000109964 1339.07 0.000110075C1339.07 0.000110185 1339.07 0.000110296 1339.07 0.000110406C1339.07 0.000110517 1339.07 0.000110627 1339.07 0.000110738C1339.07 0.000110849 1339.07 0.000110959 1339.07 0.00011107C1339.07 0.00011118 1339.07 0.000111291 1339.07 0.000111401C1339.07 0.000111512 1339.07 0.000111622 1339.07 0.000111733C1339.07 0.000111843 1339.07 0.000111954 1339.07 0.000112064C1339.07 0.000112175 1339.07 0.000112285 1339.07 0.000112396C1339.07 0.000112506 1339.07 0.000112617 1339.07 0.000112727C1339.07 0.000112838 1339.07 0.000112948 1339.07 0.000113059C1339.07 0.000113169 1339.07 0.00011328 1339.07 0.00011339C1339.07 0.000113501 1339.07 0.000113611 1339.07 0.000113722C1339.07 0.000113832 1339.07 0.000113943 1339.07 0.000114053C1339.07 0.000114164 1339.07 0.000114275 1339.07 0.000114385C1339.07 0.000114496 1339.07 0.000114606 1339.07 0.000114717C1339.07 0.000114827 1339.07 0.000114938 1339.07 0.000115048C1339.07 0.000115159 1339.07 0.000115269 1339.07 0.00011538C1339.07 0.00011549 1339.07 0.000115601 1339.07 0.000115711C1339.07 0.000115822 1339.07 0.000115932 1339.07 0.000116043C1339.07 0.000116153 1339.07 0.000116264 1339.07 0.000116374C1339.07 0.000116485 1339.07 0.000116595 1339.07 0.000116706C1339.07 0.000116816 1339.07 0.000116927 1339.07 0.000117037C1339.07 0.000117148 1339.07 0.000117258 1339.07 0.000117369C1339.07 0.00011748 1339.07 0.00011759 1339.07 0.000117701C1339.07 0.000117811 1339.07 0.000117922 1339.07 0.000118032C1339.07 0.000118143 1339.07 0.000118253 1339.07 0.000118364C1339.07 0.000118474 1339.07 0.000118585 1339.07 0.000118695C1339.07 0.000118806 1339.07 0.000118916 1339.07 0.000119027C1339.07 0.000119137 1339.07 0.000119248 1339.07 0.000119358C1339.07 0.000119469 1339.07 0.000119579 1339.07 0.00011969C1339.07 0.0001198 1339.07 0.000119911 1339.07 0.000120021C1339.07 0.000120132 1339.07 0.000120242 1339.07 0.000120353C1339.07 0.000120463 1339.07 0.000120574 1339.07 0.000120685C1339.07 0.000120795 1339.07 0.000120906 1339.07 0.000121016C1339.07 0.000121127 1339.07 0.000121237 1339.07 0.000121348C1339.07 0.000121458 1339.07 0.000121569 1339.07 0.000121679C1339.07 0.00012179 1339.07 0.0001219 1339.07 0.000122011C1339.07 0.000122121 1339.07 0.000122232 1339.07 0.000122342C1339.07 0.000122453 1339.07 0.000122563 1339.07 0.000122674C1339.07 0.000122784 1339.07 0.000122895 1339.07 0.000123005C1339.07 0.000123116 1339.07 0.000123226 1339.07 0.000123337C1339.07 0.000123447 1339.07 0.000123558 1339.07 0.000123668C1339.07 0.000123779 1339.07 0.00012389 1339.07 0.000124C1339.07 0.000124111 1339.07 0.000124221 1339.07 0.000124332C1339.07 0.000124442 1339.07 0.000124553 1339.07 0.000124663C1339.07 0.000124774 1339.07 0.000124884 1339.07 0.000124995C1339.07 0.000125105 1339.07 0.000125216 1339.07 0.000125326C1339.07 0.000125437 1339.07 0.000125547 1339.07 0.000125658C1339.07 0.000125768 1339.07 0.000125879 1339.07 0.000125989C1339.07 0.0001261 1339.07 0.00012621 1339.07 0.000126321C1339.07 0.000126431 1339.07 0.000126542 1339.07 0.000126652C1339.07 0.000126763 1339.07 0.000126873 1339.07 0.000126984C1339.07 0.000127094 1339.07 0.000127205 1339.07 0.000127316C1339.07 0.000127426 1339.07 0.000127537 1339.07 0.000127647C1339.07 0.000127758 1339.07 0.000127868 1339.07 0.000127979C1339.07 0.000128089 1339.07 0.0001282 1339.07 0.00012831C1339.07 0.000128421 1339.07 0.000128531 1339.07 0.000128642C1339.07 0.000128752 1339.07 0.000128863 1339.07 0.000128973C1339.07 0.000129084 1339.07 0.000129194 1339.07 0.000129305C1339.07 0.000129415 1339.07 0.000129526 1339.07 0.000129636C1339.07 0.000129747 1339.07 0.000129857 1339.07 0.000129968C1339.07 0.000130078 1339.07 0.000130189 1339.07 0.000130299C1339.07 0.00013041 1339.07 0.000130521 1339.07 0.000130631C1339.07 0.000130742 1339.07 0.000130852 1339.07 0.000130963C1339.07 0.000131073 1339.07 0.000131184 1339.07 0.000131294C1339.07 0.000131405 1339.07 0.000131515 1339.07 0.000131626C1339.07 0.000131736 1339.07 0.000131847 1339.07 0.000131957C1339.07 0.000132068 1339.07 0.000132178 1339.07 0.000132289C1339.07 0.000132399 1339.07 0.00013251 1339.07 0.00013262C1339.07 0.000132731 1339.07 0.000132841 1339.07 0.000132952C1339.07 0.000133062 1339.07 0.000133173 1339.07 0.000133283C1339.07 0.000133394 1339.07 0.000133504 1339.07 0.000133615C1339.07 0.000133726 1339.07 0.000133836 1339.07 0.000133947C1339.07 0.000134057 1339.07 0.000134168 1339.07 0.000134278C1339.07 0.000134389 1339.07 0.000134499 1339.07 0.00013461C1339.07 0.00013472 1339.07 0.000134831 1339.07 0.000134941C1339.07 0.000135052 1339.07 0.000135162 1339.07 0.000135273C1339.07 0.000135383 1339.07 0.000135494 1339.07 0.000135604C1339.07 0.000135715 1339.07 0.000135825 1339.07 0.000135936C1339.07 0.000136046 1339.07 0.000136157 1339.07 0.000136267C1339.07 0.000136378 1339.07 0.000136488 1339.07 0.000136599C1339.07 0.000136709 1339.07 0.00013682 1339.07 0.00013693C1339.07 0.000137041 1339.07 0.000137152 1339.07 0.000137262C1339.07 0.000137373 1339.07 0.000137483 1339.07 0.000137594C1339.07 0.000137704 1339.07 0.000137815 1339.07 0.000137925C1339.07 0.000138036 1339.07 0.000138146 1339.07 0.000138257C1339.07 0.000138367 1339.07 0.000138478 1339.07 0.000138588C1339.07 0.000138699 1339.07 0.000138809 1339.07 0.00013892C1339.07 0.00013903 1339.07 0.000139141 1339.07 0.000139251C1339.07 0.000139362 1339.07 0.000139472 1339.07 0.000139583C1339.07 0.000139693 1339.07 0.000139804 1339.07 0.000139914C1339.07 0.000140025 1339.07 0.000140135 1339.07 0.000140246C1339.07 0.000140357 1339.07 0.000140467 1339.07 0.000140578C1339.07 0.000140688 1339.07 0.000140799 1339.07 0.000140909C1339.07 0.00014102 1339.07 0.00014113 1339.07 0.000141241C1339.07 0.000141351 1339.07 0.000141462 1339.07 0.000141572C1339.07 0.000141683 1339.07 0.000141793 1339.07 0.000141904C1339.07 0.000142014 1339.07 0.000142125 1339.07 0.000142235C1339.07 0.000142346 1339.07 0.000142456 1339.07 0.000142567C1339.07 0.000142677 1339.07 0.000142788 1339.07 0.000142898C1339.07 0.000143009 1339.07 0.000143119 1339.07 0.00014323C1339.07 0.00014334 1339.07 0.000143451 1339.07 0.000143562C1339.07 0.000143672 1339.07 0.000143783 1339.07 0.000143893C1339.07 0.000144004 1339.07 0.000144114 1339.07 0.000144225C1339.07 0.000144335 1339.07 0.000144446 1339.07 0.000144556C1339.07 0.000144667 1339.07 0.000144777 1339.07 0.000144888C1339.07 0.000144998 1339.07 0.000145109 1339.07 0.000145219C1339.07 0.00014533 1339.07 0.00014544 1339.07 0.000145551C1339.07 0.000145661 1339.07 0.000145772 1339.07 0.000145882C1339.07 0.000145993 1339.07 0.000146103 1339.07 0.000146214C1339.07 0.000146324 1339.07 0.000146435 1339.07 0.000146545C1339.07 0.000146656 1339.07 0.000146767 1339.07 0.000146877C1339.07 0.000146988 1339.07 0.000147098 1339.07 0.000147209C1339.07 0.000147319 1339.07 0.00014743 1339.07 0.00014754C1339.07 0.000147651 1339.07 0.000147761 1339.07 0.000147872C1339.07 0.000147982 1339.07 0.000148093 1339.07 0.000148203C1339.07 0.000148314 1339.07 0.000148424 1339.07 0.000148535C1339.07 0.000148645 1339.07 0.000148756 1339.07 0.000148866C1339.07 0.000148977 1339.07 0.000149087 1339.07 0.000149198C1339.07 0.000149308 1339.07 0.000149419 1339.07 0.000149529C1339.07 0.00014964 1339.07 0.00014975 1339.07 0.000149861C1339.07 0.000149971 1339.07 0.000150082 1339.07 0.000150193C1339.07 0.000150303 1339.07 0.000150414 1339.07 0.000150524C1339.07 0.000150635 1339.07 0.000150745 1339.07 0.000150856C1339.07 0.000150966 1339.07 0.000151077 1339.07 0.000151187C1339.07 0.000151298 1339.07 0.000151408 1339.07 0.000151519C1339.07 0.000151629 1339.07 0.00015174 1339.07 0.00015185C1339.07 0.000151961 1339.07 0.000152071 1339.07 0.000152182C1339.07 0.000152292 1339.07 0.000152403 1339.07 0.000152513C1339.07 0.000152624 1339.07 0.000152734 1339.07 0.000152845C1339.07 0.000152955 1339.07 0.000153066 1339.07 0.000153176C1339.07 0.000153287 1339.07 0.000153398 1339.07 0.000153508C1339.07 0.000153619 1339.07 0.000153729 1339.07 0.00015384C1339.07 0.00015395 1339.07 0.000154061 1339.07 0.000154171C1339.07 0.000154282 1339.07 0.000154392 1339.07 0.000154503C1339.07 0.000154613 1339.07 0.000154724 1339.07 0.000154834C1339.07 0.000154945 1339.07 0.000155055 1339.07 0.000155166C1339.07 0.000155276 1339.07 0.000155387 1339.07 0.000155497C1339.07 0.000155608 1339.07 0.000155718 1339.07 0.000155829C1339.07 0.000155939 1339.07 0.00015605 1339.07 0.00015616C1339.07 0.000156271 1339.07 0.000156381 1339.07 0.000156492C1339.07 0.000156603 1339.07 0.000156713 1339.07 0.000156824C1339.07 0.000156934 1339.07 0.000157045 1339.07 0.000157155C1339.07 0.000157266 1339.07 0.000157376 1339.07 0.000157487C1339.07 0.000157597 1339.07 0.000157708 1339.07 0.000157818C1339.07 0.000157929 1339.07 0.000158039 1339.07 0.00015815C1339.07 0.00015826 1339.07 0.000158371 1339.07 0.000158481C1339.07 0.000158592 1339.07 0.000158702 1339.07 0.000158813C1339.07 0.000158923 1339.07 0.000159034 1339.07 0.000159144C1339.07 0.000159255 1339.07 0.000159365 1339.07 0.000159476C1339.07 0.000159586 1339.07 0.000159697 1339.07 0.000159808C1339.07 0.000159918 1339.07 0.000160029 1339.07 0.000160139C1339.07 0.00016025 1339.07 0.00016036 1339.07 0.000160471C1339.07 0.000160581 1339.07 0.000160692 1339.07 0.000160802C1339.07 0.000160913 1339.07 0.000161023 1339.07 0.000161134C1339.07 0.000161244 1339.07 0.000161355 1339.07 0.000161465C1339.07 0.000161576 1339.07 0.000161686 1339.07 0.000161797C1339.07 0.000161907 1339.07 0.000162018 1339.07 0.000162128C1339.07 0.000162239 1339.07 0.000162349 1339.07 0.00016246C1339.07 0.00016257 1339.07 0.000162681 1339.07 0.000162791C1339.07 0.000162902 1339.07 0.000163012 1339.07 0.000163123C1339.07 0.000163234 1339.07 0.000163344 1339.07 0.000163455C1339.07 0.000163565 1339.07 0.000163676 1339.07 0.000163786C1339.07 0.000163897 1339.07 0.000164007 1339.07 0.000164118C1339.07 0.000164228 1339.07 0.000164339 1339.07 0.000164449C1339.07 0.00016456 1339.07 0.00016467 1339.07 0.000164781C1339.07 0.000164891 1339.07 0.000165002 1339.07 0.000165112C1339.07 0.000165223 1339.07 0.000165333 1339.07 0.000165444C1339.07 0.000165554 1339.07 0.000165665 1339.07 0.000165775C1339.07 0.000165886 1339.07 0.000165996 1339.07 0.000166107C1339.07 0.000166217 1339.07 0.000166328 1339.07 0.000166439C1339.07 0.000166549 1339.07 0.00016666 1339.07 0.00016677C1339.07 0.000166881 1339.07 0.000166991 1339.07 0.000167102C1339.07 0.000167212 1339.07 0.000167323 1339.07 0.000167433C1339.07 0.000167544 1339.07 0.000167654 1339.07 0.000167765C1339.07 0.000167875 1339.07 0.000167986 1339.07 0.000168096C1339.07 0.000168207 1339.07 0.000168317 1339.07 0.000168428C1339.07 0.000168538 1339.07 0.000168649 1339.07 0.000168759C1339.07 0.00016887 1339.07 0.00016898 1339.07 0.000169091C1339.07 0.000169201 1339.07 0.000169312 1339.07 0.000169422C1339.07 0.000169533 1339.07 0.000169644 1339.07 0.000169754H1341.07ZM1340.07 1H1363V-1H1340.07V1ZM1362.67 0.944547L1362.67 0.944716L1363.33 -0.944377L1363.33 -0.944547L1362.67 0.944547ZM0.000990916 566C2.88083 566 5.73253 566.569 8.39331 567.674L9.1606 565.827C6.25673 564.621 3.14428 564 0.000990916 564V566ZM1.00099 588V565H-0.999009V588H1.00099ZM22.9337 587H0.000990916V589H22.9337V587ZM20.2638 579.58C21.3662 582.249 21.9337 585.111 21.9337 588H23.9337C23.9337 584.849 23.3148 581.728 22.1123 578.817L20.2638 579.58ZM15.5087 572.443C17.5455 574.485 19.1613 576.911 20.2638 579.58L22.1123 578.817C20.9098 575.905 19.1472 573.259 16.925 571.031L15.5087 572.443ZM8.39332 567.674C11.0541 568.78 13.4719 570.4 15.5087 572.443L16.925 571.031C14.7028 568.802 12.0645 567.034 9.16059 565.827L8.39332 567.674ZM1340.89 578.817C1339.69 581.728 1339.07 584.849 1339.07 588H1341.07C1341.07 585.111 1341.63 582.249 1342.74 579.58L1340.89 578.817ZM1346.08 571.031C1343.85 573.259 1342.09 575.905 1340.89 578.817L1342.74 579.58C1343.84 576.911 1345.46 574.485 1347.49 572.443L1346.08 571.031ZM1353.84 565.827C1350.94 567.034 1348.3 568.802 1346.08 571.031L1347.49 572.443C1349.53 570.4 1351.95 568.78 1354.61 567.674L1353.84 565.827ZM1363 564C1359.86 564 1356.74 564.621 1353.84 565.827L1354.61 567.674C1357.27 566.569 1360.12 566 1363 566V564ZM1364 588V565H1362V588H1364ZM1340.07 589H1363V587H1340.07V589Z" fill="black" mask="url(#path-1-inside-1_83_2559)"/>
</svg>
