<svg width="156" height="75" viewBox="20 0 156 75" fill="none" xmlns="http://www.w3.org/2000/svg">
<mask id="path-1-outside-1_165_733" maskUnits="userSpaceOnUse" x="46.2705" y="4.39917" width="77" height="53" fill="black">
<rect fill="white" x="46.2705" y="4.39917" width="77" height="53"/>
<path d="M82.7338 39.1047L82.805 39.6027C81.6665 40.1008 80.9549 40.5278 80.0299 41.2393C78.251 42.6624 76.7567 44.1567 75.1913 45.7221C72.0604 48.5684 69.0007 51.5569 65.0872 53.6916C62.5967 55.0436 60.1063 56.2532 57.26 56.5378C48.6502 57.4629 46.0174 47.9991 47.7963 41.3816C49.2194 37.0411 50.9983 32.9853 53.4888 29.214C53.9869 28.289 54.2715 28.1467 53.4176 27.6486C51.781 26.7235 50.4291 25.6562 49.6463 24.1619C49.1483 23.2369 48.7925 21.458 49.6463 23.5215C50.4291 25.4427 52.208 26.5812 53.9869 27.5774C54.5561 27.862 54.8407 27.3639 55.0542 27.0793C61.1736 18.9676 69.2142 10.8558 78.9625 6.94222C82.7338 5.37679 86.6474 4.66523 90.4898 6.44413C95.2572 8.64996 90.9167 15.054 88.5686 17.4021C85.3666 20.9599 81.8088 23.2369 77.7529 25.1581C72.7008 27.5063 64.4468 30.2102 57.3312 29.214L56.1927 29.0005C56.1215 29.0717 55.8369 29.4275 55.6946 29.7832C52.5637 34.8353 46.4443 44.8683 49.2906 51.5569C50.1444 54.332 53.3464 56.4667 56.1215 56.3244C60.5332 56.182 64.091 54.1897 67.6488 51.6992C69.7834 50.1338 71.847 48.3549 73.8393 46.5049C75.6182 44.7971 77.0413 43.3028 78.7491 41.7374C80.0299 40.8124 81.3818 39.8874 82.7338 39.1047ZM61.7428 29.0717C67.293 28.7159 72.5585 27.1505 77.4683 24.8735C81.3818 22.8811 84.8685 20.8176 87.857 17.4733C90.2763 15.054 94.9726 9.21921 90.2052 6.58644C85.7223 4.94986 81.6665 7.15568 77.7529 8.86343C69.7123 13.702 62.739 20.1772 57.1177 27.5774L56.4061 28.5736C56.6908 28.7159 57.1889 28.7871 57.4735 28.7871C58.8966 29.0005 60.3197 29.0005 61.7428 29.0717Z"/>
<path d="M83.3809 37.895L85.5155 34.1949C86.7964 32.3448 88.006 30.4236 89.2868 28.5736C90.3541 27.1505 91.4926 25.7985 92.7023 24.5177C94.41 22.7388 96.1178 20.9599 97.8967 19.2522C98.6082 18.5406 99.4621 17.9002 100.245 17.2598C101.241 16.3348 102.379 15.6232 103.589 14.9828C105.368 14.129 109.922 12.5635 109.495 15.979C108.214 20.106 104.372 23.0946 101.526 25.5139C99.3909 27.2928 96.9716 28.7871 94.6235 30.3525C93.4138 31.064 92.133 31.7756 90.8522 32.4872C89.9272 32.9852 89.0022 33.4122 88.0772 33.9103C87.7925 34.0526 87.5079 34.2661 87.2944 34.5507C86.654 35.5469 85.9425 36.6142 85.3732 37.7527C84.5905 39.3181 83.8078 40.8835 83.1674 42.449C82.9539 42.8048 82.1001 45.1529 83.0963 44.2279C85.2309 42.449 87.0098 40.5278 89.2868 38.9623C90.4253 38.1796 91.9196 38.8912 91.4926 40.2431C91.0657 41.5951 90.2118 42.6624 89.6426 43.7298C93.4138 42.9471 96.4024 41.3105 99.0352 39.3181C99.1775 39.1758 99.3198 39.4604 99.1775 39.4604C96.3312 41.7374 93.0581 43.1605 89.7849 44.0144C89.2868 44.0856 89.0022 44.3702 88.7176 44.726C86.8675 46.9318 85.0175 48.5684 82.8828 49.4222C81.7443 49.7069 81.5308 48.2838 81.8866 47.7145C82.8116 46.0779 84.7328 45.1529 86.2271 44.5837C86.5829 44.5125 86.9387 44.1567 87.2233 43.8721C88.006 42.8048 88.7887 41.7374 89.5714 40.6701C90.1407 39.8162 91.3503 37.8238 89.1445 39.4604C86.654 41.0259 84.804 43.5875 82.6693 45.1529C81.2462 45.9356 81.0327 44.6548 81.3174 43.5875C81.8154 41.6663 82.4559 39.7451 83.3809 37.895ZM88.2906 33.1987C92.56 31.491 96.7582 28.5024 100.387 25.8697C103.233 23.8061 108.357 19.3233 109.068 15.9079C109.353 13.3462 105.51 15.1251 104.514 15.6232C103.874 15.979 103.233 16.5483 102.593 17.0463C101.099 18.1848 99.6756 19.4656 98.3948 20.8888C97.2563 22.1696 96.0466 23.3792 94.9081 24.66C93.8408 25.8697 92.7734 27.0082 91.7773 28.2178C90.7811 29.4275 89.8561 30.7794 88.931 32.0602C88.7176 32.3448 88.5041 32.7006 88.2906 33.1987ZM86.7252 44.726C85.4444 45.0817 84.0924 45.8645 83.0963 46.7183C82.5982 47.1453 81.9578 47.928 82.0289 48.4972C82.1712 49.2088 83.3097 48.0703 83.5232 47.928C84.1636 47.3587 84.804 46.7895 85.3732 46.2202C85.8713 45.7933 86.5829 45.0106 86.7252 44.726Z"/>
<path d="M110.309 39.5316C112.231 38.6066 110.879 39.7451 109.954 39.9585C108.531 40.5278 107.107 40.7412 105.684 40.8835C105.044 40.9547 104.475 41.0259 103.763 40.8835C102.838 42.3067 101.628 43.7298 100.276 44.6548C99.4226 45.2241 97.9995 45.0817 97.5726 44.1567C97.1456 42.6624 98.2841 40.5989 99.138 39.6027L99.9207 38.5354C98.1418 35.9738 99.138 32.2025 102.553 31.7756C106.325 31.3487 106.111 37.5392 103.905 40.5989C104.048 40.5989 104.19 40.6701 104.404 40.6701C106.396 40.6701 108.388 40.3143 110.309 39.5316ZM100.775 32.7006C99.3515 33.8391 98.6399 36.4007 100.205 38.2508C101.059 37.4681 101.842 36.6854 102.767 36.2584C103.621 35.9026 103.621 36.97 103.194 37.3969C102.696 37.895 102.269 38.3931 101.771 38.9623L101.415 39.3893C101.628 39.5316 102.055 39.9585 102.482 40.172C102.909 40.3855 103.407 40.5278 103.621 40.5278C105.755 38.2508 106.467 29.4275 100.775 32.7006ZM103.407 40.8124C103.194 40.8124 102.696 40.5989 102.269 40.3855C101.842 40.172 101.415 39.8162 101.202 39.6739C101.13 39.7451 100.846 40.1008 100.49 40.6701C99.7784 41.8086 99.0668 42.7336 98.8534 43.7298C98.7822 44.5125 99.2092 45.0106 100.276 44.299C101.344 43.6586 102.198 42.5201 102.909 41.524L103.407 40.8124Z"/>
<path d="M118.881 30.8451C118.738 30.9163 118.596 31.4143 118.24 31.4143C118.098 31.4143 117.458 31.3432 117.885 30.8451C118.454 30.1335 119.237 30.1335 118.881 30.8451ZM120.828 31.6299C120.685 31.7011 120.543 32.1992 120.187 32.1992C120.045 32.1992 119.404 32.128 119.831 31.6299C120.401 30.9184 121.183 30.9184 120.828 31.6299ZM118.566 32.9141C120.772 33.1276 118.637 35.9026 116.076 36.045C113.087 36.4007 109.743 45.0106 112.233 45.0106C113.158 45.0817 113.657 44.5125 114.439 43.9432C116.859 42.022 119.705 40.8835 122.622 39.3181C122.978 39.1047 123.334 39.247 122.836 39.5316C119.776 41.1682 116.432 42.5913 113.941 44.6548C113.372 45.1529 112.66 45.2952 111.949 45.2241C109.672 44.7971 109.814 41.3105 110.526 39.8874C111.949 36.97 114.724 32.2737 118.566 32.9141ZM118.424 33.4833C117.499 33.6968 116.787 34.4795 116.147 35.1911L115.72 35.618C115.222 36.1161 117.499 35.618 118.353 34.8353C118.922 34.4795 119.989 33.1987 118.424 33.4833Z"/>
</mask>
<path d="M82.7338 39.1047L82.805 39.6027C81.6665 40.1008 80.9549 40.5278 80.0299 41.2393C78.251 42.6624 76.7567 44.1567 75.1913 45.7221C72.0604 48.5684 69.0007 51.5569 65.0872 53.6916C62.5967 55.0436 60.1063 56.2532 57.26 56.5378C48.6502 57.4629 46.0174 47.9991 47.7963 41.3816C49.2194 37.0411 50.9983 32.9853 53.4888 29.214C53.9869 28.289 54.2715 28.1467 53.4176 27.6486C51.781 26.7235 50.4291 25.6562 49.6463 24.1619C49.1483 23.2369 48.7925 21.458 49.6463 23.5215C50.4291 25.4427 52.208 26.5812 53.9869 27.5774C54.5561 27.862 54.8407 27.3639 55.0542 27.0793C61.1736 18.9676 69.2142 10.8558 78.9625 6.94222C82.7338 5.37679 86.6474 4.66523 90.4898 6.44413C95.2572 8.64996 90.9167 15.054 88.5686 17.4021C85.3666 20.9599 81.8088 23.2369 77.7529 25.1581C72.7008 27.5063 64.4468 30.2102 57.3312 29.214L56.1927 29.0005C56.1215 29.0717 55.8369 29.4275 55.6946 29.7832C52.5637 34.8353 46.4443 44.8683 49.2906 51.5569C50.1444 54.332 53.3464 56.4667 56.1215 56.3244C60.5332 56.182 64.091 54.1897 67.6488 51.6992C69.7834 50.1338 71.847 48.3549 73.8393 46.5049C75.6182 44.7971 77.0413 43.3028 78.7491 41.7374C80.0299 40.8124 81.3818 39.8874 82.7338 39.1047ZM61.7428 29.0717C67.293 28.7159 72.5585 27.1505 77.4683 24.8735C81.3818 22.8811 84.8685 20.8176 87.857 17.4733C90.2763 15.054 94.9726 9.21921 90.2052 6.58644C85.7223 4.94986 81.6665 7.15568 77.7529 8.86343C69.7123 13.702 62.739 20.1772 57.1177 27.5774L56.4061 28.5736C56.6908 28.7159 57.1889 28.7871 57.4735 28.7871C58.8966 29.0005 60.3197 29.0005 61.7428 29.0717Z" fill="white"/>
<path d="M83.3809 37.895L85.5155 34.1949C86.7964 32.3448 88.006 30.4236 89.2868 28.5736C90.3541 27.1505 91.4926 25.7985 92.7023 24.5177C94.41 22.7388 96.1178 20.9599 97.8967 19.2522C98.6082 18.5406 99.4621 17.9002 100.245 17.2598C101.241 16.3348 102.379 15.6232 103.589 14.9828C105.368 14.129 109.922 12.5635 109.495 15.979C108.214 20.106 104.372 23.0946 101.526 25.5139C99.3909 27.2928 96.9716 28.7871 94.6235 30.3525C93.4138 31.064 92.133 31.7756 90.8522 32.4872C89.9272 32.9852 89.0022 33.4122 88.0772 33.9103C87.7925 34.0526 87.5079 34.2661 87.2944 34.5507C86.654 35.5469 85.9425 36.6142 85.3732 37.7527C84.5905 39.3181 83.8078 40.8835 83.1674 42.449C82.9539 42.8048 82.1001 45.1529 83.0963 44.2279C85.2309 42.449 87.0098 40.5278 89.2868 38.9623C90.4253 38.1796 91.9196 38.8912 91.4926 40.2431C91.0657 41.5951 90.2118 42.6624 89.6426 43.7298C93.4138 42.9471 96.4024 41.3105 99.0352 39.3181C99.1775 39.1758 99.3198 39.4604 99.1775 39.4604C96.3312 41.7374 93.0581 43.1605 89.7849 44.0144C89.2868 44.0856 89.0022 44.3702 88.7176 44.726C86.8675 46.9318 85.0175 48.5684 82.8828 49.4222C81.7443 49.7069 81.5308 48.2838 81.8866 47.7145C82.8116 46.0779 84.7328 45.1529 86.2271 44.5837C86.5829 44.5125 86.9387 44.1567 87.2233 43.8721C88.006 42.8048 88.7887 41.7374 89.5714 40.6701C90.1407 39.8162 91.3503 37.8238 89.1445 39.4604C86.654 41.0259 84.804 43.5875 82.6693 45.1529C81.2462 45.9356 81.0327 44.6548 81.3174 43.5875C81.8154 41.6663 82.4559 39.7451 83.3809 37.895ZM88.2906 33.1987C92.56 31.491 96.7582 28.5024 100.387 25.8697C103.233 23.8061 108.357 19.3233 109.068 15.9079C109.353 13.3462 105.51 15.1251 104.514 15.6232C103.874 15.979 103.233 16.5483 102.593 17.0463C101.099 18.1848 99.6756 19.4656 98.3948 20.8888C97.2563 22.1696 96.0466 23.3792 94.9081 24.66C93.8408 25.8697 92.7734 27.0082 91.7773 28.2178C90.7811 29.4275 89.8561 30.7794 88.931 32.0602C88.7176 32.3448 88.5041 32.7006 88.2906 33.1987ZM86.7252 44.726C85.4444 45.0817 84.0924 45.8645 83.0963 46.7183C82.5982 47.1453 81.9578 47.928 82.0289 48.4972C82.1712 49.2088 83.3097 48.0703 83.5232 47.928C84.1636 47.3587 84.804 46.7895 85.3732 46.2202C85.8713 45.7933 86.5829 45.0106 86.7252 44.726Z" fill="white"/>
<path d="M110.309 39.5316C112.231 38.6066 110.879 39.7451 109.954 39.9585C108.531 40.5278 107.107 40.7412 105.684 40.8835C105.044 40.9547 104.475 41.0259 103.763 40.8835C102.838 42.3067 101.628 43.7298 100.276 44.6548C99.4226 45.2241 97.9995 45.0817 97.5726 44.1567C97.1456 42.6624 98.2841 40.5989 99.138 39.6027L99.9207 38.5354C98.1418 35.9738 99.138 32.2025 102.553 31.7756C106.325 31.3487 106.111 37.5392 103.905 40.5989C104.048 40.5989 104.19 40.6701 104.404 40.6701C106.396 40.6701 108.388 40.3143 110.309 39.5316ZM100.775 32.7006C99.3515 33.8391 98.6399 36.4007 100.205 38.2508C101.059 37.4681 101.842 36.6854 102.767 36.2584C103.621 35.9026 103.621 36.97 103.194 37.3969C102.696 37.895 102.269 38.3931 101.771 38.9623L101.415 39.3893C101.628 39.5316 102.055 39.9585 102.482 40.172C102.909 40.3855 103.407 40.5278 103.621 40.5278C105.755 38.2508 106.467 29.4275 100.775 32.7006ZM103.407 40.8124C103.194 40.8124 102.696 40.5989 102.269 40.3855C101.842 40.172 101.415 39.8162 101.202 39.6739C101.13 39.7451 100.846 40.1008 100.49 40.6701C99.7784 41.8086 99.0668 42.7336 98.8534 43.7298C98.7822 44.5125 99.2092 45.0106 100.276 44.299C101.344 43.6586 102.198 42.5201 102.909 41.524L103.407 40.8124Z" fill="white"/>
<path d="M118.881 30.8451C118.738 30.9163 118.596 31.4143 118.24 31.4143C118.098 31.4143 117.458 31.3432 117.885 30.8451C118.454 30.1335 119.237 30.1335 118.881 30.8451ZM120.828 31.6299C120.685 31.7011 120.543 32.1992 120.187 32.1992C120.045 32.1992 119.404 32.128 119.831 31.6299C120.401 30.9184 121.183 30.9184 120.828 31.6299ZM118.566 32.9141C120.772 33.1276 118.637 35.9026 116.076 36.045C113.087 36.4007 109.743 45.0106 112.233 45.0106C113.158 45.0817 113.657 44.5125 114.439 43.9432C116.859 42.022 119.705 40.8835 122.622 39.3181C122.978 39.1047 123.334 39.247 122.836 39.5316C119.776 41.1682 116.432 42.5913 113.941 44.6548C113.372 45.1529 112.66 45.2952 111.949 45.2241C109.672 44.7971 109.814 41.3105 110.526 39.8874C111.949 36.97 114.724 32.2737 118.566 32.9141ZM118.424 33.4833C117.499 33.6968 116.787 34.4795 116.147 35.1911L115.72 35.618C115.222 36.1161 117.499 35.618 118.353 34.8353C118.922 34.4795 119.989 33.1987 118.424 33.4833Z" fill="white"/>
<path d="M82.7338 39.1047L82.805 39.6027C81.6665 40.1008 80.9549 40.5278 80.0299 41.2393C78.251 42.6624 76.7567 44.1567 75.1913 45.7221C72.0604 48.5684 69.0007 51.5569 65.0872 53.6916C62.5967 55.0436 60.1063 56.2532 57.26 56.5378C48.6502 57.4629 46.0174 47.9991 47.7963 41.3816C49.2194 37.0411 50.9983 32.9853 53.4888 29.214C53.9869 28.289 54.2715 28.1467 53.4176 27.6486C51.781 26.7235 50.4291 25.6562 49.6463 24.1619C49.1483 23.2369 48.7925 21.458 49.6463 23.5215C50.4291 25.4427 52.208 26.5812 53.9869 27.5774C54.5561 27.862 54.8407 27.3639 55.0542 27.0793C61.1736 18.9676 69.2142 10.8558 78.9625 6.94222C82.7338 5.37679 86.6474 4.66523 90.4898 6.44413C95.2572 8.64996 90.9167 15.054 88.5686 17.4021C85.3666 20.9599 81.8088 23.2369 77.7529 25.1581C72.7008 27.5063 64.4468 30.2102 57.3312 29.214L56.1927 29.0005C56.1215 29.0717 55.8369 29.4275 55.6946 29.7832C52.5637 34.8353 46.4443 44.8683 49.2906 51.5569C50.1444 54.332 53.3464 56.4667 56.1215 56.3244C60.5332 56.182 64.091 54.1897 67.6488 51.6992C69.7834 50.1338 71.847 48.3549 73.8393 46.5049C75.6182 44.7971 77.0413 43.3028 78.7491 41.7374C80.0299 40.8124 81.3818 39.8874 82.7338 39.1047ZM61.7428 29.0717C67.293 28.7159 72.5585 27.1505 77.4683 24.8735C81.3818 22.8811 84.8685 20.8176 87.857 17.4733C90.2763 15.054 94.9726 9.21921 90.2052 6.58644C85.7223 4.94986 81.6665 7.15568 77.7529 8.86343C69.7123 13.702 62.739 20.1772 57.1177 27.5774L56.4061 28.5736C56.6908 28.7159 57.1889 28.7871 57.4735 28.7871C58.8966 29.0005 60.3197 29.0005 61.7428 29.0717Z" stroke="white" stroke-width="0.344949" mask="url(#path-1-outside-1_165_733)"/>
<path d="M83.3809 37.895L85.5155 34.1949C86.7964 32.3448 88.006 30.4236 89.2868 28.5736C90.3541 27.1505 91.4926 25.7985 92.7023 24.5177C94.41 22.7388 96.1178 20.9599 97.8967 19.2522C98.6082 18.5406 99.4621 17.9002 100.245 17.2598C101.241 16.3348 102.379 15.6232 103.589 14.9828C105.368 14.129 109.922 12.5635 109.495 15.979C108.214 20.106 104.372 23.0946 101.526 25.5139C99.3909 27.2928 96.9716 28.7871 94.6235 30.3525C93.4138 31.064 92.133 31.7756 90.8522 32.4872C89.9272 32.9852 89.0022 33.4122 88.0772 33.9103C87.7925 34.0526 87.5079 34.2661 87.2944 34.5507C86.654 35.5469 85.9425 36.6142 85.3732 37.7527C84.5905 39.3181 83.8078 40.8835 83.1674 42.449C82.9539 42.8048 82.1001 45.1529 83.0963 44.2279C85.2309 42.449 87.0098 40.5278 89.2868 38.9623C90.4253 38.1796 91.9196 38.8912 91.4926 40.2431C91.0657 41.5951 90.2118 42.6624 89.6426 43.7298C93.4138 42.9471 96.4024 41.3105 99.0352 39.3181C99.1775 39.1758 99.3198 39.4604 99.1775 39.4604C96.3312 41.7374 93.0581 43.1605 89.7849 44.0144C89.2868 44.0856 89.0022 44.3702 88.7176 44.726C86.8675 46.9318 85.0175 48.5684 82.8828 49.4222C81.7443 49.7069 81.5308 48.2838 81.8866 47.7145C82.8116 46.0779 84.7328 45.1529 86.2271 44.5837C86.5829 44.5125 86.9387 44.1567 87.2233 43.8721C88.006 42.8048 88.7887 41.7374 89.5714 40.6701C90.1407 39.8162 91.3503 37.8238 89.1445 39.4604C86.654 41.0259 84.804 43.5875 82.6693 45.1529C81.2462 45.9356 81.0327 44.6548 81.3174 43.5875C81.8154 41.6663 82.4559 39.7451 83.3809 37.895ZM88.2906 33.1987C92.56 31.491 96.7582 28.5024 100.387 25.8697C103.233 23.8061 108.357 19.3233 109.068 15.9079C109.353 13.3462 105.51 15.1251 104.514 15.6232C103.874 15.979 103.233 16.5483 102.593 17.0463C101.099 18.1848 99.6756 19.4656 98.3948 20.8888C97.2563 22.1696 96.0466 23.3792 94.9081 24.66C93.8408 25.8697 92.7734 27.0082 91.7773 28.2178C90.7811 29.4275 89.8561 30.7794 88.931 32.0602C88.7176 32.3448 88.5041 32.7006 88.2906 33.1987ZM86.7252 44.726C85.4444 45.0817 84.0924 45.8645 83.0963 46.7183C82.5982 47.1453 81.9578 47.928 82.0289 48.4972C82.1712 49.2088 83.3097 48.0703 83.5232 47.928C84.1636 47.3587 84.804 46.7895 85.3732 46.2202C85.8713 45.7933 86.5829 45.0106 86.7252 44.726Z" stroke="white" stroke-width="0.344949" mask="url(#path-1-outside-1_165_733)"/>
<path d="M110.309 39.5316C112.231 38.6066 110.879 39.7451 109.954 39.9585C108.531 40.5278 107.107 40.7412 105.684 40.8835C105.044 40.9547 104.475 41.0259 103.763 40.8835C102.838 42.3067 101.628 43.7298 100.276 44.6548C99.4226 45.2241 97.9995 45.0817 97.5726 44.1567C97.1456 42.6624 98.2841 40.5989 99.138 39.6027L99.9207 38.5354C98.1418 35.9738 99.138 32.2025 102.553 31.7756C106.325 31.3487 106.111 37.5392 103.905 40.5989C104.048 40.5989 104.19 40.6701 104.404 40.6701C106.396 40.6701 108.388 40.3143 110.309 39.5316ZM100.775 32.7006C99.3515 33.8391 98.6399 36.4007 100.205 38.2508C101.059 37.4681 101.842 36.6854 102.767 36.2584C103.621 35.9026 103.621 36.97 103.194 37.3969C102.696 37.895 102.269 38.3931 101.771 38.9623L101.415 39.3893C101.628 39.5316 102.055 39.9585 102.482 40.172C102.909 40.3855 103.407 40.5278 103.621 40.5278C105.755 38.2508 106.467 29.4275 100.775 32.7006ZM103.407 40.8124C103.194 40.8124 102.696 40.5989 102.269 40.3855C101.842 40.172 101.415 39.8162 101.202 39.6739C101.13 39.7451 100.846 40.1008 100.49 40.6701C99.7784 41.8086 99.0668 42.7336 98.8534 43.7298C98.7822 44.5125 99.2092 45.0106 100.276 44.299C101.344 43.6586 102.198 42.5201 102.909 41.524L103.407 40.8124Z" stroke="white" stroke-width="0.344949" mask="url(#path-1-outside-1_165_733)"/>
<path d="M118.881 30.8451C118.738 30.9163 118.596 31.4143 118.24 31.4143C118.098 31.4143 117.458 31.3432 117.885 30.8451C118.454 30.1335 119.237 30.1335 118.881 30.8451ZM120.828 31.6299C120.685 31.7011 120.543 32.1992 120.187 32.1992C120.045 32.1992 119.404 32.128 119.831 31.6299C120.401 30.9184 121.183 30.9184 120.828 31.6299ZM118.566 32.9141C120.772 33.1276 118.637 35.9026 116.076 36.045C113.087 36.4007 109.743 45.0106 112.233 45.0106C113.158 45.0817 113.657 44.5125 114.439 43.9432C116.859 42.022 119.705 40.8835 122.622 39.3181C122.978 39.1047 123.334 39.247 122.836 39.5316C119.776 41.1682 116.432 42.5913 113.941 44.6548C113.372 45.1529 112.66 45.2952 111.949 45.2241C109.672 44.7971 109.814 41.3105 110.526 39.8874C111.949 36.97 114.724 32.2737 118.566 32.9141ZM118.424 33.4833C117.499 33.6968 116.787 34.4795 116.147 35.1911L115.72 35.618C115.222 36.1161 117.499 35.618 118.353 34.8353C118.922 34.4795 119.989 33.1987 118.424 33.4833Z" stroke="white" stroke-width="0.344949" mask="url(#path-1-outside-1_165_733)"/>
<path d="M93.1103 52.3428L93.5703 52.4118L93.3173 60.0938C93.3019 60.9065 93.4093 61.4815 93.6393 61.8188C93.8693 62.1562 94.2603 62.3248 94.8123 62.3248C94.8583 62.3248 94.8813 62.3708 94.8813 62.4628C94.8813 62.5548 94.8583 62.6008 94.8123 62.6008C94.4903 62.6008 94.2449 62.5932 94.0763 62.5778L93.0643 62.5548L92.0983 62.5778C91.8989 62.5932 91.6229 62.6008 91.2703 62.6008C91.2396 62.6008 91.2243 62.5548 91.2243 62.4628C91.2243 62.3708 91.2396 62.3248 91.2703 62.3248C91.8376 62.3248 92.2363 62.1562 92.4663 61.8188C92.6963 61.4815 92.8266 60.9065 92.8573 60.0938L93.1103 52.3428ZM105.645 62.3248C105.676 62.3248 105.691 62.3708 105.691 62.4628C105.691 62.5548 105.676 62.6008 105.645 62.6008C105.216 62.6008 104.879 62.5932 104.633 62.5778L103.276 62.5548L101.712 62.5778C101.452 62.5932 101.091 62.6008 100.631 62.6008C100.601 62.6008 100.585 62.5548 100.585 62.4628C100.585 62.3708 100.601 62.3248 100.631 62.3248C101.199 62.3248 101.62 62.2865 101.896 62.2098C102.172 62.1332 102.356 61.9875 102.448 61.7728C102.54 61.5428 102.579 61.1978 102.563 60.7378L102.241 52.2968L102.632 52.1128L98.3083 62.4398C98.2776 62.5012 98.2239 62.5318 98.1473 62.5318C98.0553 62.5318 97.9939 62.5012 97.9633 62.4398L93.5703 53.7458C93.0336 52.6572 92.3283 52.1128 91.4543 52.1128C91.4083 52.1128 91.3853 52.0668 91.3853 51.9748C91.3853 51.8828 91.4083 51.8368 91.4543 51.8368L92.7193 51.8598L93.8233 51.8368C94.0226 51.8368 94.1836 51.9058 94.3063 52.0438C94.4289 52.1818 94.6206 52.5115 94.8813 53.0328L98.7683 60.7608L98.1243 61.7958L102.057 52.4118C102.119 52.2432 102.211 52.1052 102.333 51.9978C102.471 51.8905 102.609 51.8368 102.747 51.8368L103.966 51.8598L105.507 51.8368C105.538 51.8368 105.553 51.8828 105.553 51.9748C105.553 52.0668 105.538 52.1128 105.507 52.1128C104.817 52.1128 104.334 52.2202 104.058 52.4348C103.782 52.6342 103.66 53.0405 103.69 53.6538L103.966 60.7378C103.997 61.2132 104.051 61.5582 104.127 61.7728C104.204 61.9875 104.35 62.1332 104.564 62.2098C104.794 62.2865 105.155 62.3248 105.645 62.3248ZM107.128 62.6008C107.098 62.6008 107.082 62.5548 107.082 62.4628C107.082 62.3708 107.098 62.3248 107.128 62.3248C107.634 62.3248 108.002 62.2865 108.232 62.2098C108.462 62.1332 108.616 61.9875 108.692 61.7728C108.784 61.5428 108.83 61.1978 108.83 60.7378V53.6998C108.83 53.2398 108.784 52.9025 108.692 52.6878C108.616 52.4732 108.462 52.3275 108.232 52.2508C108.002 52.1588 107.634 52.1128 107.128 52.1128C107.098 52.1128 107.082 52.0668 107.082 51.9748C107.082 51.8828 107.098 51.8368 107.128 51.8368H115.132C115.286 51.8368 115.362 51.8982 115.362 52.0208L115.385 53.4468C115.401 53.7382 115.408 54.1062 115.408 54.5508C115.408 54.5968 115.362 54.6198 115.27 54.6198C115.178 54.6198 115.132 54.5968 115.132 54.5508C115.071 53.8455 114.81 53.2705 114.35 52.8258C113.906 52.3658 113.354 52.1358 112.694 52.1358H112.05C111.514 52.1358 111.123 52.1818 110.877 52.2738C110.632 52.3505 110.463 52.4962 110.371 52.7108C110.279 52.9255 110.233 53.2628 110.233 53.7228V60.6458C110.233 61.0905 110.279 61.4278 110.371 61.6578C110.463 61.8725 110.632 62.0258 110.877 62.1178C111.138 62.1945 111.529 62.2328 112.05 62.2328H113.154C113.783 62.2328 114.335 61.9875 114.81 61.4968C115.301 60.9908 115.631 60.3392 115.799 59.5418C115.799 59.4958 115.838 59.4728 115.914 59.4728C116.006 59.4728 116.052 59.4958 116.052 59.5418C115.945 60.6458 115.891 61.5505 115.891 62.2558C115.891 62.3785 115.868 62.4705 115.822 62.5318C115.776 62.5778 115.684 62.6008 115.546 62.6008H107.128ZM114.212 57.6558C114.151 57.6558 113.814 57.6098 113.2 57.5178C112.602 57.4105 111.422 57.3568 109.658 57.3568V56.8738C111.406 56.8738 112.579 56.8355 113.177 56.7588C113.791 56.6822 114.136 56.6438 114.212 56.6438C114.289 56.6438 114.327 56.8048 114.327 57.1268C114.327 57.4795 114.289 57.6558 114.212 57.6558ZM124.145 51.5608C124.728 51.5608 125.349 51.6222 126.008 51.7448C126.683 51.8522 127.227 52.0132 127.641 52.2278C127.749 52.2738 127.818 52.3198 127.848 52.3658C127.879 52.4118 127.902 52.4962 127.917 52.6188L128.147 54.9878C128.147 55.0338 128.101 55.0645 128.009 55.0798C127.933 55.0952 127.887 55.0722 127.871 55.0108C127.595 53.9528 127.089 53.1708 126.353 52.6648C125.633 52.1588 124.736 51.9058 123.662 51.9058C122.865 51.9058 122.144 52.1205 121.5 52.5498C120.856 52.9792 120.35 53.5695 119.982 54.3208C119.63 55.0568 119.453 55.8925 119.453 56.8278C119.453 57.7785 119.637 58.6985 120.005 59.5878C120.373 60.4618 120.918 61.1748 121.638 61.7268C122.374 62.2788 123.256 62.5548 124.283 62.5548C125.219 62.5548 126.008 62.2942 126.652 61.7728C127.312 61.2515 127.787 60.4542 128.078 59.3808C128.078 59.3348 128.117 59.3118 128.193 59.3118C128.224 59.3118 128.255 59.3272 128.285 59.3578C128.331 59.3732 128.354 59.3885 128.354 59.4038L128.055 61.8418C128.04 61.9645 128.017 62.0488 127.986 62.0948C127.956 62.1408 127.871 62.1945 127.733 62.2558C126.553 62.6698 125.326 62.8768 124.053 62.8768C122.597 62.8768 121.401 62.5855 120.465 62.0028C119.53 61.4202 118.855 60.6918 118.441 59.8178C118.027 58.9438 117.82 58.0622 117.82 57.1728C117.82 56.1302 118.096 55.1795 118.648 54.3208C119.2 53.4622 119.959 52.7875 120.925 52.2968C121.891 51.8062 122.965 51.5608 124.145 51.5608ZM132.818 52.1358C132.235 52.1358 131.775 52.2202 131.438 52.3888C131.101 52.5422 130.832 52.8105 130.633 53.1938C130.449 53.5772 130.303 54.1215 130.196 54.8268C130.196 54.8575 130.15 54.8728 130.058 54.8728C129.981 54.8728 129.943 54.8575 129.943 54.8268C129.989 54.4742 130.043 53.9068 130.104 53.1248C130.165 52.3428 130.196 51.7448 130.196 51.3308C130.196 51.2542 130.242 51.2158 130.334 51.2158C130.426 51.2158 130.472 51.2542 130.472 51.3308C130.472 51.5302 130.587 51.6605 130.817 51.7218C131.047 51.7678 131.331 51.7908 131.668 51.7908C133.017 51.8215 134.175 51.8368 135.141 51.8368L137.142 51.8138C137.418 51.7985 137.778 51.7908 138.223 51.7908C138.775 51.7908 139.181 51.7602 139.442 51.6988C139.703 51.6222 139.871 51.4688 139.948 51.2388C139.979 51.1928 140.032 51.1698 140.109 51.1698C140.186 51.1698 140.224 51.1928 140.224 51.2388C140.132 52.8948 140.086 54.0908 140.086 54.8268C140.086 54.8575 140.04 54.8728 139.948 54.8728C139.871 54.8728 139.833 54.8575 139.833 54.8268C139.818 54.1368 139.733 53.6002 139.58 53.2168C139.442 52.8335 139.204 52.5575 138.867 52.3888C138.53 52.2202 138.062 52.1358 137.464 52.1358C136.805 52.1358 136.36 52.2432 136.13 52.4578C135.915 52.6572 135.808 53.0712 135.808 53.6998V60.7378C135.808 61.2132 135.854 61.5582 135.946 61.7728C136.038 61.9875 136.214 62.1332 136.475 62.2098C136.751 62.2865 137.188 62.3248 137.786 62.3248C137.832 62.3248 137.855 62.3708 137.855 62.4628C137.855 62.5548 137.832 62.6008 137.786 62.6008C137.311 62.6008 136.943 62.5932 136.682 62.5778L135.072 62.5548L133.531 62.5778C133.255 62.5932 132.872 62.6008 132.381 62.6008C132.35 62.6008 132.335 62.5548 132.335 62.4628C132.335 62.3708 132.35 62.3248 132.381 62.3248C132.964 62.3248 133.393 62.2865 133.669 62.2098C133.945 62.1332 134.129 61.9875 134.221 61.7728C134.328 61.5428 134.382 61.1978 134.382 60.7378V53.6538C134.382 53.2092 134.344 52.8872 134.267 52.6878C134.206 52.4732 134.068 52.3275 133.853 52.2508C133.638 52.1742 133.293 52.1358 132.818 52.1358ZM147.103 62.8768C146.03 62.8768 145.072 62.6238 144.228 62.1178C143.4 61.6118 142.756 60.9295 142.296 60.0708C141.836 59.2122 141.606 58.2845 141.606 57.2878C141.606 56.0918 141.913 55.0645 142.526 54.2058C143.155 53.3318 143.945 52.6725 144.895 52.2278C145.861 51.7832 146.843 51.5608 147.839 51.5608C148.913 51.5608 149.856 51.8292 150.668 52.3658C151.496 52.8872 152.125 53.5695 152.554 54.4128C152.999 55.2562 153.221 56.1378 153.221 57.0578C153.221 58.0852 152.945 59.0512 152.393 59.9558C151.841 60.8452 151.098 61.5582 150.162 62.0948C149.227 62.6162 148.207 62.8768 147.103 62.8768ZM147.701 62.3938C148.897 62.3938 149.848 61.9722 150.553 61.1288C151.274 60.2855 151.634 59.1202 151.634 57.6328C151.634 56.6055 151.45 55.6702 151.082 54.8268C150.73 53.9835 150.208 53.3088 149.518 52.8028C148.828 52.2968 148.008 52.0438 147.057 52.0438C145.831 52.0438 144.88 52.4578 144.205 53.2858C143.531 54.0985 143.193 55.2408 143.193 56.7128C143.193 57.7708 143.37 58.7292 143.722 59.5878C144.09 60.4465 144.612 61.1288 145.286 61.6348C145.976 62.1408 146.781 62.3938 147.701 62.3938Z" fill="white"/>
</svg>
