<svg width="107" height="75" viewBox="0 0 107 75" fill="none" xmlns="http://www.w3.org/2000/svg">
<path d="M6.86803 0.75L28.25 0.75C28.8991 0.75 29.5307 0.960534 30.05 1.35C30.8054 1.91656 31.25 2.80573 31.25 3.75V5.5L32.75 5.5C34.4069 5.5 35.75 6.84315 35.75 8.5L35.75 65.75C35.75 67.4069 34.4069 68.75 32.75 68.75H31.25V70.75C31.25 71.6943 30.8054 72.5834 30.05 73.15C29.5307 73.5395 28.8991 73.75 28.25 73.75H7.25C6.60089 73.75 5.96929 73.5395 5.45 73.15C4.69458 72.5834 4.25 71.6943 4.25 70.75V68.75C2.59315 68.75 1.25 67.4069 1.25 65.75L1.25 8.75C1.25 7.09315 2.59315 5.75 4.25 5.75L4.25 3.36803C4.25 2.3764 4.81027 1.46987 5.69721 1.02639C6.06074 0.844629 6.4616 0.75 6.86803 0.75Z" fill="url(#paint0_linear_2_200)"/>
<path d="M4.25 5.75L4.25 3.36803C4.25 2.3764 4.81027 1.46987 5.69721 1.02639V1.02639C6.06074 0.844629 6.4616 0.75 6.86803 0.75L28.25 0.75C28.8991 0.75 29.5307 0.960534 30.05 1.35V1.35C30.8054 1.91656 31.25 2.80573 31.25 3.75V5.5M4.25 5.75V5.75C2.59315 5.75 1.25 7.09315 1.25 8.75L1.25 65.75C1.25 67.4069 2.59315 68.75 4.25 68.75V68.75M4.25 5.75H7.5M8.25 68.75L7.5 5.75M8.25 68.75H4.25M8.25 68.75H9.14445C10.1475 68.75 11.0842 68.2487 11.6406 67.4141L11.8594 67.0859C12.4158 66.2513 13.3525 65.75 14.3556 65.75H15.25M7.5 5.75H8.8959C10.0322 5.75 11.071 6.39201 11.5792 7.40836L11.9208 8.09164C12.429 9.10799 13.4678 9.75 14.6041 9.75H15.25M15.25 9.75L28.632 9.75C29.0384 9.75 29.4393 9.65537 29.8028 9.47361V9.47361C30.6897 9.03013 31.25 8.1236 31.25 7.13197V5.5M15.25 9.75L15.25 65.75M15.25 65.75H28.25C28.8991 65.75 29.5307 65.9605 30.05 66.35V66.35C30.8054 66.9166 31.25 67.8057 31.25 68.75V68.75M4.25 68.75V70.75C4.25 71.6943 4.69458 72.5834 5.45 73.15V73.15C5.96929 73.5395 6.60089 73.75 7.25 73.75H28.25C28.8991 73.75 29.5307 73.5395 30.05 73.15V73.15C30.8054 72.5834 31.25 71.6943 31.25 70.75V68.75M31.25 5.5L32.75 5.5C34.4069 5.5 35.75 6.84315 35.75 8.5L35.75 65.75C35.75 67.4069 34.4069 68.75 32.75 68.75H31.25" stroke="#2C1107"/>
<mask id="path-3-inside-1_2_200" fill="white">
<path d="M79 45C79 42.7909 80.7909 41 83 41H95C97.2091 41 99 42.7909 99 45V62C99 64.2091 97.2091 66 95 66H83C80.7909 66 79 64.2091 79 62V45Z"/>
</mask>
<path d="M79 45C79 42.7909 80.7909 41 83 41H95C97.2091 41 99 42.7909 99 45V62C99 64.2091 97.2091 66 95 66H83C80.7909 66 79 64.2091 79 62V45Z" fill="url(#paint1_radial_2_200)"/>
<path d="M78 45C78 42.2386 80.2386 40 83 40H95C97.4853 40 99.5 42.0147 99.5 44.5L98.5 45C98.5 43.3431 96.933 42 95 42H83C81.3431 42 80 43.3431 80 45H78ZM99.5 62.5C99.5 64.9853 97.4853 67 95 67H83C80.2386 67 78 64.7614 78 62H80C80 63.6569 81.3431 65 83 65H95C96.933 65 98.5 63.6569 98.5 62L99.5 62.5ZM83 67C80.2386 67 78 64.7614 78 62V45C78 42.2386 80.2386 40 83 40V42C81.3431 42 80 43.3431 80 45V62C80 63.6569 81.3431 65 83 65V67ZM95 40C97.4853 40 99.5 42.0147 99.5 44.5V62.5C99.5 64.9853 97.4853 67 95 67V65C96.933 65 98.5 63.6569 98.5 62V45C98.5 43.3431 96.933 42 95 42V40Z" fill="black" mask="url(#path-3-inside-1_2_200)"/>
<mask id="path-5-inside-2_2_200" fill="white">
<path d="M98 63C98 64.6569 99.4019 66.0415 100.9 65.3334C101.083 65.2467 101.265 65.1517 101.444 65.0485C102.536 64.4203 103.528 63.4996 104.364 62.3388C105.2 61.1781 105.863 59.8001 106.315 58.2835C106.767 56.767 107 55.1415 107 53.5C107 51.8585 106.767 50.233 106.315 48.7165C105.863 47.1999 105.2 45.8219 104.364 44.6612C103.528 43.5004 102.536 42.5797 101.444 41.9515C101.265 41.8483 101.083 41.7533 100.9 41.6666C99.4019 40.9585 98 42.3431 98 44L98 53.5V63Z"/>
</mask>
<path d="M98 63C98 64.6569 99.4019 66.0415 100.9 65.3334C101.083 65.2467 101.265 65.1517 101.444 65.0485C102.536 64.4203 103.528 63.4996 104.364 62.3388C105.2 61.1781 105.863 59.8001 106.315 58.2835C106.767 56.767 107 55.1415 107 53.5C107 51.8585 106.767 50.233 106.315 48.7165C105.863 47.1999 105.2 45.8219 104.364 44.6612C103.528 43.5004 102.536 42.5797 101.444 41.9515C101.265 41.8483 101.083 41.7533 100.9 41.6666C99.4019 40.9585 98 42.3431 98 44L98 53.5V63Z" fill="url(#paint2_linear_2_200)" stroke="black" stroke-width="2" mask="url(#path-5-inside-2_2_200)"/>
<mask id="path-6-inside-3_2_200" fill="white">
<path d="M79 15C79 12.7909 80.7909 11 83 11H95C97.2091 11 99 12.7909 99 15V32C99 34.2091 97.2091 36 95 36H83C80.7909 36 79 34.2091 79 32V15Z"/>
</mask>
<path d="M79 15C79 12.7909 80.7909 11 83 11H95C97.2091 11 99 12.7909 99 15V32C99 34.2091 97.2091 36 95 36H83C80.7909 36 79 34.2091 79 32V15Z" fill="url(#paint3_radial_2_200)"/>
<path d="M78 15C78 12.2386 80.2386 10 83 10H95C97.4853 10 99.5 12.0147 99.5 14.5L98.5 15C98.5 13.3431 96.933 12 95 12H83C81.3431 12 80 13.3431 80 15H78ZM99.5 32.5C99.5 34.9853 97.4853 37 95 37H83C80.2386 37 78 34.7614 78 32H80C80 33.6569 81.3431 35 83 35H95C96.933 35 98.5 33.6569 98.5 32L99.5 32.5ZM83 37C80.2386 37 78 34.7614 78 32V15C78 12.2386 80.2386 10 83 10V12C81.3431 12 80 13.3431 80 15V32C80 33.6569 81.3431 35 83 35V37ZM95 10C97.4853 10 99.5 12.0147 99.5 14.5V32.5C99.5 34.9853 97.4853 37 95 37V35C96.933 35 98.5 33.6569 98.5 32V15C98.5 13.3431 96.933 12 95 12V10Z" fill="black" mask="url(#path-6-inside-3_2_200)"/>
<mask id="path-8-inside-4_2_200" fill="white">
<path d="M98 33C98 34.6569 99.4019 36.0415 100.9 35.3334C101.083 35.2467 101.265 35.1517 101.444 35.0485C102.536 34.4203 103.528 33.4996 104.364 32.3388C105.2 31.1781 105.863 29.8001 106.315 28.2835C106.767 26.767 107 25.1415 107 23.5C107 21.8585 106.767 20.233 106.315 18.7165C105.863 17.1999 105.2 15.8219 104.364 14.6612C103.528 13.5004 102.536 12.5797 101.444 11.9515C101.265 11.8483 101.083 11.7533 100.9 11.6666C99.4019 10.9585 98 12.3431 98 14L98 23.5V33Z"/>
</mask>
<path d="M98 33C98 34.6569 99.4019 36.0415 100.9 35.3334C101.083 35.2467 101.265 35.1517 101.444 35.0485C102.536 34.4203 103.528 33.4996 104.364 32.3388C105.2 31.1781 105.863 29.8001 106.315 28.2835C106.767 26.767 107 25.1415 107 23.5C107 21.8585 106.767 20.233 106.315 18.7165C105.863 17.1999 105.2 15.8219 104.364 14.6612C103.528 13.5004 102.536 12.5797 101.444 11.9515C101.265 11.8483 101.083 11.7533 100.9 11.6666C99.4019 10.9585 98 12.3431 98 14L98 23.5V33Z" fill="url(#paint4_linear_2_200)" stroke="black" stroke-width="2" mask="url(#path-8-inside-4_2_200)"/>
<rect width="60" height="35" transform="matrix(0 -1 1 0 40 69)" fill="url(#paint5_radial_2_200)"/>
<rect x="74.5" y="68.5" width="34" height="59" transform="rotate(-180 74.5 68.5)" stroke="black"/>
<defs>
<linearGradient id="paint0_linear_2_200" x1="1.25" y1="38.75" x2="34.75" y2="38.75" gradientUnits="userSpaceOnUse">
<stop stop-color="#E9B58F"/>
<stop offset="1" stop-color="#534031"/>
</linearGradient>
<radialGradient id="paint1_radial_2_200" cx="0" cy="0" r="1" gradientUnits="userSpaceOnUse" gradientTransform="translate(89 53.5) rotate(180) scale(10 12.5)">
<stop stop-color="#A97854"/>
<stop offset="1" stop-color="#785942"/>
</radialGradient>
<linearGradient id="paint2_linear_2_200" x1="99" y1="53.5" x2="106" y2="53.5" gradientUnits="userSpaceOnUse">
<stop stop-color="#B6845F"/>
<stop offset="1" stop-color="#534031"/>
</linearGradient>
<radialGradient id="paint3_radial_2_200" cx="0" cy="0" r="1" gradientUnits="userSpaceOnUse" gradientTransform="translate(89 23.5) rotate(180) scale(10 12.5)">
<stop stop-color="#A97854"/>
<stop offset="1" stop-color="#785942"/>
</radialGradient>
<linearGradient id="paint4_linear_2_200" x1="99" y1="23.5" x2="106" y2="23.5" gradientUnits="userSpaceOnUse">
<stop stop-color="#B6845F"/>
<stop offset="1" stop-color="#534031"/>
</linearGradient>
<radialGradient id="paint5_radial_2_200" cx="0" cy="0" r="1" gradientUnits="userSpaceOnUse" gradientTransform="translate(30 17.5) rotate(90) scale(17.5 30)">
<stop stop-color="#FAE5B9"/>
<stop offset="1" stop-color="#E6BF9E"/>
</radialGradient>
</defs>
</svg>
