<svg width="105" height="102" viewBox="0 0 105 102" fill="none" xmlns="http://www.w3.org/2000/svg">
<mask id="path-1-inside-1_18_4" fill="white">
<path d="M43.0979 31.56C40.6079 31.56 38.5894 29.5414 38.5894 27.0514V13.0686C38.5894 10.5786 40.6079 8.56 43.0979 8.56L63.0808 8.56C65.5708 8.56 67.5894 10.5786 67.5894 13.0686V27.0514C67.5894 29.5414 65.5708 31.56 63.0808 31.56L43.0979 31.56Z"/>
</mask>
<path d="M43.0979 31.56C40.6079 31.56 38.5894 29.5414 38.5894 27.0514V13.0686C38.5894 10.5786 40.6079 8.56 43.0979 8.56L63.0808 8.56C65.5708 8.56 67.5894 10.5786 67.5894 13.0686V27.0514C67.5894 29.5414 65.5708 31.56 63.0808 31.56L43.0979 31.56Z" fill="white"/>
<path d="M43.0979 32.6871C39.9854 32.6871 37.4622 30.1639 37.4622 27.0514V13.0686C37.4622 10.2673 39.7331 7.99643 42.5344 7.99643L43.0979 9.12357C41.2304 9.12357 39.7165 10.8898 39.7165 13.0686V27.0514C39.7165 28.9189 41.2304 30.4329 43.0979 30.4329V32.6871ZM63.6444 7.99643C66.4456 7.99643 68.7165 10.2673 68.7165 13.0686V27.0514C68.7165 30.1639 66.1933 32.6871 63.0808 32.6871V30.4329C64.9483 30.4329 66.4622 28.9189 66.4622 27.0514V13.0686C66.4622 10.8898 64.9483 9.12357 63.0808 9.12357L63.6444 7.99643ZM68.7165 27.0514C68.7165 30.1639 66.1933 32.6871 63.0808 32.6871H43.0979C39.9854 32.6871 37.4622 30.1639 37.4622 27.0514H39.7165C39.7165 28.9189 41.2304 30.4329 43.0979 30.4329L63.0808 30.4329C64.9483 30.4329 66.4622 28.9189 66.4622 27.0514H68.7165ZM37.4622 13.0686C37.4622 10.2673 39.7331 7.99643 42.5344 7.99643L63.6444 7.99643C66.4456 7.99643 68.7165 10.2673 68.7165 13.0686H66.4622C66.4622 10.8898 64.9483 9.12357 63.0808 9.12357L43.0979 9.12357C41.2304 9.12357 39.7165 10.8898 39.7165 13.0686H37.4622Z" fill="white" mask="url(#path-1-inside-1_18_4)"/>
<mask id="path-3-inside-2_18_4" fill="white">
<path d="M63.7971 10.1443C65.6647 10.1443 67.2253 8.56412 66.4272 6.87575C66.3295 6.66908 66.2224 6.46446 66.1061 6.26224C65.398 5.03147 64.3602 3.91318 63.0519 2.97119C61.7436 2.02921 60.1904 1.28199 58.481 0.772188C56.7716 0.26239 54.9395 -5.82308e-08 53.0893 0C51.2391 5.82309e-08 49.4069 0.26239 47.6975 0.772188C45.9882 1.28199 44.435 2.02921 43.1267 2.97119C41.8183 3.91318 40.7805 5.03148 40.0725 6.26224C39.9561 6.46447 39.8491 6.66908 39.7514 6.87575C38.9533 8.56412 40.5139 10.1443 42.3814 10.1443L53.0893 10.1443H63.7971Z"/>
</mask>
<path d="M63.7971 10.1443C65.6647 10.1443 67.2253 8.56412 66.4272 6.87575C66.3295 6.66908 66.2224 6.46446 66.1061 6.26224C65.398 5.03147 64.3602 3.91318 63.0519 2.97119C61.7436 2.02921 60.1904 1.28199 58.481 0.772188C56.7716 0.26239 54.9395 -5.82308e-08 53.0893 0C51.2391 5.82309e-08 49.4069 0.26239 47.6975 0.772188C45.9882 1.28199 44.435 2.02921 43.1267 2.97119C41.8183 3.91318 40.7805 5.03148 40.0725 6.26224C39.9561 6.46447 39.8491 6.66908 39.7514 6.87575C38.9533 8.56412 40.5139 10.1443 42.3814 10.1443L53.0893 10.1443H63.7971Z" fill="white" stroke="white" stroke-width="2.25429" mask="url(#path-3-inside-2_18_4)"/>
<mask id="path-4-inside-3_18_4" fill="white">
<path d="M44.5894 29.56C42.3802 29.56 40.5894 27.7691 40.5894 25.56V13.56C40.5894 11.3509 42.3802 9.56 44.5894 9.56L61.5894 9.56C63.7985 9.56 65.5894 11.3509 65.5894 13.56V25.56C65.5894 27.7691 63.7985 29.56 61.5894 29.56L44.5894 29.56Z"/>
</mask>
<path d="M44.5894 29.56C42.3802 29.56 40.5894 27.7691 40.5894 25.56V13.56C40.5894 11.3509 42.3802 9.56 44.5894 9.56L61.5894 9.56C63.7985 9.56 65.5894 11.3509 65.5894 13.56V25.56C65.5894 27.7691 63.7985 29.56 61.5894 29.56L44.5894 29.56Z" fill="url(#paint0_radial_18_4)"/>
<path d="M44.5894 30.56C41.8279 30.56 39.5894 28.3214 39.5894 25.56V13.56C39.5894 11.0747 41.6041 9.06 44.0894 9.06L44.5894 10.06C42.9325 10.06 41.5894 11.627 41.5894 13.56V25.56C41.5894 27.2169 42.9325 28.56 44.5894 28.56V30.56ZM62.0894 9.06C64.5746 9.06 66.5894 11.0747 66.5894 13.56V25.56C66.5894 28.3214 64.3508 30.56 61.5894 30.56V28.56C63.2462 28.56 64.5894 27.2169 64.5894 25.56V13.56C64.5894 11.627 63.2462 10.06 61.5894 10.06L62.0894 9.06ZM66.5894 25.56C66.5894 28.3214 64.3508 30.56 61.5894 30.56L44.5894 30.56C41.8279 30.56 39.5894 28.3214 39.5894 25.56H41.5894C41.5894 27.2169 42.9325 28.56 44.5894 28.56L61.5894 28.56C63.2462 28.56 64.5894 27.2169 64.5894 25.56H66.5894ZM39.5894 13.56C39.5894 11.0747 41.6041 9.06 44.0894 9.06L62.0894 9.06C64.5746 9.06 66.5894 11.0747 66.5894 13.56H64.5894C64.5894 11.627 63.2462 10.06 61.5894 10.06L44.5894 10.06C42.9325 10.06 41.5894 11.627 41.5894 13.56H39.5894Z" fill="black" mask="url(#path-4-inside-3_18_4)"/>
<mask id="path-6-inside-4_18_4" fill="white">
<path d="M62.5894 10.56C64.2462 10.56 65.6308 9.15807 64.9227 7.66015C64.8361 7.4768 64.7411 7.29526 64.6378 7.11585C64.0097 6.02392 63.0889 5.03176 61.9282 4.19604C60.7675 3.36031 59.3895 2.69737 57.8729 2.24508C56.3563 1.79279 54.7309 1.56 53.0894 1.56C51.4478 1.56 49.8224 1.79279 48.3058 2.24508C46.7892 2.69737 45.4113 3.36031 44.2505 4.19604C43.0898 5.03176 42.169 6.02392 41.5409 7.11585C41.4376 7.29526 41.3427 7.4768 41.256 7.66015C40.5479 9.15807 41.9325 10.56 43.5894 10.56L53.0894 10.56H62.5894Z"/>
</mask>
<path d="M62.5894 10.56C64.2462 10.56 65.6308 9.15807 64.9227 7.66015C64.8361 7.4768 64.7411 7.29526 64.6378 7.11585C64.0097 6.02392 63.0889 5.03176 61.9282 4.19604C60.7675 3.36031 59.3895 2.69737 57.8729 2.24508C56.3563 1.79279 54.7309 1.56 53.0894 1.56C51.4478 1.56 49.8224 1.79279 48.3058 2.24508C46.7892 2.69737 45.4113 3.36031 44.2505 4.19604C43.0898 5.03176 42.169 6.02392 41.5409 7.11585C41.4376 7.29526 41.3427 7.4768 41.256 7.66015C40.5479 9.15807 41.9325 10.56 43.5894 10.56L53.0894 10.56H62.5894Z" fill="url(#paint1_linear_18_4)"/>
<path d="M62.5894 10.56C64.2462 10.56 65.6308 9.15807 64.9227 7.66015C64.8361 7.4768 64.7411 7.29526 64.6378 7.11585C64.0097 6.02392 63.0889 5.03176 61.9282 4.19604C60.7675 3.36031 59.3895 2.69737 57.8729 2.24508C56.3563 1.79279 54.7309 1.56 53.0894 1.56C51.4478 1.56 49.8224 1.79279 48.3058 2.24508C46.7892 2.69737 45.4113 3.36031 44.2505 4.19604C43.0898 5.03176 42.169 6.02392 41.5409 7.11585C41.4376 7.29526 41.3427 7.4768 41.256 7.66015C40.5479 9.15807 41.9325 10.56 43.5894 10.56L53.0894 10.56H62.5894Z" stroke="black" stroke-width="2" mask="url(#path-6-inside-4_18_4)"/>
<path d="M62.5894 10.56C64.2462 10.56 65.6308 9.15807 64.9227 7.66015C64.8361 7.4768 64.7411 7.29526 64.6378 7.11585C64.0097 6.02392 63.0889 5.03176 61.9282 4.19604C60.7675 3.36031 59.3895 2.69737 57.8729 2.24508C56.3563 1.79279 54.7309 1.56 53.0894 1.56C51.4478 1.56 49.8224 1.79279 48.3058 2.24508C46.7892 2.69737 45.4113 3.36031 44.2505 4.19604C43.0898 5.03176 42.169 6.02392 41.5409 7.11585C41.4376 7.29526 41.3427 7.4768 41.256 7.66015C40.5479 9.15807 41.9325 10.56 43.5894 10.56L53.0894 10.56H62.5894Z" stroke="black" stroke-opacity="0.2" stroke-width="2" mask="url(#path-6-inside-4_18_4)"/>
<mask id="path-7-inside-5_18_4" fill="white">
<path d="M73.0979 31.56C70.6079 31.56 68.5894 29.5414 68.5894 27.0514V13.0686C68.5894 10.5786 70.6079 8.56 73.0979 8.56L93.0808 8.56C95.5708 8.56 97.5894 10.5786 97.5894 13.0686V27.0514C97.5894 29.5414 95.5708 31.56 93.0808 31.56L73.0979 31.56Z"/>
</mask>
<path d="M73.0979 31.56C70.6079 31.56 68.5894 29.5414 68.5894 27.0514V13.0686C68.5894 10.5786 70.6079 8.56 73.0979 8.56L93.0808 8.56C95.5708 8.56 97.5894 10.5786 97.5894 13.0686V27.0514C97.5894 29.5414 95.5708 31.56 93.0808 31.56L73.0979 31.56Z" fill="white"/>
<path d="M73.0979 32.6871C69.9854 32.6871 67.4622 30.1639 67.4622 27.0514V13.0686C67.4622 10.2673 69.7331 7.99643 72.5344 7.99643L73.0979 9.12357C71.2304 9.12357 69.7165 10.8898 69.7165 13.0686V27.0514C69.7165 28.9189 71.2304 30.4329 73.0979 30.4329V32.6871ZM93.6444 7.99643C96.4456 7.99643 98.7165 10.2673 98.7165 13.0686V27.0514C98.7165 30.1639 96.1933 32.6871 93.0808 32.6871V30.4329C94.9483 30.4329 96.4622 28.9189 96.4622 27.0514V13.0686C96.4622 10.8898 94.9483 9.12357 93.0808 9.12357L93.6444 7.99643ZM98.7165 27.0514C98.7165 30.1639 96.1933 32.6871 93.0808 32.6871H73.0979C69.9854 32.6871 67.4622 30.1639 67.4622 27.0514H69.7165C69.7165 28.9189 71.2304 30.4329 73.0979 30.4329L93.0808 30.4329C94.9483 30.4329 96.4622 28.9189 96.4622 27.0514H98.7165ZM67.4622 13.0686C67.4622 10.2673 69.7331 7.99643 72.5344 7.99643L93.6444 7.99643C96.4456 7.99643 98.7165 10.2673 98.7165 13.0686H96.4622C96.4622 10.8898 94.9483 9.12357 93.0808 9.12357L73.0979 9.12357C71.2304 9.12357 69.7165 10.8898 69.7165 13.0686H67.4622Z" fill="white" mask="url(#path-7-inside-5_18_4)"/>
<mask id="path-9-inside-6_18_4" fill="white">
<path d="M93.7971 10.1443C95.6647 10.1443 97.2253 8.56412 96.4272 6.87575C96.3295 6.66908 96.2224 6.46446 96.1061 6.26224C95.398 5.03147 94.3602 3.91318 93.0519 2.97119C91.7436 2.02921 90.1904 1.28199 88.481 0.772188C86.7716 0.26239 84.9395 -5.82308e-08 83.0893 0C81.2391 5.82309e-08 79.4069 0.26239 77.6975 0.772188C75.9882 1.28199 74.435 2.02921 73.1267 2.97119C71.8183 3.91318 70.7805 5.03148 70.0725 6.26224C69.9561 6.46447 69.8491 6.66908 69.7514 6.87575C68.9533 8.56412 70.5139 10.1443 72.3814 10.1443L83.0893 10.1443H93.7971Z"/>
</mask>
<path d="M93.7971 10.1443C95.6647 10.1443 97.2253 8.56412 96.4272 6.87575C96.3295 6.66908 96.2224 6.46446 96.1061 6.26224C95.398 5.03147 94.3602 3.91318 93.0519 2.97119C91.7436 2.02921 90.1904 1.28199 88.481 0.772188C86.7716 0.26239 84.9395 -5.82308e-08 83.0893 0C81.2391 5.82309e-08 79.4069 0.26239 77.6975 0.772188C75.9882 1.28199 74.435 2.02921 73.1267 2.97119C71.8183 3.91318 70.7805 5.03148 70.0725 6.26224C69.9561 6.46447 69.8491 6.66908 69.7514 6.87575C68.9533 8.56412 70.5139 10.1443 72.3814 10.1443L83.0893 10.1443H93.7971Z" fill="white" stroke="white" stroke-width="2.25429" mask="url(#path-9-inside-6_18_4)"/>
<mask id="path-10-inside-7_18_4" fill="white">
<path d="M74.5894 29.56C72.3802 29.56 70.5894 27.7691 70.5894 25.56V13.56C70.5894 11.3509 72.3802 9.56 74.5894 9.56L91.5894 9.56C93.7985 9.56 95.5894 11.3509 95.5894 13.56V25.56C95.5894 27.7691 93.7985 29.56 91.5894 29.56L74.5894 29.56Z"/>
</mask>
<path d="M74.5894 29.56C72.3802 29.56 70.5894 27.7691 70.5894 25.56V13.56C70.5894 11.3509 72.3802 9.56 74.5894 9.56L91.5894 9.56C93.7985 9.56 95.5894 11.3509 95.5894 13.56V25.56C95.5894 27.7691 93.7985 29.56 91.5894 29.56L74.5894 29.56Z" fill="url(#paint2_radial_18_4)"/>
<path d="M74.5894 30.56C71.8279 30.56 69.5894 28.3214 69.5894 25.56V13.56C69.5894 11.0747 71.6041 9.06 74.0894 9.06L74.5894 10.06C72.9325 10.06 71.5894 11.627 71.5894 13.56V25.56C71.5894 27.2169 72.9325 28.56 74.5894 28.56V30.56ZM92.0894 9.06C94.5746 9.06 96.5894 11.0747 96.5894 13.56V25.56C96.5894 28.3214 94.3508 30.56 91.5894 30.56V28.56C93.2462 28.56 94.5894 27.2169 94.5894 25.56V13.56C94.5894 11.627 93.2462 10.06 91.5894 10.06L92.0894 9.06ZM96.5894 25.56C96.5894 28.3214 94.3508 30.56 91.5894 30.56L74.5894 30.56C71.8279 30.56 69.5894 28.3214 69.5894 25.56H71.5894C71.5894 27.2169 72.9325 28.56 74.5894 28.56L91.5894 28.56C93.2462 28.56 94.5894 27.2169 94.5894 25.56H96.5894ZM69.5894 13.56C69.5894 11.0747 71.6041 9.06 74.0894 9.06L92.0894 9.06C94.5746 9.06 96.5894 11.0747 96.5894 13.56H94.5894C94.5894 11.627 93.2462 10.06 91.5894 10.06L74.5894 10.06C72.9325 10.06 71.5894 11.627 71.5894 13.56H69.5894Z" fill="black" mask="url(#path-10-inside-7_18_4)"/>
<mask id="path-12-inside-8_18_4" fill="white">
<path d="M92.5894 10.56C94.2462 10.56 95.6308 9.15807 94.9227 7.66015C94.8361 7.4768 94.7411 7.29526 94.6378 7.11585C94.0097 6.02392 93.0889 5.03176 91.9282 4.19604C90.7675 3.36031 89.3895 2.69737 87.8729 2.24508C86.3563 1.79279 84.7309 1.56 83.0894 1.56C81.4478 1.56 79.8224 1.79279 78.3058 2.24508C76.7892 2.69737 75.4113 3.36031 74.2505 4.19604C73.0898 5.03176 72.169 6.02392 71.5409 7.11585C71.4376 7.29526 71.3427 7.4768 71.256 7.66015C70.5479 9.15807 71.9325 10.56 73.5894 10.56L83.0894 10.56H92.5894Z"/>
</mask>
<path d="M92.5894 10.56C94.2462 10.56 95.6308 9.15807 94.9227 7.66015C94.8361 7.4768 94.7411 7.29526 94.6378 7.11585C94.0097 6.02392 93.0889 5.03176 91.9282 4.19604C90.7675 3.36031 89.3895 2.69737 87.8729 2.24508C86.3563 1.79279 84.7309 1.56 83.0894 1.56C81.4478 1.56 79.8224 1.79279 78.3058 2.24508C76.7892 2.69737 75.4113 3.36031 74.2505 4.19604C73.0898 5.03176 72.169 6.02392 71.5409 7.11585C71.4376 7.29526 71.3427 7.4768 71.256 7.66015C70.5479 9.15807 71.9325 10.56 73.5894 10.56L83.0894 10.56H92.5894Z" fill="url(#paint3_linear_18_4)"/>
<path d="M92.5894 10.56C94.2462 10.56 95.6308 9.15807 94.9227 7.66015C94.8361 7.4768 94.7411 7.29526 94.6378 7.11585C94.0097 6.02392 93.0889 5.03176 91.9282 4.19604C90.7675 3.36031 89.3895 2.69737 87.8729 2.24508C86.3563 1.79279 84.7309 1.56 83.0894 1.56C81.4478 1.56 79.8224 1.79279 78.3058 2.24508C76.7892 2.69737 75.4113 3.36031 74.2505 4.19604C73.0898 5.03176 72.169 6.02392 71.5409 7.11585C71.4376 7.29526 71.3427 7.4768 71.256 7.66015C70.5479 9.15807 71.9325 10.56 73.5894 10.56L83.0894 10.56H92.5894Z" stroke="black" stroke-width="2" mask="url(#path-12-inside-8_18_4)"/>
<path d="M92.5894 10.56C94.2462 10.56 95.6308 9.15807 94.9227 7.66015C94.8361 7.4768 94.7411 7.29526 94.6378 7.11585C94.0097 6.02392 93.0889 5.03176 91.9282 4.19604C90.7675 3.36031 89.3895 2.69737 87.8729 2.24508C86.3563 1.79279 84.7309 1.56 83.0894 1.56C81.4478 1.56 79.8224 1.79279 78.3058 2.24508C76.7892 2.69737 75.4113 3.36031 74.2505 4.19604C73.0898 5.03176 72.169 6.02392 71.5409 7.11585C71.4376 7.29526 71.3427 7.4768 71.256 7.66015C70.5479 9.15807 71.9325 10.56 73.5894 10.56L83.0894 10.56H92.5894Z" stroke="black" stroke-opacity="0.2" stroke-width="2" mask="url(#path-12-inside-8_18_4)"/>
<mask id="path-13-inside-9_18_4" fill="white">
<path d="M13.0979 31.56C10.6079 31.56 8.58936 29.5414 8.58936 27.0514L8.58936 13.0686C8.58936 10.5786 10.6079 8.56 13.0979 8.56L33.0808 8.56C35.5708 8.56 37.5894 10.5786 37.5894 13.0686V27.0514C37.5894 29.5414 35.5708 31.56 33.0808 31.56L13.0979 31.56Z"/>
</mask>
<path d="M13.0979 31.56C10.6079 31.56 8.58936 29.5414 8.58936 27.0514L8.58936 13.0686C8.58936 10.5786 10.6079 8.56 13.0979 8.56L33.0808 8.56C35.5708 8.56 37.5894 10.5786 37.5894 13.0686V27.0514C37.5894 29.5414 35.5708 31.56 33.0808 31.56L13.0979 31.56Z" fill="white"/>
<path d="M13.0979 32.6871C9.98541 32.6871 7.46221 30.1639 7.46221 27.0514L7.46221 13.0686C7.46221 10.2673 9.73309 7.99643 12.5344 7.99643L13.0979 9.12357C11.2304 9.12357 9.7165 10.8898 9.7165 13.0686L9.7165 27.0514C9.7165 28.9189 11.2304 30.4329 13.0979 30.4329V32.6871ZM33.6444 7.99643C36.4456 7.99643 38.7165 10.2673 38.7165 13.0686V27.0514C38.7165 30.1639 36.1933 32.6871 33.0808 32.6871V30.4329C34.9483 30.4329 36.4622 28.9189 36.4622 27.0514V13.0686C36.4622 10.8898 34.9483 9.12357 33.0808 9.12357L33.6444 7.99643ZM38.7165 27.0514C38.7165 30.1639 36.1933 32.6871 33.0808 32.6871H13.0979C9.98541 32.6871 7.46221 30.1639 7.46221 27.0514H9.7165C9.7165 28.9189 11.2304 30.4329 13.0979 30.4329L33.0808 30.4329C34.9483 30.4329 36.4622 28.9189 36.4622 27.0514H38.7165ZM7.46221 13.0686C7.46221 10.2673 9.73309 7.99643 12.5344 7.99643L33.6444 7.99643C36.4456 7.99643 38.7165 10.2673 38.7165 13.0686H36.4622C36.4622 10.8898 34.9483 9.12357 33.0808 9.12357L13.0979 9.12357C11.2304 9.12357 9.7165 10.8898 9.7165 13.0686H7.46221Z" fill="white" mask="url(#path-13-inside-9_18_4)"/>
<mask id="path-15-inside-10_18_4" fill="white">
<path d="M33.7971 10.1443C35.6647 10.1443 37.2253 8.56412 36.4272 6.87575C36.3295 6.66908 36.2224 6.46446 36.1061 6.26224C35.398 5.03147 34.3602 3.91318 33.0519 2.97119C31.7436 2.02921 30.1904 1.28199 28.481 0.772188C26.7716 0.26239 24.9395 -5.82308e-08 23.0893 0C21.2391 5.82309e-08 19.4069 0.26239 17.6975 0.772188C15.9882 1.28199 14.435 2.02921 13.1267 2.97119C11.8183 3.91318 10.7805 5.03148 10.0725 6.26224C9.95614 6.46447 9.84908 6.66908 9.75138 6.87575C8.95326 8.56412 10.5139 10.1443 12.3814 10.1443L23.0893 10.1443H33.7971Z"/>
</mask>
<path d="M33.7971 10.1443C35.6647 10.1443 37.2253 8.56412 36.4272 6.87575C36.3295 6.66908 36.2224 6.46446 36.1061 6.26224C35.398 5.03147 34.3602 3.91318 33.0519 2.97119C31.7436 2.02921 30.1904 1.28199 28.481 0.772188C26.7716 0.26239 24.9395 -5.82308e-08 23.0893 0C21.2391 5.82309e-08 19.4069 0.26239 17.6975 0.772188C15.9882 1.28199 14.435 2.02921 13.1267 2.97119C11.8183 3.91318 10.7805 5.03148 10.0725 6.26224C9.95614 6.46447 9.84908 6.66908 9.75138 6.87575C8.95326 8.56412 10.5139 10.1443 12.3814 10.1443L23.0893 10.1443H33.7971Z" fill="white" stroke="white" stroke-width="2.25429" mask="url(#path-15-inside-10_18_4)"/>
<mask id="path-16-inside-11_18_4" fill="white">
<path d="M14.5894 29.56C12.3802 29.56 10.5894 27.7691 10.5894 25.56L10.5894 13.56C10.5894 11.3509 12.3802 9.56 14.5894 9.56L31.5894 9.56C33.7985 9.56 35.5894 11.3509 35.5894 13.56V25.56C35.5894 27.7691 33.7985 29.56 31.5894 29.56L14.5894 29.56Z"/>
</mask>
<path d="M14.5894 29.56C12.3802 29.56 10.5894 27.7691 10.5894 25.56L10.5894 13.56C10.5894 11.3509 12.3802 9.56 14.5894 9.56L31.5894 9.56C33.7985 9.56 35.5894 11.3509 35.5894 13.56V25.56C35.5894 27.7691 33.7985 29.56 31.5894 29.56L14.5894 29.56Z" fill="url(#paint4_radial_18_4)"/>
<path d="M14.5894 30.56C11.8279 30.56 9.58936 28.3214 9.58936 25.56L9.58936 13.56C9.58936 11.0747 11.6041 9.06 14.0894 9.06L14.5894 10.06C12.9325 10.06 11.5894 11.627 11.5894 13.56L11.5894 25.56C11.5894 27.2169 12.9325 28.56 14.5894 28.56V30.56ZM32.0894 9.06C34.5746 9.06 36.5894 11.0747 36.5894 13.56V25.56C36.5894 28.3214 34.3508 30.56 31.5894 30.56V28.56C33.2462 28.56 34.5894 27.2169 34.5894 25.56V13.56C34.5894 11.627 33.2462 10.06 31.5894 10.06L32.0894 9.06ZM36.5894 25.56C36.5894 28.3214 34.3508 30.56 31.5894 30.56L14.5894 30.56C11.8279 30.56 9.58936 28.3214 9.58936 25.56H11.5894C11.5894 27.2169 12.9325 28.56 14.5894 28.56L31.5894 28.56C33.2462 28.56 34.5894 27.2169 34.5894 25.56H36.5894ZM9.58936 13.56C9.58936 11.0747 11.6041 9.06 14.0894 9.06L32.0894 9.06C34.5746 9.06 36.5894 11.0747 36.5894 13.56H34.5894C34.5894 11.627 33.2462 10.06 31.5894 10.06L14.5894 10.06C12.9325 10.06 11.5894 11.627 11.5894 13.56H9.58936Z" fill="black" mask="url(#path-16-inside-11_18_4)"/>
<mask id="path-18-inside-12_18_4" fill="white">
<path d="M32.5894 10.56C34.2462 10.56 35.6308 9.15807 34.9227 7.66015C34.8361 7.4768 34.7411 7.29526 34.6378 7.11585C34.0097 6.02392 33.0889 5.03176 31.9282 4.19604C30.7675 3.36031 29.3895 2.69737 27.8729 2.24508C26.3563 1.79279 24.7309 1.56 23.0894 1.56C21.4478 1.56 19.8224 1.79279 18.3058 2.24508C16.7892 2.69737 15.4113 3.36031 14.2505 4.19604C13.0898 5.03176 12.169 6.02392 11.5409 7.11585C11.4376 7.29526 11.3427 7.4768 11.256 7.66015C10.5479 9.15807 11.9325 10.56 13.5894 10.56L23.0894 10.56H32.5894Z"/>
</mask>
<path d="M32.5894 10.56C34.2462 10.56 35.6308 9.15807 34.9227 7.66015C34.8361 7.4768 34.7411 7.29526 34.6378 7.11585C34.0097 6.02392 33.0889 5.03176 31.9282 4.19604C30.7675 3.36031 29.3895 2.69737 27.8729 2.24508C26.3563 1.79279 24.7309 1.56 23.0894 1.56C21.4478 1.56 19.8224 1.79279 18.3058 2.24508C16.7892 2.69737 15.4113 3.36031 14.2505 4.19604C13.0898 5.03176 12.169 6.02392 11.5409 7.11585C11.4376 7.29526 11.3427 7.4768 11.256 7.66015C10.5479 9.15807 11.9325 10.56 13.5894 10.56L23.0894 10.56H32.5894Z" fill="url(#paint5_linear_18_4)"/>
<path d="M32.5894 10.56C34.2462 10.56 35.6308 9.15807 34.9227 7.66015C34.8361 7.4768 34.7411 7.29526 34.6378 7.11585C34.0097 6.02392 33.0889 5.03176 31.9282 4.19604C30.7675 3.36031 29.3895 2.69737 27.8729 2.24508C26.3563 1.79279 24.7309 1.56 23.0894 1.56C21.4478 1.56 19.8224 1.79279 18.3058 2.24508C16.7892 2.69737 15.4113 3.36031 14.2505 4.19604C13.0898 5.03176 12.169 6.02392 11.5409 7.11585C11.4376 7.29526 11.3427 7.4768 11.256 7.66015C10.5479 9.15807 11.9325 10.56 13.5894 10.56L23.0894 10.56H32.5894Z" stroke="black" stroke-width="2" mask="url(#path-18-inside-12_18_4)"/>
<path d="M32.5894 10.56C34.2462 10.56 35.6308 9.15807 34.9227 7.66015C34.8361 7.4768 34.7411 7.29526 34.6378 7.11585C34.0097 6.02392 33.0889 5.03176 31.9282 4.19604C30.7675 3.36031 29.3895 2.69737 27.8729 2.24508C26.3563 1.79279 24.7309 1.56 23.0894 1.56C21.4478 1.56 19.8224 1.79279 18.3058 2.24508C16.7892 2.69737 15.4113 3.36031 14.2505 4.19604C13.0898 5.03176 12.169 6.02392 11.5409 7.11585C11.4376 7.29526 11.3427 7.4768 11.256 7.66015C10.5479 9.15807 11.9325 10.56 13.5894 10.56L23.0894 10.56H32.5894Z" stroke="black" stroke-opacity="0.2" stroke-width="2" mask="url(#path-18-inside-12_18_4)"/>
<rect x="1.5" y="31.5" width="102" height="38" rx="2.5" fill="black"/>
<rect x="1.5" y="31.5" width="102" height="38" rx="2.5" fill="url(#paint6_radial_18_4)"/>
<rect x="1.5" y="31.5" width="102" height="38" rx="2.5" stroke="white" stroke-width="3"/>
<rect x="3.5" y="67.5" width="34" height="98" transform="rotate(-90 3.5 67.5)" stroke="black"/>
<mask id="path-21-inside-13_18_4" fill="white">
<path d="M63.0808 70C65.5708 70 67.5894 72.0186 67.5894 74.5086V88.4914C67.5894 90.9814 65.5708 93 63.0808 93H43.0979C40.6079 93 38.5894 90.9814 38.5894 88.4914V74.5086C38.5894 72.0186 40.6079 70 43.0979 70H63.0808Z"/>
</mask>
<path d="M63.0808 70C65.5708 70 67.5894 72.0186 67.5894 74.5086V88.4914C67.5894 90.9814 65.5708 93 63.0808 93H43.0979C40.6079 93 38.5894 90.9814 38.5894 88.4914V74.5086C38.5894 72.0186 40.6079 70 43.0979 70H63.0808Z" fill="white"/>
<path d="M63.0808 68.8729C66.1933 68.8729 68.7165 71.3961 68.7165 74.5086V88.4914C68.7165 91.2927 66.4456 93.5636 63.6444 93.5636L63.0808 92.4364C64.9483 92.4364 66.4622 90.6702 66.4622 88.4914V74.5086C66.4622 72.6411 64.9483 71.1271 63.0808 71.1271V68.8729ZM42.5344 93.5636C39.7331 93.5636 37.4622 91.2927 37.4622 88.4914V74.5086C37.4622 71.3961 39.9854 68.8729 43.0979 68.8729V71.1271C41.2304 71.1271 39.7165 72.6411 39.7165 74.5086V88.4914C39.7165 90.6702 41.2304 92.4364 43.0979 92.4364L42.5344 93.5636ZM37.4622 74.5086C37.4622 71.3961 39.9854 68.8729 43.0979 68.8729H63.0808C66.1933 68.8729 68.7165 71.3961 68.7165 74.5086H66.4622C66.4622 72.6411 64.9483 71.1271 63.0808 71.1271H43.0979C41.2304 71.1271 39.7165 72.6411 39.7165 74.5086H37.4622ZM68.7165 88.4914C68.7165 91.2927 66.4456 93.5636 63.6444 93.5636H42.5344C39.7331 93.5636 37.4622 91.2927 37.4622 88.4914H39.7165C39.7165 90.6702 41.2304 92.4364 43.0979 92.4364H63.0808C64.9483 92.4364 66.4622 90.6702 66.4622 88.4914H68.7165Z" fill="white" mask="url(#path-21-inside-13_18_4)"/>
<mask id="path-23-inside-14_18_4" fill="white">
<path d="M42.3814 91.4157C40.5139 91.4157 38.9533 92.9959 39.7514 94.6843C39.8491 94.8909 39.9562 95.0955 40.0725 95.2978C40.7806 96.5285 41.8184 97.6468 43.1267 98.5888C44.435 99.5308 45.9882 100.278 47.6976 100.788C49.407 101.298 51.2391 101.56 53.0893 101.56C54.9395 101.56 56.7716 101.298 58.481 100.788C60.1904 100.278 61.7436 99.5308 63.0519 98.5888C64.3602 97.6468 65.3981 96.5285 66.1061 95.2978C66.2224 95.0955 66.3295 94.8909 66.4272 94.6843C67.2253 92.9959 65.6647 91.4157 63.7972 91.4157L53.0893 91.4157H42.3814Z"/>
</mask>
<path d="M42.3814 91.4157C40.5139 91.4157 38.9533 92.9959 39.7514 94.6843C39.8491 94.8909 39.9562 95.0955 40.0725 95.2978C40.7806 96.5285 41.8184 97.6468 43.1267 98.5888C44.435 99.5308 45.9882 100.278 47.6976 100.788C49.407 101.298 51.2391 101.56 53.0893 101.56C54.9395 101.56 56.7716 101.298 58.481 100.788C60.1904 100.278 61.7436 99.5308 63.0519 98.5888C64.3602 97.6468 65.3981 96.5285 66.1061 95.2978C66.2224 95.0955 66.3295 94.8909 66.4272 94.6843C67.2253 92.9959 65.6647 91.4157 63.7972 91.4157L53.0893 91.4157H42.3814Z" fill="white" stroke="white" stroke-width="2.25429" mask="url(#path-23-inside-14_18_4)"/>
<mask id="path-24-inside-15_18_4" fill="white">
<path d="M61.5894 72C63.7985 72 65.5894 73.7909 65.5894 76V88C65.5894 90.2091 63.7985 92 61.5894 92H44.5894C42.3802 92 40.5894 90.2091 40.5894 88V76C40.5894 73.7909 42.3802 72 44.5894 72H61.5894Z"/>
</mask>
<path d="M61.5894 72C63.7985 72 65.5894 73.7909 65.5894 76V88C65.5894 90.2091 63.7985 92 61.5894 92H44.5894C42.3802 92 40.5894 90.2091 40.5894 88V76C40.5894 73.7909 42.3802 72 44.5894 72H61.5894Z" fill="url(#paint7_radial_18_4)"/>
<path d="M61.5894 71C64.3508 71 66.5894 73.2386 66.5894 76V88C66.5894 90.4853 64.5746 92.5 62.0894 92.5L61.5894 91.5C63.2462 91.5 64.5894 89.933 64.5894 88V76C64.5894 74.3431 63.2462 73 61.5894 73V71ZM44.0894 92.5C41.6041 92.5 39.5894 90.4853 39.5894 88V76C39.5894 73.2386 41.8279 71 44.5894 71V73C42.9325 73 41.5894 74.3431 41.5894 76V88C41.5894 89.933 42.9325 91.5 44.5894 91.5L44.0894 92.5ZM39.5894 76C39.5894 73.2386 41.8279 71 44.5894 71H61.5894C64.3508 71 66.5894 73.2386 66.5894 76H64.5894C64.5894 74.3431 63.2462 73 61.5894 73H44.5894C42.9325 73 41.5894 74.3431 41.5894 76H39.5894ZM66.5894 88C66.5894 90.4853 64.5746 92.5 62.0894 92.5H44.0894C41.6041 92.5 39.5894 90.4853 39.5894 88H41.5894C41.5894 89.933 42.9325 91.5 44.5894 91.5H61.5894C63.2462 91.5 64.5894 89.933 64.5894 88H66.5894Z" fill="black" mask="url(#path-24-inside-15_18_4)"/>
<mask id="path-26-inside-16_18_4" fill="white">
<path d="M43.5894 91C41.9325 91 40.5479 92.4019 41.256 93.8998C41.3427 94.0832 41.4376 94.2647 41.5409 94.4442C42.169 95.5361 43.0898 96.5282 44.2505 97.364C45.4113 98.1997 46.7892 98.8626 48.3058 99.3149C49.8224 99.7672 51.4478 100 53.0894 100C54.7309 100 56.3563 99.7672 57.8729 99.3149C59.3895 98.8626 60.7675 98.1997 61.9282 97.364C63.0889 96.5282 64.0097 95.5361 64.6378 94.4442C64.7411 94.2647 64.8361 94.0832 64.9227 93.8998C65.6308 92.4019 64.2462 91 62.5894 91L53.0894 91H43.5894Z"/>
</mask>
<path d="M43.5894 91C41.9325 91 40.5479 92.4019 41.256 93.8998C41.3427 94.0832 41.4376 94.2647 41.5409 94.4442C42.169 95.5361 43.0898 96.5282 44.2505 97.364C45.4113 98.1997 46.7892 98.8626 48.3058 99.3149C49.8224 99.7672 51.4478 100 53.0894 100C54.7309 100 56.3563 99.7672 57.8729 99.3149C59.3895 98.8626 60.7675 98.1997 61.9282 97.364C63.0889 96.5282 64.0097 95.5361 64.6378 94.4442C64.7411 94.2647 64.8361 94.0832 64.9227 93.8998C65.6308 92.4019 64.2462 91 62.5894 91L53.0894 91H43.5894Z" fill="url(#paint8_linear_18_4)"/>
<path d="M43.5894 91C41.9325 91 40.5479 92.4019 41.256 93.8998C41.3427 94.0832 41.4376 94.2647 41.5409 94.4442C42.169 95.5361 43.0898 96.5282 44.2505 97.364C45.4113 98.1997 46.7892 98.8626 48.3058 99.3149C49.8224 99.7672 51.4478 100 53.0894 100C54.7309 100 56.3563 99.7672 57.8729 99.3149C59.3895 98.8626 60.7675 98.1997 61.9282 97.364C63.0889 96.5282 64.0097 95.5361 64.6378 94.4442C64.7411 94.2647 64.8361 94.0832 64.9227 93.8998C65.6308 92.4019 64.2462 91 62.5894 91L53.0894 91H43.5894Z" stroke="black" stroke-width="2" mask="url(#path-26-inside-16_18_4)"/>
<path d="M43.5894 91C41.9325 91 40.5479 92.4019 41.256 93.8998C41.3427 94.0832 41.4376 94.2647 41.5409 94.4442C42.169 95.5361 43.0898 96.5282 44.2505 97.364C45.4113 98.1997 46.7892 98.8626 48.3058 99.3149C49.8224 99.7672 51.4478 100 53.0894 100C54.7309 100 56.3563 99.7672 57.8729 99.3149C59.3895 98.8626 60.7675 98.1997 61.9282 97.364C63.0889 96.5282 64.0097 95.5361 64.6378 94.4442C64.7411 94.2647 64.8361 94.0832 64.9227 93.8998C65.6308 92.4019 64.2462 91 62.5894 91L53.0894 91H43.5894Z" stroke="black" stroke-opacity="0.2" stroke-width="2" mask="url(#path-26-inside-16_18_4)"/>
<mask id="path-27-inside-17_18_4" fill="white">
<path d="M33.0808 70C35.5708 70 37.5894 72.0186 37.5894 74.5086L37.5894 88.4914C37.5894 90.9814 35.5708 93 33.0808 93H13.0979C10.6079 93 8.58936 90.9814 8.58936 88.4914L8.58936 74.5086C8.58936 72.0186 10.6079 70 13.0979 70H33.0808Z"/>
</mask>
<path d="M33.0808 70C35.5708 70 37.5894 72.0186 37.5894 74.5086L37.5894 88.4914C37.5894 90.9814 35.5708 93 33.0808 93H13.0979C10.6079 93 8.58936 90.9814 8.58936 88.4914L8.58936 74.5086C8.58936 72.0186 10.6079 70 13.0979 70H33.0808Z" fill="white"/>
<path d="M33.0808 68.8729C36.1933 68.8729 38.7165 71.3961 38.7165 74.5086L38.7165 88.4914C38.7165 91.2927 36.4456 93.5636 33.6444 93.5636L33.0808 92.4364C34.9483 92.4364 36.4622 90.6702 36.4622 88.4914L36.4622 74.5086C36.4622 72.6411 34.9483 71.1271 33.0808 71.1271V68.8729ZM12.5344 93.5636C9.73309 93.5636 7.46221 91.2927 7.46221 88.4914L7.46221 74.5086C7.46221 71.3961 9.98541 68.8729 13.0979 68.8729V71.1271C11.2304 71.1271 9.7165 72.6411 9.7165 74.5086L9.7165 88.4914C9.7165 90.6702 11.2304 92.4364 13.0979 92.4364L12.5344 93.5636ZM7.46221 74.5086C7.46221 71.3961 9.98541 68.8729 13.0979 68.8729H33.0808C36.1933 68.8729 38.7165 71.3961 38.7165 74.5086H36.4622C36.4622 72.6411 34.9483 71.1271 33.0808 71.1271H13.0979C11.2304 71.1271 9.7165 72.6411 9.7165 74.5086H7.46221ZM38.7165 88.4914C38.7165 91.2927 36.4456 93.5636 33.6444 93.5636H12.5344C9.73309 93.5636 7.46221 91.2927 7.46221 88.4914H9.7165C9.7165 90.6702 11.2304 92.4364 13.0979 92.4364H33.0808C34.9483 92.4364 36.4622 90.6702 36.4622 88.4914H38.7165Z" fill="white" mask="url(#path-27-inside-17_18_4)"/>
<mask id="path-29-inside-18_18_4" fill="white">
<path d="M12.3814 91.4157C10.5139 91.4157 8.95327 92.9959 9.7514 94.6843C9.84909 94.8909 9.95616 95.0955 10.0725 95.2978C10.7806 96.5285 11.8184 97.6468 13.1267 98.5888C14.435 99.5308 15.9882 100.278 17.6976 100.788C19.407 101.298 21.2391 101.56 23.0893 101.56C24.9395 101.56 26.7716 101.298 28.481 100.788C30.1904 100.278 31.7436 99.5308 33.0519 98.5888C34.3602 97.6468 35.3981 96.5285 36.1061 95.2978C36.2224 95.0955 36.3295 94.8909 36.4272 94.6843C37.2253 92.9959 35.6647 91.4157 33.7972 91.4157L23.0893 91.4157H12.3814Z"/>
</mask>
<path d="M12.3814 91.4157C10.5139 91.4157 8.95327 92.9959 9.7514 94.6843C9.84909 94.8909 9.95616 95.0955 10.0725 95.2978C10.7806 96.5285 11.8184 97.6468 13.1267 98.5888C14.435 99.5308 15.9882 100.278 17.6976 100.788C19.407 101.298 21.2391 101.56 23.0893 101.56C24.9395 101.56 26.7716 101.298 28.481 100.788C30.1904 100.278 31.7436 99.5308 33.0519 98.5888C34.3602 97.6468 35.3981 96.5285 36.1061 95.2978C36.2224 95.0955 36.3295 94.8909 36.4272 94.6843C37.2253 92.9959 35.6647 91.4157 33.7972 91.4157L23.0893 91.4157H12.3814Z" fill="white" stroke="white" stroke-width="2.25429" mask="url(#path-29-inside-18_18_4)"/>
<mask id="path-30-inside-19_18_4" fill="white">
<path d="M31.5894 72C33.7985 72 35.5894 73.7909 35.5894 76V88C35.5894 90.2091 33.7985 92 31.5894 92H14.5894C12.3802 92 10.5894 90.2091 10.5894 88L10.5894 76C10.5894 73.7909 12.3802 72 14.5894 72H31.5894Z"/>
</mask>
<path d="M31.5894 72C33.7985 72 35.5894 73.7909 35.5894 76V88C35.5894 90.2091 33.7985 92 31.5894 92H14.5894C12.3802 92 10.5894 90.2091 10.5894 88L10.5894 76C10.5894 73.7909 12.3802 72 14.5894 72H31.5894Z" fill="url(#paint9_radial_18_4)"/>
<path d="M31.5894 71C34.3508 71 36.5894 73.2386 36.5894 76V88C36.5894 90.4853 34.5746 92.5 32.0894 92.5L31.5894 91.5C33.2462 91.5 34.5894 89.933 34.5894 88V76C34.5894 74.3431 33.2462 73 31.5894 73V71ZM14.0894 92.5C11.6041 92.5 9.58936 90.4853 9.58936 88L9.58936 76C9.58936 73.2386 11.8279 71 14.5894 71V73C12.9325 73 11.5894 74.3431 11.5894 76L11.5894 88C11.5894 89.933 12.9325 91.5 14.5894 91.5L14.0894 92.5ZM9.58936 76C9.58936 73.2386 11.8279 71 14.5894 71H31.5894C34.3508 71 36.5894 73.2386 36.5894 76H34.5894C34.5894 74.3431 33.2462 73 31.5894 73H14.5894C12.9325 73 11.5894 74.3431 11.5894 76H9.58936ZM36.5894 88C36.5894 90.4853 34.5746 92.5 32.0894 92.5H14.0894C11.6041 92.5 9.58936 90.4853 9.58936 88H11.5894C11.5894 89.933 12.9325 91.5 14.5894 91.5H31.5894C33.2462 91.5 34.5894 89.933 34.5894 88H36.5894Z" fill="black" mask="url(#path-30-inside-19_18_4)"/>
<mask id="path-32-inside-20_18_4" fill="white">
<path d="M13.5894 91C11.9325 91 10.5479 92.4019 11.256 93.8998C11.3427 94.0832 11.4376 94.2647 11.5409 94.4442C12.169 95.5361 13.0898 96.5282 14.2505 97.364C15.4113 98.1997 16.7892 98.8626 18.3058 99.3149C19.8224 99.7672 21.4478 100 23.0894 100C24.7309 100 26.3563 99.7672 27.8729 99.3149C29.3895 98.8626 30.7675 98.1997 31.9282 97.364C33.0889 96.5282 34.0097 95.5361 34.6378 94.4442C34.7411 94.2647 34.8361 94.0832 34.9227 93.8998C35.6308 92.4019 34.2462 91 32.5894 91L23.0894 91H13.5894Z"/>
</mask>
<path d="M13.5894 91C11.9325 91 10.5479 92.4019 11.256 93.8998C11.3427 94.0832 11.4376 94.2647 11.5409 94.4442C12.169 95.5361 13.0898 96.5282 14.2505 97.364C15.4113 98.1997 16.7892 98.8626 18.3058 99.3149C19.8224 99.7672 21.4478 100 23.0894 100C24.7309 100 26.3563 99.7672 27.8729 99.3149C29.3895 98.8626 30.7675 98.1997 31.9282 97.364C33.0889 96.5282 34.0097 95.5361 34.6378 94.4442C34.7411 94.2647 34.8361 94.0832 34.9227 93.8998C35.6308 92.4019 34.2462 91 32.5894 91L23.0894 91H13.5894Z" fill="url(#paint10_linear_18_4)"/>
<path d="M13.5894 91C11.9325 91 10.5479 92.4019 11.256 93.8998C11.3427 94.0832 11.4376 94.2647 11.5409 94.4442C12.169 95.5361 13.0898 96.5282 14.2505 97.364C15.4113 98.1997 16.7892 98.8626 18.3058 99.3149C19.8224 99.7672 21.4478 100 23.0894 100C24.7309 100 26.3563 99.7672 27.8729 99.3149C29.3895 98.8626 30.7675 98.1997 31.9282 97.364C33.0889 96.5282 34.0097 95.5361 34.6378 94.4442C34.7411 94.2647 34.8361 94.0832 34.9227 93.8998C35.6308 92.4019 34.2462 91 32.5894 91L23.0894 91H13.5894Z" stroke="black" stroke-width="2" mask="url(#path-32-inside-20_18_4)"/>
<path d="M13.5894 91C11.9325 91 10.5479 92.4019 11.256 93.8998C11.3427 94.0832 11.4376 94.2647 11.5409 94.4442C12.169 95.5361 13.0898 96.5282 14.2505 97.364C15.4113 98.1997 16.7892 98.8626 18.3058 99.3149C19.8224 99.7672 21.4478 100 23.0894 100C24.7309 100 26.3563 99.7672 27.8729 99.3149C29.3895 98.8626 30.7675 98.1997 31.9282 97.364C33.0889 96.5282 34.0097 95.5361 34.6378 94.4442C34.7411 94.2647 34.8361 94.0832 34.9227 93.8998C35.6308 92.4019 34.2462 91 32.5894 91L23.0894 91H13.5894Z" stroke="black" stroke-opacity="0.2" stroke-width="2" mask="url(#path-32-inside-20_18_4)"/>
<mask id="path-33-inside-21_18_4" fill="white">
<path d="M93.0808 70C95.5708 70 97.5894 72.0186 97.5894 74.5086V88.4914C97.5894 90.9814 95.5708 93 93.0808 93H73.0979C70.6079 93 68.5894 90.9814 68.5894 88.4914V74.5086C68.5894 72.0186 70.6079 70 73.0979 70H93.0808Z"/>
</mask>
<path d="M93.0808 70C95.5708 70 97.5894 72.0186 97.5894 74.5086V88.4914C97.5894 90.9814 95.5708 93 93.0808 93H73.0979C70.6079 93 68.5894 90.9814 68.5894 88.4914V74.5086C68.5894 72.0186 70.6079 70 73.0979 70H93.0808Z" fill="white"/>
<path d="M93.0808 68.8729C96.1933 68.8729 98.7165 71.3961 98.7165 74.5086V88.4914C98.7165 91.2927 96.4456 93.5636 93.6444 93.5636L93.0808 92.4364C94.9483 92.4364 96.4622 90.6702 96.4622 88.4914V74.5086C96.4622 72.6411 94.9483 71.1271 93.0808 71.1271V68.8729ZM72.5344 93.5636C69.7331 93.5636 67.4622 91.2927 67.4622 88.4914V74.5086C67.4622 71.3961 69.9854 68.8729 73.0979 68.8729V71.1271C71.2304 71.1271 69.7165 72.6411 69.7165 74.5086V88.4914C69.7165 90.6702 71.2304 92.4364 73.0979 92.4364L72.5344 93.5636ZM67.4622 74.5086C67.4622 71.3961 69.9854 68.8729 73.0979 68.8729H93.0808C96.1933 68.8729 98.7165 71.3961 98.7165 74.5086H96.4622C96.4622 72.6411 94.9483 71.1271 93.0808 71.1271H73.0979C71.2304 71.1271 69.7165 72.6411 69.7165 74.5086H67.4622ZM98.7165 88.4914C98.7165 91.2927 96.4456 93.5636 93.6444 93.5636H72.5344C69.7331 93.5636 67.4622 91.2927 67.4622 88.4914H69.7165C69.7165 90.6702 71.2304 92.4364 73.0979 92.4364H93.0808C94.9483 92.4364 96.4622 90.6702 96.4622 88.4914H98.7165Z" fill="white" mask="url(#path-33-inside-21_18_4)"/>
<mask id="path-35-inside-22_18_4" fill="white">
<path d="M72.3814 91.4157C70.5139 91.4157 68.9533 92.9959 69.7514 94.6843C69.8491 94.8909 69.9562 95.0955 70.0725 95.2978C70.7806 96.5285 71.8184 97.6468 73.1267 98.5888C74.435 99.5308 75.9882 100.278 77.6976 100.788C79.407 101.298 81.2391 101.56 83.0893 101.56C84.9395 101.56 86.7716 101.298 88.481 100.788C90.1904 100.278 91.7436 99.5308 93.0519 98.5888C94.3602 97.6468 95.3981 96.5285 96.1061 95.2978C96.2224 95.0955 96.3295 94.8909 96.4272 94.6843C97.2253 92.9959 95.6647 91.4157 93.7972 91.4157L83.0893 91.4157H72.3814Z"/>
</mask>
<path d="M72.3814 91.4157C70.5139 91.4157 68.9533 92.9959 69.7514 94.6843C69.8491 94.8909 69.9562 95.0955 70.0725 95.2978C70.7806 96.5285 71.8184 97.6468 73.1267 98.5888C74.435 99.5308 75.9882 100.278 77.6976 100.788C79.407 101.298 81.2391 101.56 83.0893 101.56C84.9395 101.56 86.7716 101.298 88.481 100.788C90.1904 100.278 91.7436 99.5308 93.0519 98.5888C94.3602 97.6468 95.3981 96.5285 96.1061 95.2978C96.2224 95.0955 96.3295 94.8909 96.4272 94.6843C97.2253 92.9959 95.6647 91.4157 93.7972 91.4157L83.0893 91.4157H72.3814Z" fill="white" stroke="white" stroke-width="2.25429" mask="url(#path-35-inside-22_18_4)"/>
<mask id="path-36-inside-23_18_4" fill="white">
<path d="M91.5894 72C93.7985 72 95.5894 73.7909 95.5894 76V88C95.5894 90.2091 93.7985 92 91.5894 92H74.5894C72.3802 92 70.5894 90.2091 70.5894 88V76C70.5894 73.7909 72.3802 72 74.5894 72H91.5894Z"/>
</mask>
<path d="M91.5894 72C93.7985 72 95.5894 73.7909 95.5894 76V88C95.5894 90.2091 93.7985 92 91.5894 92H74.5894C72.3802 92 70.5894 90.2091 70.5894 88V76C70.5894 73.7909 72.3802 72 74.5894 72H91.5894Z" fill="url(#paint11_radial_18_4)"/>
<path d="M91.5894 71C94.3508 71 96.5894 73.2386 96.5894 76V88C96.5894 90.4853 94.5746 92.5 92.0894 92.5L91.5894 91.5C93.2462 91.5 94.5894 89.933 94.5894 88V76C94.5894 74.3431 93.2462 73 91.5894 73V71ZM74.0894 92.5C71.6041 92.5 69.5894 90.4853 69.5894 88V76C69.5894 73.2386 71.8279 71 74.5894 71V73C72.9325 73 71.5894 74.3431 71.5894 76V88C71.5894 89.933 72.9325 91.5 74.5894 91.5L74.0894 92.5ZM69.5894 76C69.5894 73.2386 71.8279 71 74.5894 71H91.5894C94.3508 71 96.5894 73.2386 96.5894 76H94.5894C94.5894 74.3431 93.2462 73 91.5894 73H74.5894C72.9325 73 71.5894 74.3431 71.5894 76H69.5894ZM96.5894 88C96.5894 90.4853 94.5746 92.5 92.0894 92.5H74.0894C71.6041 92.5 69.5894 90.4853 69.5894 88H71.5894C71.5894 89.933 72.9325 91.5 74.5894 91.5H91.5894C93.2462 91.5 94.5894 89.933 94.5894 88H96.5894Z" fill="black" mask="url(#path-36-inside-23_18_4)"/>
<mask id="path-38-inside-24_18_4" fill="white">
<path d="M73.5894 91C71.9325 91 70.5479 92.4019 71.256 93.8998C71.3427 94.0832 71.4376 94.2647 71.5409 94.4442C72.169 95.5361 73.0898 96.5282 74.2505 97.364C75.4113 98.1997 76.7892 98.8626 78.3058 99.3149C79.8224 99.7672 81.4478 100 83.0894 100C84.7309 100 86.3563 99.7672 87.8729 99.3149C89.3895 98.8626 90.7675 98.1997 91.9282 97.364C93.0889 96.5282 94.0097 95.5361 94.6378 94.4442C94.7411 94.2647 94.8361 94.0832 94.9227 93.8998C95.6308 92.4019 94.2462 91 92.5894 91L83.0894 91H73.5894Z"/>
</mask>
<path d="M73.5894 91C71.9325 91 70.5479 92.4019 71.256 93.8998C71.3427 94.0832 71.4376 94.2647 71.5409 94.4442C72.169 95.5361 73.0898 96.5282 74.2505 97.364C75.4113 98.1997 76.7892 98.8626 78.3058 99.3149C79.8224 99.7672 81.4478 100 83.0894 100C84.7309 100 86.3563 99.7672 87.8729 99.3149C89.3895 98.8626 90.7675 98.1997 91.9282 97.364C93.0889 96.5282 94.0097 95.5361 94.6378 94.4442C94.7411 94.2647 94.8361 94.0832 94.9227 93.8998C95.6308 92.4019 94.2462 91 92.5894 91L83.0894 91H73.5894Z" fill="url(#paint12_linear_18_4)"/>
<path d="M73.5894 91C71.9325 91 70.5479 92.4019 71.256 93.8998C71.3427 94.0832 71.4376 94.2647 71.5409 94.4442C72.169 95.5361 73.0898 96.5282 74.2505 97.364C75.4113 98.1997 76.7892 98.8626 78.3058 99.3149C79.8224 99.7672 81.4478 100 83.0894 100C84.7309 100 86.3563 99.7672 87.8729 99.3149C89.3895 98.8626 90.7675 98.1997 91.9282 97.364C93.0889 96.5282 94.0097 95.5361 94.6378 94.4442C94.7411 94.2647 94.8361 94.0832 94.9227 93.8998C95.6308 92.4019 94.2462 91 92.5894 91L83.0894 91H73.5894Z" stroke="black" stroke-width="2" mask="url(#path-38-inside-24_18_4)"/>
<path d="M73.5894 91C71.9325 91 70.5479 92.4019 71.256 93.8998C71.3427 94.0832 71.4376 94.2647 71.5409 94.4442C72.169 95.5361 73.0898 96.5282 74.2505 97.364C75.4113 98.1997 76.7892 98.8626 78.3058 99.3149C79.8224 99.7672 81.4478 100 83.0894 100C84.7309 100 86.3563 99.7672 87.8729 99.3149C89.3895 98.8626 90.7675 98.1997 91.9282 97.364C93.0889 96.5282 94.0097 95.5361 94.6378 94.4442C94.7411 94.2647 94.8361 94.0832 94.9227 93.8998C95.6308 92.4019 94.2462 91 92.5894 91L83.0894 91H73.5894Z" stroke="black" stroke-opacity="0.2" stroke-width="2" mask="url(#path-38-inside-24_18_4)"/>
<defs>
<radialGradient id="paint0_radial_18_4" cx="0" cy="0" r="1" gradientUnits="userSpaceOnUse" gradientTransform="translate(53.0894 19.56) rotate(90) scale(10 12.5)">
<stop stop-color="#A97854"/>
<stop offset="1" stop-color="#785942"/>
</radialGradient>
<linearGradient id="paint1_linear_18_4" x1="53.0894" y1="9.56" x2="53.0894" y2="2.56" gradientUnits="userSpaceOnUse">
<stop stop-color="#B6845F"/>
<stop offset="1" stop-color="#534031"/>
</linearGradient>
<radialGradient id="paint2_radial_18_4" cx="0" cy="0" r="1" gradientUnits="userSpaceOnUse" gradientTransform="translate(83.0894 19.56) rotate(90) scale(10 12.5)">
<stop stop-color="#A97854"/>
<stop offset="1" stop-color="#785942"/>
</radialGradient>
<linearGradient id="paint3_linear_18_4" x1="83.0894" y1="9.56" x2="83.0894" y2="2.56" gradientUnits="userSpaceOnUse">
<stop stop-color="#B6845F"/>
<stop offset="1" stop-color="#534031"/>
</linearGradient>
<radialGradient id="paint4_radial_18_4" cx="0" cy="0" r="1" gradientUnits="userSpaceOnUse" gradientTransform="translate(23.0894 19.56) rotate(90) scale(10 12.5)">
<stop stop-color="#A97854"/>
<stop offset="1" stop-color="#785942"/>
</radialGradient>
<linearGradient id="paint5_linear_18_4" x1="23.0894" y1="9.56" x2="23.0894" y2="2.56" gradientUnits="userSpaceOnUse">
<stop stop-color="#B6845F"/>
<stop offset="1" stop-color="#534031"/>
</linearGradient>
<radialGradient id="paint6_radial_18_4" cx="0" cy="0" r="1" gradientUnits="userSpaceOnUse" gradientTransform="translate(52.5 50.5) rotate(90) scale(17.5 49.5)">
<stop stop-color="#FAE5B9"/>
<stop offset="1" stop-color="#E6BF9E"/>
</radialGradient>
<radialGradient id="paint7_radial_18_4" cx="0" cy="0" r="1" gradientUnits="userSpaceOnUse" gradientTransform="translate(53.0894 82) rotate(-90) scale(10 12.5)">
<stop stop-color="#A97854"/>
<stop offset="1" stop-color="#785942"/>
</radialGradient>
<linearGradient id="paint8_linear_18_4" x1="53.0894" y1="92" x2="53.0894" y2="99" gradientUnits="userSpaceOnUse">
<stop stop-color="#B6845F"/>
<stop offset="1" stop-color="#534031"/>
</linearGradient>
<radialGradient id="paint9_radial_18_4" cx="0" cy="0" r="1" gradientUnits="userSpaceOnUse" gradientTransform="translate(23.0894 82) rotate(-90) scale(10 12.5)">
<stop stop-color="#A97854"/>
<stop offset="1" stop-color="#785942"/>
</radialGradient>
<linearGradient id="paint10_linear_18_4" x1="23.0894" y1="92" x2="23.0894" y2="99" gradientUnits="userSpaceOnUse">
<stop stop-color="#B6845F"/>
<stop offset="1" stop-color="#534031"/>
</linearGradient>
<radialGradient id="paint11_radial_18_4" cx="0" cy="0" r="1" gradientUnits="userSpaceOnUse" gradientTransform="translate(83.0894 82) rotate(-90) scale(10 12.5)">
<stop stop-color="#A97854"/>
<stop offset="1" stop-color="#785942"/>
</radialGradient>
<linearGradient id="paint12_linear_18_4" x1="83.0894" y1="92" x2="83.0894" y2="99" gradientUnits="userSpaceOnUse">
<stop stop-color="#B6845F"/>
<stop offset="1" stop-color="#534031"/>
</linearGradient>
</defs>
</svg>
