<svg width="114" height="87" viewBox="0 0 114 87" fill="none" xmlns="http://www.w3.org/2000/svg">
<mask id="path-1-inside-1_2_368" fill="white">
<path d="M38.3708 68.0037C39.574 69.8565 39.0474 72.3338 37.1947 73.537L27.1306 80.0726C25.2779 81.2758 22.8006 80.7492 21.5974 78.8965L12.3385 64.6391C11.1354 62.7864 11.6619 60.309 13.5147 59.1059L23.5787 52.5702C25.4315 51.367 27.9088 51.8936 29.112 53.7463L38.3708 68.0037Z"/>
</mask>
<path d="M38.3708 68.0037C39.574 69.8565 39.0474 72.3338 37.1947 73.537L27.1306 80.0726C25.2779 81.2758 22.8006 80.7492 21.5974 78.8965L12.3385 64.6391C11.1354 62.7864 11.6619 60.309 13.5147 59.1059L23.5787 52.5702C25.4315 51.367 27.9088 51.8936 29.112 53.7463L38.3708 68.0037Z" fill="url(#paint0_radial_2_368)"/>
<path d="M39.2095 67.4591C40.7135 69.775 40.0553 72.8716 37.7393 74.3756L27.6753 80.9113C25.591 82.2649 22.804 81.6725 21.4504 79.5882L22.0167 78.6242C22.9191 80.0137 24.9649 80.2867 26.586 79.234L36.6501 72.6983C38.0396 71.7959 38.4345 69.9379 37.5322 68.5484L39.2095 67.4591ZM11.6469 64.4921C10.2933 62.4078 10.8857 59.6208 12.97 58.2672L23.0341 51.7315C25.35 50.2275 28.4466 50.8858 29.9506 53.2017L28.2733 54.291C27.3709 52.9014 25.5129 52.5065 24.1234 53.4089L14.0593 59.9445C12.4382 60.9973 11.8555 62.9772 12.7579 64.3668L11.6469 64.4921ZM23.0341 51.7315C25.35 50.2275 28.4466 50.8858 29.9506 53.2017L39.2095 67.4591C40.7135 69.775 40.0553 72.8716 37.7393 74.3756L36.6501 72.6983C38.0396 71.7959 38.4345 69.9379 37.5322 68.5484L28.2733 54.291C27.3709 52.9014 25.5129 52.5065 24.1234 53.4089L23.0341 51.7315ZM27.6753 80.9113C25.591 82.2649 22.804 81.6725 21.4504 79.5882L11.6469 64.4921C10.2933 62.4078 10.8857 59.6208 12.97 58.2672L14.0593 59.9445C12.4382 60.9973 11.8555 62.9772 12.7579 64.3668L22.0167 78.6242C22.9191 80.0137 24.9649 80.2867 26.586 79.234L27.6753 80.9113Z" fill="black" mask="url(#path-1-inside-1_2_368)"/>
<mask id="path-3-inside-2_2_368" fill="white">
<path d="M12.6326 63.2559C11.7302 61.8663 9.80032 61.4686 8.92972 62.8783C8.82315 63.0509 8.72264 63.2294 8.62838 63.4137C8.05475 64.5352 7.72413 65.8478 7.65541 67.2765C7.58669 68.7051 7.78121 70.2218 8.22787 71.7401C8.67453 73.2583 9.36458 74.7483 10.2586 76.125C11.1527 77.5017 12.2332 78.7381 13.4385 79.7637C14.6438 80.7893 15.9503 81.5839 17.2834 82.1022C18.6164 82.6205 19.95 82.8523 21.2079 82.7845C21.4146 82.7733 21.6186 82.7541 21.8196 82.7269C23.4615 82.505 23.8831 80.5802 22.9807 79.1906L17.8067 71.2233L12.6326 63.2559Z"/>
</mask>
<path d="M12.6326 63.2559C11.7302 61.8663 9.80032 61.4686 8.92972 62.8783C8.82315 63.0509 8.72264 63.2294 8.62838 63.4137C8.05475 64.5352 7.72413 65.8478 7.65541 67.2765C7.58669 68.7051 7.78121 70.2218 8.22787 71.7401C8.67453 73.2583 9.36458 74.7483 10.2586 76.125C11.1527 77.5017 12.2332 78.7381 13.4385 79.7637C14.6438 80.7893 15.9503 81.5839 17.2834 82.1022C18.6164 82.6205 19.95 82.8523 21.2079 82.7845C21.4146 82.7733 21.6186 82.7541 21.8196 82.7269C23.4615 82.505 23.8831 80.5802 22.9807 79.1906L17.8067 71.2233L12.6326 63.2559Z" fill="url(#paint1_linear_2_368)" stroke="black" stroke-width="2" mask="url(#path-3-inside-2_2_368)"/>
<mask id="path-4-inside-3_2_368" fill="white">
<path d="M85.888 53.7463C87.0912 51.8935 89.5685 51.367 91.4213 52.5702L101.485 59.1058C103.338 60.309 103.865 62.7863 102.661 64.6391L93.4026 78.8965C92.1994 80.7492 89.7221 81.2758 87.8693 80.0726L77.8053 73.5369C75.9526 72.3337 75.426 69.8564 76.6292 68.0037L85.888 53.7463Z"/>
</mask>
<path d="M85.888 53.7463C87.0912 51.8935 89.5685 51.367 91.4213 52.5702L101.485 59.1058C103.338 60.309 103.865 62.7863 102.661 64.6391L93.4026 78.8965C92.1994 80.7492 89.7221 81.2758 87.8693 80.0726L77.8053 73.5369C75.9526 72.3337 75.426 69.8564 76.6292 68.0037L85.888 53.7463Z" fill="url(#paint2_radial_2_368)"/>
<path d="M85.0494 53.2016C86.5533 50.8857 89.65 50.2275 91.9659 51.7315L102.03 58.2672C104.114 59.6207 104.707 62.4077 103.353 64.492L102.242 64.3667C103.145 62.9772 102.562 60.9973 100.941 59.9445L90.8766 53.4088C89.4871 52.5064 87.6291 52.9014 86.7267 54.2909L85.0494 53.2016ZM93.5496 79.5881C92.196 81.6725 89.409 82.2648 87.3247 80.9113L77.2607 74.3756C74.9447 72.8716 74.2865 69.775 75.7905 67.459L77.4678 68.5483C76.5655 69.9379 76.9604 71.7959 78.3499 72.6983L88.414 79.2339C90.0351 80.2867 92.0809 80.0137 92.9833 78.6241L93.5496 79.5881ZM77.2607 74.3756C74.9447 72.8716 74.2865 69.775 75.7905 67.459L85.0494 53.2016C86.5533 50.8857 89.65 50.2275 91.9659 51.7315L90.8766 53.4088C89.4871 52.5064 87.6291 52.9014 86.7267 54.2909L77.4678 68.5483C76.5655 69.9379 76.9604 71.7959 78.3499 72.6983L77.2607 74.3756ZM102.03 58.2672C104.114 59.6207 104.707 62.4077 103.353 64.492L93.5496 79.5881C92.196 81.6725 89.409 82.2648 87.3247 80.9113L88.414 79.2339C90.0351 80.2867 92.0809 80.0137 92.9833 78.6241L102.242 64.3667C103.145 62.9772 102.562 60.9973 100.941 59.9445L102.03 58.2672Z" fill="black" mask="url(#path-4-inside-3_2_368)"/>
<mask id="path-6-inside-4_2_368" fill="white">
<path d="M92.0193 79.1906C91.1169 80.5802 91.5385 82.5049 93.1804 82.7269C93.3814 82.7541 93.5854 82.7733 93.7921 82.7844C95.05 82.8523 96.3836 82.6205 97.7166 82.1022C99.0497 81.5839 100.356 80.7892 101.562 79.7637C102.767 78.7381 103.847 77.5017 104.741 76.125C105.635 74.7483 106.325 73.2583 106.772 71.74C107.219 70.2218 107.413 68.7051 107.345 67.2764C107.276 65.8478 106.945 64.5352 106.372 63.4137C106.277 63.2294 106.177 63.0509 106.07 62.8783C105.2 61.4686 103.27 61.8663 102.367 63.2559L97.1934 71.2232L92.0193 79.1906Z"/>
</mask>
<path d="M92.0193 79.1906C91.1169 80.5802 91.5385 82.5049 93.1804 82.7269C93.3814 82.7541 93.5854 82.7733 93.7921 82.7844C95.05 82.8523 96.3836 82.6205 97.7166 82.1022C99.0497 81.5839 100.356 80.7892 101.562 79.7637C102.767 78.7381 103.847 77.5017 104.741 76.125C105.635 74.7483 106.325 73.2583 106.772 71.74C107.219 70.2218 107.413 68.7051 107.345 67.2764C107.276 65.8478 106.945 64.5352 106.372 63.4137C106.277 63.2294 106.177 63.0509 106.07 62.8783C105.2 61.4686 103.27 61.8663 102.367 63.2559L97.1934 71.2232L92.0193 79.1906Z" fill="url(#paint3_linear_2_368)" stroke="black" stroke-width="2" mask="url(#path-6-inside-4_2_368)"/>
<mask id="path-7-inside-5_2_368" fill="white">
<path d="M76.6292 18.9963C75.426 17.1435 75.9526 14.6662 77.8053 13.463L87.8694 6.92738C89.7221 5.72419 92.1994 6.25076 93.4026 8.1035L102.661 22.3609C103.865 24.2136 103.338 26.691 101.485 27.8941L91.4213 34.4298C89.5685 35.633 87.0912 35.1064 85.888 33.2537L76.6292 18.9963Z"/>
</mask>
<path d="M76.6292 18.9963C75.426 17.1435 75.9526 14.6662 77.8053 13.463L87.8694 6.92738C89.7221 5.72419 92.1994 6.25076 93.4026 8.1035L102.661 22.3609C103.865 24.2136 103.338 26.691 101.485 27.8941L91.4213 34.4298C89.5685 35.633 87.0912 35.1064 85.888 33.2537L76.6292 18.9963Z" fill="url(#paint4_radial_2_368)"/>
<path d="M75.7905 19.5409C74.2865 17.225 74.9447 14.1284 77.2607 12.6244L87.3247 6.08871C89.409 4.73513 92.196 5.32752 93.5496 7.41185L92.9833 8.37582C92.0809 6.98627 90.0351 6.71326 88.414 7.76605L78.3499 14.3017C76.9604 15.2041 76.5655 17.0621 77.4678 18.4516L75.7905 19.5409ZM103.353 22.5079C104.707 24.5922 104.114 27.3792 102.03 28.7328L91.9659 35.2685C89.65 36.7725 86.5534 36.1142 85.0494 33.7983L86.7267 32.709C87.6291 34.0986 89.4871 34.4935 90.8766 33.5911L100.941 27.0555C102.562 26.0027 103.145 24.0228 102.242 22.6332L103.353 22.5079ZM91.9659 35.2685C89.65 36.7725 86.5534 36.1142 85.0494 33.7983L75.7905 19.5409C74.2865 17.225 74.9447 14.1284 77.2607 12.6244L78.3499 14.3017C76.9604 15.2041 76.5655 17.0621 77.4678 18.4516L86.7267 32.709C87.6291 34.0986 89.4871 34.4935 90.8766 33.5911L91.9659 35.2685ZM87.3247 6.08871C89.409 4.73513 92.196 5.32752 93.5496 7.41185L103.353 22.5079C104.707 24.5922 104.114 27.3792 102.03 28.7328L100.941 27.0555C102.562 26.0027 103.145 24.0228 102.242 22.6332L92.9833 8.37582C92.0809 6.98627 90.0351 6.71326 88.414 7.76605L87.3247 6.08871Z" fill="black" mask="url(#path-7-inside-5_2_368)"/>
<mask id="path-9-inside-6_2_368" fill="white">
<path d="M102.367 23.7441C103.27 25.1337 105.2 25.5314 106.07 24.1217C106.177 23.9491 106.277 23.7706 106.372 23.5863C106.945 22.4648 107.276 21.1522 107.345 19.7235C107.413 18.2949 107.219 16.7782 106.772 15.2599C106.325 13.7417 105.635 12.2517 104.741 10.875C103.847 9.49829 102.767 8.26186 101.562 7.23629C100.356 6.21072 99.0497 5.4161 97.7166 4.8978C96.3836 4.3795 95.05 4.14767 93.7921 4.21553C93.5854 4.22669 93.3814 4.24589 93.1804 4.27306C91.5385 4.49503 91.1169 6.41981 92.0193 7.80936L97.1934 15.7767L102.367 23.7441Z"/>
</mask>
<path d="M102.367 23.7441C103.27 25.1337 105.2 25.5314 106.07 24.1217C106.177 23.9491 106.277 23.7706 106.372 23.5863C106.945 22.4648 107.276 21.1522 107.345 19.7235C107.413 18.2949 107.219 16.7782 106.772 15.2599C106.325 13.7417 105.635 12.2517 104.741 10.875C103.847 9.49829 102.767 8.26186 101.562 7.23629C100.356 6.21072 99.0497 5.4161 97.7166 4.8978C96.3836 4.3795 95.05 4.14767 93.7921 4.21553C93.5854 4.22669 93.3814 4.24589 93.1804 4.27306C91.5385 4.49503 91.1169 6.41981 92.0193 7.80936L97.1934 15.7767L102.367 23.7441Z" fill="url(#paint5_linear_2_368)" stroke="black" stroke-width="2" mask="url(#path-9-inside-6_2_368)"/>
<mask id="path-10-inside-7_2_368" fill="white">
<path d="M29.112 33.2537C27.9088 35.1065 25.4315 35.633 23.5787 34.4298L13.5147 27.8942C11.6619 26.691 11.1354 24.2137 12.3385 22.3609L21.5974 8.10354C22.8006 6.2508 25.2779 5.72423 27.1306 6.92741L37.1947 13.4631C39.0474 14.6663 39.574 17.1436 38.3708 18.9963L29.112 33.2537Z"/>
</mask>
<path d="M29.112 33.2537C27.9088 35.1065 25.4315 35.633 23.5787 34.4298L13.5147 27.8942C11.6619 26.691 11.1354 24.2137 12.3385 22.3609L21.5974 8.10354C22.8006 6.2508 25.2779 5.72423 27.1306 6.92741L37.1947 13.4631C39.0474 14.6663 39.574 17.1436 38.3708 18.9963L29.112 33.2537Z" fill="url(#paint6_radial_2_368)"/>
<path d="M29.9506 33.7984C28.4466 36.1143 25.35 36.7725 23.0341 35.2685L12.97 28.7328C10.8857 27.3793 10.2933 24.5923 11.6469 22.508L12.7579 22.6333C11.8555 24.0228 12.4382 26.0027 14.0593 27.0555L24.1234 33.5912C25.5129 34.4936 27.3709 34.0986 28.2733 32.7091L29.9506 33.7984ZM21.4504 7.41188C22.804 5.32755 25.5909 4.73516 27.6753 6.08874L37.7393 12.6244C40.0553 14.1284 40.7135 17.225 39.2095 19.541L37.5321 18.4517C38.4345 17.0621 38.0396 15.2041 36.6501 14.3017L26.586 7.76608C24.9649 6.71329 22.9191 6.9863 22.0167 8.37586L21.4504 7.41188ZM37.7393 12.6244C40.0553 14.1284 40.7135 17.225 39.2095 19.541L29.9506 33.7984C28.4466 36.1143 25.35 36.7725 23.0341 35.2685L24.1234 33.5912C25.5129 34.4936 27.3709 34.0986 28.2733 32.7091L37.5321 18.4517C38.4345 17.0621 38.0396 15.2041 36.6501 14.3017L37.7393 12.6244ZM12.97 28.7328C10.8857 27.3793 10.2933 24.5923 11.6469 22.508L21.4504 7.41188C22.804 5.32755 25.5909 4.73516 27.6753 6.08874L26.586 7.76608C24.9649 6.71329 22.9191 6.9863 22.0167 8.37586L12.7579 22.6333C11.8555 24.0228 12.4382 26.0027 14.0593 27.0555L12.97 28.7328Z" fill="black" mask="url(#path-10-inside-7_2_368)"/>
<mask id="path-12-inside-8_2_368" fill="white">
<path d="M22.9807 7.8094C23.8831 6.41984 23.4615 4.49506 21.8195 4.2731C21.6186 4.24593 21.4146 4.22672 21.2079 4.21557C19.95 4.1477 18.6164 4.37953 17.2834 4.89784C15.9503 5.41614 14.6438 6.21076 13.4385 7.23632C12.2332 8.26189 11.1526 9.49832 10.2586 10.875C9.36457 12.2517 8.67453 13.7417 8.22787 15.26C7.78121 16.7782 7.58668 18.2949 7.6554 19.7236C7.72412 21.1522 8.05474 22.4648 8.62838 23.5863C8.72263 23.7706 8.82315 23.9491 8.92971 24.1217C9.80032 25.5314 11.7302 25.1337 12.6326 23.7441L17.8066 15.7768L22.9807 7.8094Z"/>
</mask>
<path d="M22.9807 7.8094C23.8831 6.41984 23.4615 4.49506 21.8195 4.2731C21.6186 4.24593 21.4146 4.22672 21.2079 4.21557C19.95 4.1477 18.6164 4.37953 17.2834 4.89784C15.9503 5.41614 14.6438 6.21076 13.4385 7.23632C12.2332 8.26189 11.1526 9.49832 10.2586 10.875C9.36457 12.2517 8.67453 13.7417 8.22787 15.26C7.78121 16.7782 7.58668 18.2949 7.6554 19.7236C7.72412 21.1522 8.05474 22.4648 8.62838 23.5863C8.72263 23.7706 8.82315 23.9491 8.92971 24.1217C9.80032 25.5314 11.7302 25.1337 12.6326 23.7441L17.8066 15.7768L22.9807 7.8094Z" fill="url(#paint7_linear_2_368)" stroke="black" stroke-width="2" mask="url(#path-12-inside-8_2_368)"/>
<circle cx="57" cy="43" r="25.5" fill="url(#paint8_radial_2_368)" stroke="black"/>
<defs>
<radialGradient id="paint0_radial_2_368" cx="0" cy="0" r="1" gradientUnits="userSpaceOnUse" gradientTransform="translate(25.3547 66.3214) rotate(-33) scale(10 12.5)">
<stop stop-color="#A97854"/>
<stop offset="1" stop-color="#785942"/>
</radialGradient>
<linearGradient id="paint1_linear_2_368" x1="16.968" y1="71.7679" x2="11.0973" y2="75.5804" gradientUnits="userSpaceOnUse">
<stop stop-color="#B6845F"/>
<stop offset="1" stop-color="#534031"/>
</linearGradient>
<radialGradient id="paint2_radial_2_368" cx="0" cy="0" r="1" gradientUnits="userSpaceOnUse" gradientTransform="translate(89.6453 66.3214) rotate(-147) scale(10 12.5)">
<stop stop-color="#A97854"/>
<stop offset="1" stop-color="#785942"/>
</radialGradient>
<linearGradient id="paint3_linear_2_368" x1="98.032" y1="71.7679" x2="103.903" y2="75.5803" gradientUnits="userSpaceOnUse">
<stop stop-color="#B6845F"/>
<stop offset="1" stop-color="#534031"/>
</linearGradient>
<radialGradient id="paint4_radial_2_368" cx="0" cy="0" r="1" gradientUnits="userSpaceOnUse" gradientTransform="translate(89.6453 20.6786) rotate(147) scale(10 12.5)">
<stop stop-color="#A97854"/>
<stop offset="1" stop-color="#785942"/>
</radialGradient>
<linearGradient id="paint5_linear_2_368" x1="98.032" y1="15.2321" x2="103.903" y2="11.4196" gradientUnits="userSpaceOnUse">
<stop stop-color="#B6845F"/>
<stop offset="1" stop-color="#534031"/>
</linearGradient>
<radialGradient id="paint6_radial_2_368" cx="0" cy="0" r="1" gradientUnits="userSpaceOnUse" gradientTransform="translate(25.3547 20.6786) rotate(33) scale(10 12.5)">
<stop stop-color="#A97854"/>
<stop offset="1" stop-color="#785942"/>
</radialGradient>
<linearGradient id="paint7_linear_2_368" x1="16.968" y1="15.2321" x2="11.0973" y2="11.4197" gradientUnits="userSpaceOnUse">
<stop stop-color="#B6845F"/>
<stop offset="1" stop-color="#534031"/>
</linearGradient>
<radialGradient id="paint8_radial_2_368" cx="0" cy="0" r="1" gradientUnits="userSpaceOnUse" gradientTransform="translate(57 43) rotate(90) scale(26)">
<stop stop-color="#FAE5B9"/>
<stop offset="1" stop-color="#E6BF9E"/>
</radialGradient>
</defs>
</svg>
