<svg width="367" height="249" viewBox="0 0 367 249" fill="none" xmlns="http://www.w3.org/2000/svg">
<g clip-path="url(#clip0_83_1496)">
<mask id="path-1-outside-1_83_1496" maskUnits="userSpaceOnUse" x="-1" y="14.2007" width="260" height="177" fill="black">
<rect fill="white" x="-1" y="14.2007" width="260" height="177"/>
<path d="M120.881 130.09L121.124 131.788C117.243 133.486 114.818 134.941 111.665 137.367C105.601 142.218 100.508 147.311 95.1717 152.647C84.4998 162.349 74.0704 172.536 60.7304 179.812C52.2414 184.42 43.7523 188.543 34.0506 189.514C4.70274 192.667 -4.27139 160.408 1.79221 137.852C6.6431 123.057 12.7067 109.232 21.1957 96.3767C22.8936 93.2236 23.8637 92.7385 20.9532 91.0407C15.3747 87.8876 10.7663 84.2495 8.09836 79.156C6.40055 76.003 5.18783 69.9394 8.09836 76.9732C10.7663 83.5218 16.83 87.4025 22.8936 90.7982C24.8339 91.7683 25.8041 90.0705 26.5317 89.1003C47.3905 61.4503 74.798 33.8003 108.027 20.4604C120.881 15.1244 134.221 12.699 147.319 18.7626C163.569 26.2814 148.774 48.1104 140.77 56.1144C129.856 68.2416 117.728 76.003 103.903 82.5517C86.6827 90.5556 58.5475 99.7723 34.2931 96.3767L30.4124 95.649C30.1699 95.8916 29.1997 97.1043 28.7146 98.317C18.0427 115.538 -2.81613 149.736 6.88564 172.536C9.79617 181.995 20.7107 189.271 30.1699 188.786C45.2076 188.301 57.3348 181.51 69.462 173.021C76.7383 167.685 83.7721 161.621 90.5634 155.315C96.627 149.494 101.478 144.4 107.299 139.064C111.665 135.911 116.273 132.758 120.881 130.09ZM49.3309 95.8916C68.2493 94.6789 86.1976 89.3429 102.933 81.5815C116.273 74.7903 128.158 67.7565 138.345 56.3569C146.591 48.1104 162.599 28.2218 146.349 19.2477C131.068 13.6691 117.243 21.188 103.903 27.0091C76.4958 43.5021 52.7265 65.5736 33.5655 90.7982L31.1401 94.1938C32.1102 94.6789 33.808 94.9214 34.7782 94.9214C39.6291 95.649 44.48 95.649 49.3309 95.8916Z"/>
<path d="M123.087 125.967L130.363 113.355C134.729 107.049 138.852 100.5 143.218 94.1938C146.856 89.3429 150.737 84.7346 154.86 80.3688C160.681 74.3052 166.502 68.2416 172.566 62.4205C174.991 59.9951 177.902 57.8122 180.57 55.6293C183.966 52.4762 187.846 50.0508 191.97 47.8679C198.033 44.9573 213.556 39.6214 212.101 51.2635C207.735 65.331 194.638 75.5179 184.936 83.7644C177.659 89.828 169.413 94.9214 161.409 100.257C157.286 102.683 152.92 105.108 148.554 107.534C145.401 109.232 142.248 110.687 139.095 112.385C138.125 112.87 137.155 113.597 136.427 114.567C134.244 117.963 131.819 121.601 129.878 125.482C127.21 130.818 124.542 136.154 122.359 141.49C121.632 142.703 118.721 150.707 122.117 147.553C129.393 141.49 135.457 134.941 143.218 129.605C147.099 126.937 152.192 129.363 150.737 133.971C149.282 138.579 146.371 142.218 144.431 145.856C157.286 143.188 167.473 137.609 176.447 130.818C176.932 130.333 177.417 131.303 176.932 131.303C167.23 139.064 156.073 143.915 144.916 146.826C143.218 147.068 142.248 148.039 141.278 149.251C134.972 156.77 128.666 162.349 121.389 165.259C117.508 166.229 116.781 161.378 117.994 159.438C121.147 153.86 127.695 150.707 132.789 148.766C134.001 148.524 135.214 147.311 136.184 146.341C138.852 142.703 141.52 139.064 144.188 135.426C146.129 132.516 150.252 125.725 142.733 131.303C134.244 136.639 127.938 145.371 120.662 150.707C115.811 153.375 115.083 149.009 116.053 145.371C117.751 138.822 119.934 132.273 123.087 125.967ZM139.823 109.959C154.375 104.138 168.685 93.9512 181.055 84.9771C190.757 77.9433 208.22 62.663 210.645 51.0209C211.616 42.2893 198.518 48.3529 195.123 50.0508C192.94 51.2635 190.757 53.2038 188.574 54.9016C183.48 58.7823 178.63 63.1481 174.264 67.999C170.383 72.3648 166.26 76.4881 162.379 80.8539C158.741 84.9771 155.103 88.8578 151.707 92.9811C148.312 97.1043 145.159 101.713 142.005 106.078C141.278 107.049 140.55 108.261 139.823 109.959ZM134.487 149.251C130.121 150.464 125.512 153.132 122.117 156.043C120.419 157.498 118.236 160.166 118.479 162.106C118.964 164.532 122.844 160.651 123.572 160.166C125.755 158.225 127.938 156.285 129.878 154.345C131.576 152.889 134.001 150.221 134.487 149.251Z"/>
<path d="M214.877 131.546C221.425 128.392 216.817 132.273 213.664 133.001C208.813 134.941 203.962 135.669 199.111 136.154C196.928 136.396 194.988 136.639 192.563 136.154C189.41 141.005 185.286 145.856 180.678 149.009C177.767 150.949 172.917 150.464 171.461 147.311C170.006 142.218 173.887 135.184 176.797 131.788L179.465 128.15C173.402 119.418 176.797 106.564 188.439 105.108C201.294 103.653 200.567 124.754 193.048 135.184C193.533 135.184 194.018 135.426 194.746 135.426C201.537 135.426 208.328 134.214 214.877 131.546ZM182.376 108.261C177.525 112.142 175.099 120.874 180.435 127.18C183.346 124.512 186.014 121.844 189.167 120.389C192.078 119.176 192.078 122.814 190.622 124.269C188.924 125.967 187.469 127.665 185.771 129.605L184.559 131.06C185.286 131.546 186.742 133.001 188.197 133.728C189.652 134.456 191.35 134.941 192.078 134.941C199.354 127.18 201.779 97.1043 182.376 108.261ZM191.35 135.911C190.622 135.911 188.924 135.184 187.469 134.456C186.014 133.728 184.559 132.516 183.831 132.031C183.589 132.273 182.618 133.486 181.406 135.426C178.98 139.307 176.555 142.46 175.827 145.856C175.585 148.524 177.04 150.221 180.678 147.796C184.316 145.613 187.227 141.732 189.652 138.337L191.35 135.911Z"/>
<path d="M244.093 101.937C243.608 102.179 243.123 103.877 241.91 103.877C241.425 103.877 239.242 103.634 240.698 101.937C242.638 99.5111 245.306 99.5111 244.093 101.937ZM250.729 104.612C250.244 104.854 249.759 106.552 248.546 106.552C248.061 106.552 245.878 106.31 247.333 104.612C249.274 102.186 251.942 102.186 250.729 104.612ZM243.021 108.989C250.54 109.717 243.264 119.176 234.532 119.661C224.345 120.874 212.946 150.221 221.435 150.221C224.588 150.464 226.286 148.524 228.954 146.583C237.2 140.035 246.902 136.154 256.846 130.818C258.059 130.09 259.272 130.575 257.574 131.546C247.145 137.124 235.745 141.975 227.256 149.009C225.316 150.707 222.89 151.192 220.465 150.949C212.703 149.494 213.188 137.609 215.614 132.758C220.465 122.814 229.924 106.806 243.021 108.989ZM242.536 110.929C239.383 111.657 236.958 114.325 234.775 116.75L233.32 118.206C231.622 119.903 239.383 118.206 242.294 115.538C244.234 114.325 247.872 109.959 242.536 110.929Z"/>
</mask>
<path d="M120.881 130.09L121.124 131.788C117.243 133.486 114.818 134.941 111.665 137.367C105.601 142.218 100.508 147.311 95.1717 152.647C84.4998 162.349 74.0704 172.536 60.7304 179.812C52.2414 184.42 43.7523 188.543 34.0506 189.514C4.70274 192.667 -4.27139 160.408 1.79221 137.852C6.6431 123.057 12.7067 109.232 21.1957 96.3767C22.8936 93.2236 23.8637 92.7385 20.9532 91.0407C15.3747 87.8876 10.7663 84.2495 8.09836 79.156C6.40055 76.003 5.18783 69.9394 8.09836 76.9732C10.7663 83.5218 16.83 87.4025 22.8936 90.7982C24.8339 91.7683 25.8041 90.0705 26.5317 89.1003C47.3905 61.4503 74.798 33.8003 108.027 20.4604C120.881 15.1244 134.221 12.699 147.319 18.7626C163.569 26.2814 148.774 48.1104 140.77 56.1144C129.856 68.2416 117.728 76.003 103.903 82.5517C86.6827 90.5556 58.5475 99.7723 34.2931 96.3767L30.4124 95.649C30.1699 95.8916 29.1997 97.1043 28.7146 98.317C18.0427 115.538 -2.81613 149.736 6.88564 172.536C9.79617 181.995 20.7107 189.271 30.1699 188.786C45.2076 188.301 57.3348 181.51 69.462 173.021C76.7383 167.685 83.7721 161.621 90.5634 155.315C96.627 149.494 101.478 144.4 107.299 139.064C111.665 135.911 116.273 132.758 120.881 130.09ZM49.3309 95.8916C68.2493 94.6789 86.1976 89.3429 102.933 81.5815C116.273 74.7903 128.158 67.7565 138.345 56.3569C146.591 48.1104 162.599 28.2218 146.349 19.2477C131.068 13.6691 117.243 21.188 103.903 27.0091C76.4958 43.5021 52.7265 65.5736 33.5655 90.7982L31.1401 94.1938C32.1102 94.6789 33.808 94.9214 34.7782 94.9214C39.6291 95.649 44.48 95.649 49.3309 95.8916Z" fill="white"/>
<path d="M123.087 125.967L130.363 113.355C134.729 107.049 138.852 100.5 143.218 94.1938C146.856 89.3429 150.737 84.7346 154.86 80.3688C160.681 74.3052 166.502 68.2416 172.566 62.4205C174.991 59.9951 177.902 57.8122 180.57 55.6293C183.966 52.4762 187.846 50.0508 191.97 47.8679C198.033 44.9573 213.556 39.6214 212.101 51.2635C207.735 65.331 194.638 75.5179 184.936 83.7644C177.659 89.828 169.413 94.9214 161.409 100.257C157.286 102.683 152.92 105.108 148.554 107.534C145.401 109.232 142.248 110.687 139.095 112.385C138.125 112.87 137.155 113.597 136.427 114.567C134.244 117.963 131.819 121.601 129.878 125.482C127.21 130.818 124.542 136.154 122.359 141.49C121.632 142.703 118.721 150.707 122.117 147.553C129.393 141.49 135.457 134.941 143.218 129.605C147.099 126.937 152.192 129.363 150.737 133.971C149.282 138.579 146.371 142.218 144.431 145.856C157.286 143.188 167.473 137.609 176.447 130.818C176.932 130.333 177.417 131.303 176.932 131.303C167.23 139.064 156.073 143.915 144.916 146.826C143.218 147.068 142.248 148.039 141.278 149.251C134.972 156.77 128.666 162.349 121.389 165.259C117.508 166.229 116.781 161.378 117.994 159.438C121.147 153.86 127.695 150.707 132.789 148.766C134.001 148.524 135.214 147.311 136.184 146.341C138.852 142.703 141.52 139.064 144.188 135.426C146.129 132.516 150.252 125.725 142.733 131.303C134.244 136.639 127.938 145.371 120.662 150.707C115.811 153.375 115.083 149.009 116.053 145.371C117.751 138.822 119.934 132.273 123.087 125.967ZM139.823 109.959C154.375 104.138 168.685 93.9512 181.055 84.9771C190.757 77.9433 208.22 62.663 210.645 51.0209C211.616 42.2893 198.518 48.3529 195.123 50.0508C192.94 51.2635 190.757 53.2038 188.574 54.9016C183.48 58.7823 178.63 63.1481 174.264 67.999C170.383 72.3648 166.26 76.4881 162.379 80.8539C158.741 84.9771 155.103 88.8578 151.707 92.9811C148.312 97.1043 145.159 101.713 142.005 106.078C141.278 107.049 140.55 108.261 139.823 109.959ZM134.487 149.251C130.121 150.464 125.512 153.132 122.117 156.043C120.419 157.498 118.236 160.166 118.479 162.106C118.964 164.532 122.844 160.651 123.572 160.166C125.755 158.225 127.938 156.285 129.878 154.345C131.576 152.889 134.001 150.221 134.487 149.251Z" fill="white"/>
<path d="M214.877 131.546C221.425 128.392 216.817 132.273 213.664 133.001C208.813 134.941 203.962 135.669 199.111 136.154C196.928 136.396 194.988 136.639 192.563 136.154C189.41 141.005 185.286 145.856 180.678 149.009C177.767 150.949 172.917 150.464 171.461 147.311C170.006 142.218 173.887 135.184 176.797 131.788L179.465 128.15C173.402 119.418 176.797 106.564 188.439 105.108C201.294 103.653 200.567 124.754 193.048 135.184C193.533 135.184 194.018 135.426 194.746 135.426C201.537 135.426 208.328 134.214 214.877 131.546ZM182.376 108.261C177.525 112.142 175.099 120.874 180.435 127.18C183.346 124.512 186.014 121.844 189.167 120.389C192.078 119.176 192.078 122.814 190.622 124.269C188.924 125.967 187.469 127.665 185.771 129.605L184.559 131.06C185.286 131.546 186.742 133.001 188.197 133.728C189.652 134.456 191.35 134.941 192.078 134.941C199.354 127.18 201.779 97.1043 182.376 108.261ZM191.35 135.911C190.622 135.911 188.924 135.184 187.469 134.456C186.014 133.728 184.559 132.516 183.831 132.031C183.589 132.273 182.618 133.486 181.406 135.426C178.98 139.307 176.555 142.46 175.827 145.856C175.585 148.524 177.04 150.221 180.678 147.796C184.316 145.613 187.227 141.732 189.652 138.337L191.35 135.911Z" fill="white"/>
<path d="M244.093 101.937C243.608 102.179 243.123 103.877 241.91 103.877C241.425 103.877 239.242 103.634 240.698 101.937C242.638 99.5111 245.306 99.5111 244.093 101.937ZM250.729 104.612C250.244 104.854 249.759 106.552 248.546 106.552C248.061 106.552 245.878 106.31 247.333 104.612C249.274 102.186 251.942 102.186 250.729 104.612ZM243.021 108.989C250.54 109.717 243.264 119.176 234.532 119.661C224.345 120.874 212.946 150.221 221.435 150.221C224.588 150.464 226.286 148.524 228.954 146.583C237.2 140.035 246.902 136.154 256.846 130.818C258.059 130.09 259.272 130.575 257.574 131.546C247.145 137.124 235.745 141.975 227.256 149.009C225.316 150.707 222.89 151.192 220.465 150.949C212.703 149.494 213.188 137.609 215.614 132.758C220.465 122.814 229.924 106.806 243.021 108.989ZM242.536 110.929C239.383 111.657 236.958 114.325 234.775 116.75L233.32 118.206C231.622 119.903 239.383 118.206 242.294 115.538C244.234 114.325 247.872 109.959 242.536 110.929Z" fill="white"/>
<path d="M120.881 130.09L121.124 131.788C117.243 133.486 114.818 134.941 111.665 137.367C105.601 142.218 100.508 147.311 95.1717 152.647C84.4998 162.349 74.0704 172.536 60.7304 179.812C52.2414 184.42 43.7523 188.543 34.0506 189.514C4.70274 192.667 -4.27139 160.408 1.79221 137.852C6.6431 123.057 12.7067 109.232 21.1957 96.3767C22.8936 93.2236 23.8637 92.7385 20.9532 91.0407C15.3747 87.8876 10.7663 84.2495 8.09836 79.156C6.40055 76.003 5.18783 69.9394 8.09836 76.9732C10.7663 83.5218 16.83 87.4025 22.8936 90.7982C24.8339 91.7683 25.8041 90.0705 26.5317 89.1003C47.3905 61.4503 74.798 33.8003 108.027 20.4604C120.881 15.1244 134.221 12.699 147.319 18.7626C163.569 26.2814 148.774 48.1104 140.77 56.1144C129.856 68.2416 117.728 76.003 103.903 82.5517C86.6827 90.5556 58.5475 99.7723 34.2931 96.3767L30.4124 95.649C30.1699 95.8916 29.1997 97.1043 28.7146 98.317C18.0427 115.538 -2.81613 149.736 6.88564 172.536C9.79617 181.995 20.7107 189.271 30.1699 188.786C45.2076 188.301 57.3348 181.51 69.462 173.021C76.7383 167.685 83.7721 161.621 90.5634 155.315C96.627 149.494 101.478 144.4 107.299 139.064C111.665 135.911 116.273 132.758 120.881 130.09ZM49.3309 95.8916C68.2493 94.6789 86.1976 89.3429 102.933 81.5815C116.273 74.7903 128.158 67.7565 138.345 56.3569C146.591 48.1104 162.599 28.2218 146.349 19.2477C131.068 13.6691 117.243 21.188 103.903 27.0091C76.4958 43.5021 52.7265 65.5736 33.5655 90.7982L31.1401 94.1938C32.1102 94.6789 33.808 94.9214 34.7782 94.9214C39.6291 95.649 44.48 95.649 49.3309 95.8916Z" stroke="white" stroke-width="1.1758" mask="url(#path-1-outside-1_83_1496)"/>
<path d="M123.087 125.967L130.363 113.355C134.729 107.049 138.852 100.5 143.218 94.1938C146.856 89.3429 150.737 84.7346 154.86 80.3688C160.681 74.3052 166.502 68.2416 172.566 62.4205C174.991 59.9951 177.902 57.8122 180.57 55.6293C183.966 52.4762 187.846 50.0508 191.97 47.8679C198.033 44.9573 213.556 39.6214 212.101 51.2635C207.735 65.331 194.638 75.5179 184.936 83.7644C177.659 89.828 169.413 94.9214 161.409 100.257C157.286 102.683 152.92 105.108 148.554 107.534C145.401 109.232 142.248 110.687 139.095 112.385C138.125 112.87 137.155 113.597 136.427 114.567C134.244 117.963 131.819 121.601 129.878 125.482C127.21 130.818 124.542 136.154 122.359 141.49C121.632 142.703 118.721 150.707 122.117 147.553C129.393 141.49 135.457 134.941 143.218 129.605C147.099 126.937 152.192 129.363 150.737 133.971C149.282 138.579 146.371 142.218 144.431 145.856C157.286 143.188 167.473 137.609 176.447 130.818C176.932 130.333 177.417 131.303 176.932 131.303C167.23 139.064 156.073 143.915 144.916 146.826C143.218 147.068 142.248 148.039 141.278 149.251C134.972 156.77 128.666 162.349 121.389 165.259C117.508 166.229 116.781 161.378 117.994 159.438C121.147 153.86 127.695 150.707 132.789 148.766C134.001 148.524 135.214 147.311 136.184 146.341C138.852 142.703 141.52 139.064 144.188 135.426C146.129 132.516 150.252 125.725 142.733 131.303C134.244 136.639 127.938 145.371 120.662 150.707C115.811 153.375 115.083 149.009 116.053 145.371C117.751 138.822 119.934 132.273 123.087 125.967ZM139.823 109.959C154.375 104.138 168.685 93.9512 181.055 84.9771C190.757 77.9433 208.22 62.663 210.645 51.0209C211.616 42.2893 198.518 48.3529 195.123 50.0508C192.94 51.2635 190.757 53.2038 188.574 54.9016C183.48 58.7823 178.63 63.1481 174.264 67.999C170.383 72.3648 166.26 76.4881 162.379 80.8539C158.741 84.9771 155.103 88.8578 151.707 92.9811C148.312 97.1043 145.159 101.713 142.005 106.078C141.278 107.049 140.55 108.261 139.823 109.959ZM134.487 149.251C130.121 150.464 125.512 153.132 122.117 156.043C120.419 157.498 118.236 160.166 118.479 162.106C118.964 164.532 122.844 160.651 123.572 160.166C125.755 158.225 127.938 156.285 129.878 154.345C131.576 152.889 134.001 150.221 134.487 149.251Z" stroke="white" stroke-width="1.1758" mask="url(#path-1-outside-1_83_1496)"/>
<path d="M214.877 131.546C221.425 128.392 216.817 132.273 213.664 133.001C208.813 134.941 203.962 135.669 199.111 136.154C196.928 136.396 194.988 136.639 192.563 136.154C189.41 141.005 185.286 145.856 180.678 149.009C177.767 150.949 172.917 150.464 171.461 147.311C170.006 142.218 173.887 135.184 176.797 131.788L179.465 128.15C173.402 119.418 176.797 106.564 188.439 105.108C201.294 103.653 200.567 124.754 193.048 135.184C193.533 135.184 194.018 135.426 194.746 135.426C201.537 135.426 208.328 134.214 214.877 131.546ZM182.376 108.261C177.525 112.142 175.099 120.874 180.435 127.18C183.346 124.512 186.014 121.844 189.167 120.389C192.078 119.176 192.078 122.814 190.622 124.269C188.924 125.967 187.469 127.665 185.771 129.605L184.559 131.06C185.286 131.546 186.742 133.001 188.197 133.728C189.652 134.456 191.35 134.941 192.078 134.941C199.354 127.18 201.779 97.1043 182.376 108.261ZM191.35 135.911C190.622 135.911 188.924 135.184 187.469 134.456C186.014 133.728 184.559 132.516 183.831 132.031C183.589 132.273 182.618 133.486 181.406 135.426C178.98 139.307 176.555 142.46 175.827 145.856C175.585 148.524 177.04 150.221 180.678 147.796C184.316 145.613 187.227 141.732 189.652 138.337L191.35 135.911Z" stroke="white" stroke-width="1.1758" mask="url(#path-1-outside-1_83_1496)"/>
<path d="M244.093 101.937C243.608 102.179 243.123 103.877 241.91 103.877C241.425 103.877 239.242 103.634 240.698 101.937C242.638 99.5111 245.306 99.5111 244.093 101.937ZM250.729 104.612C250.244 104.854 249.759 106.552 248.546 106.552C248.061 106.552 245.878 106.31 247.333 104.612C249.274 102.186 251.942 102.186 250.729 104.612ZM243.021 108.989C250.54 109.717 243.264 119.176 234.532 119.661C224.345 120.874 212.946 150.221 221.435 150.221C224.588 150.464 226.286 148.524 228.954 146.583C237.2 140.035 246.902 136.154 256.846 130.818C258.059 130.09 259.272 130.575 257.574 131.546C247.145 137.124 235.745 141.975 227.256 149.009C225.316 150.707 222.89 151.192 220.465 150.949C212.703 149.494 213.188 137.609 215.614 132.758C220.465 122.814 229.924 106.806 243.021 108.989ZM242.536 110.929C239.383 111.657 236.958 114.325 234.775 116.75L233.32 118.206C231.622 119.903 239.383 118.206 242.294 115.538C244.234 114.325 247.872 109.959 242.536 110.929Z" stroke="white" stroke-width="1.1758" mask="url(#path-1-outside-1_83_1496)"/>
<path d="M155.675 175.633L157.243 175.868L156.38 202.053C156.328 204.823 156.694 206.783 157.478 207.933C158.262 209.083 159.595 209.658 161.476 209.658C161.633 209.658 161.711 209.815 161.711 210.128C161.711 210.442 161.633 210.599 161.476 210.599C160.379 210.599 159.542 210.572 158.967 210.52L155.518 210.442L152.225 210.52C151.546 210.572 150.605 210.599 149.403 210.599C149.298 210.599 149.246 210.442 149.246 210.128C149.246 209.815 149.298 209.658 149.403 209.658C151.337 209.658 152.696 209.083 153.48 207.933C154.264 206.783 154.708 204.823 154.812 202.053L155.675 175.633ZM198.402 209.658C198.507 209.658 198.559 209.815 198.559 210.128C198.559 210.442 198.507 210.599 198.402 210.599C196.939 210.599 195.789 210.572 194.952 210.52L190.327 210.442L184.996 210.52C184.107 210.572 182.879 210.599 181.311 210.599C181.207 210.599 181.154 210.442 181.154 210.128C181.154 209.815 181.207 209.658 181.311 209.658C183.245 209.658 184.682 209.527 185.623 209.266C186.564 209.005 187.191 208.508 187.505 207.776C187.818 206.992 187.949 205.816 187.897 204.248L186.799 175.476L188.132 174.849L173.393 210.05C173.288 210.259 173.105 210.363 172.844 210.363C172.53 210.363 172.321 210.259 172.217 210.05L157.243 180.415C155.413 176.704 153.009 174.849 150.03 174.849C149.873 174.849 149.795 174.692 149.795 174.378C149.795 174.065 149.873 173.908 150.03 173.908L154.342 173.986L158.105 173.908C158.785 173.908 159.333 174.143 159.751 174.614C160.17 175.084 160.823 176.208 161.711 177.985L174.961 204.327L172.766 207.855L186.172 175.868C186.381 175.293 186.694 174.823 187.113 174.457C187.583 174.091 188.053 173.908 188.524 173.908L192.679 173.986L197.932 173.908C198.036 173.908 198.088 174.065 198.088 174.378C198.088 174.692 198.036 174.849 197.932 174.849C195.58 174.849 193.933 175.215 192.992 175.946C192.052 176.626 191.634 178.011 191.738 180.102L192.679 204.248C192.783 205.869 192.966 207.045 193.228 207.776C193.489 208.508 193.986 209.005 194.717 209.266C195.501 209.527 196.729 209.658 198.402 209.658ZM203.457 210.599C203.352 210.599 203.3 210.442 203.3 210.128C203.3 209.815 203.352 209.658 203.457 209.658C205.182 209.658 206.436 209.527 207.22 209.266C208.004 209.005 208.527 208.508 208.788 207.776C209.102 206.992 209.258 205.816 209.258 204.248V180.258C209.258 178.69 209.102 177.541 208.788 176.809C208.527 176.077 208.004 175.581 207.22 175.319C206.436 175.006 205.182 174.849 203.457 174.849C203.352 174.849 203.3 174.692 203.3 174.378C203.3 174.065 203.352 173.908 203.457 173.908H230.74C231.262 173.908 231.524 174.117 231.524 174.535L231.602 179.396C231.654 180.389 231.68 181.643 231.68 183.159C231.68 183.316 231.524 183.394 231.21 183.394C230.896 183.394 230.74 183.316 230.74 183.159C230.53 180.755 229.642 178.795 228.074 177.279C226.558 175.711 224.677 174.927 222.429 174.927H220.234C218.405 174.927 217.072 175.084 216.236 175.398C215.4 175.659 214.825 176.156 214.511 176.887C214.197 177.619 214.041 178.769 214.041 180.337V203.935C214.041 205.45 214.197 206.6 214.511 207.384C214.825 208.116 215.4 208.639 216.236 208.952C217.124 209.214 218.457 209.344 220.234 209.344H223.997C226.14 209.344 228.022 208.508 229.642 206.836C231.314 205.111 232.438 202.889 233.013 200.172C233.013 200.015 233.144 199.936 233.405 199.936C233.719 199.936 233.875 200.015 233.875 200.172C233.51 203.935 233.327 207.018 233.327 209.423C233.327 209.841 233.248 210.154 233.092 210.363C232.935 210.52 232.621 210.599 232.151 210.599H203.457ZM227.604 193.743C227.395 193.743 226.245 193.586 224.154 193.273C222.116 192.907 218.091 192.724 212.081 192.724V191.077C218.039 191.077 222.037 190.947 224.076 190.685C226.166 190.424 227.342 190.293 227.604 190.293C227.865 190.293 227.996 190.842 227.996 191.94C227.996 193.142 227.865 193.743 227.604 193.743ZM261.461 172.967C263.447 172.967 265.564 173.176 267.812 173.595C270.111 173.96 271.967 174.509 273.378 175.241C273.744 175.398 273.979 175.554 274.084 175.711C274.188 175.868 274.266 176.156 274.319 176.574L275.103 184.649C275.103 184.806 274.946 184.91 274.632 184.962C274.371 185.015 274.214 184.936 274.162 184.727C273.221 181.121 271.496 178.455 268.988 176.73C266.531 175.006 263.474 174.143 259.815 174.143C257.097 174.143 254.641 174.875 252.446 176.338C250.25 177.802 248.526 179.814 247.271 182.375C246.069 184.884 245.468 187.732 245.468 190.921C245.468 194.161 246.095 197.297 247.35 200.328C248.604 203.308 250.459 205.738 252.916 207.619C255.425 209.501 258.43 210.442 261.932 210.442C265.12 210.442 267.812 209.553 270.007 207.776C272.254 205.999 273.874 203.281 274.868 199.623C274.868 199.466 274.998 199.388 275.26 199.388C275.364 199.388 275.469 199.44 275.573 199.544C275.73 199.597 275.808 199.649 275.808 199.701L274.789 208.011C274.737 208.43 274.658 208.717 274.554 208.874C274.449 209.031 274.162 209.214 273.692 209.423C269.667 210.834 265.486 211.539 261.148 211.539C256.183 211.539 252.106 210.546 248.918 208.56C245.729 206.574 243.43 204.092 242.019 201.112C240.607 198.133 239.902 195.128 239.902 192.097C239.902 188.542 240.843 185.302 242.724 182.375C244.606 179.448 247.193 177.149 250.486 175.476C253.778 173.804 257.437 172.967 261.461 172.967ZM291.024 174.927C289.038 174.927 287.47 175.215 286.32 175.79C285.171 176.312 284.256 177.227 283.577 178.534C282.949 179.84 282.453 181.696 282.087 184.1C282.087 184.204 281.93 184.257 281.617 184.257C281.355 184.257 281.225 184.204 281.225 184.1C281.381 182.898 281.564 180.964 281.773 178.298C281.982 175.633 282.087 173.595 282.087 172.183C282.087 171.922 282.244 171.791 282.557 171.791C282.871 171.791 283.028 171.922 283.028 172.183C283.028 172.863 283.42 173.307 284.204 173.516C284.988 173.673 285.955 173.751 287.104 173.751C291.704 173.856 295.65 173.908 298.943 173.908L305.763 173.83C306.704 173.777 307.932 173.751 309.448 173.751C311.33 173.751 312.715 173.647 313.603 173.438C314.492 173.176 315.067 172.654 315.328 171.87C315.432 171.713 315.615 171.635 315.877 171.635C316.138 171.635 316.269 171.713 316.269 171.87C315.955 177.514 315.798 181.591 315.798 184.1C315.798 184.204 315.642 184.257 315.328 184.257C315.067 184.257 314.936 184.204 314.936 184.1C314.884 181.748 314.596 179.919 314.074 178.612C313.603 177.305 312.793 176.365 311.643 175.79C310.493 175.215 308.899 174.927 306.861 174.927C304.613 174.927 303.098 175.293 302.314 176.025C301.582 176.704 301.216 178.115 301.216 180.258V204.248C301.216 205.869 301.373 207.045 301.687 207.776C302 208.508 302.601 209.005 303.49 209.266C304.431 209.527 305.92 209.658 307.958 209.658C308.115 209.658 308.194 209.815 308.194 210.128C308.194 210.442 308.115 210.599 307.958 210.599C306.338 210.599 305.084 210.572 304.195 210.52L298.707 210.442L293.455 210.52C292.514 210.572 291.207 210.599 289.535 210.599C289.43 210.599 289.378 210.442 289.378 210.128C289.378 209.815 289.43 209.658 289.535 209.658C291.521 209.658 292.984 209.527 293.925 209.266C294.866 209.005 295.493 208.508 295.807 207.776C296.173 206.992 296.355 205.816 296.355 204.248V180.102C296.355 178.586 296.225 177.488 295.964 176.809C295.754 176.077 295.284 175.581 294.552 175.319C293.821 175.058 292.645 174.927 291.024 174.927ZM339.717 211.539C336.059 211.539 332.792 210.677 329.917 208.952C327.095 207.227 324.9 204.902 323.332 201.975C321.764 199.048 320.98 195.886 320.98 192.489C320.98 188.412 322.025 184.91 324.116 181.983C326.259 179.004 328.951 176.757 332.191 175.241C335.484 173.725 338.829 172.967 342.226 172.967C345.885 172.967 349.099 173.882 351.869 175.711C354.691 177.488 356.834 179.814 358.298 182.689C359.813 185.563 360.571 188.569 360.571 191.705C360.571 195.206 359.63 198.499 357.749 201.583C355.867 204.614 353.332 207.045 350.144 208.874C346.956 210.651 343.48 211.539 339.717 211.539ZM341.756 209.893C345.832 209.893 349.073 208.456 351.477 205.581C353.934 202.707 355.162 198.734 355.162 193.665C355.162 190.163 354.535 186.975 353.28 184.1C352.078 181.225 350.301 178.926 347.949 177.201C345.597 175.476 342.801 174.614 339.56 174.614C335.379 174.614 332.139 176.025 329.839 178.847C327.539 181.617 326.389 185.511 326.389 190.529C326.389 194.135 326.991 197.402 328.193 200.328C329.447 203.255 331.224 205.581 333.524 207.306C335.876 209.031 338.62 209.893 341.756 209.893Z" fill="white"/>
</g>
<defs>
<clipPath id="clip0_83_1496">
<rect width="366.611" height="248.8" fill="white"/>
</clipPath>
</defs>
</svg>
